<?xml version="1.0" encoding="UTF-8" standalone="no"?>
<svg
   xmlns:dc="http://purl.org/dc/elements/1.1/"
   xmlns:cc="http://creativecommons.org/ns#"
   xmlns:rdf="http://www.w3.org/1999/02/22-rdf-syntax-ns#"
   xmlns:svg="http://www.w3.org/2000/svg"
   xmlns="http://www.w3.org/2000/svg"
   xmlns:sodipodi="http://sodipodi.sourceforge.net/DTD/sodipodi-0.dtd"
   xmlns:inkscape="http://www.inkscape.org/namespaces/inkscape"
   inkscape:version="1.0 (4035a4fb49, 2020-05-01)"
   sodipodi:docname="bug-symbolic.svg"
   width="64"
   height="64"
   version="1.1"
   id="svg24">
  <sodipodi:namedview
     inkscape:document-rotation="0"
     inkscape:current-layer="svg24"
     inkscape:window-maximized="1"
     inkscape:window-y="40"
     inkscape:window-x="0"
     inkscape:cy="32"
     inkscape:cx="1.6271186"
     inkscape:zoom="3.6875"
     showgrid="false"
     id="namedview949"
     inkscape:window-height="898"
     inkscape:window-width="1920"
     inkscape:pageshadow="2"
     inkscape:pageopacity="0"
     guidetolerance="10"
     gridtolerance="10"
     objecttolerance="10"
     borderopacity="1"
     bordercolor="#666666"
     pagecolor="#ffffff" />
  <metadata
     id="metadata30">
    <rdf:RDF>
      <cc:Work
         rdf:about="">
        <dc:format>image/svg+xml</dc:format>
        <dc:type
           rdf:resource="http://purl.org/dc/dcmitype/StillImage" />
        <dc:title />
      </cc:Work>
    </rdf:RDF>
  </metadata>
  <defs
     id="defs28" />
  <g
     id="g2939"
     transform="matrix(1.3902439,0,0,1.3902439,-1.3658536,-2.0609755)">
    <path
       style="opacity:1;fill:#cccccc"
       d="M 16,5 C 9.352,5 4,10.352 4,17 v 16 c 0,6.648 5.352,12 12,12 h 16 c 6.648,0 12,-5.352 12,-12 V 17 C 44,10.352 38.648,5 32,5 Z m -3.105469,4 c 0.227175,0.8413676 0.433441,1.69034 0.740235,2.507812 0.66232,1.817165 2.31064,3.987667 4.30664,4.673829 1.50518,-1.864595 3.219532,-3.581581 4.896485,-5.273438 -0.988846,1.654221 -1.978275,3.309277 -2.964844,4.964844 -2.031558,3.472475 -3.891832,7.043375 -5.880859,10.541015 -0.573611,0.873581 -1.208509,2.452345 -1.763672,2.923829 0.47331,-2.605009 1.222113,-5.165819 2.318359,-7.582032 0.481466,-1.200952 1.098909,-2.31985 1.796875,-3.386718 -0.656381,-0.48172 -1.286768,-1.340749 -1.667969,-1.822266 C 13.273134,14.31195 12.875851,11.59304 12.894531,9 Z m 22.210938,0 c 0.01868,2.59304 -0.378603,5.31195 -1.78125,7.546875 -0.381201,0.481517 -1.011588,1.340546 -1.667969,1.822266 0.697966,1.066868 1.315409,2.185766 1.796875,3.386718 1.096246,2.416213 1.845049,4.977023 2.318359,7.582032 -0.555163,-0.471484 -1.190061,-2.050247 -1.763672,-2.923829 -1.989027,-3.49764 -3.849301,-7.06854 -5.880859,-10.541015 -0.986569,-1.655567 -1.975998,-3.310623 -2.964844,-4.964844 1.676952,1.691857 3.391305,3.408843 4.896485,5.273438 1.996,-0.686162 3.64432,-2.856664 4.30664,-4.673829 C 34.672028,10.69034 34.878293,9.8413676 35.105469,9 Z m -12.056641,1.757812 v 0.152344 c -0.695481,3.345747 -1.543319,6.673447 -2.30664,10.009766 -0.361469,1.292719 -0.518824,2.672563 -1.015626,3.908203 -1.758665,1.260505 -3.514867,2.525412 -5.291015,3.761719 -0.359947,0.121822 -1.575742,1.393128 -1.414063,0.777344 3.296446,-6.225864 6.663898,-12.418109 10.027344,-18.609376 z m 1.902344,0 c 3.363446,6.191267 6.730898,12.383512 10.027344,18.609376 0.161679,0.615785 -1.054116,-0.655522 -1.414063,-0.777344 -1.776148,-1.236307 -3.53235,-2.501214 -5.291015,-3.761719 -0.496802,-1.23564 -0.654158,-2.615484 -1.015626,-3.908203 -0.763321,-3.336319 -1.611159,-6.664019 -2.30664,-10.009766 z m -3.621094,17.544922 c -0.290512,0.768908 -0.637417,1.525137 -0.716797,2.355469 -0.377105,2.262086 0.832068,4.354327 2.09961,6.121094 -1.461752,-0.641742 -2.830468,-1.510388 -4.078125,-2.503906 -1.029637,-0.806347 -2.100065,-2.120602 -1.53711,-3.498047 0.946176,-1.410455 2.675997,-1.993191 4.232422,-2.47461 z m 5.339844,0 c 1.556425,0.481419 3.286247,1.064155 4.232422,2.47461 0.562956,1.377445 -0.507473,2.6917 -1.53711,3.498047 -1.247657,0.993518 -2.616373,1.862164 -4.078125,2.503906 1.267542,-1.766767 2.476715,-3.859008 2.09961,-6.121094 -0.07938,-0.830332 -0.426285,-1.586561 -0.716797,-2.355469 z M 11,32.177734 c 1.861334,0.158906 3.72265,0.317657 5.583984,0.476563 -0.983027,0.475266 -2.016663,0.866484 -2.9375,1.455078 C 14.023796,36.440058 14.789753,38.700181 15.294922,41 14.310069,39.012716 13.338651,37.018334 12.345703,35.035156 11.951564,34.121926 11.0165,32.899179 11,32.177734 Z m 26,0 c -0.0165,0.721445 -0.951564,1.944192 -1.345703,2.857422 -0.992948,1.983178 -1.964366,3.97756 -2.949219,5.964844 0.505169,-2.299819 1.271126,-4.559942 1.648438,-6.890625 -0.920837,-0.588594 -1.954473,-0.979812 -2.9375,-1.455078 C 33.27735,32.495391 35.138666,32.33664 37,32.177734 Z"
       id="rect2" />
    <path
       style="opacity:0.1;fill:#ffffff"
       d="M 16,4 C 9.352,4 4,9.352 4,16 v 1 C 4,10.352 9.352,5 16,5 h 16 c 6.648,0 12,5.352 12,12 V 16 C 44,9.352 38.648,4 32,4 Z"
       id="path8" />
  </g>
</svg>
