<?xml version="1.0" encoding="UTF-8" standalone="no"?>
<svg
   xmlns:dc="http://purl.org/dc/elements/1.1/"
   xmlns:cc="http://creativecommons.org/ns#"
   xmlns:rdf="http://www.w3.org/1999/02/22-rdf-syntax-ns#"
   xmlns:svg="http://www.w3.org/2000/svg"
   xmlns="http://www.w3.org/2000/svg"
   xmlns:sodipodi="http://sodipodi.sourceforge.net/DTD/sodipodi-0.dtd"
   xmlns:inkscape="http://www.inkscape.org/namespaces/inkscape"
   inkscape:version="1.0 (4035a4fb49, 2020-05-01)"
   sodipodi:docname="cita-symbolic.svg"
   width="64"
   height="64"
   version="1.1"
   id="svg24">
  <sodipodi:namedview
     inkscape:document-rotation="0"
     inkscape:current-layer="svg24"
     inkscape:window-maximized="1"
     inkscape:window-y="40"
     inkscape:window-x="0"
     inkscape:cy="32"
     inkscape:cx="27.254237"
     inkscape:zoom="3.6875"
     showgrid="false"
     id="namedview947"
     inkscape:window-height="898"
     inkscape:window-width="1920"
     inkscape:pageshadow="2"
     inkscape:pageopacity="0"
     guidetolerance="10"
     gridtolerance="10"
     objecttolerance="10"
     borderopacity="1"
     bordercolor="#666666"
     pagecolor="#ffffff" />
  <metadata
     id="metadata30">
    <rdf:RDF>
      <cc:Work
         rdf:about="">
        <dc:format>image/svg+xml</dc:format>
        <dc:type
           rdf:resource="http://purl.org/dc/dcmitype/StillImage" />
        <dc:title />
      </cc:Work>
    </rdf:RDF>
  </metadata>
  <defs
     id="defs28" />
  <path
     style="fill:#cccccc;stroke-width:1.425"
     d="M 32,3.5 A 28.500001,28.500001 0 0 0 3.4999997,32.000001 28.500001,28.500001 0 0 0 32,60.5 28.500001,28.500001 0 0 0 60.5,32.000001 28.500001,28.500001 0 0 0 32,3.5 Z m 0,4.274999 A 24.225001,24.225001 0 0 1 56.225001,32.000001 24.225001,24.225001 0 0 1 32,56.225001 24.225001,24.225001 0 0 1 7.7749993,32.000001 24.225001,24.225001 0 0 1 32,7.774999 Z m -0.05011,2.85 c -2.35028,-0.01297 -4.541923,0.535297 -5.599806,1.132765 0.0014,0.0088 0.0013,0.0078 0.0029,0.0167 0.0899,0.538811 0.299527,1.376509 0.59004,2.36294 0.581025,1.972864 1.487844,4.57552 2.432519,7.147267 1.258999,3.427455 1.875275,4.908785 2.621778,6.782664 0.755166,-1.872463 1.383664,-3.359233 2.652392,-6.788232 0.951163,-2.570713 1.857854,-5.170375 2.432519,-7.138915 0.287333,-0.984271 0.491075,-1.818542 0.573341,-2.349024 -1.121995,-0.597094 -3.357572,-1.153196 -5.705627,-1.166162 z m -10.270022,3.067092 c -1.17071,0.326216 -3.107276,1.488591 -4.759277,3.158935 -1.650736,1.669068 -2.837576,3.64107 -3.209032,4.856689 0.433273,0.31694 1.165977,0.765199 2.065136,1.258008 1.79832,0.985619 4.28119,2.180733 6.771533,3.325929 3.321013,1.527183 4.813062,2.134975 6.671339,2.925146 -0.797263,-1.853081 -1.408781,-3.338602 -2.941846,-6.651857 -1.150514,-2.486484 -2.3501,-4.96566 -3.334277,-6.771533 -0.492089,-0.902936 -0.935019,-1.642833 -1.252443,-2.087402 -0.0056,-0.0079 -0.0057,-0.0064 -0.01103,-0.01397 z m 20.640238,0 c -0.0055,0.0078 -0.0056,0.0063 -0.01103,0.01397 -0.317423,0.444569 -0.760353,1.184466 -1.25244,2.087402 -0.984179,1.805873 -2.183765,4.285049 -3.33428,6.771533 -1.533063,3.313255 -2.144581,4.798776 -2.941844,6.651856 1.858276,-0.790169 3.350323,-1.397962 6.671337,-2.925145 2.490346,-1.145196 4.973214,-2.34031 6.771533,-3.325929 0.899161,-0.492809 1.631864,-0.941068 2.065136,-1.258008 -0.371448,-1.215614 -1.558286,-3.187617 -3.209025,-4.856684 -1.651999,-1.670345 -3.588567,-2.83272 -4.759277,-3.158936 z M 11.757765,26.350098 c -0.597471,1.057812 -1.145741,3.249526 -1.132764,5.599805 0.01298,2.348056 0.569067,4.583633 1.166163,5.705566 0.53048,-0.08227 1.364752,-0.286007 2.349023,-0.57334 1.968539,-0.574666 4.568202,-1.481356 7.138914,-2.432519 3.429,-1.26873 4.915768,-1.897227 6.788233,-2.652393 -1.873879,-0.746503 -3.355209,-1.362777 -6.782665,-2.621777 -2.571745,-0.944675 -5.174403,-1.851494 -7.147265,-2.432519 -0.986433,-0.290515 -1.824129,-0.500137 -2.36294,-0.590041 -0.0091,-0.0015 -0.008,-0.0013 -0.0167,-0.0029 z m 40.484472,0 c -0.0087,0.0014 -0.0078,0.0013 -0.0167,0.0029 -0.53881,0.08991 -1.376507,0.299527 -2.36294,0.59004 -1.972861,0.581025 -4.57552,1.487845 -7.147265,2.432519 -3.427456,1.258999 -4.908786,1.875275 -6.782665,2.621778 1.872465,0.755165 3.359233,1.383663 6.788233,2.652392 2.570712,0.951162 5.170373,1.857853 7.138915,2.432519 0.98427,0.287333 1.818542,0.491075 2.349025,0.573339 0.597095,-1.121999 1.153194,-3.357576 1.166162,-5.705632 0.01298,-2.350279 -0.535294,-4.541993 -1.132764,-5.599805 z M 29.216798,34.78042 c -1.853081,0.797263 -3.338602,1.408781 -6.651856,2.941847 -2.486485,1.150512 -4.965661,2.3501 -6.771533,3.334277 -0.902936,0.492087 -1.642833,0.935018 -2.087403,1.252441 -0.0079,0.0056 -0.0064,0.0057 -0.01397,0.01103 0.326216,1.170707 1.488591,3.107276 3.158936,4.759275 1.669067,1.650738 3.64107,2.837576 4.856689,3.209034 0.31694,-0.433273 0.765198,-1.165977 1.258007,-2.065136 0.985619,-1.79832 2.180732,-4.281188 3.325929,-6.771536 1.527183,-3.321012 2.134975,-4.81306 2.925146,-6.671336 z m 5.566407,0 c 0.790169,1.858276 1.397962,3.350325 2.925146,6.671337 1.145196,2.490347 2.340308,4.973215 3.325927,6.771536 0.492809,0.899158 0.941068,1.631862 1.258007,2.065136 1.215619,-0.371458 3.187623,-1.558296 4.85669,-3.209035 1.670344,-1.651999 2.832718,-3.588567 3.158935,-4.759276 -0.0078,-0.0055 -0.0063,-0.0056 -0.01397,-0.01103 C 49.84937,41.991664 49.109473,41.548734 48.206538,41.056645 46.400661,40.072471 43.921485,38.872886 41.435,37.722371 38.121746,36.189307 36.636225,35.577789 34.783145,34.780526 Z m -2.785988,1.152247 c -0.746501,1.873879 -1.362777,3.35521 -2.621776,6.782664 -0.944675,2.571748 -1.851494,5.174405 -2.432519,7.147266 -0.290516,0.986433 -0.500137,1.824131 -0.590041,2.362939 -0.0015,0.0091 -0.0013,0.0079 -0.0029,0.0167 1.057814,0.597469 3.249526,1.145731 5.599806,1.132763 2.348056,-0.01298 4.5837,-0.569068 5.705567,-1.166162 -0.08227,-0.530481 -0.286008,-1.364754 -0.57334,-2.349024 -0.574666,-1.968541 -1.481357,-4.568204 -2.432521,-7.138915 -1.268728,-3.428998 -1.897225,-4.915769 -2.652391,-6.788233 z"
     id="path4" />
</svg>
