<?xml version="1.0" encoding="UTF-8" standalone="no"?>
<svg
   xmlns:dc="http://purl.org/dc/elements/1.1/"
   xmlns:cc="http://creativecommons.org/ns#"
   xmlns:rdf="http://www.w3.org/1999/02/22-rdf-syntax-ns#"
   xmlns:svg="http://www.w3.org/2000/svg"
   xmlns="http://www.w3.org/2000/svg"
   xmlns:sodipodi="http://sodipodi.sourceforge.net/DTD/sodipodi-0.dtd"
   xmlns:inkscape="http://www.inkscape.org/namespaces/inkscape"
   inkscape:version="1.0 (4035a4fb49, 2020-05-01)"
   sodipodi:docname="cloud-symbolic.svg"
   width="64"
   height="64"
   version="1.1"
   id="svg24">
  <sodipodi:namedview
     inkscape:document-rotation="0"
     inkscape:current-layer="svg24"
     inkscape:window-maximized="1"
     inkscape:window-y="40"
     inkscape:window-x="0"
     inkscape:cy="32"
     inkscape:cx="27.254237"
     inkscape:zoom="3.6875"
     showgrid="false"
     id="namedview949"
     inkscape:window-height="898"
     inkscape:window-width="1920"
     inkscape:pageshadow="2"
     inkscape:pageopacity="0"
     guidetolerance="10"
     gridtolerance="10"
     objecttolerance="10"
     borderopacity="1"
     bordercolor="#666666"
     pagecolor="#ffffff" />
  <metadata
     id="metadata30">
    <rdf:RDF>
      <cc:Work
         rdf:about="">
        <dc:format>image/svg+xml</dc:format>
        <dc:type
           rdf:resource="http://purl.org/dc/dcmitype/StillImage" />
        <dc:title />
      </cc:Work>
    </rdf:RDF>
  </metadata>
  <defs
     id="defs28" />
  <g
     id="g2995"
     transform="matrix(1.425,0,0,1.425,-2.2,-2.2)">
    <path
       style="fill:#cccccc"
       d="M 21.525391,10 C 16.982338,10 13.089478,12.898859 11.480469,16.904297 7.1818003,18.366097 4,22.354306 4,27.103516 4,33.045157 8.9042614,38 14.859375,38 h 18.28125 C 39.096192,38 44,33.044815 44,27.103516 44,21.161875 39.095739,16.208984 33.140625,16.208984 h -0.07617 l -0.07813,0.002 c -0.147615,0.0046 -0.273438,0.07889 -0.419922,0.08984 -0.534904,-0.316943 -1.048399,-0.628852 -1.642578,-0.83789 C 28.263597,12.328779 25.441681,10 21.525391,10 Z m 0,5 c 2.9004,0 5.309003,2.119897 5.777343,4.904297 0.168,-0.01497 0.342098,-0.0193 0.523438,-0.0293 1.4266,0 2.697238,0.671297 3.517578,1.716797 0.5508,-0.22738 1.151405,-0.362853 1.796875,-0.382813 3.2361,0 5.859375,2.638332 5.859375,5.894532 C 39,30.359516 36.377625,33 33.140625,33 H 14.859375 C 11.623275,33 9,30.359716 9,27.103516 c 0,-3.2562 2.623375,-5.894532 5.859375,-5.894532 0.29211,0.03005 0.571271,0.07305 0.837891,0.126954 -0.01626,-0.144041 -0.02675,-0.290724 -0.03125,-0.439454 0,-3.2562 2.623375,-5.896484 5.859375,-5.896484 z"
       id="path4-9" />
    <path
       style="opacity:0.1;fill:#ffffff"
       d="M 21.525391,10 C 16.982338,10 13.089478,12.898859 11.480469,16.904297 7.1818003,18.366097 4,22.354306 4,27.103516 c 0,0.1521 0.017074,0.300431 0.023437,0.451172 0.2351532,-4.504731 3.3257628,-8.245517 7.457032,-9.650391 C 13.089478,13.898859 16.982338,11 21.525391,11 c 3.91629,0 6.738206,2.328779 9.398437,5.462891 0.594179,0.209038 1.107674,0.520947 1.642578,0.83789 0.146484,-0.01095 0.272307,-0.08524 0.419922,-0.08984 l 0.07813,-0.002 h 0.07617 c 5.78618,0 10.566644,4.679048 10.833984,10.394532 C 43.982414,27.436651 44,27.272058 44,27.103516 44,21.161875 39.095739,16.208984 33.140625,16.208984 h -0.07617 l -0.07813,0.002 c -0.147615,0.0046 -0.273438,0.07889 -0.419922,0.08984 -0.534904,-0.316943 -1.048399,-0.628852 -1.642578,-0.83789 C 28.263597,12.328779 25.441681,10 21.525391,10 Z"
       id="path10" />
  </g>
</svg>
