<?xml version="1.0" encoding="UTF-8" standalone="no"?>
<svg
   xmlns:dc="http://purl.org/dc/elements/1.1/"
   xmlns:cc="http://creativecommons.org/ns#"
   xmlns:rdf="http://www.w3.org/1999/02/22-rdf-syntax-ns#"
   xmlns:svg="http://www.w3.org/2000/svg"
   xmlns="http://www.w3.org/2000/svg"
   xmlns:sodipodi="http://sodipodi.sourceforge.net/DTD/sodipodi-0.dtd"
   xmlns:inkscape="http://www.inkscape.org/namespaces/inkscape"
   inkscape:version="1.0 (4035a4fb49, 2020-05-01)"
   sodipodi:docname="dimond-win-symbolic.svg"
   width="64"
   height="64"
   version="1.1"
   id="svg24">
  <sodipodi:namedview
     inkscape:document-rotation="0"
     inkscape:current-layer="svg24"
     inkscape:window-maximized="1"
     inkscape:window-y="40"
     inkscape:window-x="0"
     inkscape:cy="32"
     inkscape:cx="27.254237"
     inkscape:zoom="3.6875"
     showgrid="false"
     id="namedview947"
     inkscape:window-height="898"
     inkscape:window-width="1920"
     inkscape:pageshadow="2"
     inkscape:pageopacity="0"
     guidetolerance="10"
     gridtolerance="10"
     objecttolerance="10"
     borderopacity="1"
     bordercolor="#666666"
     pagecolor="#ffffff" />
  <metadata
     id="metadata30">
    <rdf:RDF>
      <cc:Work
         rdf:about="">
        <dc:format>image/svg+xml</dc:format>
        <dc:type
           rdf:resource="http://purl.org/dc/dcmitype/StillImage" />
        <dc:title />
      </cc:Work>
    </rdf:RDF>
  </metadata>
  <defs
     id="defs28" />
  <path
     style="fill:#cccccc;stroke-width:1.35714"
     d="m 32.000646,3.5000002 c -1.492926,0 -2.987238,0.5566013 -4.103237,1.6725702 L 5.1732362,27.899401 c -2.2319966,2.231937 -2.2294452,5.966574 0.00267,8.198515 L 27.900083,58.824745 c 2.231997,2.231942 5.971823,2.234502 8.20382,0.0027 L 58.825475,36.100551 c 2.231995,-2.231941 2.231996,-5.969226 0,-8.201166 L 36.103879,5.1725704 C 34.987881,4.0566016 33.49357,3.5000002 32.000646,3.5000002 Z m 0,4.071426 c 0.56873,0 1.138754,0.21103 1.563893,0.63616 l 8.654432,8.6597338 c 0.850278,0.850257 0.850278,2.272228 0,3.122488 l -8.654432,8.65973 c -0.850281,0.850076 -2.274858,0.84761 -3.125138,-0.0027 l -8.657082,-8.657105 c -0.850466,-0.85026 -0.852932,-2.272231 -0.0027,-3.12249 l 8.657145,-8.6596678 c 0.425138,-0.425131 0.995164,-0.636158 1.563894,-0.636158 z M 18.429225,21.142846 c 0.568293,-3.15e-4 1.136114,0.211022 1.561243,0.636161 l 8.659733,8.657081 c 0.42513,0.425139 0.636159,0.995167 0.636159,1.563896 0,0.568731 -0.211031,1.138755 -0.636159,1.563895 l -8.659733,8.654432 c -0.85026,0.850278 -2.272229,0.850278 -3.122488,0 L 8.2082457,33.563879 c -0.850141,-0.850282 -0.847607,-2.27486 0.0027,-3.125138 l 8.6570823,-8.657084 c 0.425128,-0.425201 0.992949,-0.638494 1.561243,-0.638811 z m 27.142841,0 c 0.568293,-3.15e-4 1.136116,0.211022 1.561244,0.636161 l 8.659733,8.657081 c 0.42513,0.425139 0.63616,0.995167 0.63616,1.563896 0,0.568731 -0.21103,1.138755 -0.63616,1.563895 l -8.659733,8.654432 c -0.85026,0.850278 -2.272229,0.850278 -3.122488,0 l -8.659733,-8.654432 c -0.850075,-0.850282 -0.847608,-2.27486 0.0027,-3.125138 l 8.657083,-8.657084 c 0.425066,-0.425201 0.992886,-0.638494 1.56118,-0.638811 z m -13.57142,13.571422 c 0.56873,0 1.138754,0.211031 1.563893,0.63616 l 8.654432,8.659734 c 0.850278,0.850259 0.850278,2.272226 0,3.122486 l -8.654432,8.659733 c -0.850281,0.850076 -2.274858,0.84761 -3.125138,-0.0027 l -8.657082,-8.657104 c -0.850466,-0.85026 -0.852932,-2.272231 -0.0027,-3.122487 l 8.657145,-8.659672 c 0.425138,-0.425128 0.995164,-0.636158 1.563894,-0.636158 z"
     id="path4" />
</svg>
