<?xml version="1.0" encoding="UTF-8" standalone="no"?>
<svg
   xmlns:dc="http://purl.org/dc/elements/1.1/"
   xmlns:cc="http://creativecommons.org/ns#"
   xmlns:rdf="http://www.w3.org/1999/02/22-rdf-syntax-ns#"
   xmlns:svg="http://www.w3.org/2000/svg"
   xmlns="http://www.w3.org/2000/svg"
   xmlns:sodipodi="http://sodipodi.sourceforge.net/DTD/sodipodi-0.dtd"
   xmlns:inkscape="http://www.inkscape.org/namespaces/inkscape"
   inkscape:version="1.0 (4035a4fb49, 2020-05-01)"
   sodipodi:docname="dragon-symbolic.svg"
   width="64"
   height="64"
   version="1.1"
   id="svg24">
  <sodipodi:namedview
     inkscape:document-rotation="0"
     inkscape:current-layer="svg24"
     inkscape:window-maximized="1"
     inkscape:window-y="40"
     inkscape:window-x="0"
     inkscape:cy="32"
     inkscape:cx="27.254237"
     inkscape:zoom="3.6875"
     showgrid="false"
     id="namedview947"
     inkscape:window-height="898"
     inkscape:window-width="1920"
     inkscape:pageshadow="2"
     inkscape:pageopacity="0"
     guidetolerance="10"
     gridtolerance="10"
     objecttolerance="10"
     borderopacity="1"
     bordercolor="#666666"
     pagecolor="#ffffff" />
  <metadata
     id="metadata30">
    <rdf:RDF>
      <cc:Work
         rdf:about="">
        <dc:format>image/svg+xml</dc:format>
        <dc:type
           rdf:resource="http://purl.org/dc/dcmitype/StillImage" />
        <dc:title />
      </cc:Work>
    </rdf:RDF>
  </metadata>
  <defs
     id="defs28" />
  <path
     d="M 32,3.5 C 16.211001,3.5 3.4999998,16.211 3.4999998,32 3.4999998,47.788999 16.211001,60.5 32,60.5 47.789,60.5 60.5,47.788999 60.5,32 60.5,16.211 47.789,3.5 32,3.5 Z m 0,8.55 C 43.018099,12.05 51.95,20.9819 51.95,32 51.95,43.018099 43.018099,51.95 32,51.95 20.9819,51.95 12.05,43.018099 12.05,32 12.05,20.9819 20.9819,12.05 32,12.05 Z m -1.99834,3.812988 c -0.584849,0.05945 -1.170295,0.101314 -1.736719,0.21709 -1.137156,0.232589 -2.216923,0.537695 -3.261914,0.979687 -4.994268,2.112093 -8.760571,6.492247 -10.103027,11.839747 0.03443,0.03757 0.07167,0.06893 0.111342,0.11133 0.93697,1.000731 3.389829,2.380596 5.210156,3.039256 0.995482,0.360289 2.925397,0.926997 4.241601,1.196778 1.316279,0.269257 2.189245,0.534963 2.05957,0.545507 -0.129647,0.01051 -0.717308,0.44796 -1.302538,0.974122 -1.116298,1.003618 -1.688474,1.890607 -2.170899,3.479003 -0.264705,0.869699 -0.238775,1.160178 0.105762,1.630959 0.207908,0.283688 1.140439,0.947226 2.065138,1.519628 0.924729,0.572437 2.007883,1.362903 2.393553,1.736718 1.436742,1.392416 2.387988,3.882158 2.387988,6.301173 0,0.618988 0.06613,0.944631 0.111342,1.085449 0.117505,0.01051 0.205004,-0.01051 0.322852,0 0.265961,-0.102575 0.668635,-0.222513 1.302538,-0.539941 5.310997,-2.658626 7.737149,-6.094071 7.497949,-10.648537 -0.190519,-3.63203 -1.893342,-4.948569 -8.800487,-6.4125 -5.086125,-1.078123 -7.820803,-2.905315 -7.820803,-5.210156 0,-0.607793 0.20433,-0.967045 0.868361,-1.630956 0.713694,-0.713771 0.862184,-0.761479 1.413866,-0.651269 0.35132,0.07023 1.25628,0.533105 1.95381,1.085449 1.570178,1.24337 2.3385,1.736719 3.150585,1.736719 0.345933,-2e-6 0.651271,-0.05398 0.651271,-0.105761 0,-0.05182 -0.256254,-0.449558 -0.539942,-0.868359 -1.567715,-2.309915 -1.472085,-6.635522 0.217089,-10.325685 0.26529,-0.579319 0.46211,-0.974185 0.434179,-1.085449 -0.234669,0.01396 -0.530009,-0.02422 -0.762597,0 z m 16.298437,8.149219 c -0.316031,-0.195055 -2.888417,2.50884 -3.479004,3.696093 -1.17109,2.354417 -0.73061,3.891037 2.065137,6.841113 0.96857,1.021974 2.134434,2.398368 2.499317,3.044825 0.364842,0.64656 0.677069,1.177931 0.762597,1.085449 0.08553,-0.09249 0.339331,-0.836741 0.539942,-1.630956 0.527099,-2.086713 0.568231,-5.720217 0,-7.820801 -0.440116,-1.627091 -1.979652,-4.963328 -2.387989,-5.215723 z"
     id="rect2-9"
     style="fill:#cccccc;stroke-width:1.425" />
</svg>
