<?xml version="1.0" encoding="UTF-8" standalone="no"?>
<svg
   xmlns:dc="http://purl.org/dc/elements/1.1/"
   xmlns:cc="http://creativecommons.org/ns#"
   xmlns:rdf="http://www.w3.org/1999/02/22-rdf-syntax-ns#"
   xmlns:svg="http://www.w3.org/2000/svg"
   xmlns="http://www.w3.org/2000/svg"
   xmlns:sodipodi="http://sodipodi.sourceforge.net/DTD/sodipodi-0.dtd"
   xmlns:inkscape="http://www.inkscape.org/namespaces/inkscape"
   inkscape:version="1.0 (4035a4fb49, 2020-05-01)"
   sodipodi:docname="heddy-symbolic.svg"
   width="64"
   height="64"
   version="1.1"
   id="svg24">
  <sodipodi:namedview
     inkscape:document-rotation="0"
     inkscape:current-layer="svg24"
     inkscape:window-maximized="1"
     inkscape:window-y="40"
     inkscape:window-x="0"
     inkscape:cy="32"
     inkscape:cx="-17.084746"
     inkscape:zoom="3.6875"
     showgrid="false"
     id="namedview948"
     inkscape:window-height="898"
     inkscape:window-width="1920"
     inkscape:pageshadow="2"
     inkscape:pageopacity="0"
     guidetolerance="10"
     gridtolerance="10"
     objecttolerance="10"
     borderopacity="1"
     bordercolor="#666666"
     pagecolor="#ffffff" />
  <metadata
     id="metadata30">
    <rdf:RDF>
      <cc:Work
         rdf:about="">
        <dc:format>image/svg+xml</dc:format>
        <dc:type
           rdf:resource="http://purl.org/dc/dcmitype/StillImage" />
        <dc:title />
      </cc:Work>
    </rdf:RDF>
  </metadata>
  <defs
     id="defs28" />
  <path
     style="fill:#cccccc;stroke-width:1.425"
     d="M 32,3.5 C 16.211,3.5 3.4999998,16.211 3.4999998,32.000001 3.4999998,47.789 16.211,60.5 32,60.5 47.788999,60.5 60.5,47.789 60.5,32.000001 60.5,16.211 47.788999,3.5 32,3.5 Z m 0.662402,7.394971 c 5.068016,0.08488 9.67764,2.167405 13.840869,6.234374 0.560054,0.560058 1.294499,1.08386 0.559423,2.028956 -0.140019,0.140021 0.07149,0.280249 0.211525,0.420263 1.715171,2.380237 2.870457,5.039576 3.395506,7.909863 0.07,0.280029 0.279823,0.422194 0.489844,0.562209 1.435144,0.735072 2.1709,1.959085 2.1709,3.604247 0,1.435144 0.137655,2.870472 -0.07237,4.305615 -0.350035,2.100212 -2.447971,3.536052 -4.478174,3.081006 -0.560057,-0.14002 -0.80713,-0.559969 -0.80713,-1.155029 0,-2.380239 0.06999,-4.761458 0,-7.141698 -0.210022,-6.405644 -3.00949,-11.236487 -8.575048,-14.316799 -9.170923,-5.040506 -21.071989,0.665583 -23.067189,11.096632 -0.350034,1.785179 -0.281102,3.675464 -0.281102,5.460644 0,1.715173 4.18e-4,3.394789 -0.06958,5.109962 0,0.560055 -0.348018,0.946288 -1.013086,0.946288 -2.625262,0.14002 -4.341796,-1.506189 -4.341796,-4.166454 0.07001,-0.420044 0.06958,-0.944805 0.06958,-1.644873 0.07001,-0.665068 -0.07044,-1.435399 0.06958,-2.240479 0.210022,-1.29513 0.946201,-2.309426 2.101319,-2.869483 0.280028,-0.140021 0.419837,-0.280145 0.489844,-0.665185 0.49005,-2.800281 1.645758,-5.390892 3.325928,-7.701123 0.21002,-0.280028 0.349619,-0.419308 0.06958,-0.804345 -0.280027,-0.420044 -0.07128,-0.877358 0.20874,-1.227393 2.380245,-2.660267 5.182919,-4.620457 8.508254,-5.705566 2.493999,-0.787582 4.890936,-1.160217 7.19458,-1.121632 z m -10.91294,21.110596 c 0.398718,0.02843 0.82265,0.161714 1.252442,0.409132 1.179824,0.574649 3.335747,2.170566 4.9875,3.671044 1.584335,1.436625 2.765585,2.809397 2.563329,3.799072 -0.202255,0.989676 -0.876666,1.595593 -1.786816,1.914844 -0.707894,0.287331 -3.978088,0.126725 -4.787109,0.158643 -1.449498,-0.127695 -2.627923,-0.66977 -3.470653,-1.914844 -1.179824,-1.755877 -1.584591,-3.734892 -1.180078,-5.841944 0.252816,-1.436621 1.225234,-2.281244 2.421385,-2.195947 z M 41.251368,34.85 c 1.222219,4.69e-4 2.087093,0.818952 2.143065,2.109669 0.06398,1.406497 -0.383337,2.743973 -1.310889,3.807422 -0.735641,0.857619 -1.727895,1.26816 -3.039257,1.199561 -0.99152,-0.06861 -1.919712,-0.274688 -2.91123,-0.411915 -0.35183,-0.06861 -0.672301,-0.136445 -0.896193,-0.239356 -1.759145,-0.583181 -2.366331,-2.127073 -1.246874,-3.25913 0.799611,-0.754707 1.791773,-1.337165 2.91123,-1.817433 1.247396,-0.480267 2.43209,-1.132891 3.807422,-1.338721 0.187909,-0.03429 0.368122,-0.05016 0.542726,-0.05009 z"
     id="rect2-0" />
</svg>
