<?xml version="1.0" encoding="UTF-8" standalone="no"?>
<svg
   xmlns:dc="http://purl.org/dc/elements/1.1/"
   xmlns:cc="http://creativecommons.org/ns#"
   xmlns:rdf="http://www.w3.org/1999/02/22-rdf-syntax-ns#"
   xmlns:svg="http://www.w3.org/2000/svg"
   xmlns="http://www.w3.org/2000/svg"
   xmlns:sodipodi="http://sodipodi.sourceforge.net/DTD/sodipodi-0.dtd"
   xmlns:inkscape="http://www.inkscape.org/namespaces/inkscape"
   inkscape:version="1.0 (4035a4fb49, 2020-05-01)"
   sodipodi:docname="snap-symbolic.svg"
   width="64"
   height="64"
   version="1.1"
   id="svg24">
  <sodipodi:namedview
     inkscape:document-rotation="0"
     inkscape:current-layer="svg24"
     inkscape:window-maximized="1"
     inkscape:window-y="40"
     inkscape:window-x="0"
     inkscape:cy="32"
     inkscape:cx="-17.084746"
     inkscape:zoom="3.6875"
     showgrid="false"
     id="namedview951"
     inkscape:window-height="898"
     inkscape:window-width="1920"
     inkscape:pageshadow="2"
     inkscape:pageopacity="0"
     guidetolerance="10"
     gridtolerance="10"
     objecttolerance="10"
     borderopacity="1"
     bordercolor="#666666"
     pagecolor="#ffffff" />
  <metadata
     id="metadata30">
    <rdf:RDF>
      <cc:Work
         rdf:about="">
        <dc:format>image/svg+xml</dc:format>
        <dc:type
           rdf:resource="http://purl.org/dc/dcmitype/StillImage" />
        <dc:title />
      </cc:Work>
    </rdf:RDF>
  </metadata>
  <defs
     id="defs28" />
  <path
     style="fill:#cccccc;stroke-width:1.42501"
     d="M 32.000002,3.5 C 16.211,3.5 3.5000001,16.210999 3.5000001,32.000002 3.5000001,47.789 16.211,60.5 32.000002,60.5 47.789,60.5 60.5,47.789 60.5,32.000002 60.5,16.210999 47.789,3.5 32.000002,3.5 Z m -8.936866,12.825 h 17.87373 a 6.758084,6.758084 0 0 1 6.738133,6.738136 v 17.873729 a 6.758084,6.758084 0 0 1 -6.738133,6.738134 H 23.063136 A 6.758084,6.758084 0 0 1 16.325001,40.936865 V 23.063136 A 6.758084,6.758084 0 0 1 23.063136,16.325 Z m 8.70586,7.127783 a 8.5500001,8.5500001 0 0 0 -0.125243,0.0055 8.5500001,8.5500001 0 0 0 0.35625,17.091652 8.5500001,8.5500001 0 0 0 8.549999,-8.530518 8.5500001,8.5500001 0 0 0 -8.781005,-8.566701 z m 0.3145,2.847216 a 5.7,5.7 0 0 1 3.946582,1.669923 5.7,5.7 0 0 1 0.72085,0.879491 c -0.206522,-0.310693 -0.446895,-0.605535 -0.72085,-0.879491 0.290932,0.290932 0.539364,0.605958 0.754249,0.93794 a 5.7,5.7 0 0 1 0.487061,0.924023 c 0.0057,0.01396 0.01107,0.02783 0.01671,0.04175 a 5.7,5.7 0 0 1 0,0.0029 5.7,5.7 0 0 1 0.292237,0.979688 c -0.06358,-0.311472 -0.156941,-0.618888 -0.272757,-0.918458 0.22318,0.575735 0.335467,1.18116 0.364602,1.789601 -0.01119,-0.265433 -0.02271,-0.53125 -0.07236,-0.793214 a 5.7,5.7 0 0 1 0.09465,0.996387 5.7,5.7 0 0 1 0,0.02227 c 1.92e-4,0.02337 0.0029,0.04621 0.0029,0.06959 a 5.7,5.7 0 0 1 0,0.01107 5.7,5.7 0 0 1 -0.09184,0.962987 c 0.04447,-0.251481 0.06062,-0.505629 0.07236,-0.759814 -0.01254,0.303253 -0.03665,0.606025 -0.09741,0.904541 a 5.7,5.7 0 0 1 -0.264404,0.893407 c -0.02238,0.05864 -0.0424,0.117326 -0.0668,0.175343 a 5.7,5.7 0 0 1 -0.43983,0.834898 c -0.221069,0.348805 -0.47507,0.681028 -0.779297,0.985253 0.261076,-0.261075 0.487619,-0.543079 0.687452,-0.837744 a 5.7,5.7 0 0 1 -0.687452,0.837744 5.7,5.7 0 0 1 -0.879491,0.720849 c 0.310696,-0.206522 0.605537,-0.446893 0.879491,-0.720849 -0.290932,0.290933 -0.605958,0.539364 -0.937938,0.754249 a 5.7,5.7 0 0 1 -0.924025,0.487062 c -0.01397,0.0057 -0.02782,0.01107 -0.04175,0.0167 -8.29e-4,3.33e-4 -0.002,-3.33e-4 -0.0029,0 a 5.7,5.7 0 0 1 -0.979687,0.292237 c 0.311473,-0.06358 0.618888,-0.15694 0.918459,-0.272756 -0.575734,0.223178 -1.18116,0.335468 -1.789601,0.364602 0.265431,-0.01119 0.531252,-0.02271 0.793214,-0.07236 a 5.7,5.7 0 0 1 -0.996387,0.09465 c -0.0075,8.8e-5 -0.01488,-6.3e-5 -0.02227,0 -0.02337,1.91e-4 -0.04621,0.0029 -0.06958,0.0029 a 5.7,5.7 0 0 1 -0.01108,0 5.7,5.7 0 0 1 -0.962988,-0.09184 c 0.251481,0.04447 0.505628,0.06062 0.759814,0.07236 -0.303252,-0.01254 -0.606023,-0.03665 -0.904539,-0.09741 a 5.7,5.7 0 0 1 -0.893421,-0.26442 c -0.05865,-0.02238 -0.117313,-0.0424 -0.175342,-0.0668 a 5.7,5.7 0 0 1 -0.834899,-0.439885 c -0.348804,-0.221069 -0.681029,-0.47507 -0.985255,-0.779297 0.261076,0.261077 0.543081,0.487618 0.837745,0.687452 a 5.7,5.7 0 0 1 -0.837745,-0.687452 5.7,5.7 0 0 1 0,-8.060155 5.7,5.7 0 0 1 4.113574,-1.669923 z"
     id="rect2" />
</svg>
