<?xml version="1.0" encoding="UTF-8" standalone="no"?>
<svg
   xmlns:dc="http://purl.org/dc/elements/1.1/"
   xmlns:cc="http://creativecommons.org/ns#"
   xmlns:rdf="http://www.w3.org/1999/02/22-rdf-syntax-ns#"
   xmlns:svg="http://www.w3.org/2000/svg"
   xmlns="http://www.w3.org/2000/svg"
   xmlns:sodipodi="http://sodipodi.sourceforge.net/DTD/sodipodi-0.dtd"
   xmlns:inkscape="http://www.inkscape.org/namespaces/inkscape"
   inkscape:version="1.0 (4035a4fb49, 2020-05-01)"
   sodipodi:docname="time-symbolic.svg"
   width="64"
   height="64"
   version="1.1"
   id="svg24">
  <sodipodi:namedview
     inkscape:document-rotation="0"
     inkscape:current-layer="svg24"
     inkscape:window-maximized="1"
     inkscape:window-y="40"
     inkscape:window-x="0"
     inkscape:cy="32"
     inkscape:cx="-17.084746"
     inkscape:zoom="3.6875"
     showgrid="false"
     id="namedview951"
     inkscape:window-height="898"
     inkscape:window-width="1920"
     inkscape:pageshadow="2"
     inkscape:pageopacity="0"
     guidetolerance="10"
     gridtolerance="10"
     objecttolerance="10"
     borderopacity="1"
     bordercolor="#666666"
     pagecolor="#ffffff" />
  <metadata
     id="metadata30">
    <rdf:RDF>
      <cc:Work
         rdf:about="">
        <dc:format>image/svg+xml</dc:format>
        <dc:type
           rdf:resource="http://purl.org/dc/dcmitype/StillImage" />
        <dc:title />
      </cc:Work>
    </rdf:RDF>
  </metadata>
  <defs
     id="defs28" />
  <path
     style="fill:#cccccc;stroke-width:1.425"
     d="M 20.6,3.4999995 C 11.1266,3.4999995 3.4999999,11.126601 3.4999999,20.6 v 22.8 c 0,9.473399 7.6266001,17.100001 17.1000001,17.100001 h 22.8 c 9.473401,0 17.1,-7.626601 17.1,-17.1 v -22.8 C 60.5,11.126601 52.873401,3.4999995 43.4,3.4999995 Z M 32,9.2000015 A 22.799999,22.799999 0 0 1 54.799999,32 22.799999,22.799999 0 0 1 32,54.800001 22.799999,22.799999 0 0 1 9.2000001,32 22.799999,22.799999 0 0 1 32,9.2000015 Z m -8.218799,4.6256825 c -4.657169,2.100305 -8.349663,5.922592 -10.270018,10.676367 1.91594,1.670673 8.822682,7.700914 9.379394,8.190966 0.231702,0.203957 0.686136,0.60378 1.010302,0.887843 l 0.59004,0.517675 0.414696,-0.02505 c 0.228354,-0.01268 0.983166,-0.06348 1.678272,-0.114107 0.695108,-0.05064 1.571172,-0.111234 1.945459,-0.133594 0.374288,-0.02237 0.751408,-0.04897 0.840527,-0.06122 0.08913,-0.01225 0.469022,-0.04215 0.843311,-0.06401 0.374288,-0.02187 1.046215,-0.0669 1.491797,-0.100197 0.445581,-0.0333 1.290493,-0.09212 1.878661,-0.130815 1.501126,-0.09871 1.340917,0.0051 1.285842,-0.821045 -0.115764,-1.736449 -0.246149,-3.651337 -0.473145,-6.888428 -0.05125,-0.730754 -0.112647,-1.650759 -0.136373,-2.042871 l -0.04453,-0.7125 -0.300586,-0.295018 c -0.164805,-0.161617 -0.501939,-0.47032 -0.751466,-0.687452 -0.249526,-0.217133 -0.949426,-0.827967 -1.55581,-1.358203 -0.606385,-0.530236 -1.218785,-1.064249 -1.360986,-1.185644 -0.142186,-0.121397 -0.462976,-0.399951 -0.712499,-0.620655 -0.249527,-0.220707 -1.30136,-1.140601 -2.335109,-2.042871 -1.033749,-0.902271 -2.535011,-2.216723 -3.33706,-2.919581 -0.03862,-0.03384 -0.04241,-0.03602 -0.08072,-0.06959 z m 14.731494,19.607665 c -0.454393,-0.02502 -0.596443,-0.0019 -0.949072,0.158644 -1.042631,0.474604 -1.547282,1.646802 -1.155029,2.680225 0.216816,0.571224 0.782745,1.143422 1.305323,1.316454 1.025825,0.339666 2.109092,-0.11003 2.621776,-1.085449 0.277873,-0.528688 0.285761,-1.321122 0.01948,-1.859178 -0.378705,-0.765233 -0.983399,-1.163399 -1.842478,-1.210696 z"
     id="rect4" />
</svg>
