<?xml version="1.0" encoding="UTF-8" standalone="no"?>
<svg
   xmlns:dc="http://purl.org/dc/elements/1.1/"
   xmlns:cc="http://creativecommons.org/ns#"
   xmlns:rdf="http://www.w3.org/1999/02/22-rdf-syntax-ns#"
   xmlns:svg="http://www.w3.org/2000/svg"
   xmlns="http://www.w3.org/2000/svg"
   xmlns:sodipodi="http://sodipodi.sourceforge.net/DTD/sodipodi-0.dtd"
   xmlns:inkscape="http://www.inkscape.org/namespaces/inkscape"
   inkscape:version="1.0 (4035a4fb49, 2020-05-01)"
   sodipodi:docname="utool-symbolic.svg"
   width="64"
   height="64"
   version="1.1"
   id="svg24">
  <sodipodi:namedview
     inkscape:document-rotation="0"
     inkscape:current-layer="svg24"
     inkscape:window-maximized="1"
     inkscape:window-y="40"
     inkscape:window-x="0"
     inkscape:cy="32"
     inkscape:cx="-17.084746"
     inkscape:zoom="3.6875"
     showgrid="false"
     id="namedview951"
     inkscape:window-height="898"
     inkscape:window-width="1920"
     inkscape:pageshadow="2"
     inkscape:pageopacity="0"
     guidetolerance="10"
     gridtolerance="10"
     objecttolerance="10"
     borderopacity="1"
     bordercolor="#666666"
     pagecolor="#ffffff" />
  <metadata
     id="metadata30">
    <rdf:RDF>
      <cc:Work
         rdf:about="">
        <dc:format>image/svg+xml</dc:format>
        <dc:type
           rdf:resource="http://purl.org/dc/dcmitype/StillImage" />
        <dc:title />
      </cc:Work>
    </rdf:RDF>
  </metadata>
  <defs
     id="defs28" />
  <path
     style="fill:#cccccc;stroke-width:1.425"
     d="M 32,3.5 A 28.5,28.5 0 0 0 3.5,32 28.5,28.5 0 0 0 32,60.5 28.5,28.5 0 0 0 60.5,32 28.5,28.5 0 0 0 32,3.5 Z M 19.450536,13.547363 c 1.182673,-0.05631 2.281271,0.282593 3.323146,0.873925 2.027436,1.126357 4.028161,2.334803 6.111914,3.320363 1.689529,0.816606 1.632727,1.577116 0.281104,2.618993 -2.111914,1.633213 -4.364117,1.94314 -6.757618,0.704151 -2.280866,-1.18267 -4.479535,-2.533232 -6.7604,-3.687744 -1.351624,-0.675812 -1.182841,-1.29552 -0.225439,-2.140283 1.154509,-1.041878 2.478558,-1.661247 4.027293,-1.689405 z m 24.069141,1.486231 c 1.221391,0.09151 2.370821,0.577454 3.37046,1.422217 1.013711,0.872922 1.378307,1.521284 -0.11411,2.33789 -3.970397,2.224545 -7.883595,4.588407 -11.825831,6.841113 -1.914802,1.126358 -3.939752,1.184149 -5.967189,0.114111 -0.732125,-0.563176 -1.887336,-0.986423 -1.859179,-2.084619 0.02816,-0.901081 1.183369,-1.041908 1.859179,-1.436133 3.548013,-2.11191 7.122137,-4.223637 10.726466,-6.251075 1.295307,-0.73213 2.588815,-1.035019 3.810205,-0.943505 z m 8.883985,8.672461 c 0.46803,0.04401 0.696955,0.51892 0.837745,1.310887 0.281587,1.520578 0.139635,2.956448 -0.620655,4.336231 -0.563177,1.013718 -1.407343,1.774387 -2.449219,2.365723 -2.027436,1.154512 -4.054841,2.250497 -5.997803,3.545802 -1.576893,1.041876 -2.19366,0.592947 -2.390771,-1.096583 -0.309747,-2.64693 0.560785,-4.759962 2.841651,-6.139746 2.196389,-1.351623 4.478058,-2.5334 6.646289,-3.913183 0.485737,-0.306218 0.851944,-0.435536 1.132763,-0.409131 z m -40.854639,0.500976 c 0.294842,-0.05578 0.698353,0.05673 1.258008,0.384082 3.942237,2.280865 7.966763,4.3908 11.937159,6.643507 1.942959,1.098194 3.012906,2.789805 3.125536,5.098828 -0.112634,0.929242 0.113761,2.136856 -0.815478,2.671875 -0.788447,0.45054 -1.494759,-0.476919 -2.198731,-0.871143 -3.632488,-1.971118 -7.289453,-3.942207 -10.865624,-5.997804 -2.590615,-1.492416 -3.718022,-3.858068 -3.267482,-6.448681 0.14079,-0.827165 0.335208,-1.387726 0.826612,-1.480664 z M 39.40332,32 c 0.216849,-0.0044 0.432862,0.04882 0.648487,0.183692 0.705677,0.454346 0.288368,1.562264 0.314502,2.357372 0.104539,4.174315 0.183691,8.347318 0.183691,12.521631 -0.02613,2.981657 -1.411106,5.110809 -3.684961,6.0479 -1.149996,0.454348 -1.856396,0.482543 -1.856396,-1.249658 C 35.034773,47.26067 34.876132,42.661516 34.85,38.089649 34.82387,35.846305 35.71569,34.056584 37.519092,32.807129 38.107158,32.530262 38.752773,32.013395 39.40332,32 Z m -16.342969,7.136132 c 0.259359,0.03091 0.565963,0.127395 0.924024,0.281104 2.2251,0.962324 3.505261,2.674578 3.581983,5.240771 0.07672,2.432541 0.02519,4.89007 0.153076,7.322607 0.07672,1.44349 -0.486661,1.606093 -1.586427,1.205128 -1.329943,-0.481165 -2.403319,-1.257963 -3.145019,-2.541065 -0.588246,-0.962324 -0.821045,-2.003926 -0.821045,-3.153368 0,-2.19196 0.02821,-4.412582 -0.125243,-6.604541 -0.09592,-1.343246 0.240584,-1.843359 1.018651,-1.750636 z"
     id="circle4" />
</svg>
