<?xml version="1.0" encoding="UTF-8" standalone="no"?>
<svg
   xmlns:dc="http://purl.org/dc/elements/1.1/"
   xmlns:cc="http://creativecommons.org/ns#"
   xmlns:rdf="http://www.w3.org/1999/02/22-rdf-syntax-ns#"
   xmlns:svg="http://www.w3.org/2000/svg"
   xmlns="http://www.w3.org/2000/svg"
   height="496"
   width="496"
   id="svg4"
   version="1.1"
   viewBox="0 0 496 496">
  <metadata
     id="metadata10">
    <rdf:RDF>
      <cc:Work
         rdf:about="">
        <dc:format>image/svg+xml</dc:format>
        <dc:type
           rdf:resource="http://purl.org/dc/dcmitype/StillImage" />
        <dc:title></dc:title>
      </cc:Work>
    </rdf:RDF>
  </metadata>
  <defs
     id="defs8" />
  <path
     style="fill:#cccccc;stroke-width:0.95407325"
     id="path2"
     d="m 248.54238,12.61017 c -130.70804,0 -236.610177,105.90213 -236.610177,236.61017 0,130.70804 105.902137,236.61017 236.610177,236.61017 130.70804,0 236.61017,-105.90213 236.61017,-236.61017 0,-130.70804 -105.90213,-236.61017 -236.61017,-236.61017 z m 50.27966,88.72881 c 8.39585,-14.501911 27.00027,-19.558499 41.50219,-11.162655 14.59732,8.395845 19.5585,27.000275 11.16265,41.597595 -8.39584,14.50191 -27.00027,19.5585 -41.50218,11.16266 -14.59732,-8.49125 -19.5585,-27.09568 -11.16266,-41.5976 z M 95.318206,279.65528 c -16.791689,0 -30.434937,-13.64325 -30.434937,-30.43494 0,-16.79169 13.643248,-30.43494 30.434937,-30.43494 16.791694,0 30.434944,13.64325 30.434944,30.43494 0,16.79169 -13.64325,30.43494 -30.434944,30.43494 z m 26.809464,2.95762 c 21.27584,-17.07791 21.37124,-49.5164 0,-66.68972 8.20503,-31.2936 27.76353,-57.91224 53.90514,-75.46719 l 22.61154,37.7813 c -49.13478,34.63286 -49.13478,107.33324 0,141.9661 l -22.61154,37.7813 C 149.8912,340.52515 130.42811,313.8111 122.12767,282.6129 Z m 218.19656,125.65145 c -14.59732,8.39585 -33.10634,3.43467 -41.50219,-11.16265 -8.39584,-14.59733 -3.43466,-33.20175 11.16266,-41.5976 14.50191,-8.39584 33.10634,-3.43466 41.50218,11.16266 8.39585,14.59732 3.43467,33.20175 -11.16265,41.59759 z m 0.28622,-66.30809 c -25.47376,-9.82695 -53.52351,6.29688 -57.72143,33.39256 -4.96118,1.33571 -46.65419,13.64325 -92.25889,-8.96828 l 21.46665,-38.44916 c 54.38218,25.28295 117.73264,-11.16265 122.98004,-70.98305 l 43.98278,0.66785 c -2.19437,32.91553 -16.50547,62.4918 -38.44915,84.34008 z m -5.62903,-100.46391 c -5.152,-59.15255 -68.02543,-96.55222 -122.98005,-70.98305 l -21.46665,-38.44916 c 45.70011,-22.61153 87.29771,-10.30399 92.25889,-8.96829 4.19792,27.00028 32.24768,43.21952 57.72143,33.39257 22.03909,21.84828 36.25479,51.42455 38.35375,84.43548 z" />
</svg>
