<?xml version="1.0" encoding="UTF-8" standalone="no"?>
<svg
   xmlns:dc="http://purl.org/dc/elements/1.1/"
   xmlns:cc="http://creativecommons.org/ns#"
   xmlns:rdf="http://www.w3.org/1999/02/22-rdf-syntax-ns#"
   xmlns:svg="http://www.w3.org/2000/svg"
   xmlns="http://www.w3.org/2000/svg"
   xmlns:sodipodi="http://sodipodi.sourceforge.net/DTD/sodipodi-0.dtd"
   xmlns:inkscape="http://www.inkscape.org/namespaces/inkscape"
   inkscape:version="1.0 (4035a4fb49, 2020-05-01)"
   sodipodi:docname="arc-menu-symbolic.svg"
   width="64"
   height="64"
   version="1.1"
   id="svg24">
  <sodipodi:namedview
     inkscape:document-rotation="0"
     inkscape:current-layer="svg24"
     inkscape:window-maximized="1"
     inkscape:window-y="40"
     inkscape:window-x="0"
     inkscape:cy="32"
     inkscape:cx="27.254237"
     inkscape:zoom="3.6875"
     showgrid="false"
     id="namedview481"
     inkscape:window-height="898"
     inkscape:window-width="1920"
     inkscape:pageshadow="2"
     inkscape:pageopacity="0"
     guidetolerance="10"
     gridtolerance="10"
     objecttolerance="10"
     borderopacity="1"
     bordercolor="#666666"
     pagecolor="#ffffff" />
  <metadata
     id="metadata30">
    <rdf:RDF>
      <cc:Work
         rdf:about="">
        <dc:format>image/svg+xml</dc:format>
        <dc:type
           rdf:resource="http://purl.org/dc/dcmitype/StillImage" />
        <dc:title />
      </cc:Work>
    </rdf:RDF>
  </metadata>
  <defs
     id="defs28" />
  <g
     id="g1366"
     transform="translate(-116.94915,23.533898)" />
  <g
     style="fill:#cccccc"
     transform="matrix(3.4369578,0,0,3.4369578,2.9004247,-959.67683)"
     id="layer1">
    <g
       style="fill:#cccccc"
       transform="matrix(0.05709354,0,0,0.05703853,9.6034111,278.29442)"
       id="g83628">
      <path
         id="path83614-2"
         d="M -19.91572,34.266877 A 145.24027,145.24026 0 0 0 -165.14936,179.50844 145.24027,145.24026 0 0 0 -19.91572,324.74997 145.24027,145.24026 0 0 0 125.32893,179.50844 145.24027,145.24026 0 0 0 -19.91572,34.266877 Z m -11.619568,42.458951 c 34.0492079,0 58.054503,12.197498 77.408799,39.463132 V 81.384737 H 72.402654 V 277.62109 H 45.873511 v -34.44076 c -20.78794,27.98315 -42.2828611,39.11069 -75.615249,39.11069 -60.213342,0 -105.016272,-43.7653 -105.016272,-102.24293 0,-58.83637 44.443023,-103.322262 103.222722,-103.322262 z m 0.71522,24.395992 c -42.651112,0 -77.056672,34.43875 -77.056672,77.131 0,44.84483 34.04393,79.64221 78.487109,79.64221 42.292704,0 75.263142,-34.80372 75.263142,-79.28974 0,-43.76856 -33.684037,-77.48347 -76.693579,-77.48347 z"
         style="fill:#cccccc;fill-opacity:1;stroke:none;stroke-width:11.2693;stroke-miterlimit:4;stroke-dasharray:none;stroke-dashoffset:0;stroke-opacity:1" />
    </g>
  </g>
</svg>
