<?xml version="1.0" encoding="UTF-8" standalone="no"?>
<!-- Created with Inkscape (http://www.inkscape.org/) -->

<svg
   xmlns:dc="http://purl.org/dc/elements/1.1/"
   xmlns:cc="http://creativecommons.org/ns#"
   xmlns:rdf="http://www.w3.org/1999/02/22-rdf-syntax-ns#"
   xmlns:svg="http://www.w3.org/2000/svg"
   xmlns="http://www.w3.org/2000/svg"
   xmlns:sodipodi="http://sodipodi.sourceforge.net/DTD/sodipodi-0.dtd"
   xmlns:inkscape="http://www.inkscape.org/namespaces/inkscape"
   width="66mm"
   height="66mm"
   viewBox="0 0 66 66"
   version="1.1"
   id="svg8"
   inkscape:version="0.92.5 (2060ec1f9f, 2020-04-08)"
   sodipodi:docname="brisk-layout-symbolic.svg">
  <defs
     id="defs2" />
  <sodipodi:namedview
     id="base"
     pagecolor="#ffffff"
     bordercolor="#666666"
     borderopacity="1.0"
     inkscape:pageopacity="0.0"
     inkscape:pageshadow="2"
     inkscape:zoom="1.4"
     inkscape:cx="106.7884"
     inkscape:cy="42.206813"
     inkscape:document-units="mm"
     inkscape:current-layer="layer1"
     showgrid="false"
     inkscape:window-width="1280"
     inkscape:window-height="1264"
     inkscape:window-x="1280"
     inkscape:window-y="40"
     inkscape:window-maximized="0" />
  <metadata
     id="metadata5">
    <rdf:RDF>
      <cc:Work
         rdf:about="">
        <dc:format>image/svg+xml</dc:format>
        <dc:type
           rdf:resource="http://purl.org/dc/dcmitype/StillImage" />
        <dc:title />
      </cc:Work>
    </rdf:RDF>
  </metadata>
  <g
     inkscape:label="Layer 1"
     inkscape:groupmode="layer"
     id="layer1"
     transform="translate(0,-231)">
    <g
       id="g1013"
       transform="translate(32.622024,-7.9375)">
      <g
         style="fill:#000000;fill-opacity:1;stroke:none"
         id="g1092"
         transform="translate(-32.811477,8.3197075)">
        <g
           style="fill:#000000;fill-opacity:1;stroke:none"
           id="g2840"
           transform="matrix(0.07586098,0,0,0.07586098,1.0123285,290.72228)">
          <g
             id="g1139"
             style="fill:#000000;fill-opacity:1;stroke:none">
            <g
               style="fill:#000000;fill-opacity:1;stroke:none"
               id="g1144"
               transform="matrix(1.48656,0,0,1.48656,-15.403652,-13.20102)">
              <path
                 d="m 17.337335,27.397354 h 16.404794 c 0.908826,0 1.640479,0.731654 1.640479,1.64048 v 16.404794 c 0,0.908825 -0.731653,1.640479 -1.640479,1.640479 H 17.337335 c -0.908826,0 -1.640479,-0.731654 -1.640479,-1.640479 V 29.037834 c 0,-0.908826 0.731653,-1.64048 1.640479,-1.64048 z m 22.966715,0 h 6.561917 c 0.908826,0 1.64048,0.731654 1.64048,1.64048 v 16.404794 c 0,0.908825 -0.731654,1.640479 -1.64048,1.640479 H 40.30405 c -0.908826,0 -1.64048,-0.731654 -1.64048,-1.640479 V 29.037834 c 0,-0.908826 0.731654,-1.64048 1.64048,-1.64048 z M 17.337335,14.273518 h 29.52863 c 0.908826,0 1.64048,0.731653 1.64048,1.640479 v 6.561918 c 0,0.908825 -0.731654,1.640479 -1.64048,1.640479 h -29.52863 c -0.908826,0 -1.640479,-0.731654 -1.640479,-1.640479 v -6.561918 c 0,-0.908826 0.731653,-1.640479 1.640479,-1.640479 z m 439.093875,14.960204 -0.0173,7.048919 35.19272,0.13851 0.0173,-7.048919 z m 49.27327,0.190473 -0.0346,7.048919 42.24165,0.17327 0.0173,-7.049008 z m 56.30489,0.225145 -0.0173,7.049007 9.14457,0.03458 0.0346,-7.04892 z M 7.8279265,3.497257 A 1.1732065,1.1732065 0 0 0 6.6675366,4.6750327 V 56.68471 a 1.1732065,1.1732065 0 0 0 1.1603899,1.160395 H 583.53721 a 1.1732065,1.1732065 0 0 0 1.1777,-1.160395 V 4.6750327 A 1.1732065,1.1732065 0 0 0 583.53721,3.497257 Z M 9.0056357,5.8527197 H 582.35949 V 55.507023 H 9.0056357 Z"
                 style="color:#000000;font-style:normal;font-variant:normal;font-weight:normal;font-stretch:normal;font-size:medium;line-height:normal;font-family:sans-serif;font-variant-ligatures:normal;font-variant-position:normal;font-variant-caps:normal;font-variant-numeric:normal;font-variant-alternates:normal;font-feature-settings:normal;text-indent:0;text-align:start;text-decoration:none;text-decoration-line:none;text-decoration-style:solid;text-decoration-color:#000000;letter-spacing:normal;word-spacing:normal;text-transform:none;writing-mode:lr-tb;direction:ltr;text-orientation:mixed;dominant-baseline:auto;baseline-shift:baseline;text-anchor:start;white-space:normal;shape-padding:0;clip-rule:nonzero;display:inline;overflow:visible;visibility:visible;opacity:1;isolation:auto;mix-blend-mode:normal;color-interpolation:sRGB;color-interpolation-filters:linearRGB;solid-color:#000000;solid-opacity:1;vector-effect:none;fill:#000000;fill-opacity:1;fill-rule:nonzero;stroke:none;stroke-width:1.64048004;stroke-linecap:butt;stroke-linejoin:miter;stroke-miterlimit:4;stroke-dasharray:none;stroke-dashoffset:0;stroke-opacity:1;color-rendering:auto;image-rendering:auto;shape-rendering:auto;text-rendering:auto;enable-background:accumulate"
                 id="rect22"
                 inkscape:connector-curvature="0" />
            </g>
          </g>
        </g>
      </g>
      <path
         d="m -31.987258,247.85877 a 0.13230489,0.13230489 0 0 0 -0.130859,0.13282 v 49.77734 a 0.13230489,0.13230489 0 0 0 0.130859,0.13281 H 5.2021953 a 0.13230489,0.13230489 0 0 0 0.130861,-0.13281 v -49.77734 a 0.13230489,0.13230489 0 0 0 -0.130861,-0.13282 z m 0.132812,0.26563 H 5.0693823 v 49.51367 H -31.854446 Z"
         style="color:#000000;font-style:normal;font-variant:normal;font-weight:normal;font-stretch:normal;font-size:medium;line-height:normal;font-family:sans-serif;font-variant-ligatures:normal;font-variant-position:normal;font-variant-caps:normal;font-variant-numeric:normal;font-variant-alternates:normal;font-feature-settings:normal;text-indent:0;text-align:start;text-decoration:none;text-decoration-line:none;text-decoration-style:solid;text-decoration-color:#000000;letter-spacing:normal;word-spacing:normal;text-transform:none;writing-mode:lr-tb;direction:ltr;text-orientation:mixed;dominant-baseline:auto;baseline-shift:baseline;text-anchor:start;white-space:normal;shape-padding:0;clip-rule:nonzero;display:inline;overflow:visible;visibility:visible;opacity:1;isolation:auto;mix-blend-mode:normal;color-interpolation:sRGB;color-interpolation-filters:linearRGB;solid-color:#000000;solid-opacity:1;vector-effect:none;fill:#000000;fill-opacity:1;fill-rule:nonzero;stroke:none;stroke-width:1;stroke-linecap:butt;stroke-linejoin:round;stroke-miterlimit:4;stroke-dasharray:none;stroke-dashoffset:0;stroke-opacity:1;color-rendering:auto;image-rendering:auto;shape-rendering:auto;text-rendering:auto;enable-background:accumulate"
         id="rect30567"
         inkscape:connector-curvature="0" />
      <path
         id="path30569"
         d="m -14.422805,252.08338 -0.251953,0.002 0.232422,45.56836 0.253906,-0.002 z"
         style="color:#000000;font-style:normal;font-variant:normal;font-weight:normal;font-stretch:normal;font-size:medium;line-height:normal;font-family:sans-serif;font-variant-ligatures:normal;font-variant-position:normal;font-variant-caps:normal;font-variant-numeric:normal;font-variant-alternates:normal;font-feature-settings:normal;text-indent:0;text-align:start;text-decoration:none;text-decoration-line:none;text-decoration-style:solid;text-decoration-color:#000000;letter-spacing:normal;word-spacing:normal;text-transform:none;writing-mode:lr-tb;direction:ltr;text-orientation:mixed;dominant-baseline:auto;baseline-shift:baseline;text-anchor:start;white-space:normal;shape-padding:0;clip-rule:nonzero;display:inline;overflow:visible;visibility:visible;opacity:1;isolation:auto;mix-blend-mode:normal;color-interpolation:sRGB;color-interpolation-filters:linearRGB;solid-color:#000000;solid-opacity:1;vector-effect:none;fill:#000000;fill-opacity:1;fill-rule:evenodd;stroke:none;stroke-width:1;stroke-linecap:butt;stroke-linejoin:miter;stroke-miterlimit:4;stroke-dasharray:none;stroke-dashoffset:0;stroke-opacity:1;color-rendering:auto;image-rendering:auto;shape-rendering:auto;text-rendering:auto;enable-background:accumulate"
         inkscape:connector-curvature="0" />
      <g
         style="opacity:1;fill:#000000;fill-opacity:1;stroke:none"
         id="path30636"
         transform="translate(-32.811477,8.3197075)">
        <path
           id="path1358"
           d="m 0.83429704,243.71419 37.00353496,0.0501"
           style="color:#000000;font-style:normal;font-variant:normal;font-weight:normal;font-stretch:normal;font-size:medium;line-height:normal;font-family:sans-serif;font-variant-ligatures:normal;font-variant-position:normal;font-variant-caps:normal;font-variant-numeric:normal;font-variant-alternates:normal;font-feature-settings:normal;text-indent:0;text-align:start;text-decoration:none;text-decoration-line:none;text-decoration-style:solid;text-decoration-color:#000000;letter-spacing:normal;word-spacing:normal;text-transform:none;writing-mode:lr-tb;direction:ltr;text-orientation:mixed;dominant-baseline:auto;baseline-shift:baseline;text-anchor:start;white-space:normal;shape-padding:0;clip-rule:nonzero;display:inline;overflow:visible;visibility:visible;isolation:auto;mix-blend-mode:normal;color-interpolation:sRGB;color-interpolation-filters:linearRGB;solid-color:#000000;solid-opacity:1;vector-effect:none;fill:#000000;fill-opacity:1;fill-rule:evenodd;stroke:none;stroke-width:0.376674;stroke-linecap:butt;stroke-linejoin:miter;stroke-miterlimit:4;stroke-dasharray:none;stroke-dashoffset:0;stroke-opacity:1;color-rendering:auto;image-rendering:auto;shape-rendering:auto;text-rendering:auto;enable-background:accumulate"
           inkscape:connector-curvature="0" />
        <path
           id="path1360"
           d="m 0.83398438,243.52539 v 0.37695 l 37.00390662,0.0508 v -0.37695 z"
           style="color:#000000;font-style:normal;font-variant:normal;font-weight:normal;font-stretch:normal;font-size:medium;line-height:normal;font-family:sans-serif;font-variant-ligatures:normal;font-variant-position:normal;font-variant-caps:normal;font-variant-numeric:normal;font-variant-alternates:normal;font-feature-settings:normal;text-indent:0;text-align:start;text-decoration:none;text-decoration-line:none;text-decoration-style:solid;text-decoration-color:#000000;letter-spacing:normal;word-spacing:normal;text-transform:none;writing-mode:lr-tb;direction:ltr;text-orientation:mixed;dominant-baseline:auto;baseline-shift:baseline;text-anchor:start;white-space:normal;shape-padding:0;clip-rule:nonzero;display:inline;overflow:visible;visibility:visible;isolation:auto;mix-blend-mode:normal;color-interpolation:sRGB;color-interpolation-filters:linearRGB;solid-color:#000000;solid-opacity:1;vector-effect:none;fill:#000000;fill-opacity:1;fill-rule:evenodd;stroke:none;stroke-linecap:butt;stroke-linejoin:miter;stroke-miterlimit:4;stroke-dasharray:none;stroke-dashoffset:0;stroke-opacity:1;color-rendering:auto;image-rendering:auto;shape-rendering:auto;text-rendering:auto;enable-background:accumulate"
           inkscape:connector-curvature="0" />
      </g>
      <g
         transform="matrix(0.54445546,0,0,0.54445546,-30.95062,248.76119)"
         style="fill:#000000;fill-opacity:1;stroke:none"
         id="use31418">
        <title
           id="title1090">Edit Find</title>
        <path
           id="path1092"
           d="m 1.7216437,0.27172708 c -0.80115828,0 -1.45785412,0.65616667 -1.45785412,1.45626662 0,0.8008938 0.65669584,1.4567959 1.45785412,1.4567959 0.8016875,0 1.4578542,-0.6561667 1.4578542,-1.4565313 0,-0.80009997 -0.6561667,-1.45600205 -1.4578542,-1.45600205 z m 0,0.5318125 c 0.5154084,0 0.9260417,0.41010412 0.9260417,0.92445412 0,0.5148792 -0.4106333,0.925248 -0.9260417,0.925248 -0.5151437,0 -0.92604162,-0.4101042 -0.92604162,-0.9249834 0,-0.51435 0.41089792,-0.92445413 0.92604162,-0.92445413 z"
           inkscape:connector-curvature="0"
           style="fill:#000000;fill-opacity:1;stroke:none;stroke-width:0.26458299" />
        <path
           id="path1094"
           d="M 2.5960917,2.3891875 A 0.26458333,0.26458333 0 0 0 2.4638,2.8442708 L 3.5221333,3.9026042 A 0.26614947,0.26614947 0 1 0 3.8944021,3.5221333 L 2.8360687,2.4638 A 0.26458333,0.26458333 0 0 0 2.5958271,2.3897167 Z"
           inkscape:connector-curvature="0"
           style="fill:#000000;fill-opacity:1;stroke:none;stroke-width:0.26458299" />
      </g>
      <path
         id="path33737"
         d="m -27.980104,294.12244 c -0.777259,0 -1.410156,0.6329 -1.410156,1.41016 0,0.77726 0.632897,1.41016 1.410156,1.41016 0.777259,0 1.410156,-0.6329 1.410156,-1.41016 0,-0.77726 -0.632897,-1.41016 -1.410156,-1.41016 z m 0,0.26563 c 0.634043,0 1.144531,0.51049 1.144531,1.14453 0,0.63404 -0.510488,1.14453 -1.144531,1.14453 -0.634043,0 -1.144531,-0.51049 -1.144531,-1.14453 0,-0.63404 0.510488,-1.14453 1.144531,-1.14453 z"
         style="color:#000000;font-style:normal;font-variant:normal;font-weight:normal;font-stretch:normal;font-size:medium;line-height:normal;font-family:sans-serif;font-variant-ligatures:normal;font-variant-position:normal;font-variant-caps:normal;font-variant-numeric:normal;font-variant-alternates:normal;font-feature-settings:normal;text-indent:0;text-align:start;text-decoration:none;text-decoration-line:none;text-decoration-style:solid;text-decoration-color:#000000;letter-spacing:normal;word-spacing:normal;text-transform:none;writing-mode:lr-tb;direction:ltr;text-orientation:mixed;dominant-baseline:auto;baseline-shift:baseline;text-anchor:start;white-space:normal;shape-padding:0;clip-rule:nonzero;display:inline;overflow:visible;visibility:visible;isolation:auto;mix-blend-mode:normal;color-interpolation:sRGB;color-interpolation-filters:linearRGB;solid-color:#000000;solid-opacity:1;vector-effect:none;fill:#000000;fill-opacity:1;fill-rule:nonzero;stroke:none;stroke-width:1;stroke-linecap:butt;stroke-linejoin:round;stroke-miterlimit:4;stroke-dasharray:none;stroke-dashoffset:0;stroke-opacity:1;color-rendering:auto;image-rendering:auto;shape-rendering:auto;text-rendering:auto;enable-background:accumulate"
         inkscape:connector-curvature="0" />
      <path
         id="circle33739"
         d="m -23.517213,294.12244 c -0.77726,0 -1.410157,0.6329 -1.410157,1.41016 0,0.77726 0.632897,1.41016 1.410157,1.41016 0.777259,0 1.410156,-0.6329 1.410156,-1.41016 0,-0.77726 -0.632897,-1.41016 -1.410156,-1.41016 z m 0,0.26563 c 0.634042,0 1.144531,0.51049 1.144531,1.14453 0,0.63404 -0.510489,1.14453 -1.144531,1.14453 -0.634043,0 -1.144532,-0.51049 -1.144532,-1.14453 0,-0.63404 0.510489,-1.14453 1.144532,-1.14453 z"
         style="color:#000000;font-style:normal;font-variant:normal;font-weight:normal;font-stretch:normal;font-size:medium;line-height:normal;font-family:sans-serif;font-variant-ligatures:normal;font-variant-position:normal;font-variant-caps:normal;font-variant-numeric:normal;font-variant-alternates:normal;font-feature-settings:normal;text-indent:0;text-align:start;text-decoration:none;text-decoration-line:none;text-decoration-style:solid;text-decoration-color:#000000;letter-spacing:normal;word-spacing:normal;text-transform:none;writing-mode:lr-tb;direction:ltr;text-orientation:mixed;dominant-baseline:auto;baseline-shift:baseline;text-anchor:start;white-space:normal;shape-padding:0;clip-rule:nonzero;display:inline;overflow:visible;visibility:visible;isolation:auto;mix-blend-mode:normal;color-interpolation:sRGB;color-interpolation-filters:linearRGB;solid-color:#000000;solid-opacity:1;vector-effect:none;fill:#000000;fill-opacity:1;fill-rule:nonzero;stroke:none;stroke-width:1;stroke-linecap:butt;stroke-linejoin:round;stroke-miterlimit:4;stroke-dasharray:none;stroke-dashoffset:0;stroke-opacity:1;color-rendering:auto;image-rendering:auto;shape-rendering:auto;text-rendering:auto;enable-background:accumulate"
         inkscape:connector-curvature="0" />
      <path
         id="circle33741"
         d="m -19.054323,294.12244 c -0.777259,0 -1.410156,0.6329 -1.410156,1.41016 0,0.77726 0.632897,1.41016 1.410156,1.41016 0.777259,0 1.410156,-0.6329 1.410156,-1.41016 0,-0.77726 -0.632897,-1.41016 -1.410156,-1.41016 z m 0,0.26563 c 0.634043,0 1.144531,0.51049 1.144531,1.14453 0,0.63404 -0.510488,1.14453 -1.144531,1.14453 -0.634043,0 -1.146484,-0.51049 -1.146484,-1.14453 0,-0.63404 0.512441,-1.14453 1.146484,-1.14453 z"
         style="color:#000000;font-style:normal;font-variant:normal;font-weight:normal;font-stretch:normal;font-size:medium;line-height:normal;font-family:sans-serif;font-variant-ligatures:normal;font-variant-position:normal;font-variant-caps:normal;font-variant-numeric:normal;font-variant-alternates:normal;font-feature-settings:normal;text-indent:0;text-align:start;text-decoration:none;text-decoration-line:none;text-decoration-style:solid;text-decoration-color:#000000;letter-spacing:normal;word-spacing:normal;text-transform:none;writing-mode:lr-tb;direction:ltr;text-orientation:mixed;dominant-baseline:auto;baseline-shift:baseline;text-anchor:start;white-space:normal;shape-padding:0;clip-rule:nonzero;display:inline;overflow:visible;visibility:visible;isolation:auto;mix-blend-mode:normal;color-interpolation:sRGB;color-interpolation-filters:linearRGB;solid-color:#000000;solid-opacity:1;vector-effect:none;fill:#000000;fill-opacity:1;fill-rule:nonzero;stroke:none;stroke-width:1;stroke-linecap:butt;stroke-linejoin:round;stroke-miterlimit:4;stroke-dasharray:none;stroke-dashoffset:0;stroke-opacity:1;color-rendering:auto;image-rendering:auto;shape-rendering:auto;text-rendering:auto;enable-background:accumulate"
         inkscape:connector-curvature="0" />
      <g
         transform="matrix(0.13457341,0,0,0.13457341,-28.825432,294.65716)"
         style="fill:#000000;fill-opacity:1;stroke:none"
         id="use34459">
        <title
           id="title1064">Exit To App</title>
        <path
           id="path1066"
           d="M 5.3366458,8.2470625 6.0854167,8.9958333 8.73125,6.35 6.0854167,3.7041667 5.3366458,4.4529375 6.7045417,5.8208333 H 1.5875 V 6.8791667 H 6.7045417 Z M 10.054167,1.5875 H 2.6458333 C 2.0611042,1.5875 1.5875,2.0611042 1.5875,2.6458333 V 4.7625 H 2.6458333 V 2.6458333 H 10.054167 V 10.054167 H 2.6458333 V 7.9375 H 1.5875 v 2.116667 c 0,0.584729 0.4736042,1.058333 1.0583333,1.058333 h 7.4083337 c 0.584729,0 1.058333,-0.473604 1.058333,-1.058333 V 2.6458333 C 11.1125,2.0611042 10.638896,1.5875 10.054167,1.5875 Z"
           inkscape:connector-curvature="0"
           style="fill:#000000;fill-opacity:1;stroke:none;stroke-width:0.26458299" />
      </g>
      <g
         transform="matrix(0.14809567,0,0,0.14809567,-24.45785,294.5487)"
         style="fill:#000000;fill-opacity:1;stroke:none"
         id="use34497">
        <title
           id="title1070">Lock Outline</title>
        <path
           id="path1072"
           d="M 9.525,4.2333333 H 8.9958333 V 3.175 C 8.9958333,1.7145 7.8105,0.52916667 6.35,0.52916667 4.8895,0.52916667 3.7041667,1.7145 3.7041667,3.175 V 4.2333333 H 3.175 c -0.5847292,0 -1.0583333,0.4736042 -1.0583333,1.0583334 v 5.2916663 c 0,0.584729 0.4736041,1.058334 1.0583333,1.058334 h 6.35 c 0.584729,0 1.058333,-0.473605 1.058333,-1.058334 V 5.2916667 c 0,-0.5847292 -0.473604,-1.0583334 -1.058333,-1.0583334 z M 6.35,1.5345833 c 0.904875,0 1.6404167,0.7355417 1.6404167,1.6404167 V 4.2333333 H 4.7625 V 3.175 H 4.7095833 C 4.7095833,2.270125 5.445125,1.5345833 6.35,1.5345833 Z M 9.525,10.583333 H 3.175 V 5.2916667 h 6.35 z M 6.35,8.9958333 c 0.5847292,0 1.0583333,-0.4736041 1.0583333,-1.0583333 0,-0.5847292 -0.4736041,-1.0583333 -1.0583333,-1.0583333 -0.5847292,0 -1.0583333,0.4736041 -1.0583333,1.0583333 0,0.5847292 0.4736041,1.0583333 1.0583333,1.0583333 z"
           inkscape:connector-curvature="0"
           style="fill:#000000;fill-opacity:1;stroke:none;stroke-width:0.26458299" />
      </g>
      <path
         id="path1082"
         d="m -19.121943,294.684 0.133951,-0.0223 v 0.73673 h -0.133951 z"
         style="color:#000000;display:inline;overflow:visible;visibility:visible;fill:#000000;fill-opacity:1;stroke:none;stroke-width:0.200927;marker:none;enable-background:accumulate"
         inkscape:connector-curvature="0" />
      <path
         id="path1084"
         d="m -19.423402,294.89431 c -0.288496,0.16656 -0.429338,0.50701 -0.343119,0.82879 0.08622,0.32177 0.378491,0.54599 0.711616,0.54599 0.333126,0 0.625397,-0.22422 0.711616,-0.54599 0.08622,-0.32178 -0.05479,-0.66223 -0.343283,-0.82879 l -0.06707,0.11602 c 0.236551,0.13657 0.351683,0.41415 0.280988,0.67799 -0.0707,0.26384 -0.309101,0.44678 -0.582247,0.44678 -0.273145,0 -0.511551,-0.18294 -0.582246,-0.44678 -0.0707,-0.26384 0.04427,-0.54142 0.280823,-0.67799 z"
         style="color:#000000;font-style:normal;font-variant:normal;font-weight:normal;font-stretch:normal;font-size:medium;line-height:normal;font-family:sans-serif;font-variant-ligatures:normal;font-variant-position:normal;font-variant-caps:normal;font-variant-numeric:normal;font-variant-alternates:normal;font-feature-settings:normal;text-indent:0;text-align:start;text-decoration:none;text-decoration-line:none;text-decoration-style:solid;text-decoration-color:#000000;letter-spacing:normal;word-spacing:normal;text-transform:none;writing-mode:lr-tb;direction:ltr;text-orientation:mixed;dominant-baseline:auto;baseline-shift:baseline;text-anchor:start;white-space:normal;shape-padding:0;clip-rule:nonzero;display:inline;overflow:visible;visibility:visible;isolation:auto;mix-blend-mode:normal;color-interpolation:sRGB;color-interpolation-filters:linearRGB;solid-color:#000000;solid-opacity:1;vector-effect:none;fill:#000000;fill-opacity:1;fill-rule:nonzero;stroke:none;stroke-width:0.0843787;stroke-linecap:butt;stroke-linejoin:round;stroke-miterlimit:4;stroke-dasharray:none;stroke-dashoffset:0;stroke-opacity:1;marker:none;color-rendering:auto;image-rendering:auto;shape-rendering:auto;text-rendering:auto;enable-background:accumulate"
         inkscape:connector-curvature="0" />
      <g
         style="fill:#000000;fill-opacity:1;stroke:none"
         transform="matrix(0.83262068,0,0,0.75462043,-32.533641,68.70425)"
         id="g27387">
        <g
           style="fill:#000000;fill-opacity:1;stroke:none"
           id="g33698"
           transform="matrix(0.93454954,0,0,0.93454954,0.11002233,23.523971)">
          <g
             style="opacity:1;fill:#000000;fill-opacity:1;stroke:none"
             id="rect33674" />
          <g
             style="opacity:1;fill:#000000;fill-opacity:1;stroke:none"
             id="rect33676" />
          <g
             style="opacity:1;fill:#000000;fill-opacity:1;stroke:none"
             id="rect33678" />
          <g
             style="opacity:1;fill:#000000;fill-opacity:1;stroke:none"
             id="rect33680" />
          <g
             style="opacity:1;fill:#000000;fill-opacity:1;stroke:none"
             id="rect33682" />
          <g
             style="opacity:1;fill:#000000;fill-opacity:1;stroke:none"
             id="rect33684" />
          <g
             style="opacity:1;fill:#000000;fill-opacity:1;stroke:none"
             id="rect33686" />
          <g
             style="opacity:1;fill:#000000;fill-opacity:1;stroke:none"
             id="rect33688" />
        </g>
        <path
           sodipodi:nodetypes="cccccccccccccccccccccccccccccccccccccccccccccccccccccccccccccccccccccccccccccccccccccccccccccccccccccccccccccccccccccccccccccccccccccccccccccccccccccccccccccccccccccccccccccccccccccccccccccccc"
           inkscape:connector-curvature="0"
           d="m 7.0234375,251.41992 -0.00195,0.79297 3.9687495,0.0156 0.002,-0.79297 z m 5.5566405,0.0215 -0.002,0.79297 4.761719,0.0195 0.0039,-0.79297 z m 6.34961,0.0254 -0.002,0.79297 1.033204,0.004 0.002,-0.79297 z m -11.851563,4.84765 -0.00391,0.79493 3.96875,0.0156 0.0039,-0.79297 z m 5.556641,0.0234 -0.0039,0.79297 4.761719,0.0195 0.0039,-0.79492 z m 6.349609,0.0254 -0.0039,0.79297 1.033203,0.004 0.0039,-0.79297 z m -11.84375,4.67774 -0.00391,0.79492 3.96875,0.0156 0.0039,-0.79492 z m 5.556641,0.0215 -0.0039,0.79492 4.763672,0.0195 0.002,-0.79492 z m 6.349609,0.0254 -0.0039,0.79492 1.033203,0.004 0.0039,-0.79492 z m -11.7890625,5.08203 -0.00391,0.79492 3.9687495,0.0156 0.0039,-0.79492 z m 5.5566405,0.0234 -0.0039,0.79297 4.761719,0.0195 0.0039,-0.79492 z m 6.349609,0.0254 -0.0039,0.79297 1.033203,0.004 0.0039,-0.79296 z m -11.9687495,4.43555 -0.00391,0.79297 3.9687495,0.0156 0.0039,-0.79297 z m 5.5546875,0.0215 -0.002,0.79492 4.761719,0.0176 0.0039,-0.79297 z m 6.351562,0.0254 -0.0039,0.79492 1.033203,0.004 0.002,-0.79492 z m -11.7910151,4.33008 -0.00195,0.79297 3.9687501,0.0156 0.002,-0.79296 z m 5.5566411,0.0215 -0.0039,0.79297 4.763672,0.0195 0.002,-0.79296 z m 6.349609,0.0254 -0.002,0.79297 1.03125,0.004 0.0039,-0.79297 z m -11.9003908,4.43555 -0.00391,0.79492 3.9687498,0.0156 0.0039,-0.79492 z m 5.5546878,0.0215 -0.002,0.79492 4.761718,0.0195 0.0039,-0.79492 z m 6.351562,0.0254 -0.0039,0.79492 1.033203,0.004 0.002,-0.79297 z m -11.9062498,-32.91211 -0.00391,0.79297 3.9687498,0.0176 0.0039,-0.79492 z m 5.5546878,0.0215 -0.002,0.79492 4.761718,0.0195 0.0039,-0.79493 z m 6.351562,0.0254 -0.0039,0.79492 1.033203,0.004 0.002,-0.79492 z M 1.8057186,268.34675 c -0.06861,-1.6e-4 -0.1242695,0.0555 -0.1241198,0.12411 v 3.38958 c -1.497e-4,0.0686 0.05551,0.12427 0.1241198,0.12411 h 3.0810931 c 0.06861,1.6e-4 0.1242695,-0.0555 0.1241198,-0.12411 v -3.38958 c 1.497e-4,-0.0686 -0.05551,-0.12427 -0.1241198,-0.12411 z m 0,4.0631 c -0.068614,-1.6e-4 -0.124275,0.0555 -0.1241198,0.12412 v 3.38956 c -1.552e-4,0.0686 0.055506,0.12428 0.1241198,0.12412 h 3.0810931 c 0.068614,1.6e-4 0.124275,-0.0555 0.1241198,-0.12412 v -3.38956 c 1.552e-4,-0.0686 -0.055506,-0.12428 -0.1241198,-0.12412 z m 0,4.37887 c -0.068618,-1.6e-4 -0.1242806,0.0555 -0.1241198,0.12413 v 3.38956 c -1.552e-4,0.0686 0.055506,0.12428 0.1241198,0.12412 h 3.0810931 c 0.068614,1.6e-4 0.124275,-0.0555 0.1241198,-0.12412 v -3.38956 c 1.608e-4,-0.0686 -0.055502,-0.12429 -0.1241198,-0.12413 z m 0,-26.11993 c -0.068614,-1.6e-4 -0.124275,0.0555 -0.1241198,0.12412 v 3.38957 c -1.552e-4,0.0686 0.055506,0.12428 0.1241198,0.12412 h 3.0810931 c 0.068614,1.6e-4 0.124275,-0.0555 0.1241198,-0.12412 v -3.38957 c 1.552e-4,-0.0686 -0.055506,-0.12428 -0.1241198,-0.12412 z m 0,4.51212 c -0.068614,-1.6e-4 -0.124275,0.0555 -0.1241198,0.12412 v 3.38957 c -1.552e-4,0.0686 0.055506,0.12428 0.1241198,0.12412 h 3.0810931 c 0.068614,1.6e-4 0.124275,-0.0555 0.1241198,-0.12412 v -3.38957 c 1.552e-4,-0.0686 -0.055506,-0.12428 -0.1241198,-0.12412 z m 0,4.43729 c -0.067907,-1.6e-4 -0.1232754,0.0544 -0.1241198,0.1223 v 3.38956 c -1.552e-4,0.0686 0.055506,0.12428 0.1241198,0.12412 h 3.0810931 c 0.068614,1.6e-4 0.124275,-0.0555 0.1241198,-0.12412 v -3.38956 c -8.444e-4,-0.0679 -0.056213,-0.12246 -0.1241198,-0.1223 z m 0,4.4026 c -0.068618,-1.6e-4 -0.1242806,0.0555 -0.1241198,0.12413 v 3.38956 c -1.552e-4,0.0686 0.055506,0.12428 0.1241198,0.12412 h 3.0810931 c 0.068614,1.6e-4 0.124275,-0.0555 0.1241198,-0.12412 v -3.38956 c 1.608e-4,-0.0686 -0.055502,-0.12429 -0.1241198,-0.12413 z m 0,-17.94262 c -0.068614,-1.6e-4 -0.124275,0.0555 -0.1241198,0.12412 v 3.38957 c -1.552e-4,0.0686 0.055506,0.12428 0.1241198,0.12412 h 3.0810931 c 0.068614,1.6e-4 0.124275,-0.0555 0.1241198,-0.12412 v -3.38957 c 1.552e-4,-0.0686 -0.055506,-0.12428 -0.1241198,-0.12412 z"
           style="color:#000000;font-style:normal;font-variant:normal;font-weight:normal;font-stretch:normal;font-size:medium;line-height:normal;font-family:sans-serif;font-variant-ligatures:normal;font-variant-position:normal;font-variant-caps:normal;font-variant-numeric:normal;font-variant-alternates:normal;font-feature-settings:normal;text-indent:0;text-align:start;text-decoration:none;text-decoration-line:none;text-decoration-style:solid;text-decoration-color:#000000;letter-spacing:normal;word-spacing:normal;text-transform:none;writing-mode:lr-tb;direction:ltr;text-orientation:mixed;dominant-baseline:auto;baseline-shift:baseline;text-anchor:start;white-space:normal;shape-padding:0;clip-rule:nonzero;display:inline;overflow:visible;visibility:visible;opacity:1;isolation:auto;mix-blend-mode:normal;color-interpolation:sRGB;color-interpolation-filters:linearRGB;solid-color:#000000;solid-opacity:1;vector-effect:none;fill:#000000;fill-opacity:1;fill-rule:evenodd;stroke:none;stroke-linecap:butt;stroke-linejoin:miter;stroke-miterlimit:4;stroke-dasharray:4.7625, 1.5875;stroke-dashoffset:0.79374999;stroke-opacity:1;color-rendering:auto;image-rendering:auto;shape-rendering:auto;text-rendering:auto;enable-background:accumulate"
           id="path36027" />
      </g>
      <g
         style="opacity:1;fill:#000000;fill-opacity:1;stroke:none"
         id="path36029"
         transform="translate(-32.811477,8.3197075)">
        <path
           id="path1256"
           d="m 1.0405487,284.71001 17.3438033,0.0511"
           style="color:#000000;font-style:normal;font-variant:normal;font-weight:normal;font-stretch:normal;font-size:medium;line-height:normal;font-family:sans-serif;font-variant-ligatures:normal;font-variant-position:normal;font-variant-caps:normal;font-variant-numeric:normal;font-variant-alternates:normal;font-feature-settings:normal;text-indent:0;text-align:start;text-decoration:none;text-decoration-line:none;text-decoration-style:solid;text-decoration-color:#000000;letter-spacing:normal;word-spacing:normal;text-transform:none;writing-mode:lr-tb;direction:ltr;text-orientation:mixed;dominant-baseline:auto;baseline-shift:baseline;text-anchor:start;white-space:normal;shape-padding:0;clip-rule:nonzero;display:inline;overflow:visible;visibility:visible;isolation:auto;mix-blend-mode:normal;color-interpolation:sRGB;color-interpolation-filters:linearRGB;solid-color:#000000;solid-opacity:1;vector-effect:none;fill:#000000;fill-opacity:1;fill-rule:evenodd;stroke:none;stroke-width:0.26046699;stroke-linecap:butt;stroke-linejoin:miter;stroke-miterlimit:4;stroke-dasharray:none;stroke-dashoffset:0;stroke-opacity:1;color-rendering:auto;image-rendering:auto;shape-rendering:auto;text-rendering:auto;enable-background:accumulate"
           inkscape:connector-curvature="0" />
        <path
           id="path1258"
           d="m 1.0410156,284.58008 v 0.25976 l 17.3437504,0.0508 v -0.25976 z"
           style="color:#000000;font-style:normal;font-variant:normal;font-weight:normal;font-stretch:normal;font-size:medium;line-height:normal;font-family:sans-serif;font-variant-ligatures:normal;font-variant-position:normal;font-variant-caps:normal;font-variant-numeric:normal;font-variant-alternates:normal;font-feature-settings:normal;text-indent:0;text-align:start;text-decoration:none;text-decoration-line:none;text-decoration-style:solid;text-decoration-color:#000000;letter-spacing:normal;word-spacing:normal;text-transform:none;writing-mode:lr-tb;direction:ltr;text-orientation:mixed;dominant-baseline:auto;baseline-shift:baseline;text-anchor:start;white-space:normal;shape-padding:0;clip-rule:nonzero;display:inline;overflow:visible;visibility:visible;isolation:auto;mix-blend-mode:normal;color-interpolation:sRGB;color-interpolation-filters:linearRGB;solid-color:#000000;solid-opacity:1;vector-effect:none;fill:#000000;fill-opacity:1;fill-rule:evenodd;stroke:none;stroke-linecap:butt;stroke-linejoin:miter;stroke-miterlimit:4;stroke-dasharray:none;stroke-dashoffset:0;stroke-opacity:1;color-rendering:auto;image-rendering:auto;shape-rendering:auto;text-rendering:auto;enable-background:accumulate"
           inkscape:connector-curvature="0" />
      </g>
      <g
         style="fill:#000000;fill-opacity:1;stroke:none"
         transform="matrix(0.8202893,0,0,0.72101718,13.542426,76.643546)"
         id="g29146">
        <g
           style="fill:#000000;fill-opacity:1;stroke:none"
           transform="matrix(0.93454954,0,0,0.93454954,-33.227493,23.523971)"
           id="g27405">
          <g
             style="opacity:1;fill:#000000;fill-opacity:1;stroke:none"
             id="rect27389" />
          <g
             style="opacity:1;fill:#000000;fill-opacity:1;stroke:none"
             id="rect27391" />
          <g
             style="opacity:1;fill:#000000;fill-opacity:1;stroke:none"
             id="rect27393" />
          <g
             style="opacity:1;fill:#000000;fill-opacity:1;stroke:none"
             id="rect27395" />
          <g
             style="opacity:1;fill:#000000;fill-opacity:1;stroke:none"
             id="rect27397" />
          <g
             style="opacity:1;fill:#000000;fill-opacity:1;stroke:none"
             id="rect27399" />
          <g
             style="opacity:1;fill:#000000;fill-opacity:1;stroke:none"
             id="rect27401" />
          <g
             style="opacity:1;fill:#000000;fill-opacity:1;stroke:none"
             id="rect27403" />
        </g>
      </g>
      <path
         style="color:#000000;display:inline;overflow:visible;visibility:visible;fill:#000000;fill-opacity:1;fill-rule:nonzero;stroke:none;stroke-width:0.033775;marker:none;enable-background:accumulate"
         d="m 2.1765293,248.97966 c 0,0 -0.755904,0.3736 -1.41736296,0.91193 h -2.06e-4 c -2.65e-4,2.5e-4 -7.94e-4,5.1e-4 -0.0011,7.6e-4 h 2.03e-4 c 0,0 0,7e-5 0,7e-5 h -2.03e-4 c 2.64e-4,2.5e-4 7.93e-4,5.1e-4 0.0011,7.7e-4 h 2.06e-4 c 0.66146396,0.53832 1.41736296,0.91192 1.41736296,0.91192 v -0.002 h 1.621202 v -0.9104 -0.002 -0.91041 h -1.621202 z m 0.254235,0.31816 0.461902,0.4619 0.461902,-0.4619 0.143277,0.14328 -0.461899,0.4619 0.461899,0.4619 -0.143277,0.14335 -0.461902,-0.4619 -0.461902,0.4619 -0.14328,-0.14335 0.461902,-0.4619 -0.461902,-0.4619 z"
         id="path1054"
         inkscape:connector-curvature="0" />
      <g
         style="fill:#000000;fill-opacity:1;stroke:none"
         transform="translate(15.65847,22.089347)"
         id="g29219">
        <g
           style="opacity:1;fill:#000000;fill-opacity:1;stroke:none"
           id="rect29150" />
        <g
           style="opacity:1;fill:#000000;fill-opacity:1;stroke:none"
           id="rect29152" />
        <g
           style="opacity:1;fill:#000000;fill-opacity:1;stroke:none"
           id="rect29158" />
        <g
           style="opacity:1;fill:#000000;fill-opacity:1;stroke:none"
           id="rect29160" />
        <g
           style="opacity:1;fill:#000000;fill-opacity:1;stroke:none"
           id="rect29162" />
        <path
           sodipodi:nodetypes="cccccccccccccccccccccccccccccccccccccccccccccccccccccccccccccccccccccccccccccccccccccccccccccccccccccccccccccccccccccccccccccccccccccccccccccccccccccccccccccccccccccccccccccccccccccc"
           inkscape:connector-curvature="0"
           d="m -23.605469,258.83789 -0.002,0.20313 10.615234,0.0371 V 258.875 Z m 0.0957,3.69727 -0.002,0.20312 10.615235,0.0371 v -0.20312 z m -0.05273,3.23242 v 0.20508 l 10.613281,0.0371 0.002,-0.20508 z m 0.0957,3.15625 v 0.20312 l 10.613281,0.0371 0.002,-0.20312 z m 0.0039,3.23242 v 0.20313 l 10.613282,0.0371 0.002,-0.20312 z m -4.519531,-8.24219 c -0.05296,-2.6e-4 -0.09596,0.0427 -0.0957,0.0957 v 2.44335 c -2.57e-4,0.053 0.04274,0.096 0.0957,0.0957 h 2.527344 c 0.05296,2.6e-4 0.09596,-0.0427 0.0957,-0.0957 v -2.44335 c 2.57e-4,-0.053 -0.04274,-0.096 -0.0957,-0.0957 z m -2e-6,2.92967 c -0.05296,-2.6e-4 -0.09596,0.0427 -0.0957,0.0957 v 2.44336 c -2.57e-4,0.053 0.04274,0.096 0.0957,0.0957 h 2.527344 c 0.05296,2.6e-4 0.09596,-0.0427 0.0957,-0.0957 v -2.44336 c 2.57e-4,-0.053 -0.04274,-0.096 -0.0957,-0.0957 z m -2e-6,3.15817 c -0.05218,-2.6e-4 -0.09486,0.0415 -0.0957,0.0937 v 2.44532 c 8.43e-4,0.0522 0.04352,0.094 0.0957,0.0937 h 2.527344 c 0.05218,2.6e-4 0.09486,-0.0415 0.0957,-0.0937 v -2.44532 c -8.43e-4,-0.0522 -0.04352,-0.094 -0.0957,-0.0937 z m -2e-6,-12.38085 c -0.05218,-2.6e-4 -0.09486,0.0415 -0.0957,0.0937 v 2.44532 c 8.43e-4,0.0522 0.04352,0.094 0.0957,0.0937 h 2.527344 c 0.05218,2.6e-4 0.09486,-0.0415 0.0957,-0.0937 v -2.44532 c -8.43e-4,-0.0522 -0.04352,-0.094 -0.0957,-0.0937 z m -2e-6,3.1738 c -0.05296,-2.6e-4 -0.09596,0.0427 -0.0957,0.0957 v 2.44336 c -2.57e-4,0.053 0.04274,0.096 0.0957,0.0957 h 2.527344 c 0.05296,2.6e-4 0.09596,-0.0427 0.0957,-0.0957 v -2.44336 c 2.57e-4,-0.053 -0.04274,-0.096 -0.0957,-0.0957 z m 4.280911,-24.77254 v 0.19152 l 10.612493,0.0366 0.0016,-0.19151 z m 0.04486,3.53045 -0.0016,0.19011 10.614095,0.038 v -0.19152 z m 0.05127,3.40793 -0.0016,0.19011 10.614095,0.0366 0.0016,-0.19011 z m 0.09453,3.69803 v 0.19011 l 10.614095,0.038 v -0.19151 z m -0.05127,3.23191 v 0.19151 l 10.614095,0.0366 v -0.19011 z m 0.09613,3.15585 -0.0016,0.19011 10.614095,0.038 0.0016,-0.19152 z m 0.0032,3.23332 v 0.19011 l 10.614095,0.0366 v -0.19011 z m 0,-23.69641 v 0.19012 l 10.614095,0.0366 v -0.19012 z m -4.518448,15.45334 c -0.05629,-1.1e-4 -0.101946,0.04 -0.101814,0.0895 v 2.44394 c -1.32e-4,0.0495 0.04553,0.0896 0.101814,0.0895 h 2.527387 c 0.05629,1.1e-4 0.101947,-0.04 0.101815,-0.0895 v -2.44394 c 1.32e-4,-0.0495 -0.04553,-0.0896 -0.101815,-0.0895 z m 0,2.92962 c -0.05629,-1.1e-4 -0.101946,0.04 -0.101814,0.0895 v 2.44393 c -1.32e-4,0.0495 0.04553,0.0896 0.101814,0.0895 h 2.527387 c 0.05629,1.1e-4 0.101947,-0.04 0.101815,-0.0895 v -2.44393 c 1.32e-4,-0.0495 -0.04553,-0.0896 -0.101815,-0.0895 z m 0,3.15725 c -0.05629,-1.1e-4 -0.101946,0.04 -0.101814,0.0895 v 2.44394 c -1.32e-4,0.0495 0.04553,0.0896 0.101814,0.0895 h 2.527387 c 0.05629,1.1e-4 0.101947,-0.04 0.101815,-0.0895 v -2.44394 c 1.32e-4,-0.0495 -0.04553,-0.0896 -0.101815,-0.0895 z m 0,-18.83288 c -0.05629,-1.1e-4 -0.101946,0.04 -0.101814,0.0895 v 2.44393 c -1.32e-4,0.0495 0.04553,0.0896 0.101814,0.0895 h 2.527387 c 0.05629,1.1e-4 0.101947,-0.04 0.101815,-0.0895 v -2.44393 c 1.32e-4,-0.0495 -0.04553,-0.0896 -0.101815,-0.0895 z m 0,3.2533 c -0.05629,-1.1e-4 -0.101946,0.04 -0.101814,0.0895 v 2.44393 c -1.32e-4,0.0495 0.04553,0.0896 0.101814,0.0895 h 2.527387 c 0.05629,1.1e-4 0.101947,-0.04 0.101815,-0.0895 v -2.44393 c 1.32e-4,-0.0495 -0.04553,-0.0896 -0.101815,-0.0895 z m 0,3.1994 c -0.05571,-1.1e-4 -0.101133,0.0392 -0.101814,0.0882 v 2.44393 c -1.32e-4,0.0495 0.04553,0.0896 0.101814,0.0895 h 2.527387 c 0.05629,1.1e-4 0.101947,-0.04 0.101815,-0.0895 v -2.44393 c -6.81e-4,-0.049 -0.0461,-0.0883 -0.101815,-0.0882 z m 0,3.17434 c -0.05629,-1.1e-4 -0.101946,0.04 -0.101814,0.0895 v 2.44393 c -1.32e-4,0.0495 0.04553,0.0896 0.101814,0.0895 h 2.527387 c 0.05629,1.1e-4 0.101947,-0.04 0.101815,-0.0895 v -2.44393 c 1.32e-4,-0.0495 -0.04553,-0.0896 -0.101815,-0.0895 z m 0,-12.93692 c -0.05629,-1.1e-4 -0.101946,0.04 -0.101814,0.0895 v 2.44393 c -1.32e-4,0.0495 0.04553,0.0896 0.101814,0.0895 h 2.527387 c 0.05629,1.1e-4 0.101947,-0.04 0.101815,-0.0895 v -2.44393 c 1.32e-4,-0.0495 -0.04553,-0.0896 -0.101815,-0.0895 z"
           style="color:#000000;font-style:normal;font-variant:normal;font-weight:normal;font-stretch:normal;font-size:medium;line-height:normal;font-family:sans-serif;font-variant-ligatures:normal;font-variant-position:normal;font-variant-caps:normal;font-variant-numeric:normal;font-variant-alternates:normal;font-feature-settings:normal;text-indent:0;text-align:start;text-decoration:none;text-decoration-line:none;text-decoration-style:solid;text-decoration-color:#000000;letter-spacing:normal;word-spacing:normal;text-transform:none;writing-mode:lr-tb;direction:ltr;text-orientation:mixed;dominant-baseline:auto;baseline-shift:baseline;text-anchor:start;white-space:normal;shape-padding:0;clip-rule:nonzero;display:inline;overflow:visible;visibility:visible;opacity:1;isolation:auto;mix-blend-mode:normal;color-interpolation:sRGB;color-interpolation-filters:linearRGB;solid-color:#000000;solid-opacity:1;vector-effect:none;fill:#000000;fill-opacity:1;fill-rule:evenodd;stroke:none;stroke-linecap:butt;stroke-linejoin:miter;stroke-miterlimit:4;stroke-dasharray:none;stroke-dashoffset:0.26458299;stroke-opacity:1;color-rendering:auto;image-rendering:auto;shape-rendering:auto;text-rendering:auto;enable-background:accumulate"
           id="path29176" />
      </g>
      <g
         style="opacity:1;fill:#000000;fill-opacity:1;stroke:none"
         id="path29221"
         transform="translate(-32.811477,8.3197075)">
        <path
           id="path1120"
           d="m 1.0405487,274.12661 17.3438033,0.0511"
           style="color:#000000;font-style:normal;font-variant:normal;font-weight:normal;font-stretch:normal;font-size:medium;line-height:normal;font-family:sans-serif;font-variant-ligatures:normal;font-variant-position:normal;font-variant-caps:normal;font-variant-numeric:normal;font-variant-alternates:normal;font-feature-settings:normal;text-indent:0;text-align:start;text-decoration:none;text-decoration-line:none;text-decoration-style:solid;text-decoration-color:#000000;letter-spacing:normal;word-spacing:normal;text-transform:none;writing-mode:lr-tb;direction:ltr;text-orientation:mixed;dominant-baseline:auto;baseline-shift:baseline;text-anchor:start;white-space:normal;shape-padding:0;clip-rule:nonzero;display:inline;overflow:visible;visibility:visible;isolation:auto;mix-blend-mode:normal;color-interpolation:sRGB;color-interpolation-filters:linearRGB;solid-color:#000000;solid-opacity:1;vector-effect:none;fill:#000000;fill-opacity:1;fill-rule:evenodd;stroke:none;stroke-width:0.26046699;stroke-linecap:butt;stroke-linejoin:miter;stroke-miterlimit:4;stroke-dasharray:none;stroke-dashoffset:0;stroke-opacity:1;color-rendering:auto;image-rendering:auto;shape-rendering:auto;text-rendering:auto;enable-background:accumulate"
           inkscape:connector-curvature="0" />
        <path
           id="path1122"
           d="m 1.0410156,273.99609 v 0.26172 l 17.3437504,0.0508 v -0.26171 z"
           style="color:#000000;font-style:normal;font-variant:normal;font-weight:normal;font-stretch:normal;font-size:medium;line-height:normal;font-family:sans-serif;font-variant-ligatures:normal;font-variant-position:normal;font-variant-caps:normal;font-variant-numeric:normal;font-variant-alternates:normal;font-feature-settings:normal;text-indent:0;text-align:start;text-decoration:none;text-decoration-line:none;text-decoration-style:solid;text-decoration-color:#000000;letter-spacing:normal;word-spacing:normal;text-transform:none;writing-mode:lr-tb;direction:ltr;text-orientation:mixed;dominant-baseline:auto;baseline-shift:baseline;text-anchor:start;white-space:normal;shape-padding:0;clip-rule:nonzero;display:inline;overflow:visible;visibility:visible;isolation:auto;mix-blend-mode:normal;color-interpolation:sRGB;color-interpolation-filters:linearRGB;solid-color:#000000;solid-opacity:1;vector-effect:none;fill:#000000;fill-opacity:1;fill-rule:evenodd;stroke:none;stroke-linecap:butt;stroke-linejoin:miter;stroke-miterlimit:4;stroke-dasharray:none;stroke-dashoffset:0;stroke-opacity:1;color-rendering:auto;image-rendering:auto;shape-rendering:auto;text-rendering:auto;enable-background:accumulate"
           inkscape:connector-curvature="0" />
      </g>
      <g
         style="fill:#000000;fill-opacity:1;stroke:none"
         transform="translate(4.3619533,4.0737645)"
         id="g29259">
        <g
           style="opacity:1;fill:#000000;fill-opacity:1;stroke:none"
           id="rect29227" />
        <g
           style="opacity:1;fill:#000000;fill-opacity:1;stroke:none"
           id="rect29229" />
        <path
           sodipodi:nodetypes="cccccccccccccccccccccccccccc"
           inkscape:connector-curvature="0"
           d="m -30.558594,282.16406 v 0.20313 l 10.613282,0.0371 v -0.20313 z m 0.0039,3.23242 -0.002,0.20313 10.615235,0.0371 v -0.20313 z m -4.519531,-4.7832 c -0.05296,-2.6e-4 -0.09596,0.0427 -0.0957,0.0957 v 2.44336 c -2.57e-4,0.053 0.04274,0.096 0.0957,0.0957 h 2.527344 c 0.05296,2.6e-4 0.09596,-0.0427 0.0957,-0.0957 v -2.44336 c 2.57e-4,-0.053 -0.04274,-0.096 -0.0957,-0.0957 z m -2e-6,3.15824 c -0.05218,-2.6e-4 -0.09486,0.0415 -0.0957,0.0937 v 2.44532 c -2.57e-4,0.053 0.04274,0.096 0.0957,0.0957 h 2.527344 c 0.05296,2.6e-4 0.09596,-0.0427 0.0957,-0.0957 v -2.44532 c -8.43e-4,-0.0522 -0.04352,-0.094 -0.0957,-0.0937 z"
           style="color:#000000;font-style:normal;font-variant:normal;font-weight:normal;font-stretch:normal;font-size:medium;line-height:normal;font-family:sans-serif;font-variant-ligatures:normal;font-variant-position:normal;font-variant-caps:normal;font-variant-numeric:normal;font-variant-alternates:normal;font-feature-settings:normal;text-indent:0;text-align:start;text-decoration:none;text-decoration-line:none;text-decoration-style:solid;text-decoration-color:#000000;letter-spacing:normal;word-spacing:normal;text-transform:none;writing-mode:lr-tb;direction:ltr;text-orientation:mixed;dominant-baseline:auto;baseline-shift:baseline;text-anchor:start;white-space:normal;shape-padding:0;clip-rule:nonzero;display:inline;overflow:visible;visibility:visible;opacity:1;isolation:auto;mix-blend-mode:normal;color-interpolation:sRGB;color-interpolation-filters:linearRGB;solid-color:#000000;solid-opacity:1;vector-effect:none;fill:#000000;fill-opacity:1;fill-rule:evenodd;stroke:none;stroke-linecap:butt;stroke-linejoin:miter;stroke-miterlimit:4;stroke-dasharray:none;stroke-dashoffset:0.26458299;stroke-opacity:1;color-rendering:auto;image-rendering:auto;shape-rendering:auto;text-rendering:auto;enable-background:accumulate"
           id="path29235" />
      </g>
    </g>
  </g>
</svg>
