<?xml version="1.0" encoding="UTF-8" standalone="no"?>
<svg
   xmlns:dc="http://purl.org/dc/elements/1.1/"
   xmlns:cc="http://creativecommons.org/ns#"
   xmlns:rdf="http://www.w3.org/1999/02/22-rdf-syntax-ns#"
   xmlns:svg="http://www.w3.org/2000/svg"
   xmlns="http://www.w3.org/2000/svg"
   id="svg8"
   version="1.1"
   viewBox="0 0 6.3499999 6.3500002"
   height="24"
   width="24">
  <defs
     id="defs2">
    <style
       id="current-color-scheme"
       type="text/css">
   .ColorScheme-Text { color:#444444; } .ColorScheme-Highlight { color:#4285f4; }
  </style>
  </defs>
  <metadata
     id="metadata5">
    <rdf:RDF>
      <cc:Work
         rdf:about="">
        <dc:format>image/svg+xml</dc:format>
        <dc:type
           rdf:resource="http://purl.org/dc/dcmitype/StillImage" />
        <dc:title></dc:title>
      </cc:Work>
    </rdf:RDF>
  </metadata>
  <g
     transform="translate(0,-290.64998)"
     id="layer1">
    <g
       transform="matrix(0.05709354,0,0,0.05703853,12.677011,278.16079)"
       id="g83628">
      <path
         id="text36"
         d="m -158.90456,228.47946 c -12.28678,0 -22.71832,3.92011 -31.29788,11.76578 -9.63877,8.90591 -14.4602,20.25349 -14.4602,34.03643 0,10.48543 2.96343,19.56845 8.86242,27.26112 3.02882,-2.13194 6.28369,-4.25548 9.94471,-6.32244 0.0302,-0.017 0.0585,-0.0275 0.0888,-0.0444 -4.64441,-6.00907 -6.9817,-13.23762 -6.9817,-21.69346 0,-1.80238 0.1613,-3.60544 0.47906,-5.40781 0.95329,-6.46739 3.59705,-12.13674 7.9398,-17.01378 6.77891,-7.84567 15.36426,-11.76579 25.74447,-11.76579 8.47365,0 15.83132,2.64632 22.08064,7.94746 7.94403,6.78546 11.91412,15.58546 11.91412,26.39975 0,8.90593 -2.64377,16.59358 -7.93979,23.06096 -6.56709,8.05774 -15.04489,12.08548 -25.42511,12.08548 -6.57052,0 -12.49823,-1.58674 -17.7958,-4.74185 -1.2538,0.76692 -2.51425,1.52808 -3.85013,2.28212 -2.56628,1.44789 -5.07648,2.74419 -7.52286,3.91601 7.96649,6.19954 17.60924,9.35936 29.00911,9.35936 3.28354,0 6.35741,-0.26908 9.21726,-0.79919 9.2151,-1.69637 17.31657,-7.20427 24.30732,-16.53426 v 15.26444 h 11.76334 v -86.98698 h -11.76334 v 15.4243 l -1.26859,-1.74934 c -8.15587,-10.49625 -19.16995,-15.74396 -33.04554,-15.74396 z m -28.21955,81.76558 c -2.02616,-1.57677 -3.98001,-3.29684 -5.78407,-5.27464 -1.03835,-1.10955 -1.99126,-2.25292 -2.89204,-3.42761 -1.45694,1.02551 -2.96712,2.05175 -4.24049,3.08131 3.00843,1.97541 4.92698,5.37739 5.05664,8.97752 2.49601,-0.90454 5.13654,-2.05206 7.85996,-3.35658 z m 11.37299,-6.19814 c 11.69264,-7.15197 19.55882,-14.59648 17.99985,-17.36896 -0.17701,-0.31696 -0.4709,-0.56988 -0.88714,-0.74591 -3.55808,-1.49545 -15.00384,2.41297 -27.12839,9.24392 1.47011,1.90204 3.15667,3.68874 5.09211,5.34565 1.57334,1.34251 3.21835,2.50973 4.92357,3.5253 z m -27.35018,4.75072 v 0.01 c -13.19335,-0.13492 -6.15893,10.21386 -16.84657,12.9557 12.27504,3.42885 20.13004,-1.00503 21.27334,-5.10591 0.56994,-2.04422 1.82442,-5.7458 -4.42677,-7.85867 z"
         style="font-style:normal;font-weight:normal;font-size:162.18093872px;line-height:1.25;font-family:sans-serif;letter-spacing:0px;word-spacing:0px;fill:#000000;fill-opacity:1;stroke:none;stroke-width:3.97393584" />
    </g>
  </g>
</svg>
