<?xml version="1.0" encoding="UTF-8" standalone="no"?>
<!-- Created with Inkscape (http://www.inkscape.org/) -->

<svg
   xmlns:dc="http://purl.org/dc/elements/1.1/"
   xmlns:cc="http://creativecommons.org/ns#"
   xmlns:rdf="http://www.w3.org/1999/02/22-rdf-syntax-ns#"
   xmlns:svg="http://www.w3.org/2000/svg"
   xmlns="http://www.w3.org/2000/svg"
   xmlns:sodipodi="http://sodipodi.sourceforge.net/DTD/sodipodi-0.dtd"
   xmlns:inkscape="http://www.inkscape.org/namespaces/inkscape"
   width="66mm"
   height="66mm"
   viewBox="0 0 66 66"
   version="1.1"
   id="svg8"
   inkscape:version="0.92.5 (2060ec1f9f, 2020-04-08)"
   sodipodi:docname="chromebook-layout-symbolic.svg">
  <defs
     id="defs2" />
  <sodipodi:namedview
     id="base"
     pagecolor="#ffffff"
     bordercolor="#666666"
     borderopacity="1.0"
     inkscape:pageopacity="0.0"
     inkscape:pageshadow="2"
     inkscape:zoom="1.4"
     inkscape:cx="24.569089"
     inkscape:cy="-14.279736"
     inkscape:document-units="mm"
     inkscape:current-layer="layer1"
     showgrid="false"
     inkscape:window-width="1280"
     inkscape:window-height="1264"
     inkscape:window-x="1280"
     inkscape:window-y="40"
     inkscape:window-maximized="0" />
  <metadata
     id="metadata5">
    <rdf:RDF>
      <cc:Work
         rdf:about="">
        <dc:format>image/svg+xml</dc:format>
        <dc:type
           rdf:resource="http://purl.org/dc/dcmitype/StillImage" />
        <dc:title />
      </cc:Work>
    </rdf:RDF>
  </metadata>
  <g
     inkscape:label="Layer 1"
     inkscape:groupmode="layer"
     id="layer1"
     transform="translate(0,-231)">
    <g
       id="g950"
       transform="translate(0.21056583)">
      <g
         style="fill:#000000;fill-opacity:1;stroke:none"
         id="g1092"
         transform="translate(-0.40001878,0.09873018)">
        <g
           style="fill:#000000;fill-opacity:1;stroke:none"
           id="g2840"
           transform="matrix(0.07586098,0,0,0.07586098,1.0123285,290.72228)">
          <g
             id="g1139"
             style="fill:#000000;fill-opacity:1;stroke:none">
            <g
               style="fill:#000000;fill-opacity:1;stroke:none"
               id="g1144"
               transform="matrix(1.48656,0,0,1.48656,-15.403652,-13.20102)">
              <path
                 d="m 17.337335,27.397354 h 16.404794 c 0.908826,0 1.640479,0.731654 1.640479,1.64048 v 16.404794 c 0,0.908825 -0.731653,1.640479 -1.640479,1.640479 H 17.337335 c -0.908826,0 -1.640479,-0.731654 -1.640479,-1.640479 V 29.037834 c 0,-0.908826 0.731653,-1.64048 1.640479,-1.64048 z m 22.966715,0 h 6.561917 c 0.908826,0 1.64048,0.731654 1.64048,1.64048 v 16.404794 c 0,0.908825 -0.731654,1.640479 -1.64048,1.640479 H 40.30405 c -0.908826,0 -1.64048,-0.731654 -1.64048,-1.640479 V 29.037834 c 0,-0.908826 0.731654,-1.64048 1.64048,-1.64048 z M 17.337335,14.273518 h 29.52863 c 0.908826,0 1.64048,0.731653 1.64048,1.640479 v 6.561918 c 0,0.908825 -0.731654,1.640479 -1.64048,1.640479 h -29.52863 c -0.908826,0 -1.640479,-0.731654 -1.640479,-1.640479 v -6.561918 c 0,-0.908826 0.731653,-1.640479 1.640479,-1.640479 z m 439.093875,14.960204 -0.0173,7.048919 35.19272,0.13851 0.0173,-7.048919 z m 49.27327,0.190473 -0.0346,7.048919 42.24165,0.17327 0.0173,-7.049008 z m 56.30489,0.225145 -0.0173,7.049007 9.14457,0.03458 0.0346,-7.04892 z M 7.8279265,3.497257 A 1.1732065,1.1732065 0 0 0 6.6675366,4.6750327 V 56.68471 a 1.1732065,1.1732065 0 0 0 1.1603899,1.160395 H 583.53721 a 1.1732065,1.1732065 0 0 0 1.1777,-1.160395 V 4.6750327 A 1.1732065,1.1732065 0 0 0 583.53721,3.497257 Z M 9.0056357,5.8527197 H 582.35949 V 55.507023 H 9.0056357 Z"
                 style="color:#000000;font-style:normal;font-variant:normal;font-weight:normal;font-stretch:normal;font-size:medium;line-height:normal;font-family:sans-serif;font-variant-ligatures:normal;font-variant-position:normal;font-variant-caps:normal;font-variant-numeric:normal;font-variant-alternates:normal;font-feature-settings:normal;text-indent:0;text-align:start;text-decoration:none;text-decoration-line:none;text-decoration-style:solid;text-decoration-color:#000000;letter-spacing:normal;word-spacing:normal;text-transform:none;writing-mode:lr-tb;direction:ltr;text-orientation:mixed;dominant-baseline:auto;baseline-shift:baseline;text-anchor:start;white-space:normal;shape-padding:0;clip-rule:nonzero;display:inline;overflow:visible;visibility:visible;opacity:1;isolation:auto;mix-blend-mode:normal;color-interpolation:sRGB;color-interpolation-filters:linearRGB;solid-color:#000000;solid-opacity:1;vector-effect:none;fill:#000000;fill-opacity:1;fill-rule:nonzero;stroke:none;stroke-width:1.64048004;stroke-linecap:butt;stroke-linejoin:miter;stroke-miterlimit:4;stroke-dasharray:none;stroke-dashoffset:0;stroke-opacity:1;color-rendering:auto;image-rendering:auto;shape-rendering:auto;text-rendering:auto;enable-background:accumulate"
                 id="rect22"
                 inkscape:connector-curvature="0" />
            </g>
          </g>
        </g>
      </g>
      <path
         d="m 0.42615322,239.63778 a 0.13369087,0.13369087 0 0 0 -0.132812,0.13477 v 49.77539 a 0.13369087,0.13369087 0 0 0 0.132812,0.13281 H 38.398811 a 0.13369087,0.13369087 0 0 0 0.134765,-0.13281 v -49.77539 a 0.13369087,0.13369087 0 0 0 -0.134765,-0.13477 z m 0.134766,0.26758 H 38.265998 v 49.50782 H 0.56091922 Z"
         style="color:#000000;font-style:normal;font-variant:normal;font-weight:normal;font-stretch:normal;font-size:medium;line-height:normal;font-family:sans-serif;font-variant-ligatures:normal;font-variant-position:normal;font-variant-caps:normal;font-variant-numeric:normal;font-variant-alternates:normal;font-feature-settings:normal;text-indent:0;text-align:start;text-decoration:none;text-decoration-line:none;text-decoration-style:solid;text-decoration-color:#000000;letter-spacing:normal;word-spacing:normal;text-transform:none;writing-mode:lr-tb;direction:ltr;text-orientation:mixed;dominant-baseline:auto;baseline-shift:baseline;text-anchor:start;white-space:normal;shape-padding:0;clip-rule:nonzero;display:inline;overflow:visible;visibility:visible;opacity:1;isolation:auto;mix-blend-mode:normal;color-interpolation:sRGB;color-interpolation-filters:linearRGB;solid-color:#000000;solid-opacity:1;vector-effect:none;fill:#000000;fill-opacity:1;fill-rule:nonzero;stroke:none;stroke-width:1;stroke-linecap:butt;stroke-linejoin:round;stroke-miterlimit:4;stroke-dasharray:none;stroke-dashoffset:0;stroke-opacity:1;color-rendering:auto;image-rendering:auto;shape-rendering:auto;text-rendering:auto;enable-background:accumulate"
         id="rect30567"
         inkscape:connector-curvature="0" />
      <g
         style="fill:#000000;fill-opacity:1;stroke:none"
         transform="translate(0.47286922,2.7445635)"
         id="g27497">
        <g
           style="fill:#000000;fill-opacity:1;stroke:none"
           id="g27430"
           transform="rotate(-89.926423,-5.277254,234.71843)">
          <g
             style="opacity:1;fill:#000000;fill-opacity:1;stroke:none"
             id="rect33674" />
          <g
             style="opacity:1;fill:#000000;fill-opacity:1;stroke:none"
             id="rect33678" />
          <g
             style="opacity:1;fill:#000000;fill-opacity:1;stroke:none"
             id="rect33680" />
          <g
             style="opacity:1;fill:#000000;fill-opacity:1;stroke:none"
             id="rect33682" />
        </g>
        <g
           style="fill:#000000;fill-opacity:1;stroke:none"
           transform="rotate(-89.926423,-1.502096,238.48869)"
           id="g27440">
          <g
             style="opacity:1;fill:#000000;fill-opacity:1;stroke:none"
             id="rect27432" />
          <g
             style="opacity:1;fill:#000000;fill-opacity:1;stroke:none"
             id="rect27434" />
          <g
             style="opacity:1;fill:#000000;fill-opacity:1;stroke:none"
             id="rect27436" />
          <g
             style="opacity:1;fill:#000000;fill-opacity:1;stroke:none"
             id="rect27438" />
        </g>
        <g
           style="fill:#000000;fill-opacity:1;stroke:none"
           id="g27450"
           transform="rotate(-89.926423,2.2730603,242.25896)">
          <g
             style="opacity:1;fill:#000000;fill-opacity:1;stroke:none"
             id="rect27442" />
          <g
             style="opacity:1;fill:#000000;fill-opacity:1;stroke:none"
             id="rect27444" />
          <g
             style="opacity:1;fill:#000000;fill-opacity:1;stroke:none"
             id="rect27446" />
          <g
             style="opacity:1;fill:#000000;fill-opacity:1;stroke:none"
             id="rect27448" />
        </g>
        <g
           style="fill:#000000;fill-opacity:1;stroke:none"
           transform="rotate(-89.926423,6.0482183,246.02923)"
           id="g27460">
          <g
             style="opacity:1;fill:#000000;fill-opacity:1;stroke:none"
             id="rect27452" />
          <g
             style="opacity:1;fill:#000000;fill-opacity:1;stroke:none"
             id="rect27454" />
          <g
             style="opacity:1;fill:#000000;fill-opacity:1;stroke:none"
             id="rect27456" />
          <g
             style="opacity:1;fill:#000000;fill-opacity:1;stroke:none"
             id="rect27458" />
        </g>
        <g
           style="fill:#000000;fill-opacity:1;stroke:none"
           id="g27470"
           transform="rotate(-89.926423,9.8233747,249.79949)">
          <g
             style="opacity:1;fill:#000000;fill-opacity:1;stroke:none"
             id="rect27462" />
          <g
             style="opacity:1;fill:#000000;fill-opacity:1;stroke:none"
             id="rect27464" />
          <g
             style="opacity:1;fill:#000000;fill-opacity:1;stroke:none"
             id="rect27466" />
          <g
             style="opacity:1;fill:#000000;fill-opacity:1;stroke:none"
             id="rect27468">
            <path
               sodipodi:nodetypes="cccccccccccccccccccccccccccccccccccccccccccccccccccccccccccccccccccccccccccccccccccccccccccccccccccccccccccccccccccccccccccccccccccccccccccccccccccccccccccccccccccccccccccccccccccc"
               inkscape:connector-curvature="0"
               d="m -22.314453,251.79883 c -0.122442,5.1e-4 -0.221272,0.10021 -0.220703,0.22265 v 6.06641 c 5.05e-4,0.12168 0.09902,0.2202 0.220703,0.2207 h 5.513672 c 0.122443,5.7e-4 0.222148,-0.0983 0.222656,-0.2207 v -6.06641 c 5.73e-4,-0.12321 -0.09945,-0.22323 -0.222656,-0.22265 z m 0,8.07617 c -0.122446,5.1e-4 -0.221277,0.10021 -0.220703,0.22266 v 6.0664 c 5e-4,0.12168 0.09902,0.22021 0.220703,0.22071 h 5.513672 c 0.122446,5.7e-4 0.222153,-0.0983 0.222656,-0.22071 v -6.0664 c 5.78e-4,-0.12321 -0.09945,-0.22324 -0.222656,-0.22266 z m 0,7.93945 c -0.121684,5e-4 -0.220203,0.099 -0.220703,0.22071 v 6.0664 c 5e-4,0.12168 0.09902,0.22021 0.220703,0.22071 h 5.513672 c 0.122446,5.7e-4 0.222153,-0.0983 0.222656,-0.22071 v -6.0664 c -5.03e-4,-0.12245 -0.10021,-0.22128 -0.222656,-0.22071 z m 0,-24.22851 c -0.121681,5e-4 -0.220198,0.099 -0.220703,0.2207 v 6.06641 c 5.05e-4,0.12168 0.09902,0.2202 0.220703,0.2207 h 5.513672 c 0.122443,5.7e-4 0.222148,-0.0983 0.222656,-0.2207 v -6.06641 c -5.08e-4,-0.12244 -0.100213,-0.22127 -0.222656,-0.2207 z m 7.540565,8.20316 c -0.122442,5.1e-4 -0.221272,0.10021 -0.220703,0.22265 v 6.06641 c 5.05e-4,0.12168 0.09902,0.2202 0.220703,0.2207 h 5.5136724 c 0.1224425,5.7e-4 0.2221479,-0.0983 0.222656,-0.2207 v -6.06641 c 5.728e-4,-0.12321 -0.099451,-0.22323 -0.222656,-0.22265 z m 0,8.07617 c -0.122446,5.1e-4 -0.221277,0.10021 -0.220703,0.22266 v 6.0664 c 5e-4,0.12168 0.09902,0.22021 0.220703,0.22071 h 5.5136724 c 0.1224464,5.7e-4 0.2221534,-0.0983 0.222656,-0.22071 v -6.0664 c 5.783e-4,-0.12321 -0.099447,-0.22324 -0.222656,-0.22266 z m 0,7.93945 c -0.121684,5e-4 -0.220203,0.099 -0.220703,0.22071 v 6.0664 c 5e-4,0.12168 0.09902,0.22021 0.220703,0.22071 h 5.5136724 c 0.1224464,5.7e-4 0.2221534,-0.0983 0.222656,-0.22071 v -6.0664 c -5.026e-4,-0.12245 -0.1002096,-0.22128 -0.222656,-0.22071 z m 0,-24.22851 c -0.121681,5e-4 -0.220198,0.099 -0.220703,0.2207 v 6.06641 c 5.05e-4,0.12168 0.09902,0.2202 0.220703,0.2207 h 5.5136724 c 0.1224425,5.7e-4 0.2221479,-0.0983 0.222656,-0.2207 v -6.06641 c -5.081e-4,-0.12244 -0.1002135,-0.22127 -0.222656,-0.2207 z m 7.5405774,8.20316 c -0.1224416,5.1e-4 -0.2212719,0.10021 -0.220703,0.22265 v 6.06641 c 5.053e-4,0.12168 0.099022,0.2202 0.220703,0.2207 h 5.513672 c 0.1224425,5.7e-4 0.2221479,-0.0983 0.222656,-0.2207 v -6.06641 c 5.728e-4,-0.12321 -0.099451,-0.22323 -0.222656,-0.22265 z m 0,8.07617 c -0.1224455,5.1e-4 -0.2212775,0.10021 -0.220703,0.22266 v 6.0664 c 4.998e-4,0.12168 0.099019,0.22021 0.220703,0.22071 h 5.513672 c 0.1224464,5.7e-4 0.2221534,-0.0983 0.222656,-0.22071 v -6.0664 c 5.783e-4,-0.12321 -0.099447,-0.22324 -0.222656,-0.22266 z m 0,7.93945 c -0.1216844,5e-4 -0.2202032,0.099 -0.220703,0.22071 v 6.0664 c 4.998e-4,0.12168 0.099019,0.22021 0.220703,0.22071 h 5.513672 c 0.1224464,5.7e-4 0.2221534,-0.0983 0.222656,-0.22071 v -6.0664 c -5.026e-4,-0.12245 -0.1002096,-0.22128 -0.222656,-0.22071 z m 0,-24.22851 c -0.1216805,5e-4 -0.2201977,0.099 -0.220703,0.2207 v 6.06641 c 5.053e-4,0.12168 0.099022,0.2202 0.220703,0.2207 h 5.513672 c 0.1224425,5.7e-4 0.2221479,-0.0983 0.222656,-0.2207 v -6.06641 c -5.081e-4,-0.12244 -0.1002135,-0.22127 -0.222656,-0.2207 z m 7.54057525,8.20316 c -0.12244161,5.1e-4 -0.22127191,0.10021 -0.220703,0.22265 v 6.06641 c 5.0527e-4,0.12168 0.09902248,0.2202 0.220703,0.2207 H 5.8209367 c 0.1224425,5.7e-4 0.2221479,-0.0983 0.222656,-0.2207 v -6.06641 c 5.728e-4,-0.12321 -0.099451,-0.22323 -0.222656,-0.22265 z m 0,8.07617 c -0.12244554,5.1e-4 -0.22127746,0.10021 -0.220703,0.22266 v 6.0664 c 4.9979e-4,0.12168 0.0990186,0.22021 0.220703,0.22071 H 5.8209367 c 0.1224464,5.7e-4 0.2221534,-0.0983 0.222656,-0.22071 v -6.0664 c 5.783e-4,-0.12321 -0.099447,-0.22324 -0.222656,-0.22266 z m 0,7.93945 c -0.1216844,5e-4 -0.22020321,0.099 -0.220703,0.22071 v 6.0664 c 4.9979e-4,0.12168 0.0990186,0.22021 0.220703,0.22071 H 5.8209367 c 0.1224464,5.7e-4 0.2221534,-0.0983 0.222656,-0.22071 v -6.0664 c -5.026e-4,-0.12245 -0.1002096,-0.22128 -0.222656,-0.22071 z m 0,-24.22851 c -0.12168052,5e-4 -0.22019773,0.099 -0.220703,0.2207 v 6.06641 c 5.0527e-4,0.12168 0.09902248,0.2202 0.220703,0.2207 H 5.8209367 c 0.1224425,5.7e-4 0.2221479,-0.0983 0.222656,-0.2207 v -6.06641 c -5.081e-4,-0.12244 -0.1002135,-0.22127 -0.222656,-0.2207 z m 7.54056695,8.20316 c -0.1224416,5.1e-4 -0.2212719,0.10021 -0.220703,0.22265 v 6.06641 c 5.053e-4,0.12168 0.099023,0.2202 0.220703,0.2207 h 5.5136724 c 0.122443,5.7e-4 0.222148,-0.0983 0.222656,-0.2207 v -6.06641 c 5.73e-4,-0.12321 -0.09945,-0.22323 -0.222656,-0.22265 z m 0,8.07617 c -0.1224455,5.1e-4 -0.2212775,0.10021 -0.220703,0.22266 v 6.0664 c 4.998e-4,0.12168 0.099019,0.22021 0.220703,0.22071 h 5.5136724 c 0.122446,5.7e-4 0.222153,-0.0983 0.222656,-0.22071 v -6.0664 c 5.78e-4,-0.12321 -0.09945,-0.22324 -0.222656,-0.22266 z m 0,7.93945 c -0.1216844,5e-4 -0.2202032,0.099 -0.220703,0.22071 v 6.0664 c 4.998e-4,0.12168 0.099019,0.22021 0.220703,0.22071 h 5.5136724 c 0.122446,5.7e-4 0.222153,-0.0983 0.222656,-0.22071 v -6.0664 c -5.03e-4,-0.12245 -0.10021,-0.22128 -0.222656,-0.22071 z m 0,-24.22851 c -0.1216805,5e-4 -0.2201977,0.099 -0.220703,0.2207 v 6.06641 c 5.053e-4,0.12168 0.099023,0.2202 0.220703,0.2207 h 5.5136724 c 0.122443,5.7e-4 0.222148,-0.0983 0.222656,-0.2207 v -6.06641 c -5.08e-4,-0.12244 -0.100213,-0.22127 -0.222656,-0.2207 z"
               style="color:#000000;font-style:normal;font-variant:normal;font-weight:normal;font-stretch:normal;font-size:medium;line-height:normal;font-family:sans-serif;font-variant-ligatures:normal;font-variant-position:normal;font-variant-caps:normal;font-variant-numeric:normal;font-variant-alternates:normal;font-feature-settings:normal;text-indent:0;text-align:start;text-decoration:none;text-decoration-line:none;text-decoration-style:solid;text-decoration-color:#000000;letter-spacing:normal;word-spacing:normal;text-transform:none;writing-mode:lr-tb;direction:ltr;text-orientation:mixed;dominant-baseline:auto;baseline-shift:baseline;text-anchor:start;white-space:normal;shape-padding:0;clip-rule:nonzero;display:inline;overflow:visible;visibility:visible;isolation:auto;mix-blend-mode:normal;color-interpolation:sRGB;color-interpolation-filters:linearRGB;solid-color:#000000;solid-opacity:1;vector-effect:none;fill:#000000;fill-opacity:1;fill-rule:nonzero;stroke:none;stroke-linecap:butt;stroke-linejoin:round;stroke-miterlimit:4;stroke-dasharray:none;stroke-dashoffset:0;stroke-opacity:1;color-rendering:auto;image-rendering:auto;shape-rendering:auto;text-rendering:auto;enable-background:accumulate"
               id="path1346" />
          </g>
        </g>
      </g>
      <g
         style="fill:#000000;fill-opacity:1;stroke:none"
         transform="matrix(1.2396928,0,0,2.103323,-3.1006828,-277.29183)"
         id="g28762">
        <g
           style="fill:#000000;fill-opacity:1;stroke:none"
           transform="matrix(0.96901553,0,0,1,56.435316,31.799716)"
           id="layer1-1"
           inkscape:label="Layer 1">
          <g
             style="fill:#000000;fill-opacity:1;stroke:none"
             transform="matrix(0.77444589,0,0,0.8892592,-62.84132,-8.7412311)"
             id="g27411">
            <g
               style="opacity:1;fill:#000000;fill-opacity:1;stroke:none"
               id="path30636" />
            <g
               style="opacity:1;fill:#000000;fill-opacity:1;stroke:none"
               id="path27401" />
            <g
               style="opacity:1;fill:#000000;fill-opacity:1;stroke:none"
               id="path27403" />
            <g
               style="opacity:1;fill:#000000;fill-opacity:1;stroke:none"
               id="path27405" />
          </g>
          <g
             transform="matrix(0.72065381,0,0,0.41159068,-54.763292,214.37045)"
             style="fill:#000000;fill-opacity:1;stroke:none"
             id="use84457">
            <title
               id="title1159">Edit Find</title>
            <path
               d="M 2.5960917,2.3891875 C 2.3808809,2.4279307 2.3028979,2.6961924 2.4638,2.8442708 L 3.5221333,3.9026042 C 3.7757805,4.1507833 4.1480493,3.7703124 3.8944021,3.5221333 L 2.8360687,2.4638 C 2.7735842,2.4002069 2.6832746,2.3723582 2.5958271,2.3897167 Z M 1.7216437,0.27172708 c -0.80115828,0 -1.45785412,0.65616667 -1.45785412,1.45626662 0,0.8008938 0.65669584,1.4567959 1.45785412,1.4567959 0.8016875,0 1.4578542,-0.6561667 1.4578542,-1.4565313 0,-0.80009997 -0.6561667,-1.45600205 -1.4578542,-1.45600205 z m 0,0.5318125 c 0.5154084,0 0.9260417,0.41010412 0.9260417,0.92445412 0,0.5148792 -0.4106333,0.925248 -0.9260417,0.925248 -0.5151437,0 -0.92604162,-0.4101042 -0.92604162,-0.9249834 0,-0.51435 0.41089792,-0.92445413 0.92604162,-0.92445413 z m -2.37587523,-1.617109 -0.0488533,5.84915062 m 43.78006583,-5.84921543 -0.04828,5.84865363 0.111243,0.00423 0.04828,-5.85288833 z m 0.05606,6.481e-5 -0.04885,5.84915062 M -0.66436574,-0.93179431 v 0.28696327 L 43.085377,-0.53511869 v -0.28696327 z m -4.607e-4,0.14428104 43.74936744,0.10824318 M -0.7420255,4.7860601 V 5.0730018 L 43.085377,5.1827141 V 4.8915594 Z M -0.74230232,4.9289584 43.084541,5.0372016"
               style="color:#000000;font-style:normal;font-variant:normal;font-weight:normal;font-stretch:normal;font-size:medium;line-height:normal;font-family:sans-serif;font-variant-ligatures:normal;font-variant-position:normal;font-variant-caps:normal;font-variant-numeric:normal;font-variant-alternates:normal;font-feature-settings:normal;text-indent:0;text-align:start;text-decoration:none;text-decoration-line:none;text-decoration-style:solid;text-decoration-color:#000000;letter-spacing:normal;word-spacing:normal;text-transform:none;writing-mode:lr-tb;direction:ltr;text-orientation:mixed;dominant-baseline:auto;baseline-shift:baseline;text-anchor:start;white-space:normal;shape-padding:0;clip-rule:nonzero;display:inline;overflow:visible;visibility:visible;opacity:1;isolation:auto;mix-blend-mode:normal;color-interpolation:sRGB;color-interpolation-filters:linearRGB;solid-color:#000000;solid-opacity:1;vector-effect:none;fill:#000000;fill-opacity:1;fill-rule:nonzero;stroke:none;stroke-width:0.26458299;stroke-linecap:butt;stroke-linejoin:miter;stroke-miterlimit:4;stroke-dasharray:none;stroke-dashoffset:0;stroke-opacity:1;color-rendering:auto;image-rendering:auto;shape-rendering:auto;text-rendering:auto;enable-background:accumulate"
               id="path1163"
               inkscape:connector-curvature="0" />
          </g>
        </g>
      </g>
    </g>
  </g>
</svg>
