<?xml version="1.0" encoding="UTF-8" standalone="no"?>
<svg
   xmlns:dc="http://purl.org/dc/elements/1.1/"
   xmlns:cc="http://creativecommons.org/ns#"
   xmlns:rdf="http://www.w3.org/1999/02/22-rdf-syntax-ns#"
   xmlns:svg="http://www.w3.org/2000/svg"
   xmlns="http://www.w3.org/2000/svg"
   xmlns:sodipodi="http://sodipodi.sourceforge.net/DTD/sodipodi-0.dtd"
   xmlns:inkscape="http://www.inkscape.org/namespaces/inkscape"
   inkscape:version="1.0 (4035a4fb49, 2020-05-01)"
   sodipodi:docname="dolphin-symbolic.svg"
   width="64"
   height="64"
   version="1.1"
   id="svg24">
  <sodipodi:namedview
     inkscape:document-rotation="0"
     inkscape:current-layer="svg24"
     inkscape:window-maximized="1"
     inkscape:window-y="40"
     inkscape:window-x="0"
     inkscape:cy="32"
     inkscape:cx="27.254237"
     inkscape:zoom="3.6875"
     showgrid="false"
     id="namedview947"
     inkscape:window-height="898"
     inkscape:window-width="1920"
     inkscape:pageshadow="2"
     inkscape:pageopacity="0"
     guidetolerance="10"
     gridtolerance="10"
     objecttolerance="10"
     borderopacity="1"
     bordercolor="#666666"
     pagecolor="#ffffff" />
  <metadata
     id="metadata30">
    <rdf:RDF>
      <cc:Work
         rdf:about="">
        <dc:format>image/svg+xml</dc:format>
        <dc:type
           rdf:resource="http://purl.org/dc/dcmitype/StillImage" />
        <dc:title />
      </cc:Work>
    </rdf:RDF>
  </metadata>
  <defs
     id="defs28" />
  <path
     style="fill:#cccccc;stroke-width:1.42497"
     d="m 39.11398,7.7776868 c -2.551597,0.03388 -4.634104,0.656483 -7.976481,1.789558 -2.61507,0.8865992 -3.884217,1.0100462 -5.354762,1.1522212 -1.250454,0.120937 -2.668711,0.256543 -4.920591,0.829376 -6.485638,1.650052 -9.535433,4.268521 -11.266155,5.986534 -1.351069,1.341102 -1.895037,2.706645 -1.820169,3.815687 -0.321516,0.160979 -0.493366,0.339979 -0.848868,0.526012 -2.3769172,1.243496 -3.2000357,1.823286 -3.3898557,2.813756 -0.1399318,0.730919 0.1189849,1.209453 0.7263916,1.864705 0.9802925,0.910999 1.5360727,1.168917 3.0753791,1.168917 1.123118,0 1.430027,-0.34205 2.813756,-0.645688 1.224704,-0.268711 2.747211,-0.603689 3.904742,-0.715267 1.469747,-0.141884 2.941514,-0.0048 5.159943,0.428603 0.657085,0.128489 1.402049,0.273022 2.218163,0.420254 1.048948,0.189198 2.142289,0.570545 3.250708,0.570545 0.943017,0 2.347342,0.03945 3.028057,-0.04731 0.493543,0.923707 1.313763,2.877295 2.635633,4.450242 3.448441,4.103555 6.453437,4.093892 6.866007,4.096783 0.745756,0.01 1.448802,-0.213495 1.792342,-0.821026 0.343544,-0.607776 0.287777,-1.332564 -0.155855,-1.884186 -0.009,-0.01137 -0.751276,-1.16662 -1.104907,-3.022491 -0.100888,-0.528731 -0.05553,-0.975169 -0.04731,-1.397137 4.589859,1.334818 11.862643,5.401045 12.794097,9.830053 l 0.03061,1.566902 c -0.211064,-0.0086 -0.85046,-0.01114 -1.171703,-0.01114 -0.834963,0 -1.736884,0.08295 -2.760875,0.244916 -3.32552,0.526067 -5.259905,2.673562 -5.485569,2.916731 -0.521423,0.561252 -0.645099,1.923967 -0.269965,2.574403 0.372218,0.645838 1.104545,1.027915 1.903668,0.965751 h 0.03896 c 5.084152,0.702743 11.533695,3.8749 13.623472,7.923601 0.326292,0.645833 1.035411,1.054792 1.809047,1.054792 0.04965,0 0.100394,-0.0013 0.150289,-0.0055 0.830453,-0.05642 1.534332,-0.576164 1.764511,-1.302511 0.05863,-0.187649 0.570875,-1.89804 0.289447,-4.277686 0,0 0,-0.0028 0,-0.0028 -0.222048,-1.86954 -1.196534,-3.455485 -1.978813,-4.728496 -0.275578,-0.448249 -0.594086,-0.701507 -0.787629,-1.079859 -0.02073,-11.563382 -4.835979,-25.347891 -15.674646,-31.33816 0.866027,-0.372326 3.260978,-0.607278 4.124614,-0.765365 0.644875,-0.11709 1.184406,-0.516499 1.441667,-1.065941 0.257258,-0.549458 0.198839,-1.178069 -0.155855,-1.6810172 -0.336381,-0.476985 -2.137601,-1.629905 -5.499492,-2.034537 -1.019412,-0.122781 -1.921475,-0.1755 -2.772006,-0.164205 z M 12.76321,17.749679 a 2.1374518,2.1374518 0 0 1 2.137448,2.137451 2.1374518,2.1374518 0 0 1 -2.137448,2.137452 2.1374518,2.1374518 0 0 1 -2.137452,-2.137452 2.1374518,2.1374518 0 0 1 2.137452,-2.137451 z"
     id="path4-8" />
</svg>
