<?xml version="1.0" encoding="UTF-8" standalone="no"?>
<svg
   xmlns:dc="http://purl.org/dc/elements/1.1/"
   xmlns:cc="http://creativecommons.org/ns#"
   xmlns:rdf="http://www.w3.org/1999/02/22-rdf-syntax-ns#"
   xmlns:svg="http://www.w3.org/2000/svg"
   xmlns="http://www.w3.org/2000/svg"
   xmlns:sodipodi="http://sodipodi.sourceforge.net/DTD/sodipodi-0.dtd"
   xmlns:inkscape="http://www.inkscape.org/namespaces/inkscape"
   inkscape:version="1.0 (4035a4fb49, 2020-05-01)"
   sodipodi:docname="dota-symbolic.svg"
   width="64"
   height="64"
   version="1.1"
   id="svg24">
  <sodipodi:namedview
     inkscape:document-rotation="0"
     inkscape:current-layer="svg24"
     inkscape:window-maximized="1"
     inkscape:window-y="40"
     inkscape:window-x="0"
     inkscape:cy="32"
     inkscape:cx="27.254237"
     inkscape:zoom="3.6875"
     showgrid="false"
     id="namedview947"
     inkscape:window-height="898"
     inkscape:window-width="1920"
     inkscape:pageshadow="2"
     inkscape:pageopacity="0"
     guidetolerance="10"
     gridtolerance="10"
     objecttolerance="10"
     borderopacity="1"
     bordercolor="#666666"
     pagecolor="#ffffff" />
  <metadata
     id="metadata30">
    <rdf:RDF>
      <cc:Work
         rdf:about="">
        <dc:format>image/svg+xml</dc:format>
        <dc:type
           rdf:resource="http://purl.org/dc/dcmitype/StillImage" />
        <dc:title />
      </cc:Work>
    </rdf:RDF>
  </metadata>
  <defs
     id="defs28" />
  <path
     style="fill:#cccccc;stroke-width:1.425"
     d="m 6.3499996,3.5000002 c -1.5789003,0 -2.8500002,1.2711002 -2.8500002,2.8499996 V 57.650002 c 0,1.578899 1.2710999,2.849998 2.8500002,2.849998 H 57.650003 c 1.578898,0 2.849998,-1.271099 2.849998,-2.849998 V 6.3499998 c 0,-1.5788994 -1.2711,-2.8499996 -2.849998,-2.8499996 z M 12.375637,13.783936 c 2.941466,2.894082 5.83964,5.835553 8.792137,8.719775 0.228156,0.122693 0.02883,0.147293 -0.05288,0.269971 -0.610025,0.384572 -1.196935,1.881692 -1.839698,0.804345 -1.165288,-1.172154 -0.0083,0.160028 0.275538,0.65127 -1.900579,2.024222 -3.937758,3.956482 -5.892041,5.944923 -0.483557,1.03548 -1.007029,-0.227434 -1.527979,-0.581689 -0.12671,-2.122312 -0.0165,-4.297791 -0.05288,-6.440333 0.112527,-0.493759 -0.263484,-2.112787 0.264405,-1.711669 1.624425,1.476207 -0.604115,-0.433115 -0.211524,-1.263576 0.593679,0.817744 0.475394,0.405988 0.08071,-0.169776 0.757289,0.604151 0.457732,0.339187 -0.09463,-0.506541 -0.09309,-1.211173 -0.01311,-2.437607 -0.03896,-3.654348 0.123676,-0.659532 -0.28869,-1.685794 0.297805,-2.062352 z m 39.251513,0.153078 c 0.512288,0.135161 0.250603,2.206308 0.256053,2.991941 0.512857,0.879504 -2.119163,3.605712 -0.03618,2.490966 0.123346,1.124768 0.02184,2.274793 0.05566,3.409425 0.223833,0.870134 -0.564468,1.343914 -1.082666,1.892577 0.236486,-0.279067 0.577467,-0.444878 0.854442,-0.681885 0.890983,0.348978 -0.62257,2.119209 -1.739501,2.905666 -0.161586,0.221773 0.984573,-0.724435 1.310889,-1.010302 0.641127,-0.780364 0.759093,-0.424008 0.656836,0.411914 -0.07861,1.130077 0.175543,2.331169 -0.161426,3.406639 -5.509312,5.508624 -11.077565,10.96073 -16.60459,16.451515 -1.454126,0.79243 -3.0003,4.771103 -4.572802,2.298926 -1.112069,-0.118333 0.141773,-1.619073 -0.629005,-0.893409 -0.667975,-0.400888 1.25316,-1.828681 1.647656,-2.64126 0.252306,-0.496551 -1.687199,1.548849 -2.298925,2.098535 -0.890723,-0.222578 -2.319902,-1.756088 -2.696923,-2.758154 -0.987448,-1.059616 -2.640195,-2.049862 -2.226564,-3.35376 2.466902,-2.410157 4.819817,-4.9433 7.372706,-7.261377 3.144064,-3.119079 6.093672,-6.453298 9.454543,-9.351563 3.025524,-3.434789 6.336715,-6.602268 9.62988,-9.777393 0.381382,-0.505121 0.63915,-0.674057 0.809914,-0.629001 z m -19.47129,0.843309 c 0.04517,0.01745 0.07229,0.0641 0.05846,0.150292 -0.338557,1.427549 1.428058,-0.675534 0.985253,1.046484 0.444326,0.0804 1.80087,0.510292 1.75342,1.700539 1.319818,0.256144 1.985009,1.362301 0.715282,2.282225 0.578558,-0.330485 1.657669,-1.335057 0.595606,-0.100188 -1.206982,1.833232 0.292266,-0.0013 1.029783,-0.386866 1.140558,0.949791 1.829375,2.207468 2.989162,2.96411 -3.322577,3.59397 -6.927718,7.020208 -10.442579,10.462063 -2.546062,1.825282 -4.141517,4.657505 -6.671339,6.487646 -2.167087,2.434257 -4.539235,4.672017 -6.813281,7.005322 -1.381842,1.076223 -2.559761,3.198013 -4.071825,3.679395 -0.0943,-3.703776 -0.09493,-7.459099 -0.0167,-11.180126 0.596447,-1.594302 2.266679,-2.620582 3.245215,-4.024513 0.114542,-0.547638 -1.722636,1.278949 -2.279444,1.66714 -1.542503,1.872091 -0.721984,-1.063546 -0.979689,-2.070705 3.045674,-3.165615 6.244193,-6.216254 9.323731,-9.362695 1.787427,-1.9152 3.781017,-3.625638 5.533008,-5.569189 1.613355,-1.42127 3.05878,-3.012897 4.66465,-4.441993 -0.06195,-0.156744 0.245775,-0.361297 0.381298,-0.308935 z M 50.847851,33.37212 c 0.35622,0.11905 0.719056,0.944433 1.054836,1.035351 v 2.922362 c -0.08688,0.652955 0.333582,2.630809 -0.648487,1.244092 -1.477077,-1.297866 0.330317,0.476242 0.648487,1.082668 v 7.467332 c 0.285541,1.839922 -1.449307,-0.633106 -2.170899,-0.954638 -0.110371,-0.0236 1.417423,1.626779 2.009472,2.198731 -0.03148,0.505821 0.394385,1.961721 -0.331201,1.839698 -2.053168,-1.870515 -3.976075,-3.915358 -5.969968,-5.861425 -0.911448,-0.987337 -2.052626,-1.872 -2.844436,-2.902882 l 7.898731,-7.901514 c 0.11637,-0.170731 0.234727,-0.209458 0.353465,-0.169775 z"
     id="rect4" />
</svg>
