<?xml version="1.0" encoding="UTF-8" standalone="no"?>
<svg
   xmlns:dc="http://purl.org/dc/elements/1.1/"
   xmlns:cc="http://creativecommons.org/ns#"
   xmlns:rdf="http://www.w3.org/1999/02/22-rdf-syntax-ns#"
   xmlns:svg="http://www.w3.org/2000/svg"
   xmlns="http://www.w3.org/2000/svg"
   xmlns:sodipodi="http://sodipodi.sourceforge.net/DTD/sodipodi-0.dtd"
   xmlns:inkscape="http://www.inkscape.org/namespaces/inkscape"
   width="4.2333331mm"
   height="4.2333331mm"
   viewBox="0 0 4.2333331 4.2333331"
   version="1.1"
   id="svg4189"
   inkscape:version="1.0.2-2 (e86c870879, 2021-01-15)"
   sodipodi:docname="drag-symbolic.svg">
  <defs
     id="defs4183" />
  <sodipodi:namedview
     id="base"
     pagecolor="#ffffff"
     bordercolor="#666666"
     borderopacity="1.0"
     inkscape:pageopacity="0.0"
     inkscape:pageshadow="2"
     inkscape:zoom="22.627417"
     inkscape:cx="10.791459"
     inkscape:cy="14.9661"
     inkscape:document-units="mm"
     inkscape:current-layer="layer1"
     inkscape:document-rotation="0"
     showgrid="false"
     fit-margin-top="0"
     fit-margin-left="0"
     fit-margin-right="0"
     fit-margin-bottom="0"
     inkscape:window-width="2560"
     inkscape:window-height="1377"
     inkscape:window-x="-8"
     inkscape:window-y="32"
     inkscape:window-maximized="1" />
  <metadata
     id="metadata4186">
    <rdf:RDF>
      <cc:Work
         rdf:about="">
        <dc:format>image/svg+xml</dc:format>
        <dc:type
           rdf:resource="http://purl.org/dc/dcmitype/StillImage" />
        <dc:title />
      </cc:Work>
    </rdf:RDF>
  </metadata>
  <g
     inkscape:label="Layer 1"
     inkscape:groupmode="layer"
     id="layer1"
     transform="translate(-121.10357,-79.526191)">
    <path
       id="path2-2"
       style="fill:#2e3436;fill-opacity:1;stroke:none;stroke-width:0.264583"
       d="m 122.42651,79.526771 c -0.30598,-0.01794 -0.5156,0.384694 -0.32604,0.626327 0.16168,0.248348 0.59241,0.207574 0.69383,-0.07621 0.11025,-0.246145 -0.0942,-0.563512 -0.36779,-0.550114 z m 1.5875,0 c -0.30598,-0.01794 -0.5156,0.384694 -0.32604,0.626327 0.16168,0.248348 0.59241,0.207574 0.69383,-0.07621 0.11025,-0.246145 -0.0942,-0.563512 -0.36779,-0.550114 z m -1.5875,1.5875 c -0.30598,-0.01794 -0.5156,0.384694 -0.32604,0.626327 0.16168,0.248348 0.59241,0.207574 0.69383,-0.07621 0.11025,-0.246145 -0.0942,-0.563512 -0.36779,-0.550114 z m 1.5875,0 c -0.30598,-0.01794 -0.5156,0.384694 -0.32604,0.626327 0.16168,0.248348 0.59241,0.207574 0.69383,-0.07621 0.11025,-0.246145 -0.0942,-0.563512 -0.36779,-0.550114 z m -1.5875,1.5875 c -0.30598,-0.01794 -0.5156,0.384694 -0.32604,0.626327 0.16168,0.248348 0.59241,0.207574 0.69383,-0.07621 0.11025,-0.246145 -0.0942,-0.563512 -0.36779,-0.550114 z m 1.5875,0 c -0.30598,-0.01794 -0.5156,0.384694 -0.32604,0.626327 0.16168,0.248348 0.59241,0.207574 0.69383,-0.07621 0.11025,-0.246145 -0.0942,-0.563512 -0.36779,-0.550114 z" />
  </g>
</svg>

