<?xml version="1.0" encoding="UTF-8" standalone="no"?>
<svg
   xmlns:dc="http://purl.org/dc/elements/1.1/"
   xmlns:cc="http://creativecommons.org/ns#"
   xmlns:rdf="http://www.w3.org/1999/02/22-rdf-syntax-ns#"
   xmlns:svg="http://www.w3.org/2000/svg"
   xmlns="http://www.w3.org/2000/svg"
   xmlns:sodipodi="http://sodipodi.sourceforge.net/DTD/sodipodi-0.dtd"
   xmlns:inkscape="http://www.inkscape.org/namespaces/inkscape"
   inkscape:version="1.0 (4035a4fb49, 2020-05-01)"
   sodipodi:docname="dragonheart-symbolic.svg"
   width="64"
   height="64"
   version="1.1"
   id="svg24">
  <sodipodi:namedview
     inkscape:document-rotation="0"
     inkscape:current-layer="svg24"
     inkscape:window-maximized="1"
     inkscape:window-y="40"
     inkscape:window-x="0"
     inkscape:cy="32"
     inkscape:cx="27.254237"
     inkscape:zoom="3.6875"
     showgrid="false"
     id="namedview949"
     inkscape:window-height="898"
     inkscape:window-width="1920"
     inkscape:pageshadow="2"
     inkscape:pageopacity="0"
     guidetolerance="10"
     gridtolerance="10"
     objecttolerance="10"
     borderopacity="1"
     bordercolor="#666666"
     pagecolor="#ffffff" />
  <metadata
     id="metadata30">
    <rdf:RDF>
      <cc:Work
         rdf:about="">
        <dc:format>image/svg+xml</dc:format>
        <dc:type
           rdf:resource="http://purl.org/dc/dcmitype/StillImage" />
        <dc:title />
      </cc:Work>
    </rdf:RDF>
  </metadata>
  <defs
     id="defs28" />
  <g
     id="g3205"
     transform="matrix(1.425,0,0,1.425,-2.1999982,-2.2)">
    <path
       style="fill:#cccccc"
       d="m 15.964844,4 c 1.103432,0 1.519873,1.6622095 1.65039,2.1308594 0.130145,0.4649885 0.607137,2.2004028 0.09961,5.4589846 -0.346804,1.940503 -0.546875,1.105468 -0.546875,1.105468 0,0 -0.4636,-0.947905 -0.478516,-1.658203 -0.0034,-0.175743 0,-0.32229 0,-0.439453 0.0041,-0.351487 0.0041,-0.443334 -0.115234,-0.326172 -0.156994,0.157437 -0.431806,0.612054 -0.558594,1.732422 -0.130891,1.116705 0.226563,2.547618 0.226563,2.617188 0,0.06956 -0.05661,0.08422 -0.1875,0.05859 -0.130145,-0.02929 -1.628405,-0.255833 -2.900391,-3.583985 -1.267511,-3.3281463 -1.238281,-4.3496092 -1.238281,-4.3496092 0,-2e-7 -0.04476,-0.4248082 -0.115235,-0.4394532 -0.07085,-0.014645 -0.190317,-0.058047 -0.216797,0.2128906 -0.02946,0.2709383 -0.259446,2.6605062 0.273438,5.4394528 0.533631,2.775286 1.181596,4.532939 1.789062,5.580078 0.604483,1.050801 0.664405,1.263521 0.794922,1.699219 0.130145,0.439359 0.0854,1.317706 0.15625,1.6875 0.05556,0.274599 0.09058,0.626495 0.05664,0.765625 -0.01081,0.04758 -0.03336,0.07031 -0.08594,0.04102 -0.0895,-0.05126 -0.660324,-0.622821 -0.746093,-0.707031 -0.0895,-0.08421 -0.596012,-0.534817 -1.054688,-1.230469 -0.462405,-0.691991 -0.839814,-1.17901 -1.126953,-1.431641 -0.190183,-0.172083 -0.604221,-0.523895 -0.619141,-0.384765 -0.01454,0.142792 0.111833,0.231969 0.212891,0.40039 0.100685,0.168421 0.607197,1.145172 0.898437,1.855469 0.286767,0.706636 1.237176,2.633132 1.46875,2.988281 0.230831,0.351487 0.839081,0.992049 1.357422,1.486328 0.517969,0.494279 1.283718,1.55524 1.458985,1.855469 0.17191,0.296567 0.532667,1.11796 0.5625,1.304688 0.03729,0.248972 0.07071,0.252185 -0.175781,0.197265 -0.242017,-0.05492 -1.527478,-0.497583 -1.785157,-0.607422 -0.223371,-0.09886 -0.708782,-0.290305 -0.951172,-0.396484 -0.09323,-0.04027 -0.380884,0.04057 -0.134765,0.238281 0.245746,0.197712 2.425051,1.600369 2.615234,1.728516 0.186454,0.128146 1.326343,1.091131 1.56836,1.402344 0.246491,0.311213 0.739298,1.035852 1.21289,2.009765 0.477694,0.981236 0.879104,2.142262 0.677734,4.09375 -0.182724,1.098398 -0.598915,1.67213 -0.617187,1.705078 -0.02237,0.03296 -0.06464,0.03759 -0.142578,0.01563 -0.186454,-0.0476 -0.578304,-0.253188 -0.738281,-0.330078 -0.201743,-0.09886 -0.608127,-0.355462 -0.664063,-0.326172 -0.05929,0.02929 -0.17046,0.100156 0.05664,0.371094 0.231575,0.267277 0.762932,0.8345 0.878906,0.958985 0.115601,0.128146 0.191606,0.200946 0.146484,0.285156 -0.04065,0.08421 -0.04209,0.212671 0.05859,0.326172 0.100685,0.113502 0.574565,0.652124 0.664063,0.765625 0.08577,0.113501 0.417429,0.563272 0.488281,0.75 0.07123,0.183066 0.145948,0.340377 0.175781,0.552734 0.02573,0.212357 0.09605,0.637252 0.185547,0.849609 0.08577,0.212357 0.246096,0.453646 0.402344,0.607422 C 21.063067,43.223843 22,44 22,44 h 4 c 0,0 0.936933,-0.776157 1.097656,-0.933594 0.156249,-0.153776 0.316576,-0.395065 0.402344,-0.607422 0.0895,-0.212357 0.159816,-0.637252 0.185547,-0.849609 0.02983,-0.212357 0.104556,-0.369668 0.175781,-0.552734 0.07085,-0.186728 0.402512,-0.636499 0.488281,-0.75 0.0895,-0.113501 0.563378,-0.652123 0.664063,-0.765625 0.100685,-0.113501 0.09924,-0.241961 0.05859,-0.326172 -0.04512,-0.08421 0.03088,-0.15701 0.146484,-0.285156 0.115974,-0.124485 0.647331,-0.691708 0.878906,-0.958985 0.227101,-0.270938 0.11593,-0.341803 0.05664,-0.371094 -0.05594,-0.02929 -0.46232,0.227316 -0.664063,0.326172 -0.159977,0.07689 -0.551828,0.28248 -0.738281,0.330078 -0.07794,0.02197 -0.11825,0.01733 -0.140625,-0.01563 -0.01827,-0.03295 -0.436416,-0.60668 -0.61914,-1.705078 -0.201371,-1.951488 0.20004,-3.112514 0.677734,-4.09375 0.473592,-0.973913 0.966399,-1.698552 1.21289,-2.009765 0.242019,-0.311213 1.381906,-1.274198 1.56836,-1.402344 0.190182,-0.128147 2.369488,-1.530804 2.615234,-1.728516 0.246119,-0.197711 -0.04154,-0.278555 -0.134765,-0.238281 -0.242389,0.106179 -0.727801,0.297628 -0.951172,0.396484 -0.257679,0.109839 -1.543141,0.552502 -1.785157,0.607422 -0.246491,0.05492 -0.213071,0.05171 -0.175781,-0.197265 0.02983,-0.186728 0.39059,-1.008121 0.5625,-1.304688 0.175267,-0.300229 0.941017,-1.36119 1.458985,-1.855469 0.518341,-0.494279 1.126593,-1.134841 1.357422,-1.486328 0.231576,-0.355149 1.181983,-2.281645 1.46875,-2.988281 0.29124,-0.710297 0.797752,-1.687048 0.898437,-1.855469 0.101058,-0.168421 0.227434,-0.257598 0.212891,-0.40039 -0.01492,-0.13913 -0.428958,0.212682 -0.619141,0.384765 -0.287139,0.252631 -0.664548,0.73965 -1.126953,1.431641 -0.458676,0.695652 -0.96519,1.146258 -1.054688,1.230469 -0.08577,0.08421 -0.656595,0.655772 -0.746093,0.707031 -0.05258,0.02929 -0.07512,0.0066 -0.08594,-0.04102 -0.03393,-0.13913 0.0011,-0.491026 0.05664,-0.765625 0.07085,-0.369794 0.02611,-1.248141 0.15625,-1.6875 0.130518,-0.435698 0.19044,-0.648418 0.794922,-1.699219 0.607466,-1.047139 1.255431,-2.804792 1.789062,-5.580078 0.532884,-2.7789466 0.302898,-5.1685146 0.273438,-5.4394528 -0.02648,-0.2709381 -0.145945,-0.2275359 -0.216797,-0.2128906 -0.07048,0.014645 -0.115235,0.4394531 -0.115235,0.4394532 0,0 0.02923,1.0214629 -1.238281,4.3496092 -1.271987,3.328147 -2.770246,3.554693 -2.900391,3.583985 -0.130889,0.02563 -0.1875,0.01097 -0.1875,-0.05859 0,-0.06957 0.357454,-1.500483 0.226563,-2.617188 -0.126788,-1.120366 -0.4016,-1.574985 -0.558594,-1.732422 -0.11933,-0.117162 -0.119336,-0.02531 -0.115234,0.326172 0,0.117163 0.0034,0.26371 0,0.439453 -0.01492,0.710298 -0.478516,1.658203 -0.478516,1.658203 0,1e-6 -0.200071,0.835035 -0.546875,-1.105468 -0.50752,-3.2585696 -0.03053,-4.9939911 0.09962,-5.4589796 C 30.515283,5.6622095 30.931723,4 32.035156,4 Z m 3.304687,19.169922 c 0.04721,0.01441 0.07411,0.181286 0.142578,0.339844 0.08649,0.205406 0.475603,0.676774 0.626953,0.828125 0.0973,0.09369 0.175293,0.206345 0.257813,0.314453 0.212973,0.266667 0.428755,0.533069 0.626953,0.810547 0.126487,0.169369 0.220593,0.364605 0.289063,0.566406 0.270271,0.774775 0.240234,1.538798 0.240234,2.349609 0,0.126126 0.02594,0.837891 -0.06055,0.837891 -0.0901,0 -0.05037,3.84e-4 -0.115234,-0.111328 -0.0609,-0.115315 -0.425563,-0.777622 -0.5625,-0.990235 C 20.577907,27.902621 20.020435,27.110307 19.873047,26.912109 19.73575,26.713911 19.316596,26.03251 19.132812,25.628906 19.027948,25.394672 19,25.145436 19,24.900391 c 0,-0.190991 0.01489,-0.382017 0.0293,-0.558594 0.02919,-0.36036 0.06072,-0.663545 0.08594,-1.052735 0.0072,-0.111717 0.118617,-0.13355 0.154297,-0.11914 z m 9.31836,0 c 0.03567,-0.01441 0.147089,0.0074 0.154297,0.11914 0.02523,0.38919 0.05675,0.692375 0.08594,1.052735 0.01441,0.176577 0.0293,0.367603 0.0293,0.558594 0,0.245045 -0.02795,0.494281 -0.132813,0.728515 -0.183784,0.403604 -0.602936,1.085005 -0.740234,1.283203 -0.147387,0.198198 -0.70486,0.990512 -0.841797,1.203125 -0.136937,0.212613 -0.501599,0.87492 -0.5625,0.990235 -0.06486,0.111712 -0.02514,0.111328 -0.115234,0.111328 -0.08649,0 -0.06055,-0.711765 -0.06055,-0.837891 0,-0.810811 -0.03004,-1.574834 0.240234,-2.349609 0.06847,-0.201801 0.162576,-0.397037 0.289063,-0.566406 0.198198,-0.277478 0.41398,-0.54388 0.626953,-0.810547 0.08252,-0.108108 0.162468,-0.220759 0.259765,-0.314453 0.151352,-0.151351 0.540467,-0.622719 0.626954,-0.828125 0.06847,-0.158558 0.09341,-0.32543 0.140625,-0.339844 z m -6.371094,13.951172 c 0.005,-0.0041 0.01534,4.54e-4 0.03516,0.0059 0.03568,0.01441 0.06987,0.151631 0.08789,0.212891 0.01802,0.06486 0.116988,0.403913 0.142578,0.515625 0.04288,0.187387 0.165384,0.752671 0.208984,0.947265 0.05405,0.263063 0.206091,0.872028 0.212891,0.929688 0.05441,0.551351 0.187387,0.933238 0,1.091797 -0.187027,0.154955 -0.357176,-0.04889 -0.447266,-0.142578 -0.08649,-0.09369 -0.33057,-0.396872 -0.40625,-0.541016 -0.0436,-0.08288 -0.08398,-0.105494 -0.08398,-0.152344 0,-0.04324 0.05859,-0.09961 0.05859,-0.09961 0.201807,-0.356757 0.233762,-0.797318 0.226562,-1.035156 -0.0036,-0.09369 0,-0.202439 0,-0.310547 0.0033,-0.165766 0.0046,-0.323667 -0.0059,-0.410157 -0.01802,-0.144144 -0.036,-0.438932 -0.05078,-0.572265 -0.01441,-0.12973 0.01758,-0.338528 0.01758,-0.392578 0,-0.02883 -10e-4,-0.04282 0.0039,-0.04687 z m 3.535156,0 c 0.005,0.0041 0.0039,0.01805 0.0039,0.04687 0,0.05405 0.03394,0.262848 0.01953,0.392578 -0.01477,0.133333 -0.03471,0.428121 -0.05273,0.572265 -0.01045,0.08649 -0.0091,0.244391 -0.0059,0.410157 0,0.108108 0.0036,0.216853 0,0.310547 -0.0072,0.237838 0.02476,0.678399 0.226562,1.035156 0,0 0.05859,0.05637 0.05859,0.09961 0,0.04685 -0.04038,0.06946 -0.08398,0.152344 -0.07568,0.144144 -0.319763,0.447322 -0.40625,0.541016 -0.09009,0.09369 -0.26024,0.297533 -0.447266,0.142578 -0.187388,-0.158559 -0.05441,-0.540446 0,-1.091797 0.0068,-0.05766 0.158837,-0.666625 0.212891,-0.929688 0.0436,-0.194594 0.166101,-0.759878 0.208984,-0.947265 0.02558,-0.111712 0.126513,-0.45076 0.144531,-0.515625 0.01802,-0.06126 0.05026,-0.198477 0.08594,-0.212891 0.01982,-0.0054 0.0302,-0.0099 0.03516,-0.0059 z"
       id="path6" />
    <path
       style="opacity:0.1;fill:#ffffff"
       d="m 15.964844,5 c 1.103432,0 1.519873,1.6622095 1.65039,2.1308594 0.07735,0.2763527 0.273521,1.0133497 0.316407,2.2402344 C 17.996944,7.5243422 17.71179,6.4758388 17.615234,6.1308594 17.555012,5.9146194 17.422539,5.4439229 17.201172,5 Z M 30.798828,5 C 30.577462,5.4439229 30.444987,5.9146194 30.384766,6.1308594 30.288206,6.4758388 30.003059,7.5243453 30.068359,9.3710938 30.111247,8.1442096 30.307415,7.4072121 30.384766,7.1308594 30.515281,6.6622095 30.931723,5 32.035156,5 Z M 11.525391,8.6464844 c -0.03024,1.0077451 -0.0065,2.5469486 0.332031,4.3124996 0.533631,2.775286 1.181596,4.532939 1.789062,5.580078 0.604483,1.050801 0.664405,1.263521 0.794922,1.699219 0.114923,0.387971 0.100384,1.075949 0.142578,1.496094 0.03893,0.01379 0.06094,-0.0017 0.07031,-0.04297 0.03394,-0.13913 -0.0011,-0.491026 -0.05664,-0.765625 -0.07085,-0.369794 -0.02611,-1.248141 -0.15625,-1.6875 -0.130515,-0.435697 -0.190437,-0.648417 -0.79492,-1.699218 C 13.039018,16.491923 12.391053,14.73427 11.857422,11.958984 11.618617,10.713637 11.54449,9.5798082 11.525391,8.6464844 Z m 24.949218,0 c -0.0191,0.9333238 -0.09323,2.0671526 -0.332031,3.3124996 -0.533631,2.775286 -1.181596,4.532939 -1.789062,5.580078 -0.604482,1.050801 -0.664404,1.263521 -0.794922,1.699219 -0.13014,0.439359 -0.0854,1.317706 -0.15625,1.6875 -0.05554,0.274599 -0.09057,0.626495 -0.05664,0.765625 0.0094,0.04128 0.03139,0.05677 0.07031,0.04297 0.04219,-0.420145 0.02766,-1.108123 0.142578,-1.496094 0.130518,-0.435698 0.19044,-0.648418 0.794922,-1.699219 0.607466,-1.047139 1.255431,-2.804792 1.789062,-5.580078 0.338558,-1.765551 0.36227,-3.3047545 0.332031,-4.3124996 z M 16.013672,13.056641 c -0.0555,0.537284 -0.0047,1.13631 0.06445,1.623047 0.10907,0.01737 0.164063,0.0053 0.164063,-0.05859 0,-0.04837 -0.167208,-0.76301 -0.228516,-1.564453 z m 15.972656,0 c -0.06131,0.801443 -0.228516,1.516079 -0.228516,1.564453 0,0.06385 0.05499,0.07596 0.164063,0.05859 0.06918,-0.486737 0.119954,-1.085763 0.06445,-1.623047 z m -20.888672,5.898437 c -0.04389,-0.01611 -0.07244,-0.01134 -0.07617,0.02344 -0.01454,0.142792 0.111833,0.231969 0.212891,0.40039 0.100685,0.168421 0.607197,1.145172 0.898437,1.855469 0.286768,0.706636 1.237176,2.633132 1.46875,2.988281 0.230833,0.351487 0.839081,0.992049 1.357422,1.486328 0.517969,0.494279 1.283718,1.55524 1.458985,1.855469 0.05493,0.09476 0.136355,0.279256 0.21289,0.443359 0.04139,0.01202 0.150285,0.05325 0.173829,0.05859 0.24649,0.05492 0.213071,0.05171 0.175781,-0.197265 -0.02983,-0.186728 -0.39059,-1.008121 -0.5625,-1.304688 -0.175267,-0.300229 -0.941016,-1.36119 -1.458985,-1.855469 -0.518341,-0.494279 -1.12659,-1.134841 -1.357422,-1.486328 -0.231574,-0.355149 -1.181982,-2.281645 -1.46875,-2.988281 -0.08574,-0.209105 -0.199434,-0.438147 -0.30664,-0.666016 -0.0597,-0.06311 -0.132077,-0.158034 -0.185547,-0.205078 -0.142637,-0.129062 -0.411311,-0.359885 -0.542969,-0.408203 z m 25.804688,0 c -0.131658,0.04832 -0.400332,0.279141 -0.542969,0.408203 -0.05347,0.04704 -0.12585,0.141968 -0.185547,0.205078 -0.107206,0.227869 -0.220903,0.456911 -0.30664,0.666016 -0.286767,0.706636 -1.237176,2.633132 -1.46875,2.988281 -0.230829,0.351487 -0.839081,0.992049 -1.357422,1.486328 -0.517968,0.494279 -1.283718,1.55524 -1.458985,1.855469 -0.17191,0.296567 -0.53267,1.11796 -0.5625,1.304688 -0.03729,0.248975 -0.07071,0.252185 0.175781,0.197265 0.02354,-0.0053 0.132443,-0.04658 0.173829,-0.05859 0.07654,-0.164103 0.15796,-0.348597 0.21289,-0.443359 0.175267,-0.300229 0.941017,-1.36119 1.458985,-1.855469 0.518341,-0.494279 1.126593,-1.134841 1.357422,-1.486328 0.231574,-0.355149 1.181983,-2.281645 1.46875,-2.988281 0.29124,-0.710297 0.797752,-1.687048 0.898437,-1.855469 0.101058,-0.168421 0.227434,-0.257598 0.212891,-0.40039 -0.0037,-0.03478 -0.03229,-0.03954 -0.07617,-0.02344 z m -17.632813,4.214844 c -0.03568,-0.01441 -0.147097,0.0074 -0.154297,0.11914 -0.02522,0.38919 -0.05675,0.692375 -0.08594,1.052735 C 19.014887,24.518374 19,24.7094 19,24.900391 c 0,0.129806 0.01024,0.261319 0.0332,0.390625 0.02798,-0.338053 0.05803,-0.63153 0.08203,-1.001954 0.0072,-0.111716 0.118617,-0.13355 0.154297,-0.11914 0.04721,0.01441 0.07411,0.181286 0.142578,0.339844 0.08649,0.205406 0.475603,0.676774 0.626953,0.828125 0.0973,0.09369 0.175293,0.206345 0.257813,0.314453 0.212973,0.266667 0.428755,0.533069 0.626953,0.810547 0.126487,0.169369 0.220593,0.364605 0.289063,0.566406 0.225375,0.646074 0.235095,1.290592 0.234375,1.955078 0.01445,-0.220156 0.0059,-0.52545 0.0059,-0.605469 0,-0.810811 0.03004,-1.574834 -0.240234,-2.349609 -0.06847,-0.201801 -0.162576,-0.397037 -0.289063,-0.566406 -0.198198,-0.277478 -0.41398,-0.54388 -0.626953,-0.810547 -0.08252,-0.108108 -0.160512,-0.220763 -0.257813,-0.314453 -0.15135,-0.151351 -0.540463,-0.622719 -0.626953,-0.828125 -0.06847,-0.158558 -0.09537,-0.325434 -0.142578,-0.339844 z m 9.31836,0 c -0.04721,0.01441 -0.07215,0.181286 -0.140625,0.339844 -0.08649,0.205406 -0.475602,0.676774 -0.626954,0.828125 -0.0973,0.09369 -0.177245,0.206345 -0.259765,0.314453 -0.212973,0.266667 -0.428755,0.533069 -0.626953,0.810547 -0.126487,0.169369 -0.220593,0.364605 -0.289063,0.566406 -0.270274,0.774775 -0.240234,1.538798 -0.240234,2.349609 0,0.08002 -0.0086,0.385313 0.0059,0.605469 -7.21e-4,-0.664486 0.009,-1.309004 0.234375,-1.955078 0.06847,-0.201801 0.162576,-0.397037 0.289063,-0.566406 0.198198,-0.277478 0.41398,-0.54388 0.626953,-0.810547 0.08252,-0.108108 0.162469,-0.220759 0.259765,-0.314453 0.151352,-0.151351 0.540467,-0.622719 0.626954,-0.828125 0.06847,-0.158558 0.09341,-0.32543 0.140625,-0.339844 0.03567,-0.01441 0.147089,0.0074 0.154297,0.11914 0.02401,0.370424 0.05405,0.663901 0.08203,1.001954 0.02296,-0.129306 0.0332,-0.260819 0.0332,-0.390625 0,-0.190991 -0.01489,-0.382017 -0.0293,-0.558594 -0.02919,-0.36036 -0.06071,-0.663545 -0.08594,-1.052735 -0.0072,-0.111739 -0.118627,-0.13355 -0.154297,-0.11914 z M 14.068359,28.0625 c -0.09323,-0.04027 -0.380884,0.04057 -0.134765,0.238281 0.245746,0.197712 2.425051,1.600369 2.615234,1.728516 0.186454,0.128146 1.326343,1.091131 1.56836,1.402344 0.24649,0.311213 0.739298,1.035852 1.21289,2.009765 0.333354,0.684747 0.617131,1.475586 0.697266,2.542969 0.07321,-1.607189 -0.269244,-2.663764 -0.697266,-3.542969 -0.473592,-0.973913 -0.9664,-1.698552 -1.21289,-2.009765 -0.242017,-0.311213 -1.381906,-1.274198 -1.56836,-1.402344 -0.01137,-0.0077 -0.131496,-0.08727 -0.15625,-0.103516 -0.471812,-0.15041 -1.174871,-0.382322 -1.373047,-0.466797 -0.223371,-0.09886 -0.708782,-0.290305 -0.951172,-0.396484 z m 19.863282,0 c -0.242389,0.106179 -0.727801,0.297628 -0.951172,0.396484 -0.198176,0.08447 -0.901236,0.316387 -1.373047,0.466797 -0.02475,0.01624 -0.144879,0.09585 -0.15625,0.103516 -0.186454,0.128146 -1.326341,1.091131 -1.56836,1.402344 -0.246491,0.311213 -0.739298,1.035852 -1.21289,2.009765 -0.428022,0.879205 -0.770476,1.93578 -0.697266,3.542969 0.08013,-1.067383 0.363912,-1.858222 0.697266,-2.542969 0.473592,-0.973913 0.9664,-1.698552 1.21289,-2.009765 0.242019,-0.311213 1.381906,-1.274198 1.56836,-1.402344 0.190182,-0.128147 2.369488,-1.530804 2.615234,-1.728516 0.246119,-0.197711 -0.04154,-0.278555 -0.134765,-0.238281 z m -11.714844,9.058594 c -0.0049,0.004 -0.0039,0.01805 -0.0039,0.04687 0,0.05405 -0.03199,0.262848 -0.01758,0.392578 0.01458,0.131527 0.03301,0.418292 0.05078,0.564453 0.0029,8.41e-4 0.0025,0.001 0.0059,0.002 0.03568,0.01441 0.06987,0.151631 0.08789,0.212891 0.01802,0.06486 0.116988,0.403913 0.142578,0.515625 0.04288,0.187387 0.165384,0.752671 0.208984,0.947265 0.05405,0.263063 0.206091,0.872028 0.212891,0.929688 0.0029,0.02952 0.0065,0.04568 0.0098,0.07422 0.165272,-0.166145 0.04314,-0.538116 -0.0098,-1.074219 -0.0068,-0.05766 -0.158841,-0.666625 -0.212891,-0.929688 -0.0436,-0.194594 -0.166104,-0.759878 -0.208984,-0.947265 -0.02559,-0.111712 -0.124558,-0.450765 -0.142578,-0.515625 -0.01802,-0.06126 -0.05221,-0.198481 -0.08789,-0.212891 -0.01982,-0.0054 -0.03016,-0.01 -0.03516,-0.0059 z m 3.535156,0 c -0.005,-0.004 -0.01534,4.59e-4 -0.03516,0.0059 -0.03568,0.01441 -0.06792,0.151631 -0.08594,0.212891 -0.01802,0.06486 -0.118951,0.403913 -0.144531,0.515625 -0.04288,0.187387 -0.165384,0.752671 -0.208984,0.947265 -0.05405,0.263063 -0.206091,0.872028 -0.212891,0.929688 -0.0529,0.536103 -0.175038,0.908074 -0.0098,1.074219 0.0033,-0.02854 0.0069,-0.0447 0.0098,-0.07422 0.0068,-0.05766 0.158837,-0.666625 0.212891,-0.929688 0.0436,-0.194594 0.166101,-0.759878 0.208984,-0.947265 0.02558,-0.111712 0.126513,-0.45076 0.144531,-0.515625 0.01802,-0.06126 0.05026,-0.198477 0.08594,-0.212891 0.0034,-9.24e-4 0.003,-0.0011 0.0059,-0.002 0.01783,-0.14616 0.03816,-0.432925 0.05273,-0.564453 0.01441,-0.12973 -0.01953,-0.338528 -0.01953,-0.392578 0,-0.02882 0.0011,-0.04277 -0.0039,-0.04687 z m -7.90625,1.478515 c -0.05929,0.02929 -0.170459,0.100156 0.05664,0.371094 0.231575,0.267277 0.762932,0.834499 0.878906,0.958985 0.115601,0.128146 0.191606,0.200946 0.146484,0.285156 -0.04065,0.08421 -0.04209,0.212671 0.05859,0.326172 0.100685,0.113502 0.574565,0.652124 0.664063,0.765625 0.08577,0.113501 0.417429,0.563272 0.488281,0.75 0.07123,0.183066 0.145948,0.340377 0.175781,0.552734 0.02573,0.212357 0.09605,0.637252 0.185547,0.849609 0.07559,0.187152 0.210077,0.388629 0.347656,0.541016 H 22 C 22,44 21.063075,43.223838 20.902344,43.066406 20.746096,42.91263 20.58577,42.671341 20.5,42.458984 c -0.0895,-0.212357 -0.159817,-0.637252 -0.185547,-0.849609 -0.02983,-0.212357 -0.104551,-0.369668 -0.175781,-0.552734 -0.07085,-0.186728 -0.402511,-0.636499 -0.488281,-0.75 -0.0895,-0.113501 -0.563378,-0.652123 -0.664063,-0.765625 -0.10068,-0.113501 -0.09924,-0.241962 -0.05859,-0.326172 0.01909,-0.03563 0.0064,-0.07082 -0.01172,-0.107422 -0.155594,-0.07248 -0.31822,-0.139331 -0.40625,-0.181641 -0.201743,-0.09886 -0.608127,-0.355462 -0.664063,-0.326172 z m 12.308594,0 c -0.05594,-0.02929 -0.46232,0.227316 -0.664063,0.326172 -0.08803,0.04231 -0.250656,0.109159 -0.40625,0.181641 -0.0181,0.0366 -0.03081,0.07179 -0.01172,0.107422 0.04065,0.08421 0.04209,0.212671 -0.05859,0.326172 -0.100685,0.113502 -0.574563,0.652124 -0.664063,0.765625 -0.08577,0.113501 -0.417431,0.563272 -0.488281,0.75 -0.07123,0.183066 -0.145951,0.340377 -0.175781,0.552734 -0.02573,0.212357 -0.09605,0.637252 -0.185547,0.849609 -0.08577,0.212357 -0.246095,0.453646 -0.402344,0.607422 C 26.936933,43.223843 26,44 26,44 h 1.152344 c 0.13758,-0.152387 0.272068,-0.353864 0.347656,-0.541016 0.0895,-0.212357 0.159816,-0.637252 0.185547,-0.849609 0.02983,-0.212357 0.104556,-0.369668 0.175781,-0.552734 0.07085,-0.186728 0.402512,-0.636499 0.488281,-0.75 0.0895,-0.113501 0.563378,-0.652123 0.664063,-0.765625 0.100685,-0.113501 0.09924,-0.241961 0.05859,-0.326172 -0.04512,-0.08421 0.03088,-0.15701 0.146484,-0.285156 0.115974,-0.124485 0.647331,-0.691708 0.878906,-0.958985 0.227101,-0.270938 0.115931,-0.341803 0.05664,-0.371094 z m -7.916016,0.441407 c -0.0108,0.246096 -0.05111,0.561653 -0.21289,0.847656 0,0 -0.05859,0.05637 -0.05859,0.09961 0,0.04685 0.04038,0.06946 0.08398,0.152344 0.0298,0.05676 0.09804,0.129314 0.160157,0.212891 0.03652,-0.194705 0.04479,-0.375386 0.04102,-0.5 -0.0036,-0.09369 0,-0.202439 0,-0.310547 0.0033,-0.165766 0.0046,-0.323667 -0.0059,-0.410157 -0.0029,-0.02311 -0.0049,-0.06222 -0.0078,-0.0918 z m 3.492188,0.002 c -0.0029,0.02883 -0.005,0.06723 -0.0078,0.08984 -0.01045,0.08649 -0.0091,0.244391 -0.0059,0.410157 0,0.108108 0.0036,0.216853 0,0.310547 -0.0038,0.124614 0.0045,0.305295 0.04102,0.5 0.06212,-0.08358 0.130357,-0.156132 0.160157,-0.212891 0.0436,-0.08288 0.08398,-0.105494 0.08398,-0.152344 0,-0.04324 -0.05859,-0.09961 -0.05859,-0.09961 -0.161364,-0.28527 -0.201903,-0.599759 -0.21289,-0.845703 z"
       id="path12" />
  </g>
</svg>
