<?xml version="1.0" encoding="UTF-8" standalone="no"?>
<!-- Created with Inkscape (http://www.inkscape.org/) -->

<svg
   xmlns:dc="http://purl.org/dc/elements/1.1/"
   xmlns:cc="http://creativecommons.org/ns#"
   xmlns:rdf="http://www.w3.org/1999/02/22-rdf-syntax-ns#"
   xmlns:svg="http://www.w3.org/2000/svg"
   xmlns="http://www.w3.org/2000/svg"
   xmlns:sodipodi="http://sodipodi.sourceforge.net/DTD/sodipodi-0.dtd"
   xmlns:inkscape="http://www.inkscape.org/namespaces/inkscape"
   width="66mm"
   height="66mm"
   viewBox="0 0 66 66"
   version="1.1"
   id="svg8"
   inkscape:version="0.92.5 (2060ec1f9f, 2020-04-08)"
   sodipodi:docname="elementary-layout-symbolic.svg">
  <defs
     id="defs2" />
  <sodipodi:namedview
     id="base"
     pagecolor="#ffffff"
     bordercolor="#666666"
     borderopacity="1.0"
     inkscape:pageopacity="0.0"
     inkscape:pageshadow="2"
     inkscape:zoom="1.979899"
     inkscape:cx="161.4367"
     inkscape:cy="4.3830667"
     inkscape:document-units="mm"
     inkscape:current-layer="layer1"
     showgrid="false"
     inkscape:window-width="1280"
     inkscape:window-height="1264"
     inkscape:window-x="1280"
     inkscape:window-y="40"
     inkscape:window-maximized="0" />
  <metadata
     id="metadata5">
    <rdf:RDF>
      <cc:Work
         rdf:about="">
        <dc:format>image/svg+xml</dc:format>
        <dc:type
           rdf:resource="http://purl.org/dc/dcmitype/StillImage" />
        <dc:title />
      </cc:Work>
    </rdf:RDF>
  </metadata>
  <g
     inkscape:label="Layer 1"
     inkscape:groupmode="layer"
     id="layer1"
     transform="translate(0,-231)">
    <g
       id="g968"
       transform="translate(35.834821,13.040179)">
      <g
         style="fill:#000000;fill-opacity:1;stroke:none"
         transform="translate(-36.024274,-12.708182)"
         id="g1092">
        <g
           style="fill:#000000;fill-opacity:1;stroke:none"
           id="g2840"
           transform="matrix(0.07586098,0,0,0.07586098,1.0123285,290.72228)">
          <g
             id="g1139"
             style="fill:#000000;fill-opacity:1;stroke:none">
            <g
               style="fill:#000000;fill-opacity:1;stroke:none"
               id="g1144"
               transform="matrix(1.48656,0,0,1.48656,-15.403652,-13.20102)">
              <path
                 d="m 17.337335,27.397354 h 16.404794 c 0.908826,0 1.640479,0.731654 1.640479,1.64048 v 16.404794 c 0,0.908825 -0.731653,1.640479 -1.640479,1.640479 H 17.337335 c -0.908826,0 -1.640479,-0.731654 -1.640479,-1.640479 V 29.037834 c 0,-0.908826 0.731653,-1.64048 1.640479,-1.64048 z m 22.966715,0 h 6.561917 c 0.908826,0 1.64048,0.731654 1.64048,1.64048 v 16.404794 c 0,0.908825 -0.731654,1.640479 -1.64048,1.640479 H 40.30405 c -0.908826,0 -1.64048,-0.731654 -1.64048,-1.640479 V 29.037834 c 0,-0.908826 0.731654,-1.64048 1.64048,-1.64048 z M 17.337335,14.273518 h 29.52863 c 0.908826,0 1.64048,0.731653 1.64048,1.640479 v 6.561918 c 0,0.908825 -0.731654,1.640479 -1.64048,1.640479 h -29.52863 c -0.908826,0 -1.640479,-0.731654 -1.640479,-1.640479 v -6.561918 c 0,-0.908826 0.731653,-1.640479 1.640479,-1.640479 z m 439.093875,14.960204 -0.0173,7.048919 35.19272,0.13851 0.0173,-7.048919 z m 49.27327,0.190473 -0.0346,7.048919 42.24165,0.17327 0.0173,-7.049008 z m 56.30489,0.225145 -0.0173,7.049007 9.14457,0.03458 0.0346,-7.04892 z M 7.8279265,3.497257 A 1.1732065,1.1732065 0 0 0 6.6675366,4.6750327 V 56.68471 a 1.1732065,1.1732065 0 0 0 1.1603899,1.160395 H 583.53721 a 1.1732065,1.1732065 0 0 0 1.1777,-1.160395 V 4.6750327 A 1.1732065,1.1732065 0 0 0 583.53721,3.497257 Z M 9.0056357,5.8527197 H 582.35949 V 55.507023 H 9.0056357 Z"
                 style="color:#000000;font-style:normal;font-variant:normal;font-weight:normal;font-stretch:normal;font-size:medium;line-height:normal;font-family:sans-serif;font-variant-ligatures:normal;font-variant-position:normal;font-variant-caps:normal;font-variant-numeric:normal;font-variant-alternates:normal;font-feature-settings:normal;text-indent:0;text-align:start;text-decoration:none;text-decoration-line:none;text-decoration-style:solid;text-decoration-color:#000000;letter-spacing:normal;word-spacing:normal;text-transform:none;writing-mode:lr-tb;direction:ltr;text-orientation:mixed;dominant-baseline:auto;baseline-shift:baseline;text-anchor:start;white-space:normal;shape-padding:0;clip-rule:nonzero;display:inline;overflow:visible;visibility:visible;opacity:1;isolation:auto;mix-blend-mode:normal;color-interpolation:sRGB;color-interpolation-filters:linearRGB;solid-color:#000000;solid-opacity:1;vector-effect:none;fill:#000000;fill-opacity:1;fill-rule:nonzero;stroke:none;stroke-width:1.64048004;stroke-linecap:butt;stroke-linejoin:miter;stroke-miterlimit:4;stroke-dasharray:none;stroke-dashoffset:0;stroke-opacity:1;color-rendering:auto;image-rendering:auto;shape-rendering:auto;text-rendering:auto;enable-background:accumulate"
                 id="rect22"
                 inkscape:connector-curvature="0" />
            </g>
          </g>
        </g>
      </g>
      <path
         id="rect30567"
         d="m -35.192431,236.00273 a 0.14381439,0.14381439 0 0 0 -0.142578,0.14454 v 40.69531 a 0.14381439,0.14381439 0 0 0 0.142578,0.14258 h 53.746095 a 0.14381439,0.14381439 0 0 0 0.144532,-0.14258 v -40.69531 a 0.14381439,0.14381439 0 0 0 -0.144532,-0.14454 z m 0.144531,0.28711 h 53.457033 v 40.40821 H -35.0479 Z"
         style="color:#000000;font-style:normal;font-variant:normal;font-weight:normal;font-stretch:normal;font-size:medium;line-height:normal;font-family:sans-serif;font-variant-ligatures:normal;font-variant-position:normal;font-variant-caps:normal;font-variant-numeric:normal;font-variant-alternates:normal;font-feature-settings:normal;text-indent:0;text-align:start;text-decoration:none;text-decoration-line:none;text-decoration-style:solid;text-decoration-color:#000000;letter-spacing:normal;word-spacing:normal;text-transform:none;writing-mode:lr-tb;direction:ltr;text-orientation:mixed;dominant-baseline:auto;baseline-shift:baseline;text-anchor:start;white-space:normal;shape-padding:0;clip-rule:nonzero;display:inline;overflow:visible;visibility:visible;opacity:1;isolation:auto;mix-blend-mode:normal;color-interpolation:sRGB;color-interpolation-filters:linearRGB;solid-color:#000000;solid-opacity:1;vector-effect:none;fill:#000000;fill-opacity:1;fill-rule:nonzero;stroke:none;stroke-width:1;stroke-linecap:butt;stroke-linejoin:round;stroke-miterlimit:4;stroke-dasharray:none;stroke-dashoffset:0;stroke-opacity:1;color-rendering:auto;image-rendering:auto;shape-rendering:auto;text-rendering:auto;enable-background:accumulate"
         inkscape:connector-curvature="0" />
      <g
         transform="matrix(0.54445546,0,0,0.54445546,-33.010974,238.1289)"
         style="fill:#000000;fill-opacity:1;stroke:none"
         id="use31418">
        <title
           id="title1016">Edit Find</title>
        <path
           id="path1018"
           d="m 1.7216437,0.27172708 c -0.80115828,0 -1.45785412,0.65616667 -1.45785412,1.45626662 0,0.8008938 0.65669584,1.4567959 1.45785412,1.4567959 0.8016875,0 1.4578542,-0.6561667 1.4578542,-1.4565313 0,-0.80009997 -0.6561667,-1.45600205 -1.4578542,-1.45600205 z m 0,0.5318125 c 0.5154084,0 0.9260417,0.41010412 0.9260417,0.92445412 0,0.5148792 -0.4106333,0.925248 -0.9260417,0.925248 -0.5151437,0 -0.92604162,-0.4101042 -0.92604162,-0.9249834 0,-0.51435 0.41089792,-0.92445413 0.92604162,-0.92445413 z"
           inkscape:connector-curvature="0"
           style="fill:#000000;fill-opacity:1;stroke:none;stroke-width:0.26458299" />
        <path
           id="path1020"
           d="M 2.5960917,2.3891875 A 0.26458333,0.26458333 0 0 0 2.4638,2.8442708 L 3.5221333,3.9026042 A 0.26614947,0.26614947 0 1 0 3.8944021,3.5221333 L 2.8360687,2.4638 A 0.26458333,0.26458333 0 0 0 2.5958271,2.3897167 Z"
           inkscape:connector-curvature="0"
           style="fill:#000000;fill-opacity:1;stroke:none;stroke-width:0.26458299" />
      </g>
      <g
         style="fill:#000000;fill-opacity:1;stroke:none"
         transform="translate(-35.514826,-12.581248)"
         id="g27455">
        <g
           style="opacity:1;fill:#000000;fill-opacity:1;stroke:none"
           transform="rotate(89.890204)"
           id="rect33676" />
        <g
           style="opacity:1;fill:#000000;fill-opacity:1;stroke:none"
           transform="rotate(89.890204)"
           id="rect33678" />
        <g
           style="opacity:1;fill:#000000;fill-opacity:1;stroke:none"
           transform="rotate(89.890204)"
           id="rect33684" />
        <g
           style="opacity:1;fill:#000000;fill-opacity:1;stroke:none"
           transform="rotate(89.890204)"
           id="rect33686" />
        <g
           style="opacity:1;fill:#000000;fill-opacity:1;stroke:none"
           transform="rotate(89.890204)"
           id="rect33688" />
      </g>
      <g
         style="fill:#000000;fill-opacity:1;stroke:none"
         transform="matrix(1.2318096,0,0,1,-45.649425,-12.581248)"
         id="g27411">
        <g
           style="opacity:1;fill:#000000;fill-opacity:1;stroke:none"
           id="path30636">
          <path
             id="path1126"
             d="m 9.7399768,253.17747 40.7826832,0.0501"
             style="color:#000000;font-style:normal;font-variant:normal;font-weight:normal;font-stretch:normal;font-size:medium;line-height:normal;font-family:sans-serif;font-variant-ligatures:normal;font-variant-position:normal;font-variant-caps:normal;font-variant-numeric:normal;font-variant-alternates:normal;font-feature-settings:normal;text-indent:0;text-align:start;text-decoration:none;text-decoration-line:none;text-decoration-style:solid;text-decoration-color:#000000;letter-spacing:normal;word-spacing:normal;text-transform:none;writing-mode:lr-tb;direction:ltr;text-orientation:mixed;dominant-baseline:auto;baseline-shift:baseline;text-anchor:start;white-space:normal;shape-padding:0;clip-rule:nonzero;display:inline;overflow:visible;visibility:visible;isolation:auto;mix-blend-mode:normal;color-interpolation:sRGB;color-interpolation-filters:linearRGB;solid-color:#000000;solid-opacity:1;vector-effect:none;fill:#000000;fill-opacity:1;fill-rule:evenodd;stroke:none;stroke-width:0.13318899;stroke-linecap:butt;stroke-linejoin:miter;stroke-miterlimit:4;stroke-dasharray:none;stroke-dashoffset:0;stroke-opacity:1;color-rendering:auto;image-rendering:auto;shape-rendering:auto;text-rendering:auto;enable-background:accumulate"
             inkscape:connector-curvature="0" />
          <path
             id="path1128"
             d="m 9.7402344,253.11133 v 0.13281 l 40.7832036,0.0508 v -0.13476 z"
             style="color:#000000;font-style:normal;font-variant:normal;font-weight:normal;font-stretch:normal;font-size:medium;line-height:normal;font-family:sans-serif;font-variant-ligatures:normal;font-variant-position:normal;font-variant-caps:normal;font-variant-numeric:normal;font-variant-alternates:normal;font-feature-settings:normal;text-indent:0;text-align:start;text-decoration:none;text-decoration-line:none;text-decoration-style:solid;text-decoration-color:#000000;letter-spacing:normal;word-spacing:normal;text-transform:none;writing-mode:lr-tb;direction:ltr;text-orientation:mixed;dominant-baseline:auto;baseline-shift:baseline;text-anchor:start;white-space:normal;shape-padding:0;clip-rule:nonzero;display:inline;overflow:visible;visibility:visible;isolation:auto;mix-blend-mode:normal;color-interpolation:sRGB;color-interpolation-filters:linearRGB;solid-color:#000000;solid-opacity:1;vector-effect:none;fill:#000000;fill-opacity:1;fill-rule:evenodd;stroke:none;stroke-linecap:butt;stroke-linejoin:miter;stroke-miterlimit:4;stroke-dasharray:none;stroke-dashoffset:0;stroke-opacity:1;color-rendering:auto;image-rendering:auto;shape-rendering:auto;text-rendering:auto;enable-background:accumulate"
             inkscape:connector-curvature="0" />
        </g>
        <g
           style="opacity:1;fill:#000000;fill-opacity:1;stroke:none"
           id="path27401">
          <path
             id="path1132"
             d="m 9.8120713,250.53162 40.7105887,0.0501"
             style="color:#000000;font-style:normal;font-variant:normal;font-weight:normal;font-stretch:normal;font-size:medium;line-height:normal;font-family:sans-serif;font-variant-ligatures:normal;font-variant-position:normal;font-variant-caps:normal;font-variant-numeric:normal;font-variant-alternates:normal;font-feature-settings:normal;text-indent:0;text-align:start;text-decoration:none;text-decoration-line:none;text-decoration-style:solid;text-decoration-color:#000000;letter-spacing:normal;word-spacing:normal;text-transform:none;writing-mode:lr-tb;direction:ltr;text-orientation:mixed;dominant-baseline:auto;baseline-shift:baseline;text-anchor:start;white-space:normal;shape-padding:0;clip-rule:nonzero;display:inline;overflow:visible;visibility:visible;isolation:auto;mix-blend-mode:normal;color-interpolation:sRGB;color-interpolation-filters:linearRGB;solid-color:#000000;solid-opacity:1;vector-effect:none;fill:#000000;fill-opacity:1;fill-rule:evenodd;stroke:none;stroke-width:0.132662;stroke-linecap:butt;stroke-linejoin:miter;stroke-miterlimit:4;stroke-dasharray:none;stroke-dashoffset:0;stroke-opacity:1;color-rendering:auto;image-rendering:auto;shape-rendering:auto;text-rendering:auto;enable-background:accumulate"
             inkscape:connector-curvature="0" />
          <path
             id="path1134"
             d="m 9.8125,250.46484 v 0.13282 l 40.710938,0.0508 v -0.13282 z"
             style="color:#000000;font-style:normal;font-variant:normal;font-weight:normal;font-stretch:normal;font-size:medium;line-height:normal;font-family:sans-serif;font-variant-ligatures:normal;font-variant-position:normal;font-variant-caps:normal;font-variant-numeric:normal;font-variant-alternates:normal;font-feature-settings:normal;text-indent:0;text-align:start;text-decoration:none;text-decoration-line:none;text-decoration-style:solid;text-decoration-color:#000000;letter-spacing:normal;word-spacing:normal;text-transform:none;writing-mode:lr-tb;direction:ltr;text-orientation:mixed;dominant-baseline:auto;baseline-shift:baseline;text-anchor:start;white-space:normal;shape-padding:0;clip-rule:nonzero;display:inline;overflow:visible;visibility:visible;isolation:auto;mix-blend-mode:normal;color-interpolation:sRGB;color-interpolation-filters:linearRGB;solid-color:#000000;solid-opacity:1;vector-effect:none;fill:#000000;fill-opacity:1;fill-rule:evenodd;stroke:none;stroke-linecap:butt;stroke-linejoin:miter;stroke-miterlimit:4;stroke-dasharray:none;stroke-dashoffset:0;stroke-opacity:1;color-rendering:auto;image-rendering:auto;shape-rendering:auto;text-rendering:auto;enable-background:accumulate"
             inkscape:connector-curvature="0" />
        </g>
        <g
           style="opacity:1;fill:#000000;fill-opacity:1;stroke:none"
           id="path27403">
          <path
             id="path1138"
             d="m 50.567789,250.51956 -0.04546,2.70726"
             style="color:#000000;font-style:normal;font-variant:normal;font-weight:normal;font-stretch:normal;font-size:medium;line-height:normal;font-family:sans-serif;font-variant-ligatures:normal;font-variant-position:normal;font-variant-caps:normal;font-variant-numeric:normal;font-variant-alternates:normal;font-feature-settings:normal;text-indent:0;text-align:start;text-decoration:none;text-decoration-line:none;text-decoration-style:solid;text-decoration-color:#000000;letter-spacing:normal;word-spacing:normal;text-transform:none;writing-mode:lr-tb;direction:ltr;text-orientation:mixed;dominant-baseline:auto;baseline-shift:baseline;text-anchor:start;white-space:normal;shape-padding:0;clip-rule:nonzero;display:inline;overflow:visible;visibility:visible;isolation:auto;mix-blend-mode:normal;color-interpolation:sRGB;color-interpolation-filters:linearRGB;solid-color:#000000;solid-opacity:1;vector-effect:none;fill:#000000;fill-opacity:1;fill-rule:evenodd;stroke:none;stroke-width:0.103723;stroke-linecap:butt;stroke-linejoin:miter;stroke-miterlimit:4;stroke-dasharray:none;stroke-dashoffset:0;stroke-opacity:1;color-rendering:auto;image-rendering:auto;shape-rendering:auto;text-rendering:auto;enable-background:accumulate"
             inkscape:connector-curvature="0" />
          <path
             id="path1140"
             d="m 50.515625,250.51953 -0.04492,2.70703 0.103516,0.002 0.04492,-2.70899 z"
             style="color:#000000;font-style:normal;font-variant:normal;font-weight:normal;font-stretch:normal;font-size:medium;line-height:normal;font-family:sans-serif;font-variant-ligatures:normal;font-variant-position:normal;font-variant-caps:normal;font-variant-numeric:normal;font-variant-alternates:normal;font-feature-settings:normal;text-indent:0;text-align:start;text-decoration:none;text-decoration-line:none;text-decoration-style:solid;text-decoration-color:#000000;letter-spacing:normal;word-spacing:normal;text-transform:none;writing-mode:lr-tb;direction:ltr;text-orientation:mixed;dominant-baseline:auto;baseline-shift:baseline;text-anchor:start;white-space:normal;shape-padding:0;clip-rule:nonzero;display:inline;overflow:visible;visibility:visible;isolation:auto;mix-blend-mode:normal;color-interpolation:sRGB;color-interpolation-filters:linearRGB;solid-color:#000000;solid-opacity:1;vector-effect:none;fill:#000000;fill-opacity:1;fill-rule:evenodd;stroke:none;stroke-linecap:butt;stroke-linejoin:miter;stroke-miterlimit:4;stroke-dasharray:none;stroke-dashoffset:0;stroke-opacity:1;color-rendering:auto;image-rendering:auto;shape-rendering:auto;text-rendering:auto;enable-background:accumulate"
             inkscape:connector-curvature="0" />
        </g>
        <g
           style="opacity:1;fill:#000000;fill-opacity:1;stroke:none"
           id="path27405">
          <path
             id="path1144"
             d="m 9.8219303,250.51956 -0.04546,2.70726"
             style="color:#000000;font-style:normal;font-variant:normal;font-weight:normal;font-stretch:normal;font-size:medium;line-height:normal;font-family:sans-serif;font-variant-ligatures:normal;font-variant-position:normal;font-variant-caps:normal;font-variant-numeric:normal;font-variant-alternates:normal;font-feature-settings:normal;text-indent:0;text-align:start;text-decoration:none;text-decoration-line:none;text-decoration-style:solid;text-decoration-color:#000000;letter-spacing:normal;word-spacing:normal;text-transform:none;writing-mode:lr-tb;direction:ltr;text-orientation:mixed;dominant-baseline:auto;baseline-shift:baseline;text-anchor:start;white-space:normal;shape-padding:0;clip-rule:nonzero;display:inline;overflow:visible;visibility:visible;isolation:auto;mix-blend-mode:normal;color-interpolation:sRGB;color-interpolation-filters:linearRGB;solid-color:#000000;solid-opacity:1;vector-effect:none;fill:#000000;fill-opacity:1;fill-rule:evenodd;stroke:none;stroke-width:0.103723;stroke-linecap:butt;stroke-linejoin:miter;stroke-miterlimit:4;stroke-dasharray:none;stroke-dashoffset:0;stroke-opacity:1;color-rendering:auto;image-rendering:auto;shape-rendering:auto;text-rendering:auto;enable-background:accumulate"
             inkscape:connector-curvature="0" />
          <path
             id="path1146"
             d="m 9.7695312,250.51953 -0.044922,2.70703 0.1035156,0.002 0.044922,-2.70899 z"
             style="color:#000000;font-style:normal;font-variant:normal;font-weight:normal;font-stretch:normal;font-size:medium;line-height:normal;font-family:sans-serif;font-variant-ligatures:normal;font-variant-position:normal;font-variant-caps:normal;font-variant-numeric:normal;font-variant-alternates:normal;font-feature-settings:normal;text-indent:0;text-align:start;text-decoration:none;text-decoration-line:none;text-decoration-style:solid;text-decoration-color:#000000;letter-spacing:normal;word-spacing:normal;text-transform:none;writing-mode:lr-tb;direction:ltr;text-orientation:mixed;dominant-baseline:auto;baseline-shift:baseline;text-anchor:start;white-space:normal;shape-padding:0;clip-rule:nonzero;display:inline;overflow:visible;visibility:visible;isolation:auto;mix-blend-mode:normal;color-interpolation:sRGB;color-interpolation-filters:linearRGB;solid-color:#000000;solid-opacity:1;vector-effect:none;fill:#000000;fill-opacity:1;fill-rule:evenodd;stroke:none;stroke-linecap:butt;stroke-linejoin:miter;stroke-miterlimit:4;stroke-dasharray:none;stroke-dashoffset:0;stroke-opacity:1;color-rendering:auto;image-rendering:auto;shape-rendering:auto;text-rendering:auto;enable-background:accumulate"
             inkscape:connector-curvature="0" />
        </g>
      </g>
      <g
         style="fill:#000000;fill-opacity:1;stroke:none"
         id="g27467"
         transform="translate(-35.514826,-4.1145815)">
        <g
           style="opacity:1;fill:#000000;fill-opacity:1;stroke:none"
           transform="rotate(89.890204)"
           id="rect27457" />
        <g
           style="opacity:1;fill:#000000;fill-opacity:1;stroke:none"
           transform="rotate(89.890204)"
           id="rect27459" />
        <g
           style="opacity:1;fill:#000000;fill-opacity:1;stroke:none"
           transform="rotate(89.890204)"
           id="rect27461" />
        <g
           style="opacity:1;fill:#000000;fill-opacity:1;stroke:none"
           transform="rotate(89.890204)"
           id="rect27463" />
        <g
           style="opacity:1;fill:#000000;fill-opacity:1;stroke:none"
           transform="rotate(89.890204)"
           id="rect27465" />
      </g>
      <g
         style="fill:#000000;fill-opacity:1;stroke:none"
         id="g27499"
         transform="translate(-36.043994,-12.581248)">
        <g
           style="opacity:1;fill:#000000;fill-opacity:1;stroke:none"
           transform="rotate(89.890204)"
           id="rect27469" />
        <g
           style="opacity:1;fill:#000000;fill-opacity:1;stroke:none"
           transform="rotate(89.890204)"
           id="rect27471" />
        <g
           style="opacity:1;fill:#000000;fill-opacity:1;stroke:none"
           transform="rotate(89.890204)"
           id="rect27473" />
        <g
           style="opacity:1;fill:#000000;fill-opacity:1;stroke:none"
           transform="rotate(89.890204)"
           id="rect27475" />
        <g
           style="opacity:1;fill:#000000;fill-opacity:1;stroke:none"
           transform="rotate(89.890204)"
           id="rect27477">
          <path
             sodipodi:nodetypes="ccccccccccccccccccccccccccccccccccccccccccccccccccccccccccccccccccccccccccccccccccccccccccccccccccccccccccccccccccccccccccccccccccccccc"
             inkscape:connector-curvature="0"
             d="m 275.89844,-29.478516 c -0.11165,-5.45e-4 -0.20259,0.08952 -0.20313,0.201172 v 5.267578 c -5.5e-4,0.11241 0.0907,0.203674 0.20313,0.203125 h 5.2832 c 0.11164,-5.38e-4 0.20171,-0.09148 0.20117,-0.203125 v -5.267578 c -5.3e-4,-0.110882 -0.0903,-0.200638 -0.20117,-0.201172 z m -0.009,10.771485 c -0.11164,5.38e-4 -0.20171,0.09148 -0.20117,0.203125 v 5.267578 c 5.3e-4,0.110882 0.0903,0.200638 0.20117,0.201172 h 5.28516 c 0.11088,-5.34e-4 0.20064,-0.09029 0.20117,-0.201172 v -5.267578 c 5.4e-4,-0.111644 -0.0895,-0.202587 -0.20117,-0.203125 z m -0.006,10.7734372 c -0.11164,-5.394e-4 -0.20258,0.089529 -0.20312,0.2011719 v 5.2675781 c 5.4e-4,0.1116427 0.0915,0.2017113 0.20312,0.2011719 h 5.28321 c 0.11088,-5.339e-4 0.20064,-0.09029 0.20117,-0.2011719 v -5.2675781 c -5.3e-4,-0.110882 -0.0903,-0.200638 -0.20117,-0.2011719 z m 0.0313,-43.0898442 c -0.11241,-5.43e-4 -0.20367,0.09072 -0.20312,0.203126 v 5.267578 c 5.4e-4,0.111643 0.0915,0.201711 0.20312,0.201172 h 5.28321 c 0.11088,-5.34e-4 0.20064,-0.09029 0.20117,-0.201172 v -5.267578 c 5.4e-4,-0.111644 -0.0895,-0.202588 -0.20117,-0.203126 z m -0.008,10.773438 c -0.11165,-5.45e-4 -0.20259,0.08953 -0.20313,0.201172 v 5.267578 c -5.5e-4,0.11241 0.0907,0.203674 0.20313,0.203125 h 5.2832 c 0.11164,-5.38e-4 0.20171,-0.09148 0.20117,-0.203125 v -5.267578 c -5.3e-4,-0.111014 -0.0905,-0.200824 -0.20151,-0.201172 z m -8.47569,10.754636 c -0.11164,5.38e-4 -0.20171,0.09148 -0.20117,0.203125 v 5.267578 c 5.3e-4,0.110882 0.0903,0.200638 0.20117,0.201172 h 5.28516 c 0.11088,-5.34e-4 0.20064,-0.09029 0.20117,-0.201172 v -5.267578 c 5.4e-4,-0.111644 -0.0895,-0.202587 -0.20117,-0.203125 z m -0.008,10.773438 c -0.11088,5.34e-4 -0.20064,0.09029 -0.20117,0.201172 v 5.267578 c 5.3e-4,0.110882 0.0903,0.200638 0.20117,0.201172 h 5.2832 c 0.11165,5.45e-4 0.20259,-0.08953 0.20313,-0.201172 v -5.267578 c -5.4e-4,-0.111647 -0.0915,-0.201717 -0.20313,-0.201172 z m -0.008,10.7714836 c -0.11089,5.285e-4 -0.20065,0.090286 -0.20118,0.2011719 v 5.2675781 c -5.4e-4,0.1116478 0.0895,0.2025929 0.20118,0.203125 h 5.2832 c 0.11241,5.431e-4 0.20367,-0.090719 0.20312,-0.203125 v -5.2675781 c -5.4e-4,-0.1116427 -0.0915,-0.2017113 -0.20312,-0.2011719 z m 0.0313,-43.0878906 c -0.11089,5.28e-4 -0.20065,0.09029 -0.20118,0.201172 v 5.267578 c -5.4e-4,0.111648 0.0895,0.202593 0.20118,0.203125 h 5.2832 c 0.11241,5.43e-4 0.20367,-0.09072 0.20312,-0.203125 v -5.267578 c -5.4e-4,-0.111643 -0.0915,-0.201711 -0.20312,-0.201172 z m -0.008,10.771485 c -0.11088,5.34e-4 -0.20064,0.09029 -0.20117,0.201172 v 5.267578 c -5.4e-4,0.111644 0.0895,0.202587 0.20117,0.203125 h 5.28516 c 0.11164,-5.38e-4 0.20171,-0.09148 0.20117,-0.203125 v -5.267578 c -5.3e-4,-0.110882 -0.0903,-0.200638 -0.20117,-0.201172 z m -8.47447,10.755259 c -0.11164,5.38e-4 -0.20171,0.09148 -0.20117,0.203125 v 5.267578 c 5.3e-4,0.110882 0.0903,0.200638 0.20117,0.201172 h 5.28516 c 0.11088,-5.34e-4 0.20064,-0.09029 0.20117,-0.201172 v -5.267578 c 5.4e-4,-0.111644 -0.0895,-0.202587 -0.20117,-0.203125 z m -0.008,10.773438 c -0.11088,5.34e-4 -0.20064,0.09029 -0.20117,0.201172 v 5.267578 c 5.3e-4,0.110882 0.0903,0.200638 0.20117,0.201172 h 5.2832 c 0.11165,5.45e-4 0.20259,-0.08953 0.20313,-0.201172 v -5.267578 c -5.4e-4,-0.111647 -0.0915,-0.201717 -0.20313,-0.201172 z m -0.008,10.771484 c -0.11089,5.285e-4 -0.20065,0.090286 -0.20118,0.2011719 v 5.2675781 c -5.4e-4,0.1116478 0.0895,0.2025929 0.20118,0.203125 h 5.2832 c 0.11241,5.431e-4 0.20367,-0.090719 0.20312,-0.203125 v -5.2675781 c -5.4e-4,-0.1116427 -0.0915,-0.2017113 -0.20312,-0.2011719 z m 0.0313,-43.087891 c -0.11089,5.28e-4 -0.20065,0.09029 -0.20118,0.201172 v 5.267578 c -5.4e-4,0.111648 0.0895,0.202593 0.20118,0.203125 h 5.2832 c 0.11241,5.43e-4 0.20367,-0.09072 0.20312,-0.203125 v -5.267578 c -5.4e-4,-0.111643 -0.0915,-0.201711 -0.20312,-0.201172 z m -0.008,10.771485 c -0.11088,5.34e-4 -0.20064,0.09029 -0.20117,0.201172 v 5.267578 c -5.4e-4,0.111644 0.0895,0.202587 0.20117,0.203125 h 5.28516 c 0.11164,-5.38e-4 0.20171,-0.09148 0.20117,-0.203125 v -5.267578 c -5.3e-4,-0.110882 -0.0903,-0.200638 -0.20117,-0.201172 z"
             style="color:#000000;font-style:normal;font-variant:normal;font-weight:normal;font-stretch:normal;font-size:medium;line-height:normal;font-family:sans-serif;font-variant-ligatures:normal;font-variant-position:normal;font-variant-caps:normal;font-variant-numeric:normal;font-variant-alternates:normal;font-feature-settings:normal;text-indent:0;text-align:start;text-decoration:none;text-decoration-line:none;text-decoration-style:solid;text-decoration-color:#000000;letter-spacing:normal;word-spacing:normal;text-transform:none;writing-mode:lr-tb;direction:ltr;text-orientation:mixed;dominant-baseline:auto;baseline-shift:baseline;text-anchor:start;white-space:normal;shape-padding:0;clip-rule:nonzero;display:inline;overflow:visible;visibility:visible;isolation:auto;mix-blend-mode:normal;color-interpolation:sRGB;color-interpolation-filters:linearRGB;solid-color:#000000;solid-opacity:1;vector-effect:none;fill:#000000;fill-opacity:1;fill-rule:nonzero;stroke:none;stroke-linecap:butt;stroke-linejoin:round;stroke-miterlimit:4;stroke-dasharray:none;stroke-dashoffset:0;stroke-opacity:1;color-rendering:auto;image-rendering:auto;shape-rendering:auto;text-rendering:auto;enable-background:accumulate"
             id="path1092" />
        </g>
      </g>
      <g
         style="fill:#000000;fill-opacity:1;stroke:none"
         transform="translate(-36.0538,-13.110414)"
         id="g27487">
        <path
           id="rect27481"
           d="m 24.695312,286.36719 a 0.06615262,0.06615262 0 0 0 -0.06641,0.0664 v 1.99219 a 0.06615262,0.06615262 0 0 0 0.06641,0.0664 h 2.490235 a 0.06615262,0.06615262 0 0 0 0.06641,-0.0664 v -1.99219 a 0.06615262,0.06615262 0 0 0 -0.06641,-0.0664 z m 0.06641,0.13281 h 2.359375 v 1.86133 h -2.359375 z"
           style="color:#000000;font-style:normal;font-variant:normal;font-weight:normal;font-stretch:normal;font-size:medium;line-height:normal;font-family:sans-serif;font-variant-ligatures:normal;font-variant-position:normal;font-variant-caps:normal;font-variant-numeric:normal;font-variant-alternates:normal;font-feature-settings:normal;text-indent:0;text-align:start;text-decoration:none;text-decoration-line:none;text-decoration-style:solid;text-decoration-color:#000000;letter-spacing:normal;word-spacing:normal;text-transform:none;writing-mode:lr-tb;direction:ltr;text-orientation:mixed;dominant-baseline:auto;baseline-shift:baseline;text-anchor:start;white-space:normal;shape-padding:0;clip-rule:nonzero;display:inline;overflow:visible;visibility:visible;opacity:1;isolation:auto;mix-blend-mode:normal;color-interpolation:sRGB;color-interpolation-filters:linearRGB;solid-color:#000000;solid-opacity:1;vector-effect:none;fill:#000000;fill-opacity:1;fill-rule:nonzero;stroke:none;stroke-linecap:butt;stroke-linejoin:round;stroke-miterlimit:4;stroke-dasharray:none;stroke-dashoffset:1;stroke-opacity:1;color-rendering:auto;image-rendering:auto;shape-rendering:auto;text-rendering:auto;enable-background:accumulate"
           inkscape:connector-curvature="0" />
        <path
           id="rect27483"
           d="m 27.185547,286.36719 a 0.06615262,0.06615262 0 0 0 -0.06445,0.0664 v 1.99219 a 0.06615262,0.06615262 0 0 0 0.06445,0.0664 h 2.492187 a 0.06615262,0.06615262 0 0 0 0.06641,-0.0664 v -1.99219 a 0.06615262,0.06615262 0 0 0 -0.06641,-0.0664 z m 0.06641,0.13281 h 2.359375 v 1.86133 h -2.359375 z"
           style="color:#000000;font-style:normal;font-variant:normal;font-weight:normal;font-stretch:normal;font-size:medium;line-height:normal;font-family:sans-serif;font-variant-ligatures:normal;font-variant-position:normal;font-variant-caps:normal;font-variant-numeric:normal;font-variant-alternates:normal;font-feature-settings:normal;text-indent:0;text-align:start;text-decoration:none;text-decoration-line:none;text-decoration-style:solid;text-decoration-color:#000000;letter-spacing:normal;word-spacing:normal;text-transform:none;writing-mode:lr-tb;direction:ltr;text-orientation:mixed;dominant-baseline:auto;baseline-shift:baseline;text-anchor:start;white-space:normal;shape-padding:0;clip-rule:nonzero;display:inline;overflow:visible;visibility:visible;opacity:1;isolation:auto;mix-blend-mode:normal;color-interpolation:sRGB;color-interpolation-filters:linearRGB;solid-color:#000000;solid-opacity:1;vector-effect:none;fill:#000000;fill-opacity:1;fill-rule:nonzero;stroke:none;stroke-linecap:butt;stroke-linejoin:round;stroke-miterlimit:4;stroke-dasharray:none;stroke-dashoffset:1;stroke-opacity:1;color-rendering:auto;image-rendering:auto;shape-rendering:auto;text-rendering:auto;enable-background:accumulate"
           inkscape:connector-curvature="0" />
        <g
           style="font-style:normal;font-weight:normal;font-size:1.97365999px;line-height:125%;font-family:sans-serif;letter-spacing:1.86707997px;word-spacing:0px;fill:#000000;fill-opacity:1;stroke:none;stroke-width:0.0493416px;stroke-linecap:butt;stroke-linejoin:miter;stroke-opacity:1"
           id="text27503"
           aria-label="1">
          <path
             id="path1026"
             style="fill:#000000;fill-opacity:1;stroke:none;stroke-width:0.0493416px"
             d="m 25.61752,287.90471 h 0.318021 v -1.09765 l -0.345968,0.0694 v -0.17732 l 0.344041,-0.0694 h 0.194668 v 1.27497 h 0.318021 v 0.16383 H 25.61752 Z"
             inkscape:connector-curvature="0" />
        </g>
        <g
           style="font-style:normal;font-weight:normal;font-size:1.97124004px;line-height:125%;font-family:sans-serif;letter-spacing:1.86478996px;word-spacing:0px;fill:#000000;fill-opacity:1;stroke:none;stroke-width:0.049281px;stroke-linecap:butt;stroke-linejoin:miter;stroke-opacity:1"
           id="text27507"
           aria-label="2">
          <path
             id="path1029"
             style="fill:#000000;fill-opacity:1;stroke:none;stroke-width:0.049281px"
             d="m 28.247767,287.91703 h 0.678577 v 0.16363 h -0.912469 v -0.16363 q 0.11069,-0.11454 0.301269,-0.30704 0.191541,-0.19347 0.24063,-0.2493 0.09336,-0.10491 0.12994,-0.1771 0.03754,-0.0731 0.03754,-0.14342 0,-0.11454 -0.08085,-0.18672 -0.07989,-0.0722 -0.208866,-0.0722 -0.09144,0 -0.193467,0.0318 -0.101064,0.0318 -0.216567,0.0962 v -0.19635 q 0.117428,-0.0472 0.219455,-0.0712 0.102027,-0.0241 0.186729,-0.0241 0.223304,0 0.356132,0.11165 0.132828,0.11165 0.132828,0.29838 0,0.0885 -0.03369,0.16844 -0.03273,0.0789 -0.120315,0.18673 -0.02406,0.0279 -0.15304,0.1617 -0.128978,0.13283 -0.363833,0.3725 z"
             inkscape:connector-curvature="0" />
        </g>
      </g>
    </g>
  </g>
</svg>
