<?xml version="1.0" encoding="UTF-8" standalone="no"?>
<svg
   xmlns:dc="http://purl.org/dc/elements/1.1/"
   xmlns:cc="http://creativecommons.org/ns#"
   xmlns:rdf="http://www.w3.org/1999/02/22-rdf-syntax-ns#"
   xmlns:svg="http://www.w3.org/2000/svg"
   xmlns="http://www.w3.org/2000/svg"
   xmlns:sodipodi="http://sodipodi.sourceforge.net/DTD/sodipodi-0.dtd"
   xmlns:inkscape="http://www.inkscape.org/namespaces/inkscape"
   inkscape:version="1.0 (4035a4fb49, 2020-05-01)"
   sodipodi:docname="focus-symbolic.svg"
   width="64"
   height="64"
   version="1.1"
   id="svg24">
  <sodipodi:namedview
     inkscape:document-rotation="0"
     inkscape:current-layer="svg24"
     inkscape:window-maximized="1"
     inkscape:window-y="40"
     inkscape:window-x="0"
     inkscape:cy="32"
     inkscape:cx="-17.084746"
     inkscape:zoom="3.6875"
     showgrid="false"
     id="namedview967"
     inkscape:window-height="898"
     inkscape:window-width="1920"
     inkscape:pageshadow="2"
     inkscape:pageopacity="0"
     guidetolerance="10"
     gridtolerance="10"
     objecttolerance="10"
     borderopacity="1"
     bordercolor="#666666"
     pagecolor="#ffffff" />
  <metadata
     id="metadata30">
    <rdf:RDF>
      <cc:Work
         rdf:about="">
        <dc:format>image/svg+xml</dc:format>
        <dc:type
           rdf:resource="http://purl.org/dc/dcmitype/StillImage" />
        <dc:title />
      </cc:Work>
    </rdf:RDF>
  </metadata>
  <defs
     id="defs28" />
  <g
     id="g3360"
     transform="matrix(0.890625,0,0,0.890625,3.5,3.5008817)">
    <g
       transform="translate(0,-362.66699)"
       id="g10">
      <g
         id="g8">
        <g
           id="g6">
          <path
             style="fill:#cccccc;stroke-width:0.15"
             id="path2"
             d="m 31.99978,378.66622 c -8.831994,0 -15.999889,7.16791 -15.999889,15.99993 0,8.83201 7.167895,15.99993 15.999889,15.99993 8.831993,0 16.000183,-7.16821 16.000183,-16.00023 0,-8.83201 -7.16819,-15.99963 -16.000183,-15.99963 z m 0,8.47443 a 7.5254235,7.5254411 0 0 1 7.525482,7.5255 7.5254235,7.5254411 0 0 1 -7.525482,7.5255 7.5254235,7.5254411 0 0 1 -7.52519,-7.5255 7.5254235,7.5254411 0 0 1 7.52519,-7.5255 z" />
          <path
             style="fill:#cccccc;stroke-width:0.15"
             id="path4"
             d="M 31.999925,362.666 C 14.320039,362.666 0,376.98607 0,394.666 c 0,17.67993 14.320039,32 31.999925,32 17.679886,0 32.000075,-14.31992 32.000075,-32 0,-17.68008 -14.320039,-32 -32.000075,-32 z m 0,57.60009 c -14.143939,0 -25.60003,-11.45597 -25.60003,-25.60009 0,-14.14412 11.456091,-25.59994 25.60003,-25.59994 14.143939,0 25.60003,11.45597 25.60003,25.59994 0,14.14397 -11.455941,25.60009 -25.60003,25.60009 z" />
        </g>
      </g>
    </g>
    <g
       transform="translate(0,-362.66699)"
       id="g12" />
    <g
       transform="translate(0,-362.66699)"
       id="g14" />
    <g
       transform="translate(0,-362.66699)"
       id="g16" />
    <g
       transform="translate(0,-362.66699)"
       id="g18" />
    <g
       transform="translate(0,-362.66699)"
       id="g20" />
    <g
       transform="translate(0,-362.66699)"
       id="g22" />
    <g
       transform="translate(0,-362.66699)"
       id="g24" />
    <g
       transform="translate(0,-362.66699)"
       id="g26" />
    <g
       transform="translate(0,-362.66699)"
       id="g28" />
    <g
       transform="translate(0,-362.66699)"
       id="g30" />
    <g
       transform="translate(0,-362.66699)"
       id="g32" />
    <g
       transform="translate(0,-362.66699)"
       id="g34" />
    <g
       transform="translate(0,-362.66699)"
       id="g36" />
    <g
       transform="translate(0,-362.66699)"
       id="g38" />
    <g
       transform="translate(0,-362.66699)"
       id="g40" />
  </g>
</svg>
