<?xml version="1.0" encoding="UTF-8" standalone="no"?>
<svg
   xmlns:dc="http://purl.org/dc/elements/1.1/"
   xmlns:cc="http://creativecommons.org/ns#"
   xmlns:rdf="http://www.w3.org/1999/02/22-rdf-syntax-ns#"
   xmlns:svg="http://www.w3.org/2000/svg"
   xmlns="http://www.w3.org/2000/svg"
   xmlns:sodipodi="http://sodipodi.sourceforge.net/DTD/sodipodi-0.dtd"
   xmlns:inkscape="http://www.inkscape.org/namespaces/inkscape"
   inkscape:version="1.0 (4035a4fb49, 2020-05-01)"
   sodipodi:docname="football-symbolic.svg"
   width="64"
   height="64"
   version="1.1"
   id="svg24">
  <sodipodi:namedview
     inkscape:document-rotation="0"
     inkscape:current-layer="svg24"
     inkscape:window-maximized="1"
     inkscape:window-y="40"
     inkscape:window-x="0"
     inkscape:cy="32"
     inkscape:cx="-17.084746"
     inkscape:zoom="3.6875"
     showgrid="false"
     id="namedview947"
     inkscape:window-height="898"
     inkscape:window-width="1920"
     inkscape:pageshadow="2"
     inkscape:pageopacity="0"
     guidetolerance="10"
     gridtolerance="10"
     objecttolerance="10"
     borderopacity="1"
     bordercolor="#666666"
     pagecolor="#ffffff" />
  <metadata
     id="metadata30">
    <rdf:RDF>
      <cc:Work
         rdf:about="">
        <dc:format>image/svg+xml</dc:format>
        <dc:type
           rdf:resource="http://purl.org/dc/dcmitype/StillImage" />
        <dc:title />
      </cc:Work>
    </rdf:RDF>
  </metadata>
  <defs
     id="defs28" />
  <path
     style="fill:#cccccc;stroke-width:1.42499"
     d="m 32,3.5 a 28.5,28.5 0 0 0 -3.618163,0.2671875 c -0.562548,3.2744995 -0.570696,6.7148655 -0.353468,9.9610835 11.2588,-1.570029 22.075246,1.623786 30.584618,8.104687 0.04554,0.119701 0.08103,0.244274 0.125245,0.364601 A 28.5,28.5 0 0 0 32,3.5 Z m -4.208203,0.3367675 a 28.5,28.5 0 0 0 -1.327589,0.2337891 c 0.43907,-0.087513 0.881367,-0.1666757 1.327589,-0.2337891 z M 25.837988,4.2097168 A 28.5,28.5 0 0 0 14.532617,9.497803 c -1.513457,10.161398 0.889745,21.078439 7.651026,29.833154 3.271799,-2.560521 6.076622,-6.050424 8.413622,-9.77461 C 26.052966,21.63544 24.626266,12.619514 25.837988,4.2097168 Z M 14.385108,9.606347 a 28.5,28.5 0 0 0 -0.267187,0.217091 c 0.08978,-0.0716 0.176738,-0.146262 0.267187,-0.217091 z m -2.588379,2.323974 A 28.5,28.5 0 0 0 3.5000001,32 28.5,28.5 0 0 0 7.6859379,46.820558 C 12.104956,45.627318 16.307143,43.616176 20.082325,40.961914 13.79417,32.238243 10.971607,22.010643 11.796729,11.930321 Z m 21.071631,3.860305 c -1.521326,0.0037 -3.057948,0.08983 -4.606203,0.264402 0.701162,4.189846 2.102209,8.380926 4.43921,12.337941 10.422247,0.225725 19.738922,4.176404 26.899659,10.567823 A 28.5,28.5 0 0 0 60.5,32 28.5,28.5 0 0 0 59.809766,25.92705 C 52.55711,19.516941 43.076973,15.766222 32.86836,15.790626 Z m 26.498877,8.299511 c 0.08386,0.284931 0.150806,0.576707 0.225439,0.865576 a 28.5,28.5 0 0 0 -0.225439,-0.865576 z m -26.66587,6.62959 c -5.47589,9.090132 -14.074354,15.28609 -23.6126941,18.174318 a 28.5,28.5 0 0 0 8.2382801,7.497949 C 29.628408,53.865317 40.286791,45.364327 45.5542,33.046485 41.58124,31.64987 37.141728,30.719729 32.701367,30.719727 Z m 14.956934,3.49292 C 42.639376,46.028428 32.493397,54.7197 20.708544,58.159327 A 28.5,28.5 0 0 0 32,60.5 28.5,28.5 0 0 0 58.732668,41.782959 C 55.579686,38.773975 51.830992,36.181397 47.658301,34.212647 Z m 11.786865,5.360448 c -0.143747,0.525186 -0.303439,1.043453 -0.475927,1.555812 a 28.5,28.5 0 0 0 0.475927,-1.555812 z M 7.8028309,47.023732 a 28.5,28.5 0 0 0 0.779298,1.163378 c -0.264956,-0.383933 -0.532749,-0.765812 -0.779298,-1.163378 z m 10.1781741,9.769042 a 28.5,28.5 0 0 0 0.570557,0.320068 c -0.19182,-0.104523 -0.381148,-0.211697 -0.570557,-0.320068 z"
     id="circle4" />
</svg>
