<?xml version="1.0" encoding="UTF-8" standalone="no"?>
<!-- Created with Inkscape (http://www.inkscape.org/) -->

<svg
   xmlns:dc="http://purl.org/dc/elements/1.1/"
   xmlns:cc="http://creativecommons.org/ns#"
   xmlns:rdf="http://www.w3.org/1999/02/22-rdf-syntax-ns#"
   xmlns:svg="http://www.w3.org/2000/svg"
   xmlns="http://www.w3.org/2000/svg"
   xmlns:sodipodi="http://sodipodi.sourceforge.net/DTD/sodipodi-0.dtd"
   xmlns:inkscape="http://www.inkscape.org/namespaces/inkscape"
   width="66mm"
   height="66mm"
   viewBox="0 0 66 66"
   version="1.1"
   id="svg8"
   inkscape:version="0.92.5 (2060ec1f9f, 2020-04-08)"
   sodipodi:docname="gnomeoverview-layout-symbolic.svg">
  <defs
     id="defs2" />
  <sodipodi:namedview
     id="base"
     pagecolor="#ffffff"
     bordercolor="#666666"
     borderopacity="1.0"
     inkscape:pageopacity="0.0"
     inkscape:pageshadow="2"
     inkscape:zoom="5.6"
     inkscape:cx="112.53475"
     inkscape:cy="180.16811"
     inkscape:document-units="mm"
     inkscape:current-layer="layer1"
     showgrid="false"
     inkscape:window-width="2560"
     inkscape:window-height="1264"
     inkscape:window-x="0"
     inkscape:window-y="40"
     inkscape:window-maximized="1" />
  <metadata
     id="metadata5">
    <rdf:RDF>
      <cc:Work
         rdf:about="">
        <dc:format>image/svg+xml</dc:format>
        <dc:type
           rdf:resource="http://purl.org/dc/dcmitype/StillImage" />
        <dc:title />
      </cc:Work>
    </rdf:RDF>
  </metadata>
  <g
     inkscape:label="Layer 1"
     inkscape:groupmode="layer"
     id="layer1"
     transform="translate(0,-231)">
    <g
       id="g890"
       transform="translate(3.1398812,-25.174939)">
      <path
         id="rect30565"
         d="m -2.7697633,256.70411 a 0.0890044,0.0890044 0 0 0 -0.087891,0.0879 v 2.64062 a 0.0890044,0.0890044 0 0 0 0.087891,0.0899 H 62.488052 a 0.0890044,0.0890044 0 0 0 0.08984,-0.0899 v -2.64062 a 0.0890044,0.0890044 0 0 0 -0.08984,-0.0879 z m 0.089844,0.17773 H 62.40016 v 2.46289 H -2.6799195 Z"
         style="color:#000000;font-style:normal;font-variant:normal;font-weight:normal;font-stretch:normal;font-size:medium;line-height:normal;font-family:sans-serif;font-variant-ligatures:normal;font-variant-position:normal;font-variant-caps:normal;font-variant-numeric:normal;font-variant-alternates:normal;font-feature-settings:normal;text-indent:0;text-align:start;text-decoration:none;text-decoration-line:none;text-decoration-style:solid;text-decoration-color:#000000;letter-spacing:normal;word-spacing:normal;text-transform:none;writing-mode:lr-tb;direction:ltr;text-orientation:mixed;dominant-baseline:auto;baseline-shift:baseline;text-anchor:start;white-space:normal;shape-padding:0;clip-rule:nonzero;display:inline;overflow:visible;visibility:visible;opacity:1;isolation:auto;mix-blend-mode:normal;color-interpolation:sRGB;color-interpolation-filters:linearRGB;solid-color:#000000;solid-opacity:1;vector-effect:none;fill:#000000;fill-opacity:1;fill-rule:nonzero;stroke:none;stroke-width:1;stroke-linecap:butt;stroke-linejoin:round;stroke-miterlimit:4;stroke-dasharray:none;stroke-dashoffset:0;stroke-opacity:1;color-rendering:auto;image-rendering:auto;shape-rendering:auto;text-rendering:auto;enable-background:accumulate"
         inkscape:connector-curvature="0" />
      <path
         id="path36245"
         d="m 52.486095,257.72364 -0.0021,0.54492 2.484374,0.01 0.0021,-0.54492 z m 3.576172,0.0137 -0.0021,0.54687 3.277344,0.0117 0.0039,-0.54492 z m 4.371096,0.0176 -0.0021,0.54687 0.958982,0.004 0.0021,-0.54688 z"
         style="color:#000000;font-style:normal;font-variant:normal;font-weight:normal;font-stretch:normal;font-size:medium;line-height:normal;font-family:sans-serif;font-variant-ligatures:normal;font-variant-position:normal;font-variant-caps:normal;font-variant-numeric:normal;font-variant-alternates:normal;font-feature-settings:normal;text-indent:0;text-align:start;text-decoration:none;text-decoration-line:none;text-decoration-style:solid;text-decoration-color:#000000;letter-spacing:normal;word-spacing:normal;text-transform:none;writing-mode:lr-tb;direction:ltr;text-orientation:mixed;dominant-baseline:auto;baseline-shift:baseline;text-anchor:start;white-space:normal;shape-padding:0;clip-rule:nonzero;display:inline;overflow:visible;visibility:visible;opacity:1;isolation:auto;mix-blend-mode:normal;color-interpolation:sRGB;color-interpolation-filters:linearRGB;solid-color:#000000;solid-opacity:1;vector-effect:none;fill:#000000;fill-opacity:1;fill-rule:evenodd;stroke:none;stroke-width:1;stroke-linecap:butt;stroke-linejoin:miter;stroke-miterlimit:4;stroke-dasharray:3.27800003, 1.09267001;stroke-dashoffset:0.79374999;stroke-opacity:1;color-rendering:auto;image-rendering:auto;shape-rendering:auto;text-rendering:auto;enable-background:accumulate"
         inkscape:connector-curvature="0" />
      <g
         style="fill:#000000;fill-opacity:1;stroke:none;stroke-opacity:1"
         transform="matrix(0.90643205,0,0,0.90643205,2.9980853,48.28213)"
         id="g27745">
        <g
           id="g27663"
           transform="matrix(2.8771112,0,0,2.8492319,156.81218,-431.79624)"
           style="fill:#000000;fill-opacity:1;stroke:none;stroke-opacity:1">
          <path
             d="m -34.5625,241.22656 a 0.09523952,0.09523952 0 0 0 -0.0957,0.0957 v 2.44335 a 0.09523952,0.09523952 0 0 0 0.0957,0.0957 h 2.527344 a 0.09523952,0.09523952 0 0 0 0.0957,-0.0957 v -2.44335 a 0.09523952,0.09523952 0 0 0 -0.0957,-0.0957 z m 0.09375,0.19141 h 2.337891 v 2.25391 h -2.337891 z m -0.09375,3.0625 a 0.09523952,0.09523952 0 0 0 -0.0957,0.0957 v 2.44336 a 0.09523952,0.09523952 0 0 0 0.0957,0.0957 h 2.527344 a 0.09523952,0.09523952 0 0 0 0.0957,-0.0957 v -2.44336 a 0.09523952,0.09523952 0 0 0 -0.0957,-0.0957 z m 0.09375,0.19141 h 2.337891 v 2.2539 h -2.337891 z m -0.09375,3.00781 a 0.09523952,0.09523952 0 0 0 -0.0957,0.0957 v 2.44336 a 0.09523952,0.09523952 0 0 0 0.0957,0.0957 h 2.527344 a 0.09523952,0.09523952 0 0 0 0.0957,-0.0957 v -2.44336 a 0.09523952,0.09523952 0 0 0 -0.0957,-0.0957 z m 0.09375,0.18945 h 2.337891 v 2.25391 h -2.337891 z m -0.09375,-9.95117 a 0.09523952,0.09523952 0 0 0 -0.0957,0.0957 v 2.44336 a 0.09523952,0.09523952 0 0 0 0.0957,0.0957 h 2.527344 a 0.09523952,0.09523952 0 0 0 0.0957,-0.0957 v -2.44336 a 0.09523952,0.09523952 0 0 0 -0.0957,-0.0957 z m 0.09375,0.18945 h 2.337891 v 2.25391 h -2.337891 z m -0.392088,-0.44833 a 0.04598526,0.04643522 0 0 0 -0.04616,0.0466 v 12.82349 a 0.04598526,0.04643522 0 0 0 0.04616,0.0466 h 3.136962 a 0.04598526,0.04643522 0 0 0 0.04616,-0.0466 V 237.7057 a 0.04598526,0.04643522 0 0 0 -0.04616,-0.0466 z m 0.04548,0.0932 h 3.045997 v 12.73027 h -3.045997 z"
             style="color:#000000;font-style:normal;font-variant:normal;font-weight:normal;font-stretch:normal;font-size:medium;line-height:normal;font-family:sans-serif;font-variant-ligatures:normal;font-variant-position:normal;font-variant-caps:normal;font-variant-numeric:normal;font-variant-alternates:normal;font-feature-settings:normal;text-indent:0;text-align:start;text-decoration:none;text-decoration-line:none;text-decoration-style:solid;text-decoration-color:#000000;letter-spacing:normal;word-spacing:normal;text-transform:none;writing-mode:lr-tb;direction:ltr;text-orientation:mixed;dominant-baseline:auto;baseline-shift:baseline;text-anchor:start;white-space:normal;shape-padding:0;clip-rule:nonzero;display:inline;overflow:visible;visibility:visible;opacity:1;isolation:auto;mix-blend-mode:normal;color-interpolation:sRGB;color-interpolation-filters:linearRGB;solid-color:#000000;solid-opacity:1;vector-effect:none;fill:#000000;fill-opacity:1;fill-rule:nonzero;stroke:none;stroke-linecap:butt;stroke-linejoin:round;stroke-miterlimit:4;stroke-dasharray:none;stroke-dashoffset:0;stroke-opacity:1;color-rendering:auto;image-rendering:auto;shape-rendering:auto;text-rendering:auto;enable-background:accumulate"
             id="rect27397"
             inkscape:connector-curvature="0" />
        </g>
      </g>
      <path
         id="path30067"
         d="m 28.855237,257.79395 -0.0039,0.40234 0.816407,0.006 0.0039,-0.40234 z m 1.621094,0.0137 -0.0039,0.40235 1.609375,0.0156 0.0039,-0.40234 z m 2.414061,0.0215 -0.0039,0.40234 0.312502,0.004 0.0039,-0.40235 z"
         style="color:#000000;font-style:normal;font-variant:normal;font-weight:normal;font-stretch:normal;font-size:medium;line-height:normal;font-family:sans-serif;font-variant-ligatures:normal;font-variant-position:normal;font-variant-caps:normal;font-variant-numeric:normal;font-variant-alternates:normal;font-feature-settings:normal;text-indent:0;text-align:start;text-decoration:none;text-decoration-line:none;text-decoration-style:solid;text-decoration-color:#000000;letter-spacing:normal;word-spacing:normal;text-transform:none;writing-mode:lr-tb;direction:ltr;text-orientation:mixed;dominant-baseline:auto;baseline-shift:baseline;text-anchor:start;white-space:normal;shape-padding:0;clip-rule:nonzero;display:inline;overflow:visible;visibility:visible;opacity:1;isolation:auto;mix-blend-mode:normal;color-interpolation:sRGB;color-interpolation-filters:linearRGB;solid-color:#000000;solid-opacity:1;vector-effect:none;fill:#000000;fill-opacity:1;fill-rule:evenodd;stroke:none;stroke-width:1;stroke-linecap:butt;stroke-linejoin:miter;stroke-miterlimit:4;stroke-dasharray:1.60947002, 0.80473501;stroke-dashoffset:0.79352897;stroke-opacity:1;color-rendering:auto;image-rendering:auto;shape-rendering:auto;text-rendering:auto;enable-background:accumulate"
         inkscape:connector-curvature="0" />
      <g
         style="fill:#000000;fill-opacity:1;stroke:none"
         transform="translate(-3.1467164,24.053722)"
         id="g27737">
        <g
           style="fill:#000000;fill-opacity:1;stroke:none;stroke-opacity:1"
           transform="translate(0,1.3832637)"
           id="g27766">
          <g
             style="opacity:1;fill:#000000;fill-opacity:1;stroke:none"
             id="rect29160" />
          <g
             style="opacity:1;fill:#000000;fill-opacity:1;stroke:none"
             id="rect29162" />
          <g
             style="opacity:1;fill:#000000;fill-opacity:1;stroke:none"
             id="rect27687" />
          <g
             style="opacity:1;fill:#000000;fill-opacity:1;stroke:none"
             id="rect27689" />
          <g
             style="opacity:1;fill:#000000;fill-opacity:1;stroke:none"
             id="rect27691" />
          <g
             style="opacity:1;fill:#000000;fill-opacity:1;stroke:none"
             id="rect27693" />
          <g
             style="opacity:1;fill:#000000;fill-opacity:1;stroke:none"
             id="rect27711">
            <path
               sodipodi:nodetypes="ccccccccccccccccccccccccccccccccccccccccccccccccccccccccccccccccccccccccccccc"
               inkscape:connector-curvature="0"
               d="m 1.4707031,250.87305 c -0.052203,-2.6e-4 -0.094887,0.0416 -0.095703,0.0937 v 2.44531 c -2.567e-4,0.053 0.042742,0.096 0.095703,0.0957 h 2.5273438 c 0.052961,2.6e-4 0.09596,-0.0427 0.095703,-0.0957 v -2.44531 c -8.429e-4,-0.0522 -0.043519,-0.094 -0.095703,-0.0937 z m -2e-7,3.20706 c -0.052949,-2.6e-4 -0.095943,0.0427 -0.095703,0.0957 v 2.44336 c -2.567e-4,0.053 0.042742,0.096 0.095703,0.0957 h 2.5273438 c 0.052961,2.6e-4 0.09596,-0.0427 0.095703,-0.0957 v -2.44336 c 2.567e-4,-0.053 -0.042742,-0.096 -0.095703,-0.0957 z m -2e-7,3.20894 c -0.052968,-2.6e-4 -0.095971,0.0428 -0.095703,0.0957 v 2.44335 c -2.567e-4,0.053 0.042742,0.096 0.095703,0.0957 h 2.5273438 c 0.052961,2.6e-4 0.09596,-0.0427 0.095703,-0.0957 v -2.44335 c 2.567e-4,-0.053 -0.042742,-0.096 -0.095703,-0.0957 z m -2e-7,3.20895 c -0.052222,-2.6e-4 -0.094914,0.0416 -0.095703,0.0938 v 2.44531 c 8.429e-4,0.0522 0.043519,0.094 0.095703,0.0937 h 2.5273438 c 0.052184,2.6e-4 0.09486,-0.0415 0.095703,-0.0937 v -2.44531 c -8.429e-4,-0.0522 -0.043519,-0.094 -0.095703,-0.0937 z m -2e-7,3.20702 c -0.052984,-2.6e-4 -0.095992,0.0428 -0.095702,0.0958 v 2.44336 c -2.567e-4,0.053 0.042742,0.096 0.095703,0.0957 h 2.5273438 c 0.052961,2.6e-4 0.09596,-0.0427 0.095703,-0.0957 v -2.44336 c 2.567e-4,-0.053 -0.042742,-0.096 -0.095703,-0.0957 z m -2e-7,3.209 c -0.05298,-2.6e-4 -0.095987,0.0428 -0.095702,0.0958 v 2.44335 c -2.567e-4,0.053 0.042742,0.096 0.095703,0.0957 h 2.5273438 c 0.052961,2.6e-4 0.09596,-0.0427 0.095703,-0.0957 v -2.44335 c 2.567e-4,-0.053 -0.042742,-0.096 -0.095703,-0.0957 z m -2e-7,3.20704 c -0.052976,-2.6e-4 -0.095981,0.0428 -0.095702,0.0957 v 2.44336 c -2.567e-4,0.053 0.042742,0.096 0.095703,0.0957 h 2.5273438 c 0.052961,2.6e-4 0.09596,-0.0427 0.095703,-0.0957 v -2.44336 c 2.567e-4,-0.053 -0.042742,-0.096 -0.095703,-0.0957 z M 0.3671875,249.58398 c -0.0430583,1.9e-4 -0.0779206,0.035 -0.078125,0.0781 v 24.51172 c 2.0444e-4,0.0431 0.0350667,0.0779 0.078125,0.0781 h 4.734375 c 0.043058,-1.9e-4 0.077921,-0.035 0.078125,-0.0781 v -24.51172 c -2.044e-4,-0.0431 -0.035067,-0.0779 -0.078125,-0.0781 z m 0.078125,0.15625 h 4.578125 v 24.35547 h -4.578125 z"
               style="color:#000000;font-style:normal;font-variant:normal;font-weight:normal;font-stretch:normal;font-size:medium;line-height:normal;font-family:sans-serif;font-variant-ligatures:normal;font-variant-position:normal;font-variant-caps:normal;font-variant-numeric:normal;font-variant-alternates:normal;font-feature-settings:normal;text-indent:0;text-align:start;text-decoration:none;text-decoration-line:none;text-decoration-style:solid;text-decoration-color:#000000;letter-spacing:normal;word-spacing:normal;text-transform:none;writing-mode:lr-tb;direction:ltr;text-orientation:mixed;dominant-baseline:auto;baseline-shift:baseline;text-anchor:start;white-space:normal;shape-padding:0;clip-rule:nonzero;display:inline;overflow:visible;visibility:visible;isolation:auto;mix-blend-mode:normal;color-interpolation:sRGB;color-interpolation-filters:linearRGB;solid-color:#000000;solid-opacity:1;vector-effect:none;fill:#000000;fill-opacity:1;fill-rule:nonzero;stroke:none;stroke-linecap:butt;stroke-linejoin:round;stroke-miterlimit:4;stroke-dasharray:none;stroke-dashoffset:0;stroke-opacity:1;color-rendering:auto;image-rendering:auto;shape-rendering:auto;text-rendering:auto;enable-background:accumulate"
               id="path1227" />
          </g>
        </g>
      </g>
      <path
         id="path27747"
         d="m 0.28297101,257.83692 -0.00391,0.31445 2.60351589,0.0391 0.00391,-0.31445 z"
         style="color:#000000;font-style:normal;font-variant:normal;font-weight:normal;font-stretch:normal;font-size:medium;line-height:normal;font-family:sans-serif;font-variant-ligatures:normal;font-variant-position:normal;font-variant-caps:normal;font-variant-numeric:normal;font-variant-alternates:normal;font-feature-settings:normal;text-indent:0;text-align:start;text-decoration:none;text-decoration-line:none;text-decoration-style:solid;text-decoration-color:#000000;letter-spacing:normal;word-spacing:normal;text-transform:none;writing-mode:lr-tb;direction:ltr;text-orientation:mixed;dominant-baseline:auto;baseline-shift:baseline;text-anchor:start;white-space:normal;shape-padding:0;clip-rule:nonzero;display:inline;overflow:visible;visibility:visible;opacity:1;isolation:auto;mix-blend-mode:normal;color-interpolation:sRGB;color-interpolation-filters:linearRGB;solid-color:#000000;solid-opacity:1;vector-effect:none;fill:#000000;fill-opacity:1;fill-rule:evenodd;stroke:none;stroke-width:1;stroke-linecap:butt;stroke-linejoin:miter;stroke-miterlimit:4;stroke-dasharray:7.54970008, 7.54970008;stroke-dashoffset:0.79352897;stroke-opacity:1;color-rendering:auto;image-rendering:auto;shape-rendering:auto;text-rendering:auto;enable-background:accumulate"
         inkscape:connector-curvature="0" />
      <g
         style="fill:#000000;fill-opacity:1;stroke:none"
         id="g2840"
         transform="matrix(0.03998079,0,0,0.03998079,-2.6439636,256.81707)">
        <g
           id="g1139"
           style="fill:#000000;fill-opacity:1;stroke:none">
          <g
             style="fill:#000000;fill-opacity:1;stroke:none"
             id="g1144"
             transform="matrix(1.48656,0,0,1.48656,-15.403652,-13.20102)">
            <path
               id="rect14"
               d="m 17.337335,14.273518 h 29.52863 c 0.908826,0 1.64048,0.731653 1.64048,1.640479 v 6.561918 c 0,0.908825 -0.731654,1.640479 -1.64048,1.640479 h -29.52863 c -0.908826,0 -1.640479,-0.731654 -1.640479,-1.640479 v -6.561918 c 0,-0.908826 0.731653,-1.640479 1.640479,-1.640479 z"
               style="color:#000000;font-style:normal;font-variant:normal;font-weight:normal;font-stretch:normal;font-size:medium;line-height:normal;font-family:sans-serif;font-variant-ligatures:normal;font-variant-position:normal;font-variant-caps:normal;font-variant-numeric:normal;font-variant-alternates:normal;font-feature-settings:normal;text-indent:0;text-align:start;text-decoration:none;text-decoration-line:none;text-decoration-style:solid;text-decoration-color:#000000;letter-spacing:normal;word-spacing:normal;text-transform:none;writing-mode:lr-tb;direction:ltr;text-orientation:mixed;dominant-baseline:auto;baseline-shift:baseline;text-anchor:start;white-space:normal;shape-padding:0;clip-rule:nonzero;display:inline;overflow:visible;visibility:visible;opacity:1;isolation:auto;mix-blend-mode:normal;color-interpolation:sRGB;color-interpolation-filters:linearRGB;solid-color:#000000;solid-opacity:1;vector-effect:none;fill:#000000;fill-opacity:1;fill-rule:nonzero;stroke:none;stroke-width:1.64048004;stroke-linecap:butt;stroke-linejoin:miter;stroke-miterlimit:4;stroke-dasharray:none;stroke-dashoffset:0;stroke-opacity:1;color-rendering:auto;image-rendering:auto;shape-rendering:auto;text-rendering:auto;enable-background:accumulate"
               inkscape:connector-curvature="0" />
            <path
               id="rect18"
               d="m 40.30405,27.397354 h 6.561917 c 0.908826,0 1.64048,0.731654 1.64048,1.64048 v 16.404794 c 0,0.908825 -0.731654,1.640479 -1.64048,1.640479 H 40.30405 c -0.908826,0 -1.64048,-0.731654 -1.64048,-1.640479 V 29.037834 c 0,-0.908826 0.731654,-1.64048 1.64048,-1.64048 z"
               style="color:#000000;font-style:normal;font-variant:normal;font-weight:normal;font-stretch:normal;font-size:medium;line-height:normal;font-family:sans-serif;font-variant-ligatures:normal;font-variant-position:normal;font-variant-caps:normal;font-variant-numeric:normal;font-variant-alternates:normal;font-feature-settings:normal;text-indent:0;text-align:start;text-decoration:none;text-decoration-line:none;text-decoration-style:solid;text-decoration-color:#000000;letter-spacing:normal;word-spacing:normal;text-transform:none;writing-mode:lr-tb;direction:ltr;text-orientation:mixed;dominant-baseline:auto;baseline-shift:baseline;text-anchor:start;white-space:normal;shape-padding:0;clip-rule:nonzero;display:inline;overflow:visible;visibility:visible;opacity:1;isolation:auto;mix-blend-mode:normal;color-interpolation:sRGB;color-interpolation-filters:linearRGB;solid-color:#000000;solid-opacity:1;vector-effect:none;fill:#000000;fill-opacity:1;fill-rule:nonzero;stroke:none;stroke-width:1.64048004;stroke-linecap:butt;stroke-linejoin:miter;stroke-miterlimit:4;stroke-dasharray:none;stroke-dashoffset:0;stroke-opacity:1;color-rendering:auto;image-rendering:auto;shape-rendering:auto;text-rendering:auto;enable-background:accumulate"
               inkscape:connector-curvature="0" />
            <path
               id="rect22"
               d="m 17.337335,27.397354 h 16.404794 c 0.908826,0 1.640479,0.731654 1.640479,1.64048 v 16.404794 c 0,0.908825 -0.731653,1.640479 -1.640479,1.640479 H 17.337335 c -0.908826,0 -1.640479,-0.731654 -1.640479,-1.640479 V 29.037834 c 0,-0.908826 0.731653,-1.64048 1.640479,-1.64048 z"
               style="color:#000000;font-style:normal;font-variant:normal;font-weight:normal;font-stretch:normal;font-size:medium;line-height:normal;font-family:sans-serif;font-variant-ligatures:normal;font-variant-position:normal;font-variant-caps:normal;font-variant-numeric:normal;font-variant-alternates:normal;font-feature-settings:normal;text-indent:0;text-align:start;text-decoration:none;text-decoration-line:none;text-decoration-style:solid;text-decoration-color:#000000;letter-spacing:normal;word-spacing:normal;text-transform:none;writing-mode:lr-tb;direction:ltr;text-orientation:mixed;dominant-baseline:auto;baseline-shift:baseline;text-anchor:start;white-space:normal;shape-padding:0;clip-rule:nonzero;display:inline;overflow:visible;visibility:visible;opacity:1;isolation:auto;mix-blend-mode:normal;color-interpolation:sRGB;color-interpolation-filters:linearRGB;solid-color:#000000;solid-opacity:1;vector-effect:none;fill:#000000;fill-opacity:1;fill-rule:nonzero;stroke:none;stroke-width:1.64048004;stroke-linecap:butt;stroke-linejoin:miter;stroke-miterlimit:4;stroke-dasharray:none;stroke-dashoffset:0;stroke-opacity:1;color-rendering:auto;image-rendering:auto;shape-rendering:auto;text-rendering:auto;enable-background:accumulate"
               inkscape:connector-curvature="0" />
          </g>
        </g>
      </g>
    </g>
  </g>
</svg>
