<?xml version="1.0" encoding="UTF-8" standalone="no"?>
<!-- Created with Inkscape (http://www.inkscape.org/) -->

<svg
   xmlns:dc="http://purl.org/dc/elements/1.1/"
   xmlns:cc="http://creativecommons.org/ns#"
   xmlns:rdf="http://www.w3.org/1999/02/22-rdf-syntax-ns#"
   xmlns:svg="http://www.w3.org/2000/svg"
   xmlns="http://www.w3.org/2000/svg"
   xmlns:sodipodi="http://sodipodi.sourceforge.net/DTD/sodipodi-0.dtd"
   xmlns:inkscape="http://www.inkscape.org/namespaces/inkscape"
   width="66mm"
   height="66mm"
   viewBox="0 0 66 66"
   version="1.1"
   id="svg8"
   inkscape:version="0.92.5 (2060ec1f9f, 2020-04-08)"
   sodipodi:docname="gnomemenu-layout-symbolic.svg">
  <defs
     id="defs2" />
  <sodipodi:namedview
     id="base"
     pagecolor="#ffffff"
     bordercolor="#666666"
     borderopacity="1.0"
     inkscape:pageopacity="0.0"
     inkscape:pageshadow="2"
     inkscape:zoom="2.8"
     inkscape:cx="40.004796"
     inkscape:cy="38.677"
     inkscape:document-units="mm"
     inkscape:current-layer="layer1"
     showgrid="false"
     inkscape:window-width="2560"
     inkscape:window-height="1264"
     inkscape:window-x="0"
     inkscape:window-y="40"
     inkscape:window-maximized="1" />
  <metadata
     id="metadata5">
    <rdf:RDF>
      <cc:Work
         rdf:about="">
        <dc:format>image/svg+xml</dc:format>
        <dc:type
           rdf:resource="http://purl.org/dc/dcmitype/StillImage" />
        <dc:title />
      </cc:Work>
    </rdf:RDF>
  </metadata>
  <g
     inkscape:label="Layer 1"
     inkscape:groupmode="layer"
     id="layer1"
     transform="translate(0,-231)">
    <g
       id="g893"
       transform="translate(23.739583,-16.441964)">
      <g
         style="fill:#000000;fill-opacity:1;stroke:none"
         id="g1092"
         transform="translate(-23.929036,16.824172)">
        <g
           style="fill:#000000;fill-opacity:1;stroke:none"
           id="g2840"
           transform="matrix(0.07586098,0,0,0.07586098,1.0123285,290.72228)">
          <g
             id="g1139"
             style="fill:#000000;fill-opacity:1;stroke:none">
            <g
               style="fill:#000000;fill-opacity:1;stroke:none"
               id="g1144"
               transform="matrix(1.48656,0,0,1.48656,-15.403652,-13.20102)">
              <path
                 d="m 17.337335,27.397354 h 16.404794 c 0.908826,0 1.640479,0.731654 1.640479,1.64048 v 16.404794 c 0,0.908825 -0.731653,1.640479 -1.640479,1.640479 H 17.337335 c -0.908826,0 -1.640479,-0.731654 -1.640479,-1.640479 V 29.037834 c 0,-0.908826 0.731653,-1.64048 1.640479,-1.64048 z m 22.966715,0 h 6.561917 c 0.908826,0 1.64048,0.731654 1.64048,1.64048 v 16.404794 c 0,0.908825 -0.731654,1.640479 -1.64048,1.640479 H 40.30405 c -0.908826,0 -1.64048,-0.731654 -1.64048,-1.640479 V 29.037834 c 0,-0.908826 0.731654,-1.64048 1.64048,-1.64048 z M 17.337335,14.273518 h 29.52863 c 0.908826,0 1.64048,0.731653 1.64048,1.640479 v 6.561918 c 0,0.908825 -0.731654,1.640479 -1.64048,1.640479 h -29.52863 c -0.908826,0 -1.640479,-0.731654 -1.640479,-1.640479 v -6.561918 c 0,-0.908826 0.731653,-1.640479 1.640479,-1.640479 z m 439.093875,14.960204 -0.0173,7.048919 35.19272,0.13851 0.0173,-7.048919 z m 49.27327,0.190473 -0.0346,7.048919 42.24165,0.17327 0.0173,-7.049008 z m 56.30489,0.225145 -0.0173,7.049007 9.14457,0.03458 0.0346,-7.04892 z M 7.8279265,3.497257 A 1.1732065,1.1732065 0 0 0 6.6675366,4.6750327 V 56.68471 a 1.1732065,1.1732065 0 0 0 1.1603899,1.160395 H 583.53721 a 1.1732065,1.1732065 0 0 0 1.1777,-1.160395 V 4.6750327 A 1.1732065,1.1732065 0 0 0 583.53721,3.497257 Z M 9.0056357,5.8527197 H 582.35949 V 55.507023 H 9.0056357 Z"
                 style="color:#000000;font-style:normal;font-variant:normal;font-weight:normal;font-stretch:normal;font-size:medium;line-height:normal;font-family:sans-serif;font-variant-ligatures:normal;font-variant-position:normal;font-variant-caps:normal;font-variant-numeric:normal;font-variant-alternates:normal;font-feature-settings:normal;text-indent:0;text-align:start;text-decoration:none;text-decoration-line:none;text-decoration-style:solid;text-decoration-color:#000000;letter-spacing:normal;word-spacing:normal;text-transform:none;writing-mode:lr-tb;direction:ltr;text-orientation:mixed;dominant-baseline:auto;baseline-shift:baseline;text-anchor:start;white-space:normal;shape-padding:0;clip-rule:nonzero;display:inline;overflow:visible;visibility:visible;opacity:1;isolation:auto;mix-blend-mode:normal;color-interpolation:sRGB;color-interpolation-filters:linearRGB;solid-color:#000000;solid-opacity:1;vector-effect:none;fill:#000000;fill-opacity:1;fill-rule:nonzero;stroke:none;stroke-width:1.64048004;stroke-linecap:butt;stroke-linejoin:miter;stroke-miterlimit:4;stroke-dasharray:none;stroke-dashoffset:0;stroke-opacity:1;color-rendering:auto;image-rendering:auto;shape-rendering:auto;text-rendering:auto;enable-background:accumulate"
                 id="rect22"
                 inkscape:connector-curvature="0" />
            </g>
          </g>
        </g>
      </g>
      <path
         id="rect30567"
         d="m -23.104818,256.36323 a 0.13230472,0.13230472 0 0 0 -0.130859,0.13282 v 49.77734 a 0.13230472,0.13230472 0 0 0 0.130859,0.13281 h 37.189454 a 0.13230472,0.13230472 0 0 0 0.130861,-0.13281 v -49.77734 a 0.13230472,0.13230472 0 0 0 -0.130861,-0.13282 z m 0.132813,0.26563 h 36.923828 v 49.51367 h -36.923828 z"
         style="color:#000000;font-style:normal;font-variant:normal;font-weight:normal;font-stretch:normal;font-size:medium;line-height:normal;font-family:sans-serif;font-variant-ligatures:normal;font-variant-position:normal;font-variant-caps:normal;font-variant-numeric:normal;font-variant-alternates:normal;font-feature-settings:normal;text-indent:0;text-align:start;text-decoration:none;text-decoration-line:none;text-decoration-style:solid;text-decoration-color:#000000;letter-spacing:normal;word-spacing:normal;text-transform:none;writing-mode:lr-tb;direction:ltr;text-orientation:mixed;dominant-baseline:auto;baseline-shift:baseline;text-anchor:start;white-space:normal;shape-padding:0;clip-rule:nonzero;display:inline;overflow:visible;visibility:visible;opacity:1;isolation:auto;mix-blend-mode:normal;color-interpolation:sRGB;color-interpolation-filters:linearRGB;solid-color:#000000;solid-opacity:1;vector-effect:none;fill:#000000;fill-opacity:1;fill-rule:nonzero;stroke:none;stroke-width:1;stroke-linecap:butt;stroke-linejoin:round;stroke-miterlimit:4;stroke-dasharray:none;stroke-dashoffset:0;stroke-opacity:1;color-rendering:auto;image-rendering:auto;shape-rendering:auto;text-rendering:auto;enable-background:accumulate"
         inkscape:connector-curvature="0" />
      <path
         id="path30569"
         d="m -5.5345052,256.58979 -0.263672,0.002 0.232422,49.5664 0.265625,-0.002 z"
         style="color:#000000;font-style:normal;font-variant:normal;font-weight:normal;font-stretch:normal;font-size:medium;line-height:normal;font-family:sans-serif;font-variant-ligatures:normal;font-variant-position:normal;font-variant-caps:normal;font-variant-numeric:normal;font-variant-alternates:normal;font-feature-settings:normal;text-indent:0;text-align:start;text-decoration:none;text-decoration-line:none;text-decoration-style:solid;text-decoration-color:#000000;letter-spacing:normal;word-spacing:normal;text-transform:none;writing-mode:lr-tb;direction:ltr;text-orientation:mixed;dominant-baseline:auto;baseline-shift:baseline;text-anchor:start;white-space:normal;shape-padding:0;clip-rule:nonzero;display:inline;overflow:visible;visibility:visible;opacity:1;isolation:auto;mix-blend-mode:normal;color-interpolation:sRGB;color-interpolation-filters:linearRGB;solid-color:#000000;solid-opacity:1;vector-effect:none;fill:#000000;fill-opacity:1;fill-rule:evenodd;stroke:none;stroke-width:1;stroke-linecap:butt;stroke-linejoin:miter;stroke-miterlimit:4;stroke-dasharray:none;stroke-dashoffset:0;stroke-opacity:1;color-rendering:auto;image-rendering:auto;shape-rendering:auto;text-rendering:auto;enable-background:accumulate"
         inkscape:connector-curvature="0" />
      <path
         d="m -20.520833,263.7812 -0.002,0.62891 2.980469,0.01 0.002,-0.6289 z m 4.240234,0.0137 -0.0039,0.63086 3.775392,0.0137 0.002,-0.63085 z m 5.033204,0.0195 -0.002,0.62891 1.4999998,0.006 0.002,-0.62891 z m -9.228516,3.66016 -0.002,0.63086 2.980468,0.01 0.002,-0.62891 z m 4.238281,0.0156 -0.002,0.6289 3.775391,0.0137 0.002,-0.6289 z m 5.035156,0.0195 -0.0039,0.6289 1.5019528,0.004 0.002,-0.62891 z m -9.220703,3.53125 -0.0039,0.6289 2.982422,0.0117 0.002,-0.6289 z m 4.238282,0.0156 -0.002,0.62891 3.77539,0.0137 0.002,-0.62891 z m 5.033203,0.0176 -0.002,0.63086 1.4999998,0.004 0.0039,-0.62891 z m -9.175782,3.83789 -0.002,0.62891 2.982422,0.0117 0.002,-0.62891 z m 4.240235,0.0156 -0.002,0.6289 3.77539,0.0137 0.002,-0.6289 z m 5.033203,0.0176 -0.002,0.62891 1.4999998,0.006 0.002,-0.62891 z m -9.326172,3.34961 -0.002,0.63086 2.982422,0.01 0.002,-0.62891 z m 4.240234,0.0156 -0.002,0.6289 3.775391,0.0137 0.002,-0.62891 z m 5.033204,0.0195 -0.002,0.62891 1.4999998,0.004 0.002,-0.6289 z m -9.175782,3.26758 -0.002,0.6289 2.980469,0.0117 0.0039,-0.6289 z m 4.240235,0.0156 -0.002,0.62891 3.77539,0.0137 0.002,-0.62891 z m 5.033203,0.0176 -0.002,0.63086 1.4999998,0.004 0.002,-0.62891 z m -9.269531,3.35156 -0.002,0.62891 2.980468,0.01 0.0039,-0.62891 z m 4.240234,0.0137 -0.002,0.63085 3.773437,0.0137 0.0039,-0.63086 z m 5.033203,0.0195 -0.002,0.6289 1.4999998,0.006 0.002,-0.63086 z m -9.273437,-24.834 -0.002,0.62891 2.980468,0.01 0.0039,-0.6289 z m 4.240234,0.0137 -0.002,0.62891 3.773437,0.0137 0.0039,-0.6289 z m 5.033203,0.0195 -0.002,0.62891 1.4999998,0.006 0.002,-0.63086 z"
         style="color:#000000;font-style:normal;font-variant:normal;font-weight:normal;font-stretch:normal;font-size:medium;line-height:normal;font-family:sans-serif;font-variant-ligatures:normal;font-variant-position:normal;font-variant-caps:normal;font-variant-numeric:normal;font-variant-alternates:normal;font-feature-settings:normal;text-indent:0;text-align:start;text-decoration:none;text-decoration-line:none;text-decoration-style:solid;text-decoration-color:#000000;letter-spacing:normal;word-spacing:normal;text-transform:none;writing-mode:lr-tb;direction:ltr;text-orientation:mixed;dominant-baseline:auto;baseline-shift:baseline;text-anchor:start;white-space:normal;shape-padding:0;clip-rule:nonzero;display:inline;overflow:visible;visibility:visible;opacity:1;isolation:auto;mix-blend-mode:normal;color-interpolation:sRGB;color-interpolation-filters:linearRGB;solid-color:#000000;solid-opacity:1;vector-effect:none;fill:#000000;fill-opacity:1;fill-rule:evenodd;stroke:none;stroke-width:1;stroke-linecap:butt;stroke-linejoin:miter;stroke-miterlimit:4;stroke-dasharray:3.77505004, 1.25835001;stroke-dashoffset:0.79374999;stroke-opacity:1;color-rendering:auto;image-rendering:auto;shape-rendering:auto;text-rendering:auto;enable-background:accumulate"
         id="path36027"
         inkscape:connector-curvature="0" />
      <g
         style="fill:#000000;fill-opacity:1;stroke:none"
         transform="matrix(0.8202893,0,0,0.72101718,22.424867,82.502174)"
         id="g29146">
        <g
           style="fill:#000000;fill-opacity:1;stroke:none"
           transform="matrix(0.93454954,0,0,0.93454954,-33.227493,23.523971)"
           id="g27405">
          <g
             style="opacity:1;fill:#000000;fill-opacity:1;stroke:none"
             id="rect27389" />
          <g
             style="opacity:1;fill:#000000;fill-opacity:1;stroke:none"
             id="rect27391" />
          <g
             style="opacity:1;fill:#000000;fill-opacity:1;stroke:none"
             id="rect27393" />
          <g
             style="opacity:1;fill:#000000;fill-opacity:1;stroke:none"
             id="rect27395" />
          <g
             style="opacity:1;fill:#000000;fill-opacity:1;stroke:none"
             id="rect27397" />
          <g
             style="opacity:1;fill:#000000;fill-opacity:1;stroke:none"
             id="rect27399" />
          <g
             style="opacity:1;fill:#000000;fill-opacity:1;stroke:none"
             id="rect27401" />
          <g
             style="opacity:1;fill:#000000;fill-opacity:1;stroke:none"
             id="rect27403" />
        </g>
      </g>
      <g
         style="fill:#000000;fill-opacity:1;stroke:none"
         transform="translate(39.09241,16.106815)"
         id="g27417">
        <g
           style="opacity:1;fill:#000000;fill-opacity:1;stroke:none"
           id="rect29158" />
        <g
           style="opacity:1;fill:#000000;fill-opacity:1;stroke:none"
           id="rect29160" />
        <g
           style="opacity:1;fill:#000000;fill-opacity:1;stroke:none"
           id="rect29162" />
        <path
           sodipodi:nodetypes="cccccccccccccccccccccccccccccccccccccccccccccccccccccccccccccccccccccccccccccccccccccccccccccccccccccccccccccccccccccccccccccccccccccccccccccccccccccccccc"
           inkscape:connector-curvature="0"
           d="m -38.113281,271.18164 v 0.20313 L -27.5,271.42188 v -0.20313 z m 0.0957,3.15625 v 0.20313 l 10.613281,0.0371 V 274.375 Z m 0.0039,3.23242 v 0.20313 l 10.613281,0.0371 v -0.20313 z m -4.519531,-8.24219 c -0.05296,-2.6e-4 -0.09596,0.0427 -0.0957,0.0957 v 2.44336 c -2.57e-4,0.053 0.04274,0.096 0.0957,0.0957 h 2.527344 c 0.05296,2.6e-4 0.09596,-0.0427 0.0957,-0.0957 v -2.44336 c 2.57e-4,-0.053 -0.04274,-0.096 -0.0957,-0.0957 z m -7e-6,2.92967 c -0.05296,-2.6e-4 -0.09596,0.0427 -0.0957,0.0957 v 2.44336 c -2.57e-4,0.053 0.04274,0.096 0.0957,0.0957 h 2.527344 c 0.05296,2.6e-4 0.09596,-0.0427 0.0957,-0.0957 v -2.44336 c 2.57e-4,-0.053 -0.04274,-0.096 -0.0957,-0.0957 z m -7e-6,3.15622 c -0.05296,-2.6e-4 -0.09596,0.0427 -0.0957,0.0957 v 2.44531 c 8.43e-4,0.0522 0.04352,0.094 0.0957,0.0937 h 2.527344 c 0.05218,2.6e-4 0.09486,-0.0415 0.0957,-0.0937 v -2.44531 c 2.57e-4,-0.053 -0.04274,-0.096 -0.0957,-0.0957 z m 4.280189,-27.55049 v 0.19152 l 10.612493,0.0366 0.0016,-0.19152 z m 0.04486,3.53045 -0.0016,0.19011 10.614095,0.038 v -0.19151 z m 0.05127,3.40793 -0.0016,0.19011 10.614095,0.0366 0.0016,-0.19011 z m 0.09453,3.69803 v 0.19012 l 10.614095,0.038 v -0.19151 z m -0.05127,3.23191 v 0.19151 l 10.614095,0.0366 v -0.19011 z m 0.09613,3.15585 -0.0016,0.19011 10.614095,0.038 0.0016,-0.19152 z m 0.0032,3.23332 v 0.19011 l 10.614095,0.0366 v -0.19011 z m 0,-23.6964 v 0.19011 l 10.614095,0.0366 v -0.19012 z m -4.518448,15.45333 c -0.05629,-1.1e-4 -0.101946,0.04 -0.101814,0.0895 v 2.44394 c -1.32e-4,0.0495 0.04553,0.0896 0.101814,0.0895 h 2.527387 c 0.05629,1.1e-4 0.101947,-0.04 0.101815,-0.0895 v -2.44394 c 1.32e-4,-0.0495 -0.04553,-0.0896 -0.101815,-0.0895 z m 0,2.92962 c -0.05629,-1.1e-4 -0.101946,0.04 -0.101814,0.0895 v 2.44393 c -1.32e-4,0.0495 0.04553,0.0896 0.101814,0.0895 h 2.527387 c 0.05629,1.1e-4 0.101947,-0.04 0.101815,-0.0895 v -2.44393 c 1.32e-4,-0.0495 -0.04553,-0.0896 -0.101815,-0.0895 z m 0,3.15725 c -0.05629,-1.1e-4 -0.101946,0.04 -0.101814,0.0895 v 2.44394 c -1.32e-4,0.0495 0.04553,0.0896 0.101814,0.0895 h 2.527387 c 0.05629,1.1e-4 0.101947,-0.04 0.101815,-0.0895 v -2.44394 c 1.32e-4,-0.0495 -0.04553,-0.0896 -0.101815,-0.0895 z m 0,-18.83289 c -0.05629,-1.1e-4 -0.101946,0.04 -0.101814,0.0895 v 2.44393 c -1.32e-4,0.0495 0.04553,0.0896 0.101814,0.0895 h 2.527387 c 0.05629,1.1e-4 0.101947,-0.04 0.101815,-0.0895 v -2.44393 c 1.32e-4,-0.0495 -0.04553,-0.0896 -0.101815,-0.0895 z m 0,3.2533 c -0.05629,-1.1e-4 -0.101946,0.04 -0.101814,0.0895 v 2.44393 c -1.32e-4,0.0495 0.04553,0.0896 0.101814,0.0895 h 2.527387 c 0.05629,1.1e-4 0.101947,-0.04 0.101815,-0.0895 v -2.44393 c 1.32e-4,-0.0495 -0.04553,-0.0896 -0.101815,-0.0895 z m 0,3.1994 c -0.05571,-1.1e-4 -0.101133,0.0392 -0.101814,0.0882 v 2.44393 c -1.32e-4,0.0495 0.04553,0.0896 0.101814,0.0895 h 2.527387 c 0.05629,1.1e-4 0.101947,-0.04 0.101815,-0.0895 v -2.44393 c -6.81e-4,-0.049 -0.0461,-0.0883 -0.101815,-0.0882 z m 0,3.17434 c -0.05629,-1.1e-4 -0.101946,0.04 -0.101814,0.0895 v 2.44393 c -1.32e-4,0.0495 0.04553,0.0896 0.101814,0.0895 h 2.527387 c 0.05629,1.1e-4 0.101947,-0.04 0.101815,-0.0895 v -2.44393 c 1.32e-4,-0.0495 -0.04553,-0.0896 -0.101815,-0.0895 z m 0,-12.93692 c -0.05629,-1.1e-4 -0.101946,0.04 -0.101814,0.0895 v 2.44393 c -1.32e-4,0.0495 0.04553,0.0896 0.101814,0.0895 h 2.527387 c 0.05629,1.1e-4 0.101947,-0.04 0.101815,-0.0895 v -2.44393 c 1.32e-4,-0.0495 -0.04553,-0.0896 -0.101815,-0.0895 z"
           style="color:#000000;font-style:normal;font-variant:normal;font-weight:normal;font-stretch:normal;font-size:medium;line-height:normal;font-family:sans-serif;font-variant-ligatures:normal;font-variant-position:normal;font-variant-caps:normal;font-variant-numeric:normal;font-variant-alternates:normal;font-feature-settings:normal;text-indent:0;text-align:start;text-decoration:none;text-decoration-line:none;text-decoration-style:solid;text-decoration-color:#000000;letter-spacing:normal;word-spacing:normal;text-transform:none;writing-mode:lr-tb;direction:ltr;text-orientation:mixed;dominant-baseline:auto;baseline-shift:baseline;text-anchor:start;white-space:normal;shape-padding:0;clip-rule:nonzero;display:inline;overflow:visible;visibility:visible;opacity:1;isolation:auto;mix-blend-mode:normal;color-interpolation:sRGB;color-interpolation-filters:linearRGB;solid-color:#000000;solid-opacity:1;vector-effect:none;fill:#000000;fill-opacity:1;fill-rule:evenodd;stroke:none;stroke-linecap:butt;stroke-linejoin:miter;stroke-miterlimit:4;stroke-dasharray:none;stroke-dashoffset:0.26458299;stroke-opacity:1;color-rendering:auto;image-rendering:auto;shape-rendering:auto;text-rendering:auto;enable-background:accumulate"
           id="path29172" />
      </g>
      <path
         d="m -20.278645,303.5019 -0.002,0.62891 2.980468,0.0117 0.0039,-0.62892 z m 4.240234,0.0156 -0.002,0.62891 3.773437,0.0137 0.0039,-0.62891 z m 5.033203,0.0176 -0.002,0.63087 1.4999998,0.004 0.002,-0.6289 z"
         style="color:#000000;font-style:normal;font-variant:normal;font-weight:normal;font-stretch:normal;font-size:medium;line-height:normal;font-family:sans-serif;font-variant-ligatures:normal;font-variant-position:normal;font-variant-caps:normal;font-variant-numeric:normal;font-variant-alternates:normal;font-feature-settings:normal;text-indent:0;text-align:start;text-decoration:none;text-decoration-line:none;text-decoration-style:solid;text-decoration-color:#000000;letter-spacing:normal;word-spacing:normal;text-transform:none;writing-mode:lr-tb;direction:ltr;text-orientation:mixed;dominant-baseline:auto;baseline-shift:baseline;text-anchor:start;white-space:normal;shape-padding:0;clip-rule:nonzero;display:inline;overflow:visible;visibility:visible;opacity:1;isolation:auto;mix-blend-mode:normal;color-interpolation:sRGB;color-interpolation-filters:linearRGB;solid-color:#000000;solid-opacity:1;vector-effect:none;fill:#000000;fill-opacity:1;fill-rule:evenodd;stroke:none;stroke-width:1;stroke-linecap:butt;stroke-linejoin:miter;stroke-miterlimit:4;stroke-dasharray:3.77505004, 1.25835001;stroke-dashoffset:0.79374999;stroke-opacity:1;color-rendering:auto;image-rendering:auto;shape-rendering:auto;text-rendering:auto;enable-background:accumulate"
         id="path30067"
         inkscape:connector-curvature="0" />
    </g>
  </g>
</svg>
