<?xml version="1.0" encoding="UTF-8" standalone="no"?>
<svg
   xmlns:dc="http://purl.org/dc/elements/1.1/"
   xmlns:cc="http://creativecommons.org/ns#"
   xmlns:rdf="http://www.w3.org/1999/02/22-rdf-syntax-ns#"
   xmlns:svg="http://www.w3.org/2000/svg"
   xmlns="http://www.w3.org/2000/svg"
   xmlns:sodipodi="http://sodipodi.sourceforge.net/DTD/sodipodi-0.dtd"
   xmlns:inkscape="http://www.inkscape.org/namespaces/inkscape"
   inkscape:version="1.0 (4035a4fb49, 2020-05-01)"
   sodipodi:docname="icon-preview-symbolic.svg"
   width="16"
   height="16"
   version="1.1"
   id="svg9">
  <sodipodi:namedview
     inkscape:current-layer="svg9"
     inkscape:window-maximized="1"
     inkscape:window-y="0"
     inkscape:window-x="0"
     inkscape:cy="16.242885"
     inkscape:cx="-31.916949"
     inkscape:zoom="8.0764853"
     showgrid="false"
     id="namedview9"
     inkscape:window-height="898"
     inkscape:window-width="1920"
     inkscape:pageshadow="2"
     inkscape:pageopacity="0"
     guidetolerance="10"
     gridtolerance="10"
     objecttolerance="10"
     borderopacity="1"
     bordercolor="#666666"
     pagecolor="#ffffff" />
  <metadata
     id="metadata13">
    <rdf:RDF>
      <cc:Work
         rdf:about="">
        <dc:format>image/svg+xml</dc:format>
        <dc:type
           rdf:resource="http://purl.org/dc/dcmitype/StillImage" />
        <dc:title />
      </cc:Work>
    </rdf:RDF>
  </metadata>
  <defs
     id="defs3">
    <style
       id="current-color-scheme"
       type="text/css">
   .ColorScheme-Text { color:#444444; } .ColorScheme-Highlight { color:#4285f4; }
  </style>
  </defs>
  <g
     transform="translate(-0.50011111,0.49988889)"
     id="g822">
    <path
       id="path5"
       d="M 3,0 C 3,0 2,0 2,1 v 12 c 0,1 1,1 1,1 H 9.1934 C 7.7753,13.463 6.75,12.096 6.75,10.5 c 0,-2.0556 1.6944,-3.75 3.75,-3.75 1.596,0 2.963,1.0253 3.5,2.4434 V 4 L 10,0 Z"
       class="ColorScheme-Text"
       style="fill:#cccccc" />
    <path
       id="path7"
       d="m 11.5,12.5 2.278,2.278 c 0,0 0.5,0.5 1,0 0.5,-0.5 0,-1 0,-1 L 12.5,11.5 Z m -3.75,-2 C 7.75,12 9,13.25 10.5,13.25 12,13.25 13.25,12 13.25,10.5 13.25,9 12,7.75 10.5,7.75 9,7.75 7.75,9 7.75,10.5 Z M 10.5,8.75 c 1,0 1.75,0.75 1.75,1.75 0,1 -0.75,1.75 -1.75,1.75 -1,0 -1.75,-0.75 -1.75,-1.75 0,-1 0.75,-1.75 1.75,-1.75 z"
       class="ColorScheme-Text"
       style="fill:#cccccc" />
  </g>
</svg>
