<?xml version="1.0" encoding="UTF-8" standalone="no"?>
<!-- Created with Inkscape (http://www.inkscape.org/) -->

<svg
   xmlns:dc="http://purl.org/dc/elements/1.1/"
   xmlns:cc="http://creativecommons.org/ns#"
   xmlns:rdf="http://www.w3.org/1999/02/22-rdf-syntax-ns#"
   xmlns:svg="http://www.w3.org/2000/svg"
   xmlns="http://www.w3.org/2000/svg"
   xmlns:sodipodi="http://sodipodi.sourceforge.net/DTD/sodipodi-0.dtd"
   xmlns:inkscape="http://www.inkscape.org/namespaces/inkscape"
   width="66mm"
   height="66mm"
   viewBox="0 0 66 66"
   version="1.1"
   id="svg8"
   inkscape:version="0.92.5 (2060ec1f9f, 2020-04-08)"
   sodipodi:docname="insider-layout-symbolic.svg">
  <defs
     id="defs2" />
  <sodipodi:namedview
     id="base"
     pagecolor="#ffffff"
     bordercolor="#666666"
     borderopacity="1.0"
     inkscape:pageopacity="0.0"
     inkscape:pageshadow="2"
     inkscape:zoom="2.8"
     inkscape:cx="40.004796"
     inkscape:cy="95.819857"
     inkscape:document-units="mm"
     inkscape:current-layer="layer1"
     showgrid="false"
     inkscape:window-width="2560"
     inkscape:window-height="1264"
     inkscape:window-x="0"
     inkscape:window-y="40"
     inkscape:window-maximized="1" />
  <metadata
     id="metadata5">
    <rdf:RDF>
      <cc:Work
         rdf:about="">
        <dc:format>image/svg+xml</dc:format>
        <dc:type
           rdf:resource="http://purl.org/dc/dcmitype/StillImage" />
        <dc:title />
      </cc:Work>
    </rdf:RDF>
  </metadata>
  <g
     inkscape:label="Layer 1"
     inkscape:groupmode="layer"
     id="layer1"
     transform="translate(0,-231)">
    <g
       id="g1007"
       transform="translate(-26.342262,25.702381)">
      <g
         style="fill:#000000;fill-opacity:1;stroke:none"
         transform="translate(26.152809,-25.289144)"
         id="g1092">
        <g
           style="fill:#000000;fill-opacity:1;stroke:none"
           id="g2840"
           transform="matrix(0.07586098,0,0,0.07586098,1.0123285,290.72228)">
          <g
             id="g1139"
             style="fill:#000000;fill-opacity:1;stroke:none">
            <g
               style="fill:#000000;fill-opacity:1;stroke:none"
               id="g1144"
               transform="matrix(1.48656,0,0,1.48656,-15.403652,-13.20102)">
              <path
                 d="m 17.337335,27.397354 h 16.404794 c 0.908826,0 1.640479,0.731654 1.640479,1.64048 v 16.404794 c 0,0.908825 -0.731653,1.640479 -1.640479,1.640479 H 17.337335 c -0.908826,0 -1.640479,-0.731654 -1.640479,-1.640479 V 29.037834 c 0,-0.908826 0.731653,-1.64048 1.640479,-1.64048 z m 22.966715,0 h 6.561917 c 0.908826,0 1.64048,0.731654 1.64048,1.64048 v 16.404794 c 0,0.908825 -0.731654,1.640479 -1.64048,1.640479 H 40.30405 c -0.908826,0 -1.64048,-0.731654 -1.64048,-1.640479 V 29.037834 c 0,-0.908826 0.731654,-1.64048 1.64048,-1.64048 z M 17.337335,14.273518 h 29.52863 c 0.908826,0 1.64048,0.731653 1.64048,1.640479 v 6.561918 c 0,0.908825 -0.731654,1.640479 -1.64048,1.640479 h -29.52863 c -0.908826,0 -1.640479,-0.731654 -1.640479,-1.640479 v -6.561918 c 0,-0.908826 0.731653,-1.640479 1.640479,-1.640479 z m 439.093875,14.960204 -0.0173,7.048919 35.19272,0.13851 0.0173,-7.048919 z m 49.27327,0.190473 -0.0346,7.048919 42.24165,0.17327 0.0173,-7.049008 z m 56.30489,0.225145 -0.0173,7.049007 9.14457,0.03458 0.0346,-7.04892 z M 7.8279265,3.497257 A 1.1732065,1.1732065 0 0 0 6.6675366,4.6750327 V 56.68471 a 1.1732065,1.1732065 0 0 0 1.1603899,1.160395 H 583.53721 a 1.1732065,1.1732065 0 0 0 1.1777,-1.160395 V 4.6750327 A 1.1732065,1.1732065 0 0 0 583.53721,3.497257 Z M 9.0056357,5.8527197 H 582.35949 V 55.507023 H 9.0056357 Z"
                 style="color:#000000;font-style:normal;font-variant:normal;font-weight:normal;font-stretch:normal;font-size:medium;line-height:normal;font-family:sans-serif;font-variant-ligatures:normal;font-variant-position:normal;font-variant-caps:normal;font-variant-numeric:normal;font-variant-alternates:normal;font-feature-settings:normal;text-indent:0;text-align:start;text-decoration:none;text-decoration-line:none;text-decoration-style:solid;text-decoration-color:#000000;letter-spacing:normal;word-spacing:normal;text-transform:none;writing-mode:lr-tb;direction:ltr;text-orientation:mixed;dominant-baseline:auto;baseline-shift:baseline;text-anchor:start;white-space:normal;shape-padding:0;clip-rule:nonzero;display:inline;overflow:visible;visibility:visible;opacity:1;isolation:auto;mix-blend-mode:normal;color-interpolation:sRGB;color-interpolation-filters:linearRGB;solid-color:#000000;solid-opacity:1;vector-effect:none;fill:#000000;fill-opacity:1;fill-rule:nonzero;stroke:none;stroke-width:1.64048004;stroke-linecap:butt;stroke-linejoin:miter;stroke-miterlimit:4;stroke-dasharray:none;stroke-dashoffset:0;stroke-opacity:1;color-rendering:auto;image-rendering:auto;shape-rendering:auto;text-rendering:auto;enable-background:accumulate"
                 id="rect22"
                 inkscape:connector-curvature="0" />
            </g>
          </g>
        </g>
      </g>
      <path
         d="m 26.972933,214.37685 a 0.14753275,0.14753275 0 0 0 -0.146484,0.14844 v 49.74805 a 0.14753275,0.14753275 0 0 0 0.146484,0.14648 h 46.269532 a 0.14753275,0.14753275 0 0 0 0.148436,-0.14648 v -49.74805 a 0.14753275,0.14753275 0 0 0 -0.148436,-0.14844 z m 0.148438,0.29492 h 45.97461 v 49.45313 h -45.97461 z"
         style="color:#000000;font-style:normal;font-variant:normal;font-weight:normal;font-stretch:normal;font-size:medium;line-height:normal;font-family:sans-serif;font-variant-ligatures:normal;font-variant-position:normal;font-variant-caps:normal;font-variant-numeric:normal;font-variant-alternates:normal;font-feature-settings:normal;text-indent:0;text-align:start;text-decoration:none;text-decoration-line:none;text-decoration-style:solid;text-decoration-color:#000000;letter-spacing:normal;word-spacing:normal;text-transform:none;writing-mode:lr-tb;direction:ltr;text-orientation:mixed;dominant-baseline:auto;baseline-shift:baseline;text-anchor:start;white-space:normal;shape-padding:0;clip-rule:nonzero;display:inline;overflow:visible;visibility:visible;opacity:1;isolation:auto;mix-blend-mode:normal;color-interpolation:sRGB;color-interpolation-filters:linearRGB;solid-color:#000000;solid-opacity:1;vector-effect:none;fill:#000000;fill-opacity:1;fill-rule:nonzero;stroke:none;stroke-width:1;stroke-linecap:butt;stroke-linejoin:round;stroke-miterlimit:4;stroke-dasharray:none;stroke-dashoffset:0;stroke-opacity:1;color-rendering:auto;image-rendering:auto;shape-rendering:auto;text-rendering:auto;enable-background:accumulate"
         id="rect30567"
         inkscape:connector-curvature="0" />
      <path
         id="path30569"
         d="m 33.93973,217.01357 -0.253906,0.002 0.232422,45.56836 h 0.253906 z"
         style="color:#000000;font-style:normal;font-variant:normal;font-weight:normal;font-stretch:normal;font-size:medium;line-height:normal;font-family:sans-serif;font-variant-ligatures:normal;font-variant-position:normal;font-variant-caps:normal;font-variant-numeric:normal;font-variant-alternates:normal;font-feature-settings:normal;text-indent:0;text-align:start;text-decoration:none;text-decoration-line:none;text-decoration-style:solid;text-decoration-color:#000000;letter-spacing:normal;word-spacing:normal;text-transform:none;writing-mode:lr-tb;direction:ltr;text-orientation:mixed;dominant-baseline:auto;baseline-shift:baseline;text-anchor:start;white-space:normal;shape-padding:0;clip-rule:nonzero;display:inline;overflow:visible;visibility:visible;opacity:1;isolation:auto;mix-blend-mode:normal;color-interpolation:sRGB;color-interpolation-filters:linearRGB;solid-color:#000000;solid-opacity:1;vector-effect:none;fill:#000000;fill-opacity:1;fill-rule:evenodd;stroke:none;stroke-width:1;stroke-linecap:butt;stroke-linejoin:miter;stroke-miterlimit:4;stroke-dasharray:none;stroke-dashoffset:0;stroke-opacity:1;color-rendering:auto;image-rendering:auto;shape-rendering:auto;text-rendering:auto;enable-background:accumulate"
         inkscape:connector-curvature="0" />
      <g
         style="opacity:1;fill:#000000;fill-opacity:1;stroke:none"
         id="path36029"
         transform="translate(26.13309,-25.16221)">
        <path
           id="path1759"
           d="m 2.0694373,287.70415 5.9779913,0.0514"
           style="color:#000000;font-style:normal;font-variant:normal;font-weight:normal;font-stretch:normal;font-size:medium;line-height:normal;font-family:sans-serif;font-variant-ligatures:normal;font-variant-position:normal;font-variant-caps:normal;font-variant-numeric:normal;font-variant-alternates:normal;font-feature-settings:normal;text-indent:0;text-align:start;text-decoration:none;text-decoration-line:none;text-decoration-style:solid;text-decoration-color:#000000;letter-spacing:normal;word-spacing:normal;text-transform:none;writing-mode:lr-tb;direction:ltr;text-orientation:mixed;dominant-baseline:auto;baseline-shift:baseline;text-anchor:start;white-space:normal;shape-padding:0;clip-rule:nonzero;display:inline;overflow:visible;visibility:visible;isolation:auto;mix-blend-mode:normal;color-interpolation:sRGB;color-interpolation-filters:linearRGB;solid-color:#000000;solid-opacity:1;vector-effect:none;fill:#000000;fill-opacity:1;fill-rule:evenodd;stroke:none;stroke-width:0.15335201;stroke-linecap:butt;stroke-linejoin:miter;stroke-miterlimit:4;stroke-dasharray:none;stroke-dashoffset:0;stroke-opacity:1;color-rendering:auto;image-rendering:auto;shape-rendering:auto;text-rendering:auto;enable-background:accumulate"
           inkscape:connector-curvature="0" />
        <path
           id="path1761"
           d="m 2.0703125,287.62695 -0.00195,0.1543 5.9785156,0.0508 0.00195,-0.15234 z"
           style="color:#000000;font-style:normal;font-variant:normal;font-weight:normal;font-stretch:normal;font-size:medium;line-height:normal;font-family:sans-serif;font-variant-ligatures:normal;font-variant-position:normal;font-variant-caps:normal;font-variant-numeric:normal;font-variant-alternates:normal;font-feature-settings:normal;text-indent:0;text-align:start;text-decoration:none;text-decoration-line:none;text-decoration-style:solid;text-decoration-color:#000000;letter-spacing:normal;word-spacing:normal;text-transform:none;writing-mode:lr-tb;direction:ltr;text-orientation:mixed;dominant-baseline:auto;baseline-shift:baseline;text-anchor:start;white-space:normal;shape-padding:0;clip-rule:nonzero;display:inline;overflow:visible;visibility:visible;isolation:auto;mix-blend-mode:normal;color-interpolation:sRGB;color-interpolation-filters:linearRGB;solid-color:#000000;solid-opacity:1;vector-effect:none;fill:#000000;fill-opacity:1;fill-rule:evenodd;stroke:none;stroke-linecap:butt;stroke-linejoin:miter;stroke-miterlimit:4;stroke-dasharray:none;stroke-dashoffset:0;stroke-opacity:1;color-rendering:auto;image-rendering:auto;shape-rendering:auto;text-rendering:auto;enable-background:accumulate"
           inkscape:connector-curvature="0" />
      </g>
      <path
         id="path27401"
         d="m 28.117465,217.01357 -0.251953,0.002 0.232422,45.56836 h 0.253906 z"
         style="color:#000000;font-style:normal;font-variant:normal;font-weight:normal;font-stretch:normal;font-size:medium;line-height:normal;font-family:sans-serif;font-variant-ligatures:normal;font-variant-position:normal;font-variant-caps:normal;font-variant-numeric:normal;font-variant-alternates:normal;font-feature-settings:normal;text-indent:0;text-align:start;text-decoration:none;text-decoration-line:none;text-decoration-style:solid;text-decoration-color:#000000;letter-spacing:normal;word-spacing:normal;text-transform:none;writing-mode:lr-tb;direction:ltr;text-orientation:mixed;dominant-baseline:auto;baseline-shift:baseline;text-anchor:start;white-space:normal;shape-padding:0;clip-rule:nonzero;display:inline;overflow:visible;visibility:visible;opacity:1;isolation:auto;mix-blend-mode:normal;color-interpolation:sRGB;color-interpolation-filters:linearRGB;solid-color:#000000;solid-opacity:1;vector-effect:none;fill:#000000;fill-opacity:1;fill-rule:evenodd;stroke:none;stroke-width:1;stroke-linecap:butt;stroke-linejoin:miter;stroke-miterlimit:4;stroke-dasharray:none;stroke-dashoffset:0;stroke-opacity:1;color-rendering:auto;image-rendering:auto;shape-rendering:auto;text-rendering:auto;enable-background:accumulate"
         inkscape:connector-curvature="0" />
      <g
         style="opacity:1;fill:#000000;fill-opacity:1;stroke:none"
         id="path29221"
         transform="translate(26.13309,-25.16221)">
        <path
           id="path1749"
           d="m 1.8239097,242.17723 5.9076173,0.0518"
           style="color:#000000;font-style:normal;font-variant:normal;font-weight:normal;font-stretch:normal;font-size:medium;line-height:normal;font-family:sans-serif;font-variant-ligatures:normal;font-variant-position:normal;font-variant-caps:normal;font-variant-numeric:normal;font-variant-alternates:normal;font-feature-settings:normal;text-indent:0;text-align:start;text-decoration:none;text-decoration-line:none;text-decoration-style:solid;text-decoration-color:#000000;letter-spacing:normal;word-spacing:normal;text-transform:none;writing-mode:lr-tb;direction:ltr;text-orientation:mixed;dominant-baseline:auto;baseline-shift:baseline;text-anchor:start;white-space:normal;shape-padding:0;clip-rule:nonzero;display:inline;overflow:visible;visibility:visible;isolation:auto;mix-blend-mode:normal;color-interpolation:sRGB;color-interpolation-filters:linearRGB;solid-color:#000000;solid-opacity:1;vector-effect:none;fill:#000000;fill-opacity:1;fill-rule:evenodd;stroke:none;stroke-width:0.153091;stroke-linecap:butt;stroke-linejoin:miter;stroke-miterlimit:4;stroke-dasharray:none;stroke-dashoffset:0;stroke-opacity:1;color-rendering:auto;image-rendering:auto;shape-rendering:auto;text-rendering:auto;enable-background:accumulate"
           inkscape:connector-curvature="0" />
        <path
           id="path1751"
           d="m 1.8242188,242.10156 -0.00195,0.15235 5.9082032,0.0508 0.00195,-0.15235 z"
           style="color:#000000;font-style:normal;font-variant:normal;font-weight:normal;font-stretch:normal;font-size:medium;line-height:normal;font-family:sans-serif;font-variant-ligatures:normal;font-variant-position:normal;font-variant-caps:normal;font-variant-numeric:normal;font-variant-alternates:normal;font-feature-settings:normal;text-indent:0;text-align:start;text-decoration:none;text-decoration-line:none;text-decoration-style:solid;text-decoration-color:#000000;letter-spacing:normal;word-spacing:normal;text-transform:none;writing-mode:lr-tb;direction:ltr;text-orientation:mixed;dominant-baseline:auto;baseline-shift:baseline;text-anchor:start;white-space:normal;shape-padding:0;clip-rule:nonzero;display:inline;overflow:visible;visibility:visible;isolation:auto;mix-blend-mode:normal;color-interpolation:sRGB;color-interpolation-filters:linearRGB;solid-color:#000000;solid-opacity:1;vector-effect:none;fill:#000000;fill-opacity:1;fill-rule:evenodd;stroke:none;stroke-linecap:butt;stroke-linejoin:miter;stroke-miterlimit:4;stroke-dasharray:none;stroke-dashoffset:0;stroke-opacity:1;color-rendering:auto;image-rendering:auto;shape-rendering:auto;text-rendering:auto;enable-background:accumulate"
           inkscape:connector-curvature="0" />
      </g>
      <g
         style="fill:#000000;fill-opacity:1;stroke:none"
         inkscape:label="Layer 1"
         id="layer1-2"
         transform="translate(-42.285943,-20.961952)">
        <g
           transform="matrix(0.46763782,0,0,0.46763782,110.34208,248.2361)"
           style="fill:#000000;fill-opacity:1;stroke:none"
           id="use31418">
          <title
             id="title1548">Edit Find</title>
        </g>
        <g
           style="fill:#000000;fill-opacity:1;stroke:none"
           id="g27411"
           transform="matrix(0.83442172,0,0,0.87108423,70.508575,29.858694)">
          <g
             style="opacity:1;fill:#000000;fill-opacity:1;stroke:none"
             id="path30636" />
          <g
             style="opacity:1;fill:#000000;fill-opacity:1;stroke:none"
             id="path27401-4" />
          <g
             style="opacity:1;fill:#000000;fill-opacity:1;stroke:none"
             id="path27403" />
          <g
             style="opacity:1;fill:#000000;fill-opacity:1;stroke:none"
             id="path27405">
            <path
               d="m 9.7695312,250.51953 -0.044922,2.70703 0.1035156,0.002 0.044922,-2.70899 z m 0.052399,3e-5 -0.04546,2.70726 m 40.7391548,-2.70729 -0.04492,2.70703 0.103516,0.002 0.04492,-2.70899 z m 0.05216,3e-5 -0.04546,2.70726 M 9.8125,250.46484 v 0.13282 l 40.710938,0.0508 v -0.13282 z m -4.287e-4,0.0668 40.7105887,0.0501 m -40.7824256,2.52961 v 0.13281 l 40.7832036,0.0508 v -0.13476 z m -2.576e-4,0.0661 40.7826832,0.0501 m -1.329866,-1.24886 a 0.14828134,0.14204042 0 0 0 -0.07414,0.24431 l 0.593126,0.56816 a 0.14915906,0.1428812 0 1 0 0.208631,-0.20425 l -0.593125,-0.56816 a 0.14828134,0.14204042 0 0 0 -0.134639,-0.0398 z m -0.49007,-1.13675 c -0.448996,0 -0.81703,0.35226 -0.81703,0.78179 0,0.42996 0.368034,0.78208 0.81703,0.78208 0.449292,0 0.81703,-0.35226 0.81703,-0.78194 0,-0.42953 -0.367738,-0.78165 -0.81703,-0.78165 z m 0,0.2855 c 0.288852,0 0.518985,0.22016 0.518985,0.49629 0,0.27641 -0.230133,0.49672 -0.518985,0.49672 -0.288704,0 -0.518985,-0.22017 -0.518985,-0.49658 0,-0.27612 0.230281,-0.49629 0.518985,-0.49629 z"
               style="color:#000000;font-style:normal;font-variant:normal;font-weight:normal;font-stretch:normal;font-size:medium;line-height:normal;font-family:sans-serif;font-variant-ligatures:normal;font-variant-position:normal;font-variant-caps:normal;font-variant-numeric:normal;font-variant-alternates:normal;font-feature-settings:normal;text-indent:0;text-align:start;text-decoration:none;text-decoration-line:none;text-decoration-style:solid;text-decoration-color:#000000;letter-spacing:normal;word-spacing:normal;text-transform:none;writing-mode:lr-tb;direction:ltr;text-orientation:mixed;dominant-baseline:auto;baseline-shift:baseline;text-anchor:start;white-space:normal;shape-padding:0;clip-rule:nonzero;display:inline;overflow:visible;visibility:visible;isolation:auto;mix-blend-mode:normal;color-interpolation:sRGB;color-interpolation-filters:linearRGB;solid-color:#000000;solid-opacity:1;vector-effect:none;fill:#000000;fill-opacity:1;fill-rule:evenodd;stroke:none;stroke-linecap:butt;stroke-linejoin:miter;stroke-miterlimit:4;stroke-dasharray:none;stroke-dashoffset:0;stroke-opacity:1;color-rendering:auto;image-rendering:auto;shape-rendering:auto;text-rendering:auto;enable-background:accumulate"
               id="path1745"
               inkscape:connector-curvature="0" />
          </g>
        </g>
      </g>
      <path
         d="m 53.39867,215.88338 c -0.753976,6e-5 -1.483022,0.31812 -2.016106,0.87931 -0.533173,0.56129 -0.83502,1.32867 -0.83502,2.12219 v 0.002 c 0.0014,0.30551 0.02866,0.6571 0.172681,1.01373 0.375472,0.92973 0.938419,1.6517 1.452515,2.20971 h -9.26e-4 c 0.14197,0.16217 0.303791,0.32686 0.46509,0.48522 h 1.504748 c 0.163327,-0.15971 0.330223,-0.32539 0.484886,-0.48618 h -0.0013 c 0.513934,-0.55788 1.076703,-1.27936 1.452036,-2.20875 0.144007,-0.35659 0.171553,-0.70813 0.17268,-1.01373 v -0.002 c 0,-0.79366 -0.302149,-1.56097 -0.835255,-2.12219 -0.533024,-0.56112 -1.261891,-0.87925 -2.015869,-0.87931 h -2.43e-4 z m 2.563958,5.87325 c -0.337921,0.48813 -0.705723,0.91114 -1.056352,1.27268 h 0.0013 c -0.64208,0.63412 -1.505463,1.39122 -1.505463,1.39122 0,0 -0.915097,-0.74371 -1.510946,-1.39026 h 0.0014 c -0.350195,-0.36107 -0.717757,-0.78342 -1.055401,-1.27077 -0.01509,0.006 -0.03051,0.0106 -0.04556,0.0165 -0.813443,0.30832 -1.531729,0.71831 -2.154926,1.22999 v 2.39867 h 3.371548 0.0042 2.773373 3.37584 v -2.39867 c -0.623195,-0.51168 -1.338025,-0.92167 -2.144901,-1.22999 -0.01781,-0.007 -0.03605,-0.0126 -0.0539,-0.0193 z"
         style="font-style:normal;font-variant:normal;font-weight:normal;font-stretch:normal;font-size:121.62999725px;line-height:125%;font-family:Ubuntu;-inkscape-font-specification:Ubuntu;text-align:center;letter-spacing:0px;word-spacing:0px;writing-mode:lr-tb;text-anchor:middle;fill:#000000;fill-opacity:1;stroke:none;stroke-width:0.12209201"
         id="path1538"
         inkscape:connector-curvature="0" />
      <path
         inkscape:connector-curvature="0"
         style="color:#000000;display:inline;overflow:visible;visibility:visible;fill:#000000;fill-opacity:1;stroke:none;stroke-width:0.32095999;marker:none;enable-background:accumulate"
         d="m 30.708253,258.65154 0.213973,-0.0357 v 1.17685 h -0.213973 z"
         id="path1508" />
      <path
         id="path1510"
         d="m 30.226703,258.98749 c -0.460841,0.26606 -0.685822,0.8099 -0.548096,1.3239 0.137726,0.514 0.6046,0.87216 1.136733,0.87216 0.532133,0 0.999007,-0.35816 1.136733,-0.87216 0.137727,-0.514 -0.08752,-1.05784 -0.548359,-1.3239 l -0.107145,0.18533 c 0.377866,0.21816 0.561778,0.66157 0.448849,1.08303 -0.112928,0.42145 -0.493756,0.71368 -0.930078,0.71368 -0.436321,0 -0.81715,-0.29223 -0.930078,-0.71368 -0.112929,-0.42146 0.07072,-0.86487 0.448586,-1.08303 z"
         style="color:#000000;font-style:normal;font-variant:normal;font-weight:normal;font-stretch:normal;font-size:medium;line-height:normal;font-family:sans-serif;font-variant-ligatures:normal;font-variant-position:normal;font-variant-caps:normal;font-variant-numeric:normal;font-variant-alternates:normal;font-feature-settings:normal;text-indent:0;text-align:start;text-decoration:none;text-decoration-line:none;text-decoration-style:solid;text-decoration-color:#000000;letter-spacing:normal;word-spacing:normal;text-transform:none;writing-mode:lr-tb;direction:ltr;text-orientation:mixed;dominant-baseline:auto;baseline-shift:baseline;text-anchor:start;white-space:normal;shape-padding:0;clip-rule:nonzero;display:inline;overflow:visible;visibility:visible;isolation:auto;mix-blend-mode:normal;color-interpolation:sRGB;color-interpolation-filters:linearRGB;solid-color:#000000;solid-opacity:1;vector-effect:none;fill:#000000;fill-opacity:1;fill-rule:nonzero;stroke:none;stroke-width:0.13478599;stroke-linecap:butt;stroke-linejoin:round;stroke-miterlimit:4;stroke-dasharray:none;stroke-dashoffset:0;stroke-opacity:1;marker:none;color-rendering:auto;image-rendering:auto;shape-rendering:auto;text-rendering:auto;enable-background:accumulate"
         inkscape:connector-curvature="0" />
      <g
         transform="matrix(0.1347863,0,0,0.13478632,31.630175,250.61942)"
         style="fill:#000000;fill-opacity:1;stroke:none"
         id="use10672">
        <title
           id="title1472">settings</title>
        <g
           transform="matrix(0,-1,-1,0,98.823214,136.65863)"
           id="g1498"
           style="display:inline;fill:#000000;fill-opacity:1;stroke:none">
          <g
             style="fill:#000000;fill-opacity:1;stroke:none"
             transform="matrix(0,-1,-1,0,940.42503,162.81458)"
             id="g1496">
            <path
               sodipodi:nodetypes="ccccccccccccccccccccccccccccccccccccccccccccccccccccccscsssccccc"
               inkscape:connector-curvature="0"
               d="m 52.217005,828.32506 -2.822236,2.39924 2.543164,3.03081 2.837522,-2.38099 -2.558384,-3.04893 z m -4.899226,5.95191 -0.619763,3.65202 3.896342,0.68701 0.643202,-3.64786 -3.919649,-0.69112 z m 0.07278,7.70858 1.872705,3.19598 3.426373,-1.97823 -1.852073,-3.20786 -3.446878,1.99006 z m 5.010732,5.85833 3.488918,1.24452 1.353169,-3.71785 -3.480747,-1.26688 -1.361266,3.7401 z m 7.604104,1.2669 3.472638,-1.28926 -1.353206,-3.71785 -3.480732,1.26691 1.361284,3.74007 z m 6.639436,-3.91731 1.831477,-3.2198 -3.426399,-1.97821 -1.852059,3.20786 3.446891,1.99007 z m 2.568104,-7.26858 -0.666655,-3.64377 -3.896349,0.68705 0.643228,3.64786 3.919659,-0.69114 z m -2.704883,-7.21882 -2.852843,-2.36275 -2.543154,3.03083 2.837537,2.38096 2.558375,-3.04896 z m -6.712223,-4.05585 -3.704143,0.55298 v 3.69187 h 3.704143 v -4.24471 z m 6.177666,16.02219 c 2.547011,-4.41568 1.015664,-10.11007 -3.401533,-12.66272 -4.417204,-2.55266 -10.111463,-1.03386 -12.658474,3.38181 -2.547016,4.41568 -1.013967,10.11105 3.403238,12.6637 4.417196,2.55265 10.109754,1.03289 12.656769,-3.38279 z m -2.749664,-1.589 c -1.688262,2.92688 -5.386363,3.91635 -8.320326,2.22084 -2.933972,-1.69551 -3.928607,-5.39686 -2.240344,-8.32374 1.688257,-2.92688 5.388046,-3.91538 8.322018,-2.21986 2.933963,1.6955 3.926909,5.39588 2.238652,8.32276 z"
               style="color:#000000;display:inline;overflow:visible;visibility:visible;fill:#000000;fill-opacity:1;fill-rule:nonzero;stroke:none;stroke-width:0.529167;marker:none;enable-background:accumulate"
               id="path1494" />
          </g>
        </g>
      </g>
      <path
         d="m 30.066133,250.57597 h 0.855893 v 0.21397 h -0.855893 z m 0,-0.42795 h 1.497813 v 0.21397 h -1.497813 z m 0,-0.42795 h 1.497813 v 0.21397 h -1.497813 z m -0.64192,-0.64192 v 2.78166 h 1.925759 0.106987 l 0.748906,-0.74891 v -0.10699 -1.92576 z m 0.213973,0.21398 h 2.353706 v 1.71178 h -0.64192 v 0.64192 h -1.711786 z m 1.176984,-4.98163 c -0.220188,2e-5 -0.433095,0.0929 -0.588775,0.2569 -0.155705,0.16398 -0.243855,0.38817 -0.243855,0.62 v 8e-4 c 3.97e-4,0.0893 0.0084,0.19196 0.05043,0.29615 0.109651,0.27163 0.274052,0.48255 0.424186,0.64557 h -2.65e-4 c 0.04146,0.0474 0.08872,0.0955 0.135823,0.14177 h 0.43944 c 0.0477,-0.0467 0.09644,-0.0951 0.141604,-0.14205 h -3.97e-4 c 0.150087,-0.16297 0.314435,-0.37375 0.424046,-0.64529 0.04206,-0.10418 0.0501,-0.20688 0.05043,-0.29615 v -8e-4 c 0,-0.23187 -0.08824,-0.45604 -0.243924,-0.62 -0.155662,-0.16394 -0.368517,-0.25688 -0.588705,-0.2569 h -7.2e-5 z m 0.748767,1.71588 c -0.09868,0.14261 -0.206097,0.26619 -0.308492,0.37182 h 3.97e-4 c -0.187511,0.18525 -0.439649,0.40644 -0.439649,0.40644 0,0 -0.267241,-0.21727 -0.44125,-0.40617 h 3.97e-4 c -0.102269,-0.10548 -0.20961,-0.22887 -0.308215,-0.37125 -0.0044,0.002 -0.0089,0.003 -0.0133,0.005 -0.237554,0.0901 -0.447319,0.20985 -0.629314,0.35934 v 0.70077 h 0.984611 0.0012 0.809923 0.985864 v -0.70077 c -0.181995,-0.14949 -0.390751,-0.26927 -0.626387,-0.35934 -0.0052,-0.002 -0.01053,-0.004 -0.01574,-0.006 z"
         style="color:#000000;display:inline;overflow:visible;visibility:visible;fill:#000000;fill-opacity:1;fill-rule:nonzero;stroke:none;stroke-width:0.213973;marker:none;enable-background:accumulate"
         id="rect1464"
         inkscape:connector-curvature="0" />
      <g
         transform="matrix(0.67401575,0,0,1.0110236,28.675139,217.39881)"
         style="fill:#000000;fill-opacity:1;stroke:none"
         id="use84791">
        <path
           d="m 0.79375,4.7625 h 4.7625 V 4.2333333 h -4.7625 z m 0,-1.3229167 h 4.7625 V 2.9104167 h -4.7625 z m 0,-1.8520833 v 0.5291667 h 4.7625 V 1.5875 Z"
           style="fill:#000000;fill-opacity:1;stroke:none;stroke-width:0.26458299"
           id="path1450"
           inkscape:connector-curvature="0" />
      </g>
      <g
         style="fill:#000000;fill-opacity:1;stroke:none"
         inkscape:label="Layer 1"
         id="layer1-3"
         transform="translate(64.389874,-27.934024)">
        <g
           style="fill:#000000;fill-opacity:1;stroke:none"
           id="g27497"
           transform="matrix(0.97575991,0,0,0.83001849,-29.472107,55.41509)">
          <g
             style="fill:#000000;fill-opacity:1;stroke:none"
             transform="rotate(-89.926423,-5.277254,234.71843)"
             id="g27430">
            <g
               style="opacity:1;fill:#000000;fill-opacity:1;stroke:none"
               id="rect33674" />
            <g
               style="opacity:1;fill:#000000;fill-opacity:1;stroke:none"
               id="rect33678" />
            <g
               style="opacity:1;fill:#000000;fill-opacity:1;stroke:none"
               id="rect33680" />
            <g
               style="opacity:1;fill:#000000;fill-opacity:1;stroke:none"
               id="rect33682" />
          </g>
          <g
             style="fill:#000000;fill-opacity:1;stroke:none"
             id="g27440"
             transform="rotate(-89.926423,-1.502096,238.48869)">
            <g
               style="opacity:1;fill:#000000;fill-opacity:1;stroke:none"
               id="rect27432" />
            <g
               style="opacity:1;fill:#000000;fill-opacity:1;stroke:none"
               id="rect27434" />
            <g
               style="opacity:1;fill:#000000;fill-opacity:1;stroke:none"
               id="rect27436" />
            <g
               style="opacity:1;fill:#000000;fill-opacity:1;stroke:none"
               id="rect27438" />
          </g>
          <g
             style="fill:#000000;fill-opacity:1;stroke:none"
             transform="rotate(-89.926423,2.2730603,242.25896)"
             id="g27450">
            <g
               style="opacity:1;fill:#000000;fill-opacity:1;stroke:none"
               id="rect27442" />
            <g
               style="opacity:1;fill:#000000;fill-opacity:1;stroke:none"
               id="rect27444" />
            <g
               style="opacity:1;fill:#000000;fill-opacity:1;stroke:none"
               id="rect27446" />
            <g
               style="opacity:1;fill:#000000;fill-opacity:1;stroke:none"
               id="rect27448" />
          </g>
          <g
             style="fill:#000000;fill-opacity:1;stroke:none"
             id="g27460"
             transform="rotate(-89.926423,6.0482183,246.02923)">
            <g
               style="opacity:1;fill:#000000;fill-opacity:1;stroke:none"
               id="rect27452" />
            <g
               style="opacity:1;fill:#000000;fill-opacity:1;stroke:none"
               id="rect27454" />
            <g
               style="opacity:1;fill:#000000;fill-opacity:1;stroke:none"
               id="rect27456" />
            <g
               style="opacity:1;fill:#000000;fill-opacity:1;stroke:none"
               id="rect27458" />
          </g>
          <g
             style="fill:#000000;fill-opacity:1;stroke:none"
             transform="rotate(-89.926423,9.8233747,249.79949)"
             id="g27470">
            <g
               style="opacity:1;fill:#000000;fill-opacity:1;stroke:none"
               id="rect27462" />
            <g
               style="opacity:1;fill:#000000;fill-opacity:1;stroke:none"
               id="rect27464" />
            <g
               style="opacity:1;fill:#000000;fill-opacity:1;stroke:none"
               id="rect27466" />
            <g
               style="opacity:1;fill:#000000;fill-opacity:1;stroke:none"
               id="rect27468">
              <path
                 sodipodi:nodetypes="cccccccccccccccccccccccccccccccccccccccccccccccccccccccccccccccccccccccccccccccccccccccccccccccccccccccccccccccccccccccccccccccccccccccccccccccccccccccccccccccccccccccccccccccccccc"
                 inkscape:connector-curvature="0"
                 d="m -22.314453,251.79883 c -0.122442,5.1e-4 -0.221272,0.10021 -0.220703,0.22265 v 6.06641 c 5.05e-4,0.12168 0.09902,0.2202 0.220703,0.2207 h 5.513672 c 0.122443,5.7e-4 0.222148,-0.0983 0.222656,-0.2207 v -6.06641 c 5.73e-4,-0.12321 -0.09945,-0.22323 -0.222656,-0.22265 z m 0,8.07617 c -0.122446,5.1e-4 -0.221277,0.10021 -0.220703,0.22266 v 6.0664 c 5e-4,0.12168 0.09902,0.22021 0.220703,0.22071 h 5.513672 c 0.122446,5.7e-4 0.222153,-0.0983 0.222656,-0.22071 v -6.0664 c 5.78e-4,-0.12321 -0.09945,-0.22324 -0.222656,-0.22266 z m 0,7.93945 c -0.121684,5e-4 -0.220203,0.099 -0.220703,0.22071 v 6.0664 c 5e-4,0.12168 0.09902,0.22021 0.220703,0.22071 h 5.513672 c 0.122446,5.7e-4 0.222153,-0.0983 0.222656,-0.22071 v -6.0664 c -5.03e-4,-0.12245 -0.10021,-0.22128 -0.222656,-0.22071 z m 0,-24.22851 c -0.121681,5e-4 -0.220198,0.099 -0.220703,0.2207 v 6.06641 c 5.05e-4,0.12168 0.09902,0.2202 0.220703,0.2207 h 5.513672 c 0.122443,5.7e-4 0.222148,-0.0983 0.222656,-0.2207 v -6.06641 c -5.08e-4,-0.12244 -0.100213,-0.22127 -0.222656,-0.2207 z m 7.540565,8.20316 c -0.122442,5.1e-4 -0.221272,0.10021 -0.220703,0.22265 v 6.06641 c 5.05e-4,0.12168 0.09902,0.2202 0.220703,0.2207 h 5.5136724 c 0.1224425,5.7e-4 0.2221479,-0.0983 0.222656,-0.2207 v -6.06641 c 5.728e-4,-0.12321 -0.099451,-0.22323 -0.222656,-0.22265 z m 0,8.07617 c -0.122446,5.1e-4 -0.221277,0.10021 -0.220703,0.22266 v 6.0664 c 5e-4,0.12168 0.09902,0.22021 0.220703,0.22071 h 5.5136724 c 0.1224464,5.7e-4 0.2221534,-0.0983 0.222656,-0.22071 v -6.0664 c 5.783e-4,-0.12321 -0.099447,-0.22324 -0.222656,-0.22266 z m 0,7.93945 c -0.121684,5e-4 -0.220203,0.099 -0.220703,0.22071 v 6.0664 c 5e-4,0.12168 0.09902,0.22021 0.220703,0.22071 h 5.5136724 c 0.1224464,5.7e-4 0.2221534,-0.0983 0.222656,-0.22071 v -6.0664 c -5.026e-4,-0.12245 -0.1002096,-0.22128 -0.222656,-0.22071 z m 0,-24.22851 c -0.121681,5e-4 -0.220198,0.099 -0.220703,0.2207 v 6.06641 c 5.05e-4,0.12168 0.09902,0.2202 0.220703,0.2207 h 5.5136724 c 0.1224425,5.7e-4 0.2221479,-0.0983 0.222656,-0.2207 v -6.06641 c -5.081e-4,-0.12244 -0.1002135,-0.22127 -0.222656,-0.2207 z m 7.5405774,8.20316 c -0.1224416,5.1e-4 -0.2212719,0.10021 -0.220703,0.22265 v 6.06641 c 5.053e-4,0.12168 0.099022,0.2202 0.220703,0.2207 h 5.513672 c 0.1224425,5.7e-4 0.2221479,-0.0983 0.222656,-0.2207 v -6.06641 c 5.728e-4,-0.12321 -0.099451,-0.22323 -0.222656,-0.22265 z m 0,8.07617 c -0.1224455,5.1e-4 -0.2212775,0.10021 -0.220703,0.22266 v 6.0664 c 4.998e-4,0.12168 0.099019,0.22021 0.220703,0.22071 h 5.513672 c 0.1224464,5.7e-4 0.2221534,-0.0983 0.222656,-0.22071 v -6.0664 c 5.783e-4,-0.12321 -0.099447,-0.22324 -0.222656,-0.22266 z m 0,7.93945 c -0.1216844,5e-4 -0.2202032,0.099 -0.220703,0.22071 v 6.0664 c 4.998e-4,0.12168 0.099019,0.22021 0.220703,0.22071 h 5.513672 c 0.1224464,5.7e-4 0.2221534,-0.0983 0.222656,-0.22071 v -6.0664 c -5.026e-4,-0.12245 -0.1002096,-0.22128 -0.222656,-0.22071 z m 0,-24.22851 c -0.1216805,5e-4 -0.2201977,0.099 -0.220703,0.2207 v 6.06641 c 5.053e-4,0.12168 0.099022,0.2202 0.220703,0.2207 h 5.513672 c 0.1224425,5.7e-4 0.2221479,-0.0983 0.222656,-0.2207 v -6.06641 c -5.081e-4,-0.12244 -0.1002135,-0.22127 -0.222656,-0.2207 z m 7.54057525,8.20316 c -0.12244161,5.1e-4 -0.22127191,0.10021 -0.220703,0.22265 v 6.06641 c 5.0527e-4,0.12168 0.09902248,0.2202 0.220703,0.2207 H 5.8209367 c 0.1224425,5.7e-4 0.2221479,-0.0983 0.222656,-0.2207 v -6.06641 c 5.728e-4,-0.12321 -0.099451,-0.22323 -0.222656,-0.22265 z m 0,8.07617 c -0.12244554,5.1e-4 -0.22127746,0.10021 -0.220703,0.22266 v 6.0664 c 4.9979e-4,0.12168 0.0990186,0.22021 0.220703,0.22071 H 5.8209367 c 0.1224464,5.7e-4 0.2221534,-0.0983 0.222656,-0.22071 v -6.0664 c 5.783e-4,-0.12321 -0.099447,-0.22324 -0.222656,-0.22266 z m 0,7.93945 c -0.1216844,5e-4 -0.22020321,0.099 -0.220703,0.22071 v 6.0664 c 4.9979e-4,0.12168 0.0990186,0.22021 0.220703,0.22071 H 5.8209367 c 0.1224464,5.7e-4 0.2221534,-0.0983 0.222656,-0.22071 v -6.0664 c -5.026e-4,-0.12245 -0.1002096,-0.22128 -0.222656,-0.22071 z m 0,-24.22851 c -0.12168052,5e-4 -0.22019773,0.099 -0.220703,0.2207 v 6.06641 c 5.0527e-4,0.12168 0.09902248,0.2202 0.220703,0.2207 H 5.8209367 c 0.1224425,5.7e-4 0.2221479,-0.0983 0.222656,-0.2207 v -6.06641 c -5.081e-4,-0.12244 -0.1002135,-0.22127 -0.222656,-0.2207 z m 7.54056695,8.20316 c -0.1224416,5.1e-4 -0.2212719,0.10021 -0.220703,0.22265 v 6.06641 c 5.053e-4,0.12168 0.099023,0.2202 0.220703,0.2207 h 5.5136724 c 0.122443,5.7e-4 0.222148,-0.0983 0.222656,-0.2207 v -6.06641 c 5.73e-4,-0.12321 -0.09945,-0.22323 -0.222656,-0.22265 z m 0,8.07617 c -0.1224455,5.1e-4 -0.2212775,0.10021 -0.220703,0.22266 v 6.0664 c 4.998e-4,0.12168 0.099019,0.22021 0.220703,0.22071 h 5.5136724 c 0.122446,5.7e-4 0.222153,-0.0983 0.222656,-0.22071 v -6.0664 c 5.78e-4,-0.12321 -0.09945,-0.22324 -0.222656,-0.22266 z m 0,7.93945 c -0.1216844,5e-4 -0.2202032,0.099 -0.220703,0.22071 v 6.0664 c 4.998e-4,0.12168 0.099019,0.22021 0.220703,0.22071 h 5.5136724 c 0.122446,5.7e-4 0.222153,-0.0983 0.222656,-0.22071 v -6.0664 c -5.03e-4,-0.12245 -0.10021,-0.22128 -0.222656,-0.22071 z m 0,-24.22851 c -0.1216805,5e-4 -0.2201977,0.099 -0.220703,0.2207 v 6.06641 c 5.053e-4,0.12168 0.099023,0.2202 0.220703,0.2207 h 5.5136724 c 0.122443,5.7e-4 0.222148,-0.0983 0.222656,-0.2207 v -6.06641 c -5.08e-4,-0.12244 -0.100213,-0.22127 -0.222656,-0.2207 z"
                 style="color:#000000;font-style:normal;font-variant:normal;font-weight:normal;font-stretch:normal;font-size:medium;line-height:normal;font-family:sans-serif;font-variant-ligatures:normal;font-variant-position:normal;font-variant-caps:normal;font-variant-numeric:normal;font-variant-alternates:normal;font-feature-settings:normal;text-indent:0;text-align:start;text-decoration:none;text-decoration-line:none;text-decoration-style:solid;text-decoration-color:#000000;letter-spacing:normal;word-spacing:normal;text-transform:none;writing-mode:lr-tb;direction:ltr;text-orientation:mixed;dominant-baseline:auto;baseline-shift:baseline;text-anchor:start;white-space:normal;shape-padding:0;clip-rule:nonzero;display:inline;overflow:visible;visibility:visible;isolation:auto;mix-blend-mode:normal;color-interpolation:sRGB;color-interpolation-filters:linearRGB;solid-color:#000000;solid-opacity:1;vector-effect:none;fill:#000000;fill-opacity:1;fill-rule:nonzero;stroke:none;stroke-linecap:butt;stroke-linejoin:round;stroke-miterlimit:4;stroke-dasharray:none;stroke-dashoffset:0;stroke-opacity:1;color-rendering:auto;image-rendering:auto;shape-rendering:auto;text-rendering:auto;enable-background:accumulate"
                 id="path1713" />
            </g>
          </g>
        </g>
      </g>
    </g>
  </g>
</svg>
