<?xml version="1.0" encoding="UTF-8" standalone="no"?>
<svg
   xmlns:dc="http://purl.org/dc/elements/1.1/"
   xmlns:cc="http://creativecommons.org/ns#"
   xmlns:rdf="http://www.w3.org/1999/02/22-rdf-syntax-ns#"
   xmlns:svg="http://www.w3.org/2000/svg"
   xmlns="http://www.w3.org/2000/svg"
   xmlns:sodipodi="http://sodipodi.sourceforge.net/DTD/sodipodi-0.dtd"
   xmlns:inkscape="http://www.inkscape.org/namespaces/inkscape"
   inkscape:version="1.0 (4035a4fb49, 2020-05-01)"
   sodipodi:docname="configure-symbolic.svg"
   id="svg9"
   version="1.1"
   height="24"
   width="24">
  <metadata
     id="metadata13">
    <rdf:RDF>
      <cc:Work
         rdf:about="">
        <dc:format>image/svg+xml</dc:format>
        <dc:type
           rdf:resource="http://purl.org/dc/dcmitype/StillImage" />
      </cc:Work>
    </rdf:RDF>
  </metadata>
  <sodipodi:namedview
     inkscape:current-layer="svg9"
     inkscape:window-maximized="0"
     inkscape:window-y="40"
     inkscape:window-x="0"
     inkscape:cy="28.492835"
     inkscape:cx="-30.447758"
     inkscape:zoom="7.6875"
     showgrid="false"
     id="namedview11"
     inkscape:window-height="897"
     inkscape:window-width="1879"
     inkscape:pageshadow="2"
     inkscape:pageopacity="0"
     guidetolerance="10"
     gridtolerance="10"
     objecttolerance="10"
     borderopacity="1"
     bordercolor="#666666"
     pagecolor="#ffffff" />
  <defs
     id="defs3">
    <style
       type="text/css"
       id="current-color-scheme">
   .ColorScheme-Text { color:#444444; } .ColorScheme-Highlight { color:#4285f4; }
  </style>
  </defs>
  <g
     id="g7"
     transform="matrix(1.3901911,0,0,1.3901911,0.8784712,0.8784712)">
    <path
       id="path5"
       d="M 11,0 C 9.8188,0.44881 9,1.43 9,2.6504 c 0,1.2204 0.8188,2.174 2,2.623 v 2.4278 c 1.274,0.6333 2.318,1.6588 3,2.9158 V 5.2734 C 15.181,4.8244 16,3.8708 16,2.6504 16,1.43 15.181,0.44881 14,0 v 2 c 0,1 -1,1 -1,1 H 12 C 12,3 11,3 11,2 Z M 8,8 C 4.676,8 2,10.676 2,14 H 0 v 2 H 16 V 14 H 14 C 14,10.676 11.324,8 8,8 Z m 0,3 c 1.662,0 3,1.338 3,3 H 5 c 0,-1.662 1.338,-3 3,-3 z"
       class="ColorScheme-Text"
       style="fill:currentColor" />
  </g>
</svg>
