<?xml version="1.0" encoding="UTF-8" standalone="no"?>
<svg
   xmlns:dc="http://purl.org/dc/elements/1.1/"
   xmlns:cc="http://creativecommons.org/ns#"
   xmlns:rdf="http://www.w3.org/1999/02/22-rdf-syntax-ns#"
   xmlns:svg="http://www.w3.org/2000/svg"
   xmlns="http://www.w3.org/2000/svg"
   xmlns:sodipodi="http://sodipodi.sourceforge.net/DTD/sodipodi-0.dtd"
   xmlns:inkscape="http://www.inkscape.org/namespaces/inkscape"
   id="svg9"
   version="1.1"
   viewBox="0 0 24 24"
   height="24"
   width="24"
   sodipodi:docname="menu-settings-symbolic.svg"
   inkscape:version="0.92.3 (2405546, 2018-03-11)">
  <sodipodi:namedview
     pagecolor="#ffffff"
     bordercolor="#666666"
     borderopacity="1"
     objecttolerance="10"
     gridtolerance="10"
     guidetolerance="10"
     inkscape:pageopacity="0"
     inkscape:pageshadow="2"
     inkscape:window-width="793"
     inkscape:window-height="516"
     id="namedview9"
     showgrid="false"
     inkscape:zoom="9.8333333"
     inkscape:cx="12"
     inkscape:cy="12"
     inkscape:window-x="0"
     inkscape:window-y="36"
     inkscape:window-maximized="0"
     inkscape:current-layer="svg9" />
  <metadata
     id="metadata13">
    <rdf:RDF>
      <cc:Work
         rdf:about="">
        <dc:format>image/svg+xml</dc:format>
        <dc:type
           rdf:resource="http://purl.org/dc/dcmitype/StillImage" />
        <dc:title />
      </cc:Work>
    </rdf:RDF>
  </metadata>
  <defs
     id="defs3">
    <style
       type="text/css"
       id="current-color-scheme">
   .ColorScheme-Text { color:#444444; } .ColorScheme-Highlight { color:#4285f4; }
  </style>
    <style
       id="current-color-scheme-1"
       type="text/css">
   .ColorScheme-Text { color:#444444; } .ColorScheme-Highlight { color:#4285f4; }
  </style>
  </defs>
  <g
     id="g13"
     style="fill:#000000">
    <path
       style="color:#444444;fill:#000000;stroke-width:1.62201428"
       class="ColorScheme-Text"
       d="M 0.77985729,0.77985729 V 4.0238858 H 17 V 0.77985729 Z m 0,6.48805711 V 10.511943 H 11.627078 c 1.248983,-0.9997935 2.837551,-1.6220144 4.561915,-1.6220144 0.278629,0 0.540504,0.071044 0.811007,0.1013759 V 7.2679144 Z m 0,6.4880566 V 17 H 8.9913045 c -0.030332,-0.270503 -0.1013759,-0.532378 -0.1013759,-0.811007 0,-0.860365 0.1828173,-1.666458 0.4561916,-2.433022 z"
       id="path5" />
    <path
       id="path18"
       d="m 15.356548,10.509221 -0.138499,1.654976 a 4.9368772,4.9368772 0 0 0 -1.442844,0.834501 l -1.504204,-0.708274 -1.570825,2.720892 1.365705,0.948456 a 4.9368772,4.9368772 0 0 0 -0.07538,0.832747 4.9368772,4.9368772 0 0 0 0.07188,0.836254 l -1.3622,0.944949 1.570825,2.720893 1.500698,-0.70652 a 4.9368772,4.9368772 0 0 0 1.446351,0.829241 l 0.134993,1.660234 h 3.141649 l 0.138499,-1.654975 a 4.9368772,4.9368772 0 0 0 1.442844,-0.8345 l 1.504205,0.708273 1.570825,-2.720893 -1.365707,-0.948455 a 4.9368772,4.9368772 0 0 0 0.07538,-0.832748 4.9368772,4.9368772 0 0 0 -0.07188,-0.836253 l 1.3622,-0.94495 -1.570825,-2.720892 -1.500698,0.706521 a 4.9368772,4.9368772 0 0 0 -1.446345,-0.829241 l -0.134993,-1.660236 z m 1.570825,4.48807 a 1.7952281,1.7952281 0 0 1 1.795228,1.795228 1.7952281,1.7952281 0 0 1 -1.795228,1.795228 1.7952281,1.7952281 0 0 1 -1.795228,-1.795228 1.7952281,1.7952281 0 0 1 1.795228,-1.795228 z"
       class="ColorScheme-Text"
       style="color:#444444;fill:#000000;stroke-width:0.897614" />
  </g>
</svg>
