<?xml version="1.0" encoding="UTF-8" standalone="no"?>
<svg
   xmlns:dc="http://purl.org/dc/elements/1.1/"
   xmlns:cc="http://creativecommons.org/ns#"
   xmlns:rdf="http://www.w3.org/1999/02/22-rdf-syntax-ns#"
   xmlns:svg="http://www.w3.org/2000/svg"
   xmlns="http://www.w3.org/2000/svg"
   id="svg8"
   version="1.1"
   viewBox="0 0 6.3499999 6.3500002"
   height="24"
   width="24">
  <defs
     id="defs2">
    <style
       id="current-color-scheme"
       type="text/css">
   .ColorScheme-Text { color:#444444; } .ColorScheme-Highlight { color:#4285f4; }
  </style>
  </defs>
  <metadata
     id="metadata5">
    <rdf:RDF>
      <cc:Work
         rdf:about="">
        <dc:format>image/svg+xml</dc:format>
        <dc:type
           rdf:resource="http://purl.org/dc/dcmitype/StillImage" />
        <dc:title></dc:title>
      </cc:Work>
    </rdf:RDF>
  </metadata>
  <g
     transform="translate(0,-290.64998)"
     id="layer1">
    <path
       id="path13"
       transform="matrix(0.26458333,0,0,0.26458333,0,290.64998)"
       d="M 9.0273438 0.32421875 L 8.7714844 3.3886719 A 9.1386855 9.1386855 0 0 0 6.0996094 4.9335938 L 3.3164062 3.6230469 L 0.40820312 8.6582031 L 2.9355469 10.414062 A 9.1386855 9.1386855 0 0 0 2.796875 11.955078 A 9.1386855 9.1386855 0 0 0 2.9296875 13.503906 L 0.40820312 15.253906 L 3.3164062 20.289062 L 6.09375 18.982422 A 9.1386855 9.1386855 0 0 0 8.7714844 20.517578 L 9.0214844 23.589844 L 14.835938 23.589844 L 15.09375 20.527344 A 9.1386855 9.1386855 0 0 0 17.763672 18.982422 L 20.548828 20.292969 L 23.457031 15.255859 L 20.927734 13.5 A 9.1386855 9.1386855 0 0 0 21.068359 11.958984 A 9.1386855 9.1386855 0 0 0 20.933594 10.412109 L 23.457031 8.6621094 L 20.548828 3.625 L 17.769531 4.9335938 A 9.1386855 9.1386855 0 0 0 15.09375 3.3984375 L 14.84375 0.32421875 L 9.0273438 0.32421875 z M 5.6621094 8.0175781 L 18.203125 8.0175781 C 19.142947 8.0175781 19.900391 8.7730733 19.900391 9.7128906 L 19.900391 14.201172 C 19.900391 15.140989 19.142947 15.896484 18.203125 15.896484 L 5.6621094 15.896484 C 4.7222875 15.896484 3.9648438 15.140989 3.9648438 14.201172 L 3.9648438 9.7128906 C 3.9648438 8.7730733 4.7222875 8.0175781 5.6621094 8.0175781 z M 16.96875 9.6230469 C 16.29408 9.6271288 15.735975 9.8499703 15.292969 10.292969 C 14.854028 10.740049 14.634766 11.300102 14.634766 11.970703 C 14.651023 12.612883 14.87926 13.167351 15.322266 13.634766 C 15.773401 14.069789 16.333459 14.287109 17 14.287109 C 17.918527 14.287109 18.605348 13.866676 19.060547 13.025391 L 18.560547 13.025391 C 18.38172 13.249025 18.231303 13.406646 18.109375 13.5 C 17.796426 13.747937 17.424953 13.873047 16.994141 13.873047 C 16.465785 13.869003 16.016334 13.678483 15.646484 13.304688 C 15.276634 12.926735 15.091797 12.475468 15.091797 11.951172 C 15.091797 11.422794 15.263911 10.978888 15.609375 10.617188 C 15.97516 10.230995 16.433586 10.037109 16.986328 10.037109 C 17.388691 10.037109 17.74026 10.138458 18.041016 10.341797 C 18.049142 10.345576 18.056465 10.353642 18.060547 10.357422 C 18.227182 10.467142 18.384776 10.639157 18.535156 10.875 L 19.041016 10.875 C 18.931282 10.631145 18.779068 10.417304 18.583984 10.234375 C 18.157235 9.8279624 17.619035 9.625 16.96875 9.625 L 16.96875 9.6230469 z M 12.859375 9.625 L 12.861328 9.6269531 C 12.560572 9.6269531 12.301501 9.7085741 12.082031 9.8710938 C 11.769081 10.106823 11.611328 10.429387 11.611328 10.839844 C 11.611328 11.173122 11.718344 11.439491 11.929688 11.638672 C 11.962203 11.671176 11.99484 11.701932 12.027344 11.724609 C 12.145208 11.818342 12.391553 11.921392 12.769531 12.035156 C 13.094673 12.136826 13.32666 12.236473 13.464844 12.333984 C 13.672124 12.48029 13.775391 12.69587 13.775391 12.980469 C 13.775391 13.175644 13.724652 13.347622 13.623047 13.498047 C 13.456412 13.749952 13.21186 13.876953 12.886719 13.876953 C 12.598154 13.864859 12.355244 13.752291 12.160156 13.541016 C 12.046358 13.398754 11.975725 13.201313 11.947266 12.949219 L 11.464844 12.949219 C 11.481099 13.25812 11.57001 13.524677 11.728516 13.748047 C 11.98863 14.109596 12.369077 14.291016 12.873047 14.291016 C 13.210382 14.291016 13.502235 14.19307 13.746094 13.998047 C 14.071236 13.742022 14.232422 13.394032 14.232422 12.955078 C 14.216165 12.564917 14.06575 12.244282 13.78125 11.992188 C 13.614615 11.870109 13.337436 11.750734 12.947266 11.632812 C 12.926932 11.629033 12.906877 11.62084 12.890625 11.613281 C 12.581742 11.519549 12.378792 11.430869 12.28125 11.349609 C 12.139 11.219556 12.068359 11.045762 12.068359 10.826172 C 12.068359 10.663766 12.108167 10.516734 12.189453 10.386719 C 12.335767 10.155034 12.556979 10.039062 12.849609 10.039062 C 12.987793 10.039062 13.109015 10.067929 13.21875 10.125 C 13.486993 10.255054 13.63201 10.494144 13.652344 10.84375 L 14.123047 10.84375 C 14.114917 10.563309 14.038734 10.322479 13.896484 10.119141 C 13.664821 9.7897548 13.318639 9.625 12.859375 9.625 z M 4.8046875 9.7050781 L 4.8046875 14.208984 L 5.2558594 14.208984 L 5.2558594 10.199219 L 6.9453125 14.208984 L 7.3339844 14.208984 L 9.0273438 10.199219 L 9.0273438 14.208984 L 9.4785156 14.208984 L 9.4785156 9.7050781 L 8.7773438 9.7050781 L 7.1464844 13.539062 L 5.5058594 9.7050781 L 4.8046875 9.7050781 z M 10.414062 9.7050781 L 10.414062 14.208984 L 10.865234 14.208984 L 10.865234 9.7050781 L 10.414062 9.7050781 z "
       style="color:#444444;fill:#000000;stroke-width:1.66157901" />
  </g>
</svg>
