<?xml version="1.0" encoding="UTF-8" standalone="no"?>
<svg
   xmlns:dc="http://purl.org/dc/elements/1.1/"
   xmlns:cc="http://creativecommons.org/ns#"
   xmlns:rdf="http://www.w3.org/1999/02/22-rdf-syntax-ns#"
   xmlns:svg="http://www.w3.org/2000/svg"
   xmlns="http://www.w3.org/2000/svg"
   id="svg7"
   version="1.1"
   viewBox="0 0 24 24"
   height="24"
   width="24">
  <metadata
     id="metadata11">
    <rdf:RDF>
      <cc:Work
         rdf:about="">
        <dc:format>image/svg+xml</dc:format>
        <dc:type
           rdf:resource="http://purl.org/dc/dcmitype/StillImage" />
        <dc:title></dc:title>
      </cc:Work>
    </rdf:RDF>
  </metadata>
  <defs
     id="defs3">
    <style
       type="text/css"
       id="current-color-scheme">
   .ColorScheme-Text { color:#444444; } .ColorScheme-Highlight { color:#4285f4; }
  </style>
  </defs>
  <path
     id="path5"
     d="M 7.0664062 0.43359375 C 6.1503103 0.43359375 5.4121094 1.1717945 5.4121094 2.0878906 L 5.4121094 7.0488281 L 2.1054688 7.0488281 C 1.1893727 7.0488281 0.45117188 7.7850757 0.45117188 8.7011719 L 0.45117188 21.929688 C 0.45117188 22.845783 1.1893726 23.583984 2.1054688 23.583984 L 21.949219 23.583984 C 22.865315 23.583984 23.601563 22.845783 23.601562 21.929688 L 23.601562 8.7011719 C 23.601562 7.7850757 22.865315 7.0488281 21.949219 7.0488281 L 18.640625 7.0488281 L 18.640625 2.0878906 C 18.640625 1.1717945 17.904377 0.43359375 16.988281 0.43359375 L 7.0664062 0.43359375 z M 8.7207031 3.7402344 L 15.333984 3.7402344 L 15.333984 7.0488281 L 8.7207031 7.0488281 L 8.7207031 3.7402344 z M 12.007812 9.9960938 C 13.692095 9.9960938 15.029533 10.631442 16.019531 11.904297 L 16.173828 12.117188 L 16.173828 10.246094 L 17.599609 10.246094 L 17.599609 20.794922 L 16.173828 20.794922 L 16.173828 18.943359 C 15.325258 20.074786 14.341226 20.743505 13.222656 20.949219 C 12.875514 21.013504 12.502086 21.046875 12.103516 21.046875 C 10.367804 21.046875 8.9608576 20.45434 7.8808594 19.271484 C 6.9294324 18.255772 6.453125 17.01454 6.453125 15.548828 C 6.453125 13.877402 7.0389863 12.501873 8.2089844 11.421875 C 9.2504112 10.470448 10.516386 9.9960937 12.007812 9.9960938 z M 12.046875 11.306641 C 10.786877 11.306641 9.7447308 11.782948 8.921875 12.734375 C 8.394733 13.325803 8.0727453 14.012591 7.9570312 14.796875 C 7.9184599 15.015446 7.9003906 15.234554 7.9003906 15.453125 C 7.9003906 16.803123 8.3880931 17.896709 9.3652344 18.732422 C 10.149519 19.400992 11.068763 19.734375 12.123047 19.734375 C 13.383045 19.734375 14.411843 19.246673 15.208984 18.269531 C 15.85184 17.485247 16.173828 16.552654 16.173828 15.472656 C 16.173828 14.16123 15.690847 13.09434 14.726562 12.271484 C 13.967992 11.628628 13.075445 11.306641 12.046875 11.306641 z "
     style="color:#444444;fill:#000000;stroke-width:1.65360296" />
</svg>
