<?xml version="1.0" encoding="UTF-8" standalone="no"?>
<svg
   xmlns:dc="http://purl.org/dc/elements/1.1/"
   xmlns:cc="http://creativecommons.org/ns#"
   xmlns:rdf="http://www.w3.org/1999/02/22-rdf-syntax-ns#"
   xmlns:svg="http://www.w3.org/2000/svg"
   xmlns="http://www.w3.org/2000/svg"
   xmlns:sodipodi="http://sodipodi.sourceforge.net/DTD/sodipodi-0.dtd"
   xmlns:inkscape="http://www.inkscape.org/namespaces/inkscape"
   inkscape:version="1.0 (4035a4fb49, 2020-05-01)"
   sodipodi:docname="rewind-symbolic.svg"
   width="64"
   height="64"
   version="1.1"
   id="svg24">
  <sodipodi:namedview
     inkscape:document-rotation="0"
     inkscape:current-layer="svg24"
     inkscape:window-maximized="1"
     inkscape:window-y="40"
     inkscape:window-x="0"
     inkscape:cy="32"
     inkscape:cx="-17.084746"
     inkscape:zoom="3.6875"
     showgrid="false"
     id="namedview951"
     inkscape:window-height="898"
     inkscape:window-width="1920"
     inkscape:pageshadow="2"
     inkscape:pageopacity="0"
     guidetolerance="10"
     gridtolerance="10"
     objecttolerance="10"
     borderopacity="1"
     bordercolor="#666666"
     pagecolor="#ffffff" />
  <metadata
     id="metadata30">
    <rdf:RDF>
      <cc:Work
         rdf:about="">
        <dc:format>image/svg+xml</dc:format>
        <dc:type
           rdf:resource="http://purl.org/dc/dcmitype/StillImage" />
        <dc:title />
      </cc:Work>
    </rdf:RDF>
  </metadata>
  <defs
     id="defs28" />
  <path
     style="fill:#cccccc;stroke-width:1.425"
     d="M 32,3.4999995 A 28.5,28.5 0 0 0 3.5,32 28.5,28.5 0 0 0 32,60.500001 28.5,28.5 0 0 0 60.5,32.000001 28.5,28.5 0 0 0 32,3.4999995 Z m 0,4.275001 A 24.225,24.225 0 0 1 49.138966,14.9 H 38.025636 L 29.149999,31.863624 38.025636,49.1 H 49.136183 A 24.225,24.225 0 0 1 32,56.225 24.225,24.225 0 0 1 7.775,32 24.225,24.225 0 0 1 32,7.7750005 Z M 43.4,24.875 V 32 L 48.3875,28.4375 53.375,24.875 V 32 39.125001 L 48.3875,35.562501 43.4,32 v 7.125001 L 38.412501,35.562501 33.425001,32 l 4.9875,-3.5625 z"
     id="circle4" />
</svg>
