<?xml version="1.0" encoding="UTF-8" standalone="no"?>
<!-- Created with Inkscape (http://www.inkscape.org/) -->
<svg id="svg7384" xmlns:rdf="http://www.w3.org/1999/02/22-rdf-syntax-ns#" xmlns="http://www.w3.org/2000/svg" height="16" width="16" version="1.1" xmlns:cc="http://creativecommons.org/ns#" xmlns:dc="http://purl.org/dc/elements/1.1/">
 <metadata id="metadata90">
  <rdf:RDF>
   <cc:Work rdf:about="">
    <dc:format>image/svg+xml</dc:format>
    <dc:type rdf:resource="http://purl.org/dc/dcmitype/StillImage"/>
    <dc:title>Gnome Symbolic Icon Theme</dc:title>
   </cc:Work>
  </rdf:RDF>
 </metadata>
 <title id="title9167">Gnome Symbolic Icon Theme</title>
 <g id="layer9" transform="translate(-381 -337)">
  <path id="path9555" style="color:#bebebe;text-indent:0pt;text-transform:none;fill:#bebebe" d="m389 342.02c-1.6459 0-2.9825 1.3366-2.9825 2.9825s1.3366 2.9825 2.9825 2.9825 2.9825-1.3366 2.9825-2.9825-1.3366-2.9825-2.9825-2.9825z"/>
  <path id="path9557" style="block-progression:tb;text-indent:0pt;color:#bebebe;text-transform:none;fill:#bebebe" d="m388.97 338.06c-3.8578 0-7 3.1422-7 7s3.1422 7 7 7 7-3.1422 7-7-3.1422-7-7-7zm0 1c3.3212 0 6.0312 2.6788 6.0312 6s-2.7101 6-6.0312 6c-3.3212 0-6-2.6788-6-6s2.6788-6 6-6z"/>
 </g>
</svg>
