<?xml version="1.0" encoding="UTF-8" standalone="no"?>
<!-- Created with Inkscape (http://www.inkscape.org/) -->

<svg
   xmlns:dc="http://purl.org/dc/elements/1.1/"
   xmlns:cc="http://creativecommons.org/ns#"
   xmlns:rdf="http://www.w3.org/1999/02/22-rdf-syntax-ns#"
   xmlns:svg="http://www.w3.org/2000/svg"
   xmlns="http://www.w3.org/2000/svg"
   xmlns:sodipodi="http://sodipodi.sourceforge.net/DTD/sodipodi-0.dtd"
   xmlns:inkscape="http://www.inkscape.org/namespaces/inkscape"
   width="66mm"
   height="66mm"
   viewBox="0 0 66 66"
   version="1.1"
   id="svg8"
   inkscape:version="0.92.5 (2060ec1f9f, 2020-04-08)"
   sodipodi:docname="runner-layout-symbolic.svg">
  <defs
     id="defs2" />
  <sodipodi:namedview
     id="base"
     pagecolor="#ffffff"
     bordercolor="#666666"
     borderopacity="1.0"
     inkscape:pageopacity="0.0"
     inkscape:pageshadow="2"
     inkscape:zoom="2.8"
     inkscape:cx="40.004796"
     inkscape:cy="95.819857"
     inkscape:document-units="mm"
     inkscape:current-layer="layer1"
     showgrid="false"
     inkscape:window-width="2560"
     inkscape:window-height="1264"
     inkscape:window-x="0"
     inkscape:window-y="40"
     inkscape:window-maximized="1" />
  <metadata
     id="metadata5">
    <rdf:RDF>
      <cc:Work
         rdf:about="">
        <dc:format>image/svg+xml</dc:format>
        <dc:type
           rdf:resource="http://purl.org/dc/dcmitype/StillImage" />
        <dc:title />
      </cc:Work>
    </rdf:RDF>
  </metadata>
  <g
     inkscape:label="Layer 1"
     inkscape:groupmode="layer"
     id="layer1"
     transform="translate(0,-231)">
    <g
       id="g920"
       transform="translate(-8.0104166,-28.797229)">
      <path
         id="rect30565"
         d="m 8.3805343,260.3264 a 0.0890044,0.0890044 0 0 0 -0.087891,0.0879 v 2.64062 a 0.0890044,0.0890044 0 0 0 0.087891,0.0899 H 73.63835 a 0.0890044,0.0890044 0 0 0 0.08984,-0.0899 v -2.64062 a 0.0890044,0.0890044 0 0 0 -0.08984,-0.0879 z m 0.089844,0.17773 H 73.550458 v 2.46289 H 8.4703781 Z"
         style="color:#000000;font-style:normal;font-variant:normal;font-weight:normal;font-stretch:normal;font-size:medium;line-height:normal;font-family:sans-serif;font-variant-ligatures:normal;font-variant-position:normal;font-variant-caps:normal;font-variant-numeric:normal;font-variant-alternates:normal;font-feature-settings:normal;text-indent:0;text-align:start;text-decoration:none;text-decoration-line:none;text-decoration-style:solid;text-decoration-color:#000000;letter-spacing:normal;word-spacing:normal;text-transform:none;writing-mode:lr-tb;direction:ltr;text-orientation:mixed;dominant-baseline:auto;baseline-shift:baseline;text-anchor:start;white-space:normal;shape-padding:0;clip-rule:nonzero;display:inline;overflow:visible;visibility:visible;opacity:1;isolation:auto;mix-blend-mode:normal;color-interpolation:sRGB;color-interpolation-filters:linearRGB;solid-color:#000000;solid-opacity:1;vector-effect:none;fill:#000000;fill-opacity:1;fill-rule:nonzero;stroke:none;stroke-width:1;stroke-linecap:butt;stroke-linejoin:round;stroke-miterlimit:4;stroke-dasharray:none;stroke-dashoffset:0;stroke-opacity:1;color-rendering:auto;image-rendering:auto;shape-rendering:auto;text-rendering:auto;enable-background:accumulate"
         inkscape:connector-curvature="0" />
      <path
         id="path36245"
         d="m 63.636393,261.34593 -0.0021,0.54492 2.484374,0.01 0.0021,-0.54492 z m 3.576172,0.0137 -0.0021,0.54687 3.277344,0.0117 0.0039,-0.54492 z m 4.371096,0.0176 -0.0021,0.54687 0.958982,0.004 0.0021,-0.54688 z"
         style="color:#000000;font-style:normal;font-variant:normal;font-weight:normal;font-stretch:normal;font-size:medium;line-height:normal;font-family:sans-serif;font-variant-ligatures:normal;font-variant-position:normal;font-variant-caps:normal;font-variant-numeric:normal;font-variant-alternates:normal;font-feature-settings:normal;text-indent:0;text-align:start;text-decoration:none;text-decoration-line:none;text-decoration-style:solid;text-decoration-color:#000000;letter-spacing:normal;word-spacing:normal;text-transform:none;writing-mode:lr-tb;direction:ltr;text-orientation:mixed;dominant-baseline:auto;baseline-shift:baseline;text-anchor:start;white-space:normal;shape-padding:0;clip-rule:nonzero;display:inline;overflow:visible;visibility:visible;opacity:1;isolation:auto;mix-blend-mode:normal;color-interpolation:sRGB;color-interpolation-filters:linearRGB;solid-color:#000000;solid-opacity:1;vector-effect:none;fill:#000000;fill-opacity:1;fill-rule:evenodd;stroke:none;stroke-width:1;stroke-linecap:butt;stroke-linejoin:miter;stroke-miterlimit:4;stroke-dasharray:3.27800003, 1.09267001;stroke-dashoffset:0.79374999;stroke-opacity:1;color-rendering:auto;image-rendering:auto;shape-rendering:auto;text-rendering:auto;enable-background:accumulate"
         inkscape:connector-curvature="0" />
      <g
         style="fill:#000000;fill-opacity:1;stroke:none;stroke-opacity:1"
         transform="matrix(0.90643205,0,0,0.90643205,-75.344935,65.664285)"
         id="g27745" />
      <path
         id="path30067"
         d="m 40.005535,261.41624 -0.0039,0.40234 0.816407,0.006 0.0039,-0.40234 z m 1.621094,0.0137 -0.0039,0.40235 1.609375,0.0156 0.0039,-0.40234 z m 2.414061,0.0215 -0.0039,0.40234 0.312502,0.004 0.0039,-0.40235 z"
         style="color:#000000;font-style:normal;font-variant:normal;font-weight:normal;font-stretch:normal;font-size:medium;line-height:normal;font-family:sans-serif;font-variant-ligatures:normal;font-variant-position:normal;font-variant-caps:normal;font-variant-numeric:normal;font-variant-alternates:normal;font-feature-settings:normal;text-indent:0;text-align:start;text-decoration:none;text-decoration-line:none;text-decoration-style:solid;text-decoration-color:#000000;letter-spacing:normal;word-spacing:normal;text-transform:none;writing-mode:lr-tb;direction:ltr;text-orientation:mixed;dominant-baseline:auto;baseline-shift:baseline;text-anchor:start;white-space:normal;shape-padding:0;clip-rule:nonzero;display:inline;overflow:visible;visibility:visible;opacity:1;isolation:auto;mix-blend-mode:normal;color-interpolation:sRGB;color-interpolation-filters:linearRGB;solid-color:#000000;solid-opacity:1;vector-effect:none;fill:#000000;fill-opacity:1;fill-rule:evenodd;stroke:none;stroke-width:1;stroke-linecap:butt;stroke-linejoin:miter;stroke-miterlimit:4;stroke-dasharray:1.60947002, 0.80473501;stroke-dashoffset:0.79352897;stroke-opacity:1;color-rendering:auto;image-rendering:auto;shape-rendering:auto;text-rendering:auto;enable-background:accumulate"
         inkscape:connector-curvature="0" />
      <g
         style="fill:#000000;fill-opacity:1;stroke:none"
         transform="translate(28.311604,15.964044)"
         id="g27737">
        <g
           style="fill:#000000;fill-opacity:1;stroke:none;stroke-opacity:1"
           transform="translate(0,1.3832637)"
           id="g27766">
          <g
             style="fill:#000000;fill-opacity:1;stroke:none"
             transform="translate(0.49301922,0.65007253)"
             id="g10554">
            <g
               style="opacity:1;fill:#000000;fill-opacity:1;stroke:none"
               id="rect29160" />
            <g
               style="opacity:1;fill:#000000;fill-opacity:1;stroke:none"
               id="rect29162" />
            <g
               style="opacity:1;fill:#000000;fill-opacity:1;stroke:none"
               id="rect27687" />
            <g
               style="opacity:1;fill:#000000;fill-opacity:1;stroke:none"
               id="rect27689" />
            <g
               style="opacity:1;fill:#000000;fill-opacity:1;stroke:none"
               id="rect27691" />
            <g
               style="opacity:1;fill:#000000;fill-opacity:1;stroke:none"
               id="rect27693" />
            <g
               style="opacity:1;fill:#000000;fill-opacity:1;stroke:none"
               id="rect27711" />
          </g>
        </g>
      </g>
      <path
         id="path27747"
         d="m 11.433269,261.45921 -0.0039,0.31445 2.603516,0.0391 0.0039,-0.31445 z"
         style="color:#000000;font-style:normal;font-variant:normal;font-weight:normal;font-stretch:normal;font-size:medium;line-height:normal;font-family:sans-serif;font-variant-ligatures:normal;font-variant-position:normal;font-variant-caps:normal;font-variant-numeric:normal;font-variant-alternates:normal;font-feature-settings:normal;text-indent:0;text-align:start;text-decoration:none;text-decoration-line:none;text-decoration-style:solid;text-decoration-color:#000000;letter-spacing:normal;word-spacing:normal;text-transform:none;writing-mode:lr-tb;direction:ltr;text-orientation:mixed;dominant-baseline:auto;baseline-shift:baseline;text-anchor:start;white-space:normal;shape-padding:0;clip-rule:nonzero;display:inline;overflow:visible;visibility:visible;opacity:1;isolation:auto;mix-blend-mode:normal;color-interpolation:sRGB;color-interpolation-filters:linearRGB;solid-color:#000000;solid-opacity:1;vector-effect:none;fill:#000000;fill-opacity:1;fill-rule:evenodd;stroke:none;stroke-width:1;stroke-linecap:butt;stroke-linejoin:miter;stroke-miterlimit:4;stroke-dasharray:7.54970008, 7.54970008;stroke-dashoffset:0.79352897;stroke-opacity:1;color-rendering:auto;image-rendering:auto;shape-rendering:auto;text-rendering:auto;enable-background:accumulate"
         inkscape:connector-curvature="0" />
      <g
         style="fill:#000000;fill-opacity:1;stroke:none"
         transform="matrix(1.6825967,0,0,0.99948317,-10.381691,15.357074)"
         id="g10563">
        <path
           sodipodi:nodetypes="cccccccccccccccccccccccccccccccccccccccccccccccccccccccccccccccccccccccccccccccccccccccccccccccccccccccccccccccccccccccccccccccccccccccccccccccccccccccccccccccccccccccc"
           inkscape:connector-curvature="0"
           d="m 27.65625,273.91797 -0.002,0.54492 2.484375,0.0117 0.002,-0.54688 z m 3.576172,0.0137 -0.002,0.54688 3.277343,0.0117 0.0039,-0.54492 z m 4.371094,0.0176 -0.002,0.54687 0.958985,0.004 0.002,-0.54688 z m -7.947266,-3.23828 -0.002,0.54687 2.484375,0.01 0.002,-0.54492 z m 3.576172,0.0156 -0.002,0.54492 3.277343,0.0137 0.0039,-0.54688 z m 4.371094,0.0176 -0.002,0.54492 0.958985,0.004 0.002,-0.54492 z m -7.947266,-3.23828 -0.002,0.54687 2.484375,0.01 0.002,-0.54688 z m 3.576172,0.0137 -0.002,0.54688 3.277343,0.0137 0.0039,-0.54688 z m 4.371094,0.0176 -0.002,0.54687 0.958985,0.004 0.002,-0.54687 z m -7.947266,-3.23633 -0.002,0.54688 2.484375,0.01 0.002,-0.54687 z m 3.576172,0.0137 -0.002,0.54688 3.277343,0.0137 0.0039,-0.54688 z m 4.371094,0.0176 -0.002,0.54688 0.958985,0.004 0.002,-0.54687 z m -7.947266,-3.23633 -0.002,0.54492 2.484375,0.01 0.002,-0.54492 z m 3.576172,0.0137 -0.002,0.54687 3.277343,0.0117 0.0039,-0.54492 z m 4.371094,0.0176 -0.002,0.54688 0.958985,0.002 0.002,-0.54492 z m -7.947266,-3.23828 -0.002,0.54688 2.484375,0.01 0.002,-0.54687 z m 3.576172,0.0156 -0.002,0.54492 3.277343,0.0137 0.0039,-0.54687 z m 4.371094,0.0176 -0.002,0.54492 0.958985,0.004 0.002,-0.54687 z m -7.947266,-3.23829 -0.002,0.54688 2.484375,0.01 0.002,-0.54687 z m 3.576172,0.0137 -0.002,0.54687 3.277343,0.0137 0.0039,-0.54687 z m 4.371094,0.0176 -0.002,0.54688 0.958985,0.004 0.002,-0.54687 z m -11.440259,-1.07039 c -0.03103,-2.6e-4 -0.0564,0.0416 -0.05688,0.0938 v 2.44657 c -1.69e-4,0.053 0.02539,0.0961 0.05688,0.0958 h 1.50205 c 0.03149,2.6e-4 0.05705,-0.0428 0.05688,-0.0958 v -2.44657 c -4.84e-4,-0.0522 -0.02585,-0.0941 -0.05688,-0.0938 z m 6e-6,3.20867 c -0.03149,-2.6e-4 -0.05705,0.0428 -0.05688,0.0958 v 2.44462 c -1.69e-4,0.053 0.02539,0.0961 0.05688,0.0958 h 1.50205 c 0.03149,2.6e-4 0.05705,-0.0428 0.05688,-0.0958 v -2.44462 c 1.69e-4,-0.053 -0.02539,-0.0961 -0.05688,-0.0958 z m 6e-6,3.21063 c -0.03149,-2.6e-4 -0.05705,0.0428 -0.05688,0.0958 v 2.44462 c -1.69e-4,0.053 0.02539,0.0961 0.05688,0.0958 h 1.50205 c 0.03149,2.6e-4 0.05705,-0.0428 0.05688,-0.0958 v -2.44462 c 1.69e-4,-0.053 -0.02539,-0.0961 -0.05688,-0.0958 z m 6e-6,3.21066 c -0.03103,-2.6e-4 -0.0564,0.0416 -0.05688,0.0938 v 2.44658 c 4.84e-4,0.0522 0.02585,0.0941 0.05688,0.0938 h 1.50205 c 0.03103,2.6e-4 0.0564,-0.0416 0.05688,-0.0938 v -2.44658 c -4.84e-4,-0.0522 -0.02585,-0.0941 -0.05688,-0.0938 z m 6e-6,3.20873 c -0.03149,-2.6e-4 -0.05705,0.0428 -0.05688,0.0958 v 2.44463 c -1.69e-4,0.053 0.02539,0.0961 0.05688,0.0958 h 1.50205 c 0.03149,2.6e-4 0.05705,-0.0428 0.05688,-0.0958 v -2.44463 c 1.69e-4,-0.053 -0.02539,-0.0961 -0.05688,-0.0958 z m 6e-6,3.21061 c -0.03149,-2.6e-4 -0.05705,0.0428 -0.05688,0.0958 v 2.44461 c -1.69e-4,0.053 0.02539,0.0961 0.05688,0.0958 h 1.50205 c 0.03149,2.6e-4 0.05705,-0.0428 0.05688,-0.0958 v -2.44461 c 1.69e-4,-0.053 -0.02539,-0.0961 -0.05688,-0.0958 z m 6e-6,3.20865 c -0.03149,-2.6e-4 -0.05705,0.0428 -0.05688,0.0958 v 2.44462 c -1.69e-4,0.053 0.02539,0.0961 0.05688,0.0958 h 1.50205 c 0.03149,2.6e-4 0.05705,-0.0428 0.05688,-0.0958 v -2.44462 c 1.69e-4,-0.053 -0.02539,-0.0961 -0.05688,-0.0958 z"
           style="color:#000000;font-style:normal;font-variant:normal;font-weight:normal;font-stretch:normal;font-size:medium;line-height:normal;font-family:sans-serif;font-variant-ligatures:normal;font-variant-position:normal;font-variant-caps:normal;font-variant-numeric:normal;font-variant-alternates:normal;font-feature-settings:normal;text-indent:0;text-align:start;text-decoration:none;text-decoration-line:none;text-decoration-style:solid;text-decoration-color:#000000;letter-spacing:normal;word-spacing:normal;text-transform:none;writing-mode:lr-tb;direction:ltr;text-orientation:mixed;dominant-baseline:auto;baseline-shift:baseline;text-anchor:start;white-space:normal;shape-padding:0;clip-rule:nonzero;display:inline;overflow:visible;visibility:visible;opacity:1;isolation:auto;mix-blend-mode:normal;color-interpolation:sRGB;color-interpolation-filters:linearRGB;solid-color:#000000;solid-opacity:1;vector-effect:none;fill:#000000;fill-opacity:1;fill-rule:evenodd;stroke:none;stroke-linecap:butt;stroke-linejoin:miter;stroke-miterlimit:4;stroke-dasharray:3.278, 1.09267;stroke-dashoffset:0.79374999;stroke-opacity:1;color-rendering:auto;image-rendering:auto;shape-rendering:auto;text-rendering:auto;enable-background:accumulate"
           id="path36245-6-6" />
      </g>
      <path
         id="rect30567-1"
         d="m 27.607098,262.94358 a 0.08818332,0.08818332 0 0 0 -0.08789,0.0879 v 30.67774 a 0.08818332,0.08818332 0 0 0 0.08789,0.0879 h 26.80664 a 0.08818332,0.08818332 0 0 0 0.08789,-0.0879 v -30.67774 a 0.08818332,0.08818332 0 0 0 -0.08789,-0.0879 z m 0.08789,0.17579 h 26.63086 v 30.50195 h -26.63086 z"
         style="color:#000000;font-style:normal;font-variant:normal;font-weight:normal;font-stretch:normal;font-size:medium;line-height:normal;font-family:sans-serif;font-variant-ligatures:normal;font-variant-position:normal;font-variant-caps:normal;font-variant-numeric:normal;font-variant-alternates:normal;font-feature-settings:normal;text-indent:0;text-align:start;text-decoration:none;text-decoration-line:none;text-decoration-style:solid;text-decoration-color:#000000;letter-spacing:normal;word-spacing:normal;text-transform:none;writing-mode:lr-tb;direction:ltr;text-orientation:mixed;dominant-baseline:auto;baseline-shift:baseline;text-anchor:start;white-space:normal;shape-padding:0;clip-rule:nonzero;display:inline;overflow:visible;visibility:visible;opacity:1;isolation:auto;mix-blend-mode:normal;color-interpolation:sRGB;color-interpolation-filters:linearRGB;solid-color:#000000;solid-opacity:1;vector-effect:none;fill:#000000;fill-opacity:1;fill-rule:nonzero;stroke:none;stroke-width:1;stroke-linecap:butt;stroke-linejoin:round;stroke-miterlimit:4;stroke-dasharray:none;stroke-dashoffset:0;stroke-opacity:1;color-rendering:auto;image-rendering:auto;shape-rendering:auto;text-rendering:auto;enable-background:accumulate"
         inkscape:connector-curvature="0" />
      <g
         style="opacity:1;fill:#000000;fill-opacity:1;stroke:none"
         id="path30636"
         transform="translate(8.0035812,28.94749)">
        <path
           id="path1354"
           d="m 19.609793,237.10443 26.674055,0.0309"
           style="color:#000000;font-style:normal;font-variant:normal;font-weight:normal;font-stretch:normal;font-size:medium;line-height:normal;font-family:sans-serif;font-variant-ligatures:normal;font-variant-position:normal;font-variant-caps:normal;font-variant-numeric:normal;font-variant-alternates:normal;font-feature-settings:normal;text-indent:0;text-align:start;text-decoration:none;text-decoration-line:none;text-decoration-style:solid;text-decoration-color:#000000;letter-spacing:normal;word-spacing:normal;text-transform:none;writing-mode:lr-tb;direction:ltr;text-orientation:mixed;dominant-baseline:auto;baseline-shift:baseline;text-anchor:start;white-space:normal;shape-padding:0;clip-rule:nonzero;display:inline;overflow:visible;visibility:visible;isolation:auto;mix-blend-mode:normal;color-interpolation:sRGB;color-interpolation-filters:linearRGB;solid-color:#000000;solid-opacity:1;vector-effect:none;fill:#000000;fill-opacity:1;fill-rule:evenodd;stroke:none;stroke-width:0.25106001;stroke-linecap:butt;stroke-linejoin:miter;stroke-miterlimit:4;stroke-dasharray:none;stroke-dashoffset:0;stroke-opacity:1;color-rendering:auto;image-rendering:auto;shape-rendering:auto;text-rendering:auto;enable-background:accumulate"
           inkscape:connector-curvature="0" />
        <path
           id="path1356"
           d="m 19.609375,236.97852 v 0.25195 l 26.673828,0.0312 v -0.25195 z"
           style="color:#000000;font-style:normal;font-variant:normal;font-weight:normal;font-stretch:normal;font-size:medium;line-height:normal;font-family:sans-serif;font-variant-ligatures:normal;font-variant-position:normal;font-variant-caps:normal;font-variant-numeric:normal;font-variant-alternates:normal;font-feature-settings:normal;text-indent:0;text-align:start;text-decoration:none;text-decoration-line:none;text-decoration-style:solid;text-decoration-color:#000000;letter-spacing:normal;word-spacing:normal;text-transform:none;writing-mode:lr-tb;direction:ltr;text-orientation:mixed;dominant-baseline:auto;baseline-shift:baseline;text-anchor:start;white-space:normal;shape-padding:0;clip-rule:nonzero;display:inline;overflow:visible;visibility:visible;isolation:auto;mix-blend-mode:normal;color-interpolation:sRGB;color-interpolation-filters:linearRGB;solid-color:#000000;solid-opacity:1;vector-effect:none;fill:#000000;fill-opacity:1;fill-rule:evenodd;stroke:none;stroke-linecap:butt;stroke-linejoin:miter;stroke-miterlimit:4;stroke-dasharray:none;stroke-dashoffset:0;stroke-opacity:1;color-rendering:auto;image-rendering:auto;shape-rendering:auto;text-rendering:auto;enable-background:accumulate"
           inkscape:connector-curvature="0" />
      </g>
      <g
         transform="matrix(0.39247151,0,0,0.33553649,28.353376,263.48944)"
         style="fill:#000000;fill-opacity:1;stroke:none"
         id="use31418">
        <title
           id="title1307">Edit Find</title>
        <path
           style="fill:#000000;fill-opacity:1;stroke:none;stroke-width:0.26458299"
           inkscape:connector-curvature="0"
           d="m 1.7216437,0.27172708 c -0.80115828,0 -1.45785412,0.65616667 -1.45785412,1.45626662 0,0.8008938 0.65669584,1.4567959 1.45785412,1.4567959 0.8016875,0 1.4578542,-0.6561667 1.4578542,-1.4565313 0,-0.80009997 -0.6561667,-1.45600205 -1.4578542,-1.45600205 z m 0,0.5318125 c 0.5154084,0 0.9260417,0.41010412 0.9260417,0.92445412 0,0.5148792 -0.4106333,0.925248 -0.9260417,0.925248 -0.5151437,0 -0.92604162,-0.4101042 -0.92604162,-0.9249834 0,-0.51435 0.41089792,-0.92445413 0.92604162,-0.92445413 z"
           id="path1309" />
        <path
           style="fill:#000000;fill-opacity:1;stroke:none;stroke-width:0.26458299"
           inkscape:connector-curvature="0"
           d="M 2.5960917,2.3891875 A 0.26458333,0.26458333 0 0 0 2.4638,2.8442708 L 3.5221333,3.9026042 A 0.26614947,0.26614947 0 1 0 3.8944021,3.5221333 L 2.8360687,2.4638 A 0.26458333,0.26458333 0 0 0 2.5958271,2.3897167 Z"
           id="path1311" />
      </g>
      <path
         inkscape:connector-curvature="0"
         id="path1297"
         d="m 52.233129,263.6405 c 0,0 -0.544896,0.23024 -1.021709,0.562 h -1.49e-4 c -2.19e-4,1.6e-4 -5.29e-4,3.2e-4 -7.93e-4,4.8e-4 h 1.45e-4 c 0,0 0,4e-5 0,4e-5 h -1.45e-4 c 2.19e-4,1.6e-4 5.29e-4,3.2e-4 7.93e-4,4.8e-4 h 1.49e-4 c 0.476816,0.33176 1.021709,0.562 1.021709,0.562 v -9.3e-4 h 1.168646 v -0.56107 -9.3e-4 -0.56107 h -1.168646 z m 0.183267,0.19607 0.332959,0.28466 0.332962,-0.28466 0.103283,0.0883 -0.332959,0.28466 0.332959,0.28466 -0.103283,0.0883 -0.332962,-0.28466 -0.332959,0.28466 -0.103286,-0.0883 0.332962,-0.28466 -0.332962,-0.28466 z"
         style="color:#000000;display:inline;overflow:visible;visibility:visible;fill:#000000;fill-opacity:1;fill-rule:nonzero;stroke:none;stroke-width:0.0225116;marker:none;enable-background:accumulate" />
      <g
         style="fill:#000000;fill-opacity:1;stroke:none"
         id="g2840"
         transform="matrix(0.03998079,0,0,0.03998079,8.453173,260.43936)">
        <g
           id="g1139"
           style="fill:#000000;fill-opacity:1;stroke:none">
          <g
             style="fill:#000000;fill-opacity:1;stroke:none"
             id="g1144"
             transform="matrix(1.48656,0,0,1.48656,-15.403652,-13.20102)">
            <path
               id="rect14"
               d="m 17.337335,14.273518 h 29.52863 c 0.908826,0 1.64048,0.731653 1.64048,1.640479 v 6.561918 c 0,0.908825 -0.731654,1.640479 -1.64048,1.640479 h -29.52863 c -0.908826,0 -1.640479,-0.731654 -1.640479,-1.640479 v -6.561918 c 0,-0.908826 0.731653,-1.640479 1.640479,-1.640479 z"
               style="color:#000000;font-style:normal;font-variant:normal;font-weight:normal;font-stretch:normal;font-size:medium;line-height:normal;font-family:sans-serif;font-variant-ligatures:normal;font-variant-position:normal;font-variant-caps:normal;font-variant-numeric:normal;font-variant-alternates:normal;font-feature-settings:normal;text-indent:0;text-align:start;text-decoration:none;text-decoration-line:none;text-decoration-style:solid;text-decoration-color:#000000;letter-spacing:normal;word-spacing:normal;text-transform:none;writing-mode:lr-tb;direction:ltr;text-orientation:mixed;dominant-baseline:auto;baseline-shift:baseline;text-anchor:start;white-space:normal;shape-padding:0;clip-rule:nonzero;display:inline;overflow:visible;visibility:visible;opacity:1;isolation:auto;mix-blend-mode:normal;color-interpolation:sRGB;color-interpolation-filters:linearRGB;solid-color:#000000;solid-opacity:1;vector-effect:none;fill:#000000;fill-opacity:1;fill-rule:nonzero;stroke:none;stroke-width:1.64048004;stroke-linecap:butt;stroke-linejoin:miter;stroke-miterlimit:4;stroke-dasharray:none;stroke-dashoffset:0;stroke-opacity:1;color-rendering:auto;image-rendering:auto;shape-rendering:auto;text-rendering:auto;enable-background:accumulate"
               inkscape:connector-curvature="0" />
            <path
               id="rect18"
               d="m 40.30405,27.397354 h 6.561917 c 0.908826,0 1.64048,0.731654 1.64048,1.64048 v 16.404794 c 0,0.908825 -0.731654,1.640479 -1.64048,1.640479 H 40.30405 c -0.908826,0 -1.64048,-0.731654 -1.64048,-1.640479 V 29.037834 c 0,-0.908826 0.731654,-1.64048 1.64048,-1.64048 z"
               style="color:#000000;font-style:normal;font-variant:normal;font-weight:normal;font-stretch:normal;font-size:medium;line-height:normal;font-family:sans-serif;font-variant-ligatures:normal;font-variant-position:normal;font-variant-caps:normal;font-variant-numeric:normal;font-variant-alternates:normal;font-feature-settings:normal;text-indent:0;text-align:start;text-decoration:none;text-decoration-line:none;text-decoration-style:solid;text-decoration-color:#000000;letter-spacing:normal;word-spacing:normal;text-transform:none;writing-mode:lr-tb;direction:ltr;text-orientation:mixed;dominant-baseline:auto;baseline-shift:baseline;text-anchor:start;white-space:normal;shape-padding:0;clip-rule:nonzero;display:inline;overflow:visible;visibility:visible;opacity:1;isolation:auto;mix-blend-mode:normal;color-interpolation:sRGB;color-interpolation-filters:linearRGB;solid-color:#000000;solid-opacity:1;vector-effect:none;fill:#000000;fill-opacity:1;fill-rule:nonzero;stroke:none;stroke-width:1.64048004;stroke-linecap:butt;stroke-linejoin:miter;stroke-miterlimit:4;stroke-dasharray:none;stroke-dashoffset:0;stroke-opacity:1;color-rendering:auto;image-rendering:auto;shape-rendering:auto;text-rendering:auto;enable-background:accumulate"
               inkscape:connector-curvature="0" />
            <path
               id="rect22"
               d="m 17.337335,27.397354 h 16.404794 c 0.908826,0 1.640479,0.731654 1.640479,1.64048 v 16.404794 c 0,0.908825 -0.731653,1.640479 -1.640479,1.640479 H 17.337335 c -0.908826,0 -1.640479,-0.731654 -1.640479,-1.640479 V 29.037834 c 0,-0.908826 0.731653,-1.64048 1.640479,-1.64048 z"
               style="color:#000000;font-style:normal;font-variant:normal;font-weight:normal;font-stretch:normal;font-size:medium;line-height:normal;font-family:sans-serif;font-variant-ligatures:normal;font-variant-position:normal;font-variant-caps:normal;font-variant-numeric:normal;font-variant-alternates:normal;font-feature-settings:normal;text-indent:0;text-align:start;text-decoration:none;text-decoration-line:none;text-decoration-style:solid;text-decoration-color:#000000;letter-spacing:normal;word-spacing:normal;text-transform:none;writing-mode:lr-tb;direction:ltr;text-orientation:mixed;dominant-baseline:auto;baseline-shift:baseline;text-anchor:start;white-space:normal;shape-padding:0;clip-rule:nonzero;display:inline;overflow:visible;visibility:visible;opacity:1;isolation:auto;mix-blend-mode:normal;color-interpolation:sRGB;color-interpolation-filters:linearRGB;solid-color:#000000;solid-opacity:1;vector-effect:none;fill:#000000;fill-opacity:1;fill-rule:nonzero;stroke:none;stroke-width:1.64048004;stroke-linecap:butt;stroke-linejoin:miter;stroke-miterlimit:4;stroke-dasharray:none;stroke-dashoffset:0;stroke-opacity:1;color-rendering:auto;image-rendering:auto;shape-rendering:auto;text-rendering:auto;enable-background:accumulate"
               inkscape:connector-curvature="0" />
          </g>
        </g>
      </g>
      <path
         id="path36245-2"
         d="m 31.847332,263.91233 -0.002,0.54493 2.484375,0.01 0.002,-0.54492 z m 3.576172,0.0137 -0.0021,0.54687 3.277343,0.0117 0.0039,-0.54492 z m 4.371094,0.0176 -0.0021,0.54493 0.958985,0.004 0.0021,-0.54507 z"
         style="color:#000000;font-style:normal;font-variant:normal;font-weight:normal;font-stretch:normal;font-size:medium;line-height:normal;font-family:sans-serif;font-variant-ligatures:normal;font-variant-position:normal;font-variant-caps:normal;font-variant-numeric:normal;font-variant-alternates:normal;font-feature-settings:normal;text-indent:0;text-align:start;text-decoration:none;text-decoration-line:none;text-decoration-style:solid;text-decoration-color:#000000;letter-spacing:normal;word-spacing:normal;text-transform:none;writing-mode:lr-tb;direction:ltr;text-orientation:mixed;dominant-baseline:auto;baseline-shift:baseline;text-anchor:start;white-space:normal;shape-padding:0;clip-rule:nonzero;display:inline;overflow:visible;visibility:visible;opacity:1;isolation:auto;mix-blend-mode:normal;color-interpolation:sRGB;color-interpolation-filters:linearRGB;solid-color:#000000;solid-opacity:1;vector-effect:none;fill:#000000;fill-opacity:1;fill-rule:evenodd;stroke:none;stroke-width:1;stroke-linecap:butt;stroke-linejoin:miter;stroke-miterlimit:4;stroke-dasharray:3.27800003, 1.09267001;stroke-dashoffset:0.79374999;stroke-opacity:1;color-rendering:auto;image-rendering:auto;shape-rendering:auto;text-rendering:auto;enable-background:accumulate"
         inkscape:connector-curvature="0" />
    </g>
  </g>
</svg>
