<?xml version="1.0" encoding="UTF-8" standalone="no"?>
<svg
   xmlns:dc="http://purl.org/dc/elements/1.1/"
   xmlns:cc="http://creativecommons.org/ns#"
   xmlns:rdf="http://www.w3.org/1999/02/22-rdf-syntax-ns#"
   xmlns:svg="http://www.w3.org/2000/svg"
   xmlns="http://www.w3.org/2000/svg"
   xmlns:sodipodi="http://sodipodi.sourceforge.net/DTD/sodipodi-0.dtd"
   xmlns:inkscape="http://www.inkscape.org/namespaces/inkscape"
   inkscape:version="1.0 (4035a4fb49, 2020-05-01)"
   sodipodi:docname="saucer-symbolic.svg"
   width="64"
   height="64"
   version="1.1"
   id="svg24">
  <sodipodi:namedview
     inkscape:document-rotation="0"
     inkscape:current-layer="svg24"
     inkscape:window-maximized="1"
     inkscape:window-y="40"
     inkscape:window-x="0"
     inkscape:cy="32"
     inkscape:cx="-17.084746"
     inkscape:zoom="3.6875"
     showgrid="false"
     id="namedview953"
     inkscape:window-height="898"
     inkscape:window-width="1920"
     inkscape:pageshadow="2"
     inkscape:pageopacity="0"
     guidetolerance="10"
     gridtolerance="10"
     objecttolerance="10"
     borderopacity="1"
     bordercolor="#666666"
     pagecolor="#ffffff" />
  <metadata
     id="metadata30">
    <rdf:RDF>
      <cc:Work
         rdf:about="">
        <dc:format>image/svg+xml</dc:format>
        <dc:type
           rdf:resource="http://purl.org/dc/dcmitype/StillImage" />
        <dc:title />
      </cc:Work>
    </rdf:RDF>
  </metadata>
  <defs
     id="defs28" />
  <g
     id="g93"
     style="fill:#cccccc"
     transform="matrix(1.4449367,0,0,1.4449367,-2.6522693,-5.4801958)">
    <path
       id="path16-3"
       d="M 23.986328,7.8769531 A 19.97002,19.989605 0 0 0 4.2578125,24.869141 H 43.705078 A 19.97002,19.989605 0 0 0 23.986328,7.8769531 Z m 0,2.3398439 a 14.47297,14.487164 0 0 1 14.289063,12.3125 H 9.6875 a 14.47297,14.487164 0 0 1 14.298828,-12.3125 z"
       style="fill:#cccccc" />
    <path
       id="path16-3-5"
       d="M 23.987157,44.001023 A 19.97002,19.989605 0 0 1 4.2586421,27.008835 H 43.705907 a 19.97002,19.989605 0 0 1 -19.71875,16.992188 z m 0,-2.339844 A 14.47297,14.487164 0 0 0 38.27622,29.348679 H 9.6883297 a 14.47297,14.487164 0 0 0 14.2988273,12.3125 z"
       style="fill:#cccccc" />
  </g>
</svg>
