<?xml version="1.0" encoding="UTF-8" standalone="no"?>
<svg
   xmlns:dc="http://purl.org/dc/elements/1.1/"
   xmlns:cc="http://creativecommons.org/ns#"
   xmlns:rdf="http://www.w3.org/1999/02/22-rdf-syntax-ns#"
   xmlns:svg="http://www.w3.org/2000/svg"
   xmlns="http://www.w3.org/2000/svg"
   xmlns:sodipodi="http://sodipodi.sourceforge.net/DTD/sodipodi-0.dtd"
   xmlns:inkscape="http://www.inkscape.org/namespaces/inkscape"
   inkscape:version="1.0 (4035a4fb49, 2020-05-01)"
   sodipodi:docname="search-symbolic.svg"
   width="64"
   height="64"
   version="1.1"
   id="svg24">
  <sodipodi:namedview
     inkscape:document-rotation="0"
     inkscape:current-layer="svg24"
     inkscape:window-maximized="1"
     inkscape:window-y="40"
     inkscape:window-x="0"
     inkscape:cy="32"
     inkscape:cx="-17.084746"
     inkscape:zoom="3.6875"
     showgrid="false"
     id="namedview951"
     inkscape:window-height="898"
     inkscape:window-width="1920"
     inkscape:pageshadow="2"
     inkscape:pageopacity="0"
     guidetolerance="10"
     gridtolerance="10"
     objecttolerance="10"
     borderopacity="1"
     bordercolor="#666666"
     pagecolor="#ffffff" />
  <metadata
     id="metadata30">
    <rdf:RDF>
      <cc:Work
         rdf:about="">
        <dc:format>image/svg+xml</dc:format>
        <dc:type
           rdf:resource="http://purl.org/dc/dcmitype/StillImage" />
        <dc:title />
      </cc:Work>
    </rdf:RDF>
  </metadata>
  <defs
     id="defs28" />
  <path
     style="fill:#cccccc;stroke-width:0.127232"
     id="path2"
     d="M 60.5,56.549447 41.82232,37.617305 c 2.544643,-3.549778 4.058706,-7.91384 4.058706,-12.621432 0,-11.845313 -9.504241,-21.4895058 -21.184151,-21.4895058 C 13.00424,3.4936387 3.5,13.137842 3.5,24.983149 c 0,11.845312 9.50424,21.489511 21.184151,21.489511 5.063839,0 9.707812,-1.806693 13.359376,-4.822099 L 56.619418,60.493645 Z M 24.684151,41.510603 c -8.982589,0 -16.298436,-7.417628 -16.298436,-16.527455 0,-9.109821 7.315847,-16.5274487 16.298436,-16.5274487 8.982589,0 16.298438,7.4176277 16.298438,16.5274487 0,9.109827 -7.303126,16.527455 -16.298438,16.527455 z" />
</svg>
