<?xml version="1.0" encoding="UTF-8" standalone="no"?>
<svg
   xmlns:dc="http://purl.org/dc/elements/1.1/"
   xmlns:cc="http://creativecommons.org/ns#"
   xmlns:rdf="http://www.w3.org/1999/02/22-rdf-syntax-ns#"
   xmlns:svg="http://www.w3.org/2000/svg"
   xmlns="http://www.w3.org/2000/svg"
   xmlns:sodipodi="http://sodipodi.sourceforge.net/DTD/sodipodi-0.dtd"
   xmlns:inkscape="http://www.inkscape.org/namespaces/inkscape"
   inkscape:version="1.0 (4035a4fb49, 2020-05-01)"
   sodipodi:docname="shortcuts-symbolic.svg"
   id="svg9"
   version="1.1"
   height="24"
   width="24">
  <metadata
     id="metadata13">
    <rdf:RDF>
      <cc:Work
         rdf:about="">
        <dc:format>image/svg+xml</dc:format>
        <dc:type
           rdf:resource="http://purl.org/dc/dcmitype/StillImage" />
      </cc:Work>
    </rdf:RDF>
  </metadata>
  <sodipodi:namedview
     inkscape:current-layer="svg9"
     inkscape:window-maximized="1"
     inkscape:window-y="40"
     inkscape:window-x="0"
     inkscape:cy="21.359809"
     inkscape:cx="9.3711893"
     inkscape:zoom="10.871767"
     showgrid="false"
     id="namedview11"
     inkscape:window-height="898"
     inkscape:window-width="1920"
     inkscape:pageshadow="2"
     inkscape:pageopacity="0"
     guidetolerance="10"
     gridtolerance="10"
     objecttolerance="10"
     borderopacity="1"
     bordercolor="#666666"
     pagecolor="#ffffff" />
  <defs
     id="defs3">
    <style
       type="text/css"
       id="current-color-scheme">
   .ColorScheme-Text { color:#444444; } .ColorScheme-Highlight { color:#4285f4; }
  </style>
  </defs>
  <g
     id="g7"
     transform="matrix(1.46684,0,0,1.46684,0.26528,0.26528)">
    <path
       id="path5"
       d="M 5,3 C 0,3 0,8 0,8 0,8 0,13 5,13 H 7 V 11 H 5 C 2,11 2,8 2,8 2,8 2,5 5,5 H 7 V 3 Z m 4,0 v 2 h 2 c 3,0 3,3 3,3 0,0 0,3 -3,3 H 9 v 2 h 2 c 5,0 5,-5 5,-5 0,0 0,-5 -5,-5 z M 5,7 v 2 h 6 V 7 Z"
       class="ColorScheme-Text"
       style="fill:currentColor" />
  </g>
</svg>
