<?xml version="1.0" encoding="UTF-8" standalone="no"?>
<!-- Created with Inkscape (http://www.inkscape.org/) -->

<svg
   xmlns:dc="http://purl.org/dc/elements/1.1/"
   xmlns:cc="http://creativecommons.org/ns#"
   xmlns:rdf="http://www.w3.org/1999/02/22-rdf-syntax-ns#"
   xmlns:svg="http://www.w3.org/2000/svg"
   xmlns="http://www.w3.org/2000/svg"
   xmlns:sodipodi="http://sodipodi.sourceforge.net/DTD/sodipodi-0.dtd"
   xmlns:inkscape="http://www.inkscape.org/namespaces/inkscape"
   width="66mm"
   height="66mm"
   viewBox="0 0 66 66"
   version="1.1"
   id="svg8"
   inkscape:version="0.92.5 (2060ec1f9f, 2020-04-08)"
   sodipodi:docname="simple-layout-symbolic.svg">
  <defs
     id="defs2" />
  <sodipodi:namedview
     id="base"
     pagecolor="#ffffff"
     bordercolor="#666666"
     borderopacity="1.0"
     inkscape:pageopacity="0.0"
     inkscape:pageshadow="2"
     inkscape:zoom="2.8"
     inkscape:cx="40.004796"
     inkscape:cy="38.677"
     inkscape:document-units="mm"
     inkscape:current-layer="layer1"
     showgrid="false"
     inkscape:window-width="2560"
     inkscape:window-height="1264"
     inkscape:window-x="0"
     inkscape:window-y="40"
     inkscape:window-maximized="1" />
  <metadata
     id="metadata5">
    <rdf:RDF>
      <cc:Work
         rdf:about="">
        <dc:format>image/svg+xml</dc:format>
        <dc:type
           rdf:resource="http://purl.org/dc/dcmitype/StillImage" />
        <dc:title />
      </cc:Work>
    </rdf:RDF>
  </metadata>
  <g
     inkscape:label="Layer 1"
     inkscape:groupmode="layer"
     id="layer1"
     transform="translate(0,-231)">
    <g
       id="g980"
       transform="translate(-6.4040179,-14.552083)">
      <g
         style="fill:#000000;fill-opacity:1;stroke:none"
         id="g1092"
         transform="translate(6.3161268,14.833425)">
        <path
           id="rect30565-6"
           d="m 0.7265625,290.11523 a 0.13230472,0.13230472 0 0 0 -0.13085938,0.13282 v 5.86523 a 0.13230472,0.13230472 0 0 0 0.13085938,0.13086 H 65.650391 a 0.13230472,0.13230472 0 0 0 0.132812,-0.13086 v -5.86523 a 0.13230472,0.13230472 0 0 0 -0.132812,-0.13282 z m 0.1328125,0.26563 h 64.658203 v 5.59961 H 0.859375 Z"
           style="color:#000000;font-style:normal;font-variant:normal;font-weight:normal;font-stretch:normal;font-size:medium;line-height:normal;font-family:sans-serif;font-variant-ligatures:normal;font-variant-position:normal;font-variant-caps:normal;font-variant-numeric:normal;font-variant-alternates:normal;font-feature-settings:normal;text-indent:0;text-align:start;text-decoration:none;text-decoration-line:none;text-decoration-style:solid;text-decoration-color:#000000;letter-spacing:normal;word-spacing:normal;text-transform:none;writing-mode:lr-tb;direction:ltr;text-orientation:mixed;dominant-baseline:auto;baseline-shift:baseline;text-anchor:start;white-space:normal;shape-padding:0;clip-rule:nonzero;display:inline;overflow:visible;visibility:visible;opacity:1;isolation:auto;mix-blend-mode:normal;color-interpolation:sRGB;color-interpolation-filters:linearRGB;solid-color:#000000;solid-opacity:1;vector-effect:none;fill:#000000;fill-opacity:1;fill-rule:nonzero;stroke:none;stroke-linecap:butt;stroke-linejoin:round;stroke-miterlimit:4;stroke-dasharray:none;stroke-dashoffset:0;stroke-opacity:1;color-rendering:auto;image-rendering:auto;shape-rendering:auto;text-rendering:auto;enable-background:accumulate"
           inkscape:connector-curvature="0" />
        <path
           id="path36245-0"
           d="m 51.316406,293.01758 -0.002,0.79492 3.96875,0.0156 0.002,-0.79492 z m 5.556641,0.0215 -0.0039,0.79492 4.763671,0.0195 0.002,-0.79493 z m 6.349609,0.0254 -0.002,0.79493 1.03125,0.004 0.0039,-0.79492 z"
           style="color:#000000;font-style:normal;font-variant:normal;font-weight:normal;font-stretch:normal;font-size:medium;line-height:normal;font-family:sans-serif;font-variant-ligatures:normal;font-variant-position:normal;font-variant-caps:normal;font-variant-numeric:normal;font-variant-alternates:normal;font-feature-settings:normal;text-indent:0;text-align:start;text-decoration:none;text-decoration-line:none;text-decoration-style:solid;text-decoration-color:#000000;letter-spacing:normal;word-spacing:normal;text-transform:none;writing-mode:lr-tb;direction:ltr;text-orientation:mixed;dominant-baseline:auto;baseline-shift:baseline;text-anchor:start;white-space:normal;shape-padding:0;clip-rule:nonzero;display:inline;overflow:visible;visibility:visible;opacity:1;isolation:auto;mix-blend-mode:normal;color-interpolation:sRGB;color-interpolation-filters:linearRGB;solid-color:#000000;solid-opacity:1;vector-effect:none;fill:#000000;fill-opacity:1;fill-rule:evenodd;stroke:none;stroke-linecap:butt;stroke-linejoin:miter;stroke-miterlimit:4;stroke-dasharray:4.7625, 1.5875;stroke-dashoffset:0.79374999;stroke-opacity:1;color-rendering:auto;image-rendering:auto;shape-rendering:auto;text-rendering:auto;enable-background:accumulate"
           inkscape:connector-curvature="0" />
        <g
           style="fill:#000000;fill-opacity:1;stroke:none"
           id="g2840"
           transform="matrix(0.07586098,0,0,0.07586098,1.0123285,290.72228)">
          <g
             id="g1139"
             style="fill:#000000;fill-opacity:1;stroke:none">
            <g
               style="fill:#000000;fill-opacity:1;stroke:none"
               id="g1144"
               transform="matrix(1.48656,0,0,1.48656,-15.403652,-13.20102)">
              <path
                 id="rect14"
                 d="m 17.337335,14.273518 h 29.52863 c 0.908826,0 1.64048,0.731653 1.64048,1.640479 v 6.561918 c 0,0.908825 -0.731654,1.640479 -1.64048,1.640479 h -29.52863 c -0.908826,0 -1.640479,-0.731654 -1.640479,-1.640479 v -6.561918 c 0,-0.908826 0.731653,-1.640479 1.640479,-1.640479 z"
                 style="color:#000000;font-style:normal;font-variant:normal;font-weight:normal;font-stretch:normal;font-size:medium;line-height:normal;font-family:sans-serif;font-variant-ligatures:normal;font-variant-position:normal;font-variant-caps:normal;font-variant-numeric:normal;font-variant-alternates:normal;font-feature-settings:normal;text-indent:0;text-align:start;text-decoration:none;text-decoration-line:none;text-decoration-style:solid;text-decoration-color:#000000;letter-spacing:normal;word-spacing:normal;text-transform:none;writing-mode:lr-tb;direction:ltr;text-orientation:mixed;dominant-baseline:auto;baseline-shift:baseline;text-anchor:start;white-space:normal;shape-padding:0;clip-rule:nonzero;display:inline;overflow:visible;visibility:visible;opacity:1;isolation:auto;mix-blend-mode:normal;color-interpolation:sRGB;color-interpolation-filters:linearRGB;solid-color:#000000;solid-opacity:1;vector-effect:none;fill:#000000;fill-opacity:1;fill-rule:nonzero;stroke:none;stroke-width:1.64048004;stroke-linecap:butt;stroke-linejoin:miter;stroke-miterlimit:4;stroke-dasharray:none;stroke-dashoffset:0;stroke-opacity:1;color-rendering:auto;image-rendering:auto;shape-rendering:auto;text-rendering:auto;enable-background:accumulate"
                 inkscape:connector-curvature="0" />
              <path
                 id="rect18"
                 d="m 40.30405,27.397354 h 6.561917 c 0.908826,0 1.64048,0.731654 1.64048,1.64048 v 16.404794 c 0,0.908825 -0.731654,1.640479 -1.64048,1.640479 H 40.30405 c -0.908826,0 -1.64048,-0.731654 -1.64048,-1.640479 V 29.037834 c 0,-0.908826 0.731654,-1.64048 1.64048,-1.64048 z"
                 style="color:#000000;font-style:normal;font-variant:normal;font-weight:normal;font-stretch:normal;font-size:medium;line-height:normal;font-family:sans-serif;font-variant-ligatures:normal;font-variant-position:normal;font-variant-caps:normal;font-variant-numeric:normal;font-variant-alternates:normal;font-feature-settings:normal;text-indent:0;text-align:start;text-decoration:none;text-decoration-line:none;text-decoration-style:solid;text-decoration-color:#000000;letter-spacing:normal;word-spacing:normal;text-transform:none;writing-mode:lr-tb;direction:ltr;text-orientation:mixed;dominant-baseline:auto;baseline-shift:baseline;text-anchor:start;white-space:normal;shape-padding:0;clip-rule:nonzero;display:inline;overflow:visible;visibility:visible;opacity:1;isolation:auto;mix-blend-mode:normal;color-interpolation:sRGB;color-interpolation-filters:linearRGB;solid-color:#000000;solid-opacity:1;vector-effect:none;fill:#000000;fill-opacity:1;fill-rule:nonzero;stroke:none;stroke-width:1.64048004;stroke-linecap:butt;stroke-linejoin:miter;stroke-miterlimit:4;stroke-dasharray:none;stroke-dashoffset:0;stroke-opacity:1;color-rendering:auto;image-rendering:auto;shape-rendering:auto;text-rendering:auto;enable-background:accumulate"
                 inkscape:connector-curvature="0" />
              <path
                 id="rect22"
                 d="m 17.337335,27.397354 h 16.404794 c 0.908826,0 1.640479,0.731654 1.640479,1.64048 v 16.404794 c 0,0.908825 -0.731653,1.640479 -1.640479,1.640479 H 17.337335 c -0.908826,0 -1.640479,-0.731654 -1.640479,-1.640479 V 29.037834 c 0,-0.908826 0.731653,-1.64048 1.640479,-1.64048 z"
                 style="color:#000000;font-style:normal;font-variant:normal;font-weight:normal;font-stretch:normal;font-size:medium;line-height:normal;font-family:sans-serif;font-variant-ligatures:normal;font-variant-position:normal;font-variant-caps:normal;font-variant-numeric:normal;font-variant-alternates:normal;font-feature-settings:normal;text-indent:0;text-align:start;text-decoration:none;text-decoration-line:none;text-decoration-style:solid;text-decoration-color:#000000;letter-spacing:normal;word-spacing:normal;text-transform:none;writing-mode:lr-tb;direction:ltr;text-orientation:mixed;dominant-baseline:auto;baseline-shift:baseline;text-anchor:start;white-space:normal;shape-padding:0;clip-rule:nonzero;display:inline;overflow:visible;visibility:visible;opacity:1;isolation:auto;mix-blend-mode:normal;color-interpolation:sRGB;color-interpolation-filters:linearRGB;solid-color:#000000;solid-opacity:1;vector-effect:none;fill:#000000;fill-opacity:1;fill-rule:nonzero;stroke:none;stroke-width:1.64048004;stroke-linecap:butt;stroke-linejoin:miter;stroke-miterlimit:4;stroke-dasharray:none;stroke-dashoffset:0;stroke-opacity:1;color-rendering:auto;image-rendering:auto;shape-rendering:auto;text-rendering:auto;enable-background:accumulate"
                 inkscape:connector-curvature="0" />
            </g>
          </g>
        </g>
      </g>
      <path
         id="path30569"
         d="m 24.425502,258.09124 -0.253906,0.002 0.232422,46.17578 0.255859,-0.002 z"
         style="color:#000000;font-style:normal;font-variant:normal;font-weight:normal;font-stretch:normal;font-size:medium;line-height:normal;font-family:sans-serif;font-variant-ligatures:normal;font-variant-position:normal;font-variant-caps:normal;font-variant-numeric:normal;font-variant-alternates:normal;font-feature-settings:normal;text-indent:0;text-align:start;text-decoration:none;text-decoration-line:none;text-decoration-style:solid;text-decoration-color:#000000;letter-spacing:normal;word-spacing:normal;text-transform:none;writing-mode:lr-tb;direction:ltr;text-orientation:mixed;dominant-baseline:auto;baseline-shift:baseline;text-anchor:start;white-space:normal;shape-padding:0;clip-rule:nonzero;display:inline;overflow:visible;visibility:visible;opacity:1;isolation:auto;mix-blend-mode:normal;color-interpolation:sRGB;color-interpolation-filters:linearRGB;solid-color:#000000;solid-opacity:1;vector-effect:none;fill:#000000;fill-opacity:1;fill-rule:evenodd;stroke:none;stroke-width:1;stroke-linecap:butt;stroke-linejoin:miter;stroke-miterlimit:4;stroke-dasharray:none;stroke-dashoffset:0;stroke-opacity:1;color-rendering:auto;image-rendering:auto;shape-rendering:auto;text-rendering:auto;enable-background:accumulate"
         inkscape:connector-curvature="0" />
      <g
         style="fill:#000000;fill-opacity:1;stroke:none"
         transform="translate(-12.562634,15.210319)"
         id="g27430">
        <g
           style="fill:#000000;fill-opacity:1;stroke:none"
           id="g29146"
           transform="matrix(0.82028929,0,0,0.72101717,46.353903,68.323837)">
          <g
             style="fill:#000000;fill-opacity:1;stroke:none"
             id="g27405"
             transform="matrix(0.93454954,0,0,0.93454954,-33.227493,23.523971)">
            <g
               style="opacity:1;fill:#000000;fill-opacity:1;stroke:none"
               id="rect27389" />
            <g
               style="opacity:1;fill:#000000;fill-opacity:1;stroke:none"
               id="rect27391" />
            <g
               style="opacity:1;fill:#000000;fill-opacity:1;stroke:none"
               id="rect27393" />
            <g
               style="opacity:1;fill:#000000;fill-opacity:1;stroke:none"
               id="rect27395" />
            <g
               style="opacity:1;fill:#000000;fill-opacity:1;stroke:none"
               id="rect27397" />
            <g
               style="opacity:1;fill:#000000;fill-opacity:1;stroke:none"
               id="rect27399" />
            <g
               style="opacity:1;fill:#000000;fill-opacity:1;stroke:none"
               id="rect27401" />
            <g
               style="opacity:1;fill:#000000;fill-opacity:1;stroke:none"
               id="rect27403" />
          </g>
        </g>
        <g
           style="fill:#000000;fill-opacity:1;stroke:none"
           id="g29219"
           transform="translate(48.469948,13.769639)">
          <g
             style="opacity:1;fill:#000000;fill-opacity:1;stroke:none"
             id="rect29150" />
          <g
             style="opacity:1;fill:#000000;fill-opacity:1;stroke:none"
             id="rect29152" />
          <g
             style="opacity:1;fill:#000000;fill-opacity:1;stroke:none"
             id="rect29158" />
          <g
             style="opacity:1;fill:#000000;fill-opacity:1;stroke:none"
             id="rect29160" />
          <g
             style="opacity:1;fill:#000000;fill-opacity:1;stroke:none"
             id="rect29162" />
          <path
             sodipodi:nodetypes="cccccccccccccccccccccccccccccccccccccccccccccccccccccccccccccccccccccccccccccccccccccccccccccccccccccccccccccccccccccccccccccccccccccccccccccccccccccccccccccccccccccscccccccccccccccc"
             inkscape:connector-curvature="0"
             d="m -23.605469,258.83789 -0.002,0.20313 10.615234,0.0371 V 258.875 Z m 0.0957,3.69727 -0.002,0.20312 10.615235,0.0371 v -0.20312 z m -0.05273,3.23242 v 0.20508 l 10.613281,0.0371 0.002,-0.20508 z m 0.0957,3.15625 v 0.20312 l 10.613281,0.0371 0.002,-0.20312 z m 0.0039,3.23242 v 0.20313 l 10.613282,0.0371 0.002,-0.20312 z m -4.519531,-8.24219 c -0.05296,-2.6e-4 -0.09596,0.0427 -0.0957,0.0957 v 2.44335 c -2.57e-4,0.053 0.04274,0.096 0.0957,0.0957 h 2.527344 c 0.05296,2.6e-4 0.09596,-0.0427 0.0957,-0.0957 v -2.44335 c 2.57e-4,-0.053 -0.04274,-0.096 -0.0957,-0.0957 z m -2e-6,2.92967 c -0.05296,-2.6e-4 -0.09596,0.0427 -0.0957,0.0957 v 2.44336 c -2.57e-4,0.053 0.04274,0.096 0.0957,0.0957 h 2.527344 c 0.05296,2.6e-4 0.09596,-0.0427 0.0957,-0.0957 v -2.44336 c 2.57e-4,-0.053 -0.04274,-0.096 -0.0957,-0.0957 z m -2e-6,3.15817 c -0.05218,-2.6e-4 -0.09486,0.0415 -0.0957,0.0937 v 2.44532 c 8.43e-4,0.0522 0.04352,0.094 0.0957,0.0937 h 2.527344 c 0.05218,2.6e-4 0.09486,-0.0415 0.0957,-0.0937 v -2.44532 c -8.43e-4,-0.0522 -0.04352,-0.094 -0.0957,-0.0937 z m -2e-6,-12.38085 c -0.05218,-2.6e-4 -0.09486,0.0415 -0.0957,0.0937 v 2.44532 c 8.43e-4,0.0522 0.04352,0.094 0.0957,0.0937 h 2.527344 c 0.05218,2.6e-4 0.09486,-0.0415 0.0957,-0.0937 v -2.44532 c -8.43e-4,-0.0522 -0.04352,-0.094 -0.0957,-0.0937 z m -2e-6,3.1738 c -0.05296,-2.6e-4 -0.09596,0.0427 -0.0957,0.0957 v 2.44336 c -2.57e-4,0.053 0.04274,0.096 0.0957,0.0957 h 2.527344 c 0.05296,2.6e-4 0.09596,-0.0427 0.0957,-0.0957 v -2.44336 c 2.57e-4,-0.053 -0.04274,-0.096 -0.0957,-0.0957 z m 4.280911,-24.77254 v 0.19152 l 10.612493,0.0366 0.0016,-0.19151 z m 0.04486,3.53045 -0.0016,0.19011 10.614095,0.038 v -0.19152 z m 0.05127,3.40793 -0.0016,0.19011 10.614095,0.0366 0.0016,-0.19011 z m 0.09453,3.69803 v 0.19011 l 10.614095,0.038 v -0.19151 z m -0.05127,3.23191 v 0.19151 l 10.614095,0.0366 v -0.19011 z m 0.09613,3.15585 -0.0016,0.19011 10.614095,0.038 0.0016,-0.19152 z m 0.0032,3.23332 v 0.19011 l 10.614095,0.0366 v -0.19011 z m 0,-23.69641 v 0.19012 l 10.614095,0.0366 v -0.19012 z m -4.518448,15.45334 c -0.05629,-1.1e-4 -0.101946,0.04 -0.101814,0.0895 v 2.44394 c -1.32e-4,0.0495 0.04553,0.0896 0.101814,0.0895 h 2.527387 c 0.05629,1.1e-4 0.101947,-0.04 0.101815,-0.0895 v -2.44394 c 1.32e-4,-0.0495 -0.04553,-0.0896 -0.101815,-0.0895 z m 0,2.92962 c -0.05629,-1.1e-4 -0.101946,0.04 -0.101814,0.0895 v 2.44393 c -1.32e-4,0.0495 0.04553,0.0896 0.101814,0.0895 h 2.527387 c 0.05629,1.1e-4 0.101947,-0.04 0.101815,-0.0895 v -2.44393 c 1.32e-4,-0.0495 -0.04553,-0.0896 -0.101815,-0.0895 z m 0,3.15725 c -0.05629,-1.1e-4 -0.101946,0.04 -0.101814,0.0895 v 2.44394 c -1.32e-4,0.0495 0.04553,0.0896 0.101814,0.0895 h 2.527387 c 0.05629,1.1e-4 0.101947,-0.04 0.101815,-0.0895 v -2.44394 c 1.32e-4,-0.0495 -0.04553,-0.0896 -0.101815,-0.0895 z m 0,-18.83288 c -0.05629,-1.1e-4 -0.101946,0.04 -0.101814,0.0895 v 2.44393 c -1.32e-4,0.0495 0.04553,0.0896 0.101814,0.0895 h 2.527387 c 0.05629,1.1e-4 0.101947,-0.04 0.101815,-0.0895 v -2.44393 c 1.32e-4,-0.0495 -0.04553,-0.0896 -0.101815,-0.0895 z m 0,3.2533 c -0.05629,-1.1e-4 -0.101946,0.04 -0.101814,0.0895 v 2.44393 c -1.32e-4,0.0495 0.04553,0.0896 0.101814,0.0895 h 2.527387 c 0.05629,1.1e-4 0.101947,-0.04 0.101815,-0.0895 v -2.44393 c 1.32e-4,-0.0495 -0.04553,-0.0896 -0.101815,-0.0895 z m 0,3.1994 c -0.05571,-1.1e-4 -0.101133,0.0392 -0.101814,0.0882 v 2.44393 c -1.32e-4,0.0495 0.04553,0.0896 0.101814,0.0895 h 2.527387 c 0.05629,1.1e-4 0.101947,-0.04 0.101815,-0.0895 v -2.44393 c -6.81e-4,-0.049 -0.0461,-0.0883 -0.101815,-0.0882 z m 0,3.17434 c -0.05629,-1.1e-4 -0.101946,0.04 -0.101814,0.0895 v 2.44393 c -1.32e-4,0.0495 0.04553,0.0896 0.101814,0.0895 h 2.527387 c 0.05629,1.1e-4 0.101947,-0.04 0.101815,-0.0895 v -2.44393 c 1.32e-4,-0.0495 -0.04553,-0.0896 -0.101815,-0.0895 z m 0,-12.93692 c -0.05629,-1.1e-4 -0.101946,0.04 -0.101814,0.0895 v 2.44393 c -1.32e-4,0.0495 0.04553,0.0896 0.101814,0.0895 h 2.527387 c 0.05629,1.1e-4 0.101947,-0.04 0.101815,-0.0895 v -2.44393 c 1.32e-4,-0.0495 -0.04553,-0.0896 -0.101815,-0.0895 z"
             style="color:#000000;font-style:normal;font-variant:normal;font-weight:normal;font-stretch:normal;font-size:medium;line-height:normal;font-family:sans-serif;font-variant-ligatures:normal;font-variant-position:normal;font-variant-caps:normal;font-variant-numeric:normal;font-variant-alternates:normal;font-feature-settings:normal;text-indent:0;text-align:start;text-decoration:none;text-decoration-line:none;text-decoration-style:solid;text-decoration-color:#000000;letter-spacing:normal;word-spacing:normal;text-transform:none;writing-mode:lr-tb;direction:ltr;text-orientation:mixed;dominant-baseline:auto;baseline-shift:baseline;text-anchor:start;white-space:normal;shape-padding:0;clip-rule:nonzero;display:inline;overflow:visible;visibility:visible;opacity:1;isolation:auto;mix-blend-mode:normal;color-interpolation:sRGB;color-interpolation-filters:linearRGB;solid-color:#000000;solid-opacity:1;vector-effect:none;fill:#000000;fill-opacity:1;fill-rule:evenodd;stroke:none;stroke-linecap:butt;stroke-linejoin:miter;stroke-miterlimit:4;stroke-dasharray:none;stroke-dashoffset:0.26458299;stroke-opacity:1;color-rendering:auto;image-rendering:auto;shape-rendering:auto;text-rendering:auto;enable-background:accumulate"
             id="path29176" />
        </g>
      </g>
      <g
         style="opacity:1;fill:#000000;fill-opacity:1;stroke:none"
         id="path29221"
         transform="translate(6.3161268,14.833425)">
        <path
           id="path1173"
           d="m 18.311763,277.75566 19.005151,0.051"
           style="color:#000000;font-style:normal;font-variant:normal;font-weight:normal;font-stretch:normal;font-size:medium;line-height:normal;font-family:sans-serif;font-variant-ligatures:normal;font-variant-position:normal;font-variant-caps:normal;font-variant-numeric:normal;font-variant-alternates:normal;font-feature-settings:normal;text-indent:0;text-align:start;text-decoration:none;text-decoration-line:none;text-decoration-style:solid;text-decoration-color:#000000;letter-spacing:normal;word-spacing:normal;text-transform:none;writing-mode:lr-tb;direction:ltr;text-orientation:mixed;dominant-baseline:auto;baseline-shift:baseline;text-anchor:start;white-space:normal;shape-padding:0;clip-rule:nonzero;display:inline;overflow:visible;visibility:visible;isolation:auto;mix-blend-mode:normal;color-interpolation:sRGB;color-interpolation-filters:linearRGB;solid-color:#000000;solid-opacity:1;vector-effect:none;fill:#000000;fill-opacity:1;fill-rule:evenodd;stroke:none;stroke-width:0.272535;stroke-linecap:butt;stroke-linejoin:miter;stroke-miterlimit:4;stroke-dasharray:none;stroke-dashoffset:0;stroke-opacity:1;color-rendering:auto;image-rendering:auto;shape-rendering:auto;text-rendering:auto;enable-background:accumulate"
           inkscape:connector-curvature="0" />
        <path
           id="path1175"
           d="m 18.3125,277.61914 -0.002,0.27344 19.005859,0.0508 v -0.27344 z"
           style="color:#000000;font-style:normal;font-variant:normal;font-weight:normal;font-stretch:normal;font-size:medium;line-height:normal;font-family:sans-serif;font-variant-ligatures:normal;font-variant-position:normal;font-variant-caps:normal;font-variant-numeric:normal;font-variant-alternates:normal;font-feature-settings:normal;text-indent:0;text-align:start;text-decoration:none;text-decoration-line:none;text-decoration-style:solid;text-decoration-color:#000000;letter-spacing:normal;word-spacing:normal;text-transform:none;writing-mode:lr-tb;direction:ltr;text-orientation:mixed;dominant-baseline:auto;baseline-shift:baseline;text-anchor:start;white-space:normal;shape-padding:0;clip-rule:nonzero;display:inline;overflow:visible;visibility:visible;isolation:auto;mix-blend-mode:normal;color-interpolation:sRGB;color-interpolation-filters:linearRGB;solid-color:#000000;solid-opacity:1;vector-effect:none;fill:#000000;fill-opacity:1;fill-rule:evenodd;stroke:none;stroke-linecap:butt;stroke-linejoin:miter;stroke-miterlimit:4;stroke-dasharray:none;stroke-dashoffset:0;stroke-opacity:1;color-rendering:auto;image-rendering:auto;shape-rendering:auto;text-rendering:auto;enable-background:accumulate"
           inkscape:connector-curvature="0" />
      </g>
      <g
         style="opacity:1;fill:#000000;fill-opacity:1;stroke:none"
         id="path27432"
         transform="translate(6.3161268,14.833425)">
        <path
           id="path1167"
           d="m 18.187603,247.92029 18.768102,0.0509"
           style="color:#000000;font-style:normal;font-variant:normal;font-weight:normal;font-stretch:normal;font-size:medium;line-height:normal;font-family:sans-serif;font-variant-ligatures:normal;font-variant-position:normal;font-variant-caps:normal;font-variant-numeric:normal;font-variant-alternates:normal;font-feature-settings:normal;text-indent:0;text-align:start;text-decoration:none;text-decoration-line:none;text-decoration-style:solid;text-decoration-color:#000000;letter-spacing:normal;word-spacing:normal;text-transform:none;writing-mode:lr-tb;direction:ltr;text-orientation:mixed;dominant-baseline:auto;baseline-shift:baseline;text-anchor:start;white-space:normal;shape-padding:0;clip-rule:nonzero;display:inline;overflow:visible;visibility:visible;isolation:auto;mix-blend-mode:normal;color-interpolation:sRGB;color-interpolation-filters:linearRGB;solid-color:#000000;solid-opacity:1;vector-effect:none;fill:#000000;fill-opacity:1;fill-rule:evenodd;stroke:none;stroke-width:0.270621;stroke-linecap:butt;stroke-linejoin:miter;stroke-miterlimit:4;stroke-dasharray:none;stroke-dashoffset:0;stroke-opacity:1;color-rendering:auto;image-rendering:auto;shape-rendering:auto;text-rendering:auto;enable-background:accumulate"
           inkscape:connector-curvature="0" />
        <path
           id="path1169"
           d="m 18.1875,247.78516 v 0.26953 l 18.767578,0.0527 0.002,-0.27148 z"
           style="color:#000000;font-style:normal;font-variant:normal;font-weight:normal;font-stretch:normal;font-size:medium;line-height:normal;font-family:sans-serif;font-variant-ligatures:normal;font-variant-position:normal;font-variant-caps:normal;font-variant-numeric:normal;font-variant-alternates:normal;font-feature-settings:normal;text-indent:0;text-align:start;text-decoration:none;text-decoration-line:none;text-decoration-style:solid;text-decoration-color:#000000;letter-spacing:normal;word-spacing:normal;text-transform:none;writing-mode:lr-tb;direction:ltr;text-orientation:mixed;dominant-baseline:auto;baseline-shift:baseline;text-anchor:start;white-space:normal;shape-padding:0;clip-rule:nonzero;display:inline;overflow:visible;visibility:visible;isolation:auto;mix-blend-mode:normal;color-interpolation:sRGB;color-interpolation-filters:linearRGB;solid-color:#000000;solid-opacity:1;vector-effect:none;fill:#000000;fill-opacity:1;fill-rule:evenodd;stroke:none;stroke-linecap:butt;stroke-linejoin:miter;stroke-miterlimit:4;stroke-dasharray:none;stroke-dashoffset:0;stroke-opacity:1;color-rendering:auto;image-rendering:auto;shape-rendering:auto;text-rendering:auto;enable-background:accumulate"
           inkscape:connector-curvature="0" />
      </g>
      <path
         id="path27434"
         d="m 6.9645643,258.03265 -0.2558594,0.002 0.2324219,46.13281 0.2558594,-0.002 z"
         style="color:#000000;font-style:normal;font-variant:normal;font-weight:normal;font-stretch:normal;font-size:medium;line-height:normal;font-family:sans-serif;font-variant-ligatures:normal;font-variant-position:normal;font-variant-caps:normal;font-variant-numeric:normal;font-variant-alternates:normal;font-feature-settings:normal;text-indent:0;text-align:start;text-decoration:none;text-decoration-line:none;text-decoration-style:solid;text-decoration-color:#000000;letter-spacing:normal;word-spacing:normal;text-transform:none;writing-mode:lr-tb;direction:ltr;text-orientation:mixed;dominant-baseline:auto;baseline-shift:baseline;text-anchor:start;white-space:normal;shape-padding:0;clip-rule:nonzero;display:inline;overflow:visible;visibility:visible;opacity:1;isolation:auto;mix-blend-mode:normal;color-interpolation:sRGB;color-interpolation-filters:linearRGB;solid-color:#000000;solid-opacity:1;vector-effect:none;fill:#000000;fill-opacity:1;fill-rule:evenodd;stroke:none;stroke-width:1;stroke-linecap:butt;stroke-linejoin:miter;stroke-miterlimit:4;stroke-dasharray:none;stroke-dashoffset:0;stroke-opacity:1;color-rendering:auto;image-rendering:auto;shape-rendering:auto;text-rendering:auto;enable-background:accumulate"
         inkscape:connector-curvature="0" />
      <g
         style="opacity:1;fill:#000000;fill-opacity:1;stroke:none"
         id="path27436"
         transform="translate(6.3161268,14.833425)">
        <path
           id="path1157"
           d="m 0.52032231,243.27301 17.39383169,0.0511"
           style="color:#000000;font-style:normal;font-variant:normal;font-weight:normal;font-stretch:normal;font-size:medium;line-height:normal;font-family:sans-serif;font-variant-ligatures:normal;font-variant-position:normal;font-variant-caps:normal;font-variant-numeric:normal;font-variant-alternates:normal;font-feature-settings:normal;text-indent:0;text-align:start;text-decoration:none;text-decoration-line:none;text-decoration-style:solid;text-decoration-color:#000000;letter-spacing:normal;word-spacing:normal;text-transform:none;writing-mode:lr-tb;direction:ltr;text-orientation:mixed;dominant-baseline:auto;baseline-shift:baseline;text-anchor:start;white-space:normal;shape-padding:0;clip-rule:nonzero;display:inline;overflow:visible;visibility:visible;isolation:auto;mix-blend-mode:normal;color-interpolation:sRGB;color-interpolation-filters:linearRGB;solid-color:#000000;solid-opacity:1;vector-effect:none;fill:#000000;fill-opacity:1;fill-rule:evenodd;stroke:none;stroke-width:0.26098001;stroke-linecap:butt;stroke-linejoin:miter;stroke-miterlimit:4;stroke-dasharray:none;stroke-dashoffset:0;stroke-opacity:1;color-rendering:auto;image-rendering:auto;shape-rendering:auto;text-rendering:auto;enable-background:accumulate"
           inkscape:connector-curvature="0" />
        <path
           id="path1159"
           d="m 0.52148438,243.14258 -0.001953,0.26172 17.39453062,0.0508 v -0.26172 z"
           style="color:#000000;font-style:normal;font-variant:normal;font-weight:normal;font-stretch:normal;font-size:medium;line-height:normal;font-family:sans-serif;font-variant-ligatures:normal;font-variant-position:normal;font-variant-caps:normal;font-variant-numeric:normal;font-variant-alternates:normal;font-feature-settings:normal;text-indent:0;text-align:start;text-decoration:none;text-decoration-line:none;text-decoration-style:solid;text-decoration-color:#000000;letter-spacing:normal;word-spacing:normal;text-transform:none;writing-mode:lr-tb;direction:ltr;text-orientation:mixed;dominant-baseline:auto;baseline-shift:baseline;text-anchor:start;white-space:normal;shape-padding:0;clip-rule:nonzero;display:inline;overflow:visible;visibility:visible;isolation:auto;mix-blend-mode:normal;color-interpolation:sRGB;color-interpolation-filters:linearRGB;solid-color:#000000;solid-opacity:1;vector-effect:none;fill:#000000;fill-opacity:1;fill-rule:evenodd;stroke:none;stroke-linecap:butt;stroke-linejoin:miter;stroke-miterlimit:4;stroke-dasharray:none;stroke-dashoffset:0;stroke-opacity:1;color-rendering:auto;image-rendering:auto;shape-rendering:auto;text-rendering:auto;enable-background:accumulate"
           inkscape:connector-curvature="0" />
      </g>
      <g
         style="opacity:1;fill:#000000;fill-opacity:1;stroke:none"
         id="path27438"
         transform="translate(6.3161268,14.833425)">
        <path
           id="path1151"
           d="m 0.63749548,289.31081 17.62907952,0.0511"
           style="color:#000000;font-style:normal;font-variant:normal;font-weight:normal;font-stretch:normal;font-size:medium;line-height:normal;font-family:sans-serif;font-variant-ligatures:normal;font-variant-position:normal;font-variant-caps:normal;font-variant-numeric:normal;font-variant-alternates:normal;font-feature-settings:normal;text-indent:0;text-align:start;text-decoration:none;text-decoration-line:none;text-decoration-style:solid;text-decoration-color:#000000;letter-spacing:normal;word-spacing:normal;text-transform:none;writing-mode:lr-tb;direction:ltr;text-orientation:mixed;dominant-baseline:auto;baseline-shift:baseline;text-anchor:start;white-space:normal;shape-padding:0;clip-rule:nonzero;display:inline;overflow:visible;visibility:visible;isolation:auto;mix-blend-mode:normal;color-interpolation:sRGB;color-interpolation-filters:linearRGB;solid-color:#000000;solid-opacity:1;vector-effect:none;fill:#000000;fill-opacity:1;fill-rule:evenodd;stroke:none;stroke-width:0.262678;stroke-linecap:butt;stroke-linejoin:miter;stroke-miterlimit:4;stroke-dasharray:none;stroke-dashoffset:0;stroke-opacity:1;color-rendering:auto;image-rendering:auto;shape-rendering:auto;text-rendering:auto;enable-background:accumulate"
           inkscape:connector-curvature="0" />
        <path
           id="path1153"
           d="m 0.63867188,289.17969 -0.001953,0.26172 17.62890612,0.0527 0.002,-0.26367 z"
           style="color:#000000;font-style:normal;font-variant:normal;font-weight:normal;font-stretch:normal;font-size:medium;line-height:normal;font-family:sans-serif;font-variant-ligatures:normal;font-variant-position:normal;font-variant-caps:normal;font-variant-numeric:normal;font-variant-alternates:normal;font-feature-settings:normal;text-indent:0;text-align:start;text-decoration:none;text-decoration-line:none;text-decoration-style:solid;text-decoration-color:#000000;letter-spacing:normal;word-spacing:normal;text-transform:none;writing-mode:lr-tb;direction:ltr;text-orientation:mixed;dominant-baseline:auto;baseline-shift:baseline;text-anchor:start;white-space:normal;shape-padding:0;clip-rule:nonzero;display:inline;overflow:visible;visibility:visible;isolation:auto;mix-blend-mode:normal;color-interpolation:sRGB;color-interpolation-filters:linearRGB;solid-color:#000000;solid-opacity:1;vector-effect:none;fill:#000000;fill-opacity:1;fill-rule:evenodd;stroke:none;stroke-linecap:butt;stroke-linejoin:miter;stroke-miterlimit:4;stroke-dasharray:none;stroke-dashoffset:0;stroke-opacity:1;color-rendering:auto;image-rendering:auto;shape-rendering:auto;text-rendering:auto;enable-background:accumulate"
           inkscape:connector-curvature="0" />
      </g>
      <g
         style="fill:#000000;fill-opacity:1;stroke:none;stroke-opacity:1"
         transform="translate(6.0361137,15.891758)"
         id="g27542">
        <g
           style="fill:#000000;fill-opacity:1;stroke:none;stroke-opacity:1"
           id="g27387"
           transform="matrix(0.83262068,0,0,0.75462044,18.876584,63.105247)">
          <g
             style="fill:#000000;fill-opacity:1;stroke:none;stroke-opacity:1"
             transform="matrix(0.93454954,0,0,0.93454954,0.11002233,23.523971)"
             id="g33698">
            <g
               style="opacity:1;fill:#000000;fill-opacity:1;stroke:none"
               id="rect33674" />
            <g
               style="opacity:1;fill:#000000;fill-opacity:1;stroke:none"
               id="rect33676" />
            <g
               style="opacity:1;fill:#000000;fill-opacity:1;stroke:none"
               id="rect33678" />
            <g
               style="opacity:1;fill:#000000;fill-opacity:1;stroke:none"
               id="rect33680" />
            <g
               style="opacity:1;fill:#000000;fill-opacity:1;stroke:none"
               id="rect33682" />
            <g
               style="opacity:1;fill:#000000;fill-opacity:1;stroke:none"
               id="rect33684" />
            <g
               style="opacity:1;fill:#000000;fill-opacity:1;stroke:none"
               id="rect33686" />
            <g
               style="opacity:1;fill:#000000;fill-opacity:1;stroke:none"
               id="rect33688" />
          </g>
        </g>
        <path
           sodipodi:nodetypes="ccccccccccccccccccccccccccccccccccccccccccccccccccccccccccccccccccccccccccccccccccccccccccccccccccccccccccccccccccccccccccccccccccccccccccccccccccccccccccccccccccccccccccccccccccccccccccccccccccccc"
           inkscape:connector-curvature="0"
           d="m 37.416016,246.78711 -0.207032,0.002 0.234375,29.96094 0.207032,-0.002 z m -12.691573,6.04475 -0.0016,0.59839 3.304463,0.0118 0.0016,-0.59839 z m 4.626574,0.0162 -0.0016,0.5984 3.964706,0.0147 0.0033,-0.59839 z m 5.286817,0.0192 -0.0016,0.5984 0.860267,0.003 0.0016,-0.59839 z m -9.867857,3.65814 -0.0033,0.59987 3.304463,0.0118 0.0033,-0.59839 z m 4.626574,0.0177 -0.0033,0.59839 3.964706,0.0147 0.0033,-0.59987 z m 5.286816,0.0192 -0.0033,0.59839 0.860266,0.003 0.0033,-0.59839 z m -9.861351,3.52992 -0.0033,0.59986 3.304463,0.0118 0.0033,-0.59987 z m 4.626574,0.0162 -0.0033,0.59986 3.966332,0.0147 0.0016,-0.59987 z m 5.286816,0.0192 -0.0033,0.59986 0.860266,0.003 0.0033,-0.59986 z m -9.815817,3.835 -0.0033,0.59986 3.304463,0.0118 0.0033,-0.59987 z m 4.626574,0.0177 -0.0033,0.59839 3.964706,0.0147 0.0033,-0.59987 z m 5.286815,0.0192 -0.0033,0.59839 0.860266,0.003 0.0033,-0.59838 z m -9.965428,3.34715 -0.0033,0.5984 3.304463,0.0118 0.0033,-0.59839 z m 4.624948,0.0162 -0.0016,0.59987 3.964705,0.0133 0.0033,-0.59839 z m 5.288442,0.0192 -0.0033,0.59987 0.860267,0.003 0.0016,-0.59987 z m -9.817443,3.26757 -0.0016,0.59839 3.304464,0.0118 0.0016,-0.59839 z m 4.626574,0.0162 -0.0033,0.59839 3.966332,0.0147 0.0016,-0.59839 z m 5.286816,0.0192 -0.0016,0.59839 0.858641,0.003 0.0033,-0.59839 z m -9.908512,3.34716 -0.0033,0.59986 3.304463,0.0118 0.0033,-0.59986 z m 4.624948,0.0162 -0.0016,0.59987 3.964705,0.0147 0.0033,-0.59986 z m 5.288442,0.0192 -0.0033,0.59987 0.860266,0.003 0.0016,-0.5984 z m -9.91339,-24.83615 -0.0033,0.59839 3.304463,0.0133 0.0033,-0.59986 z m 4.624948,0.0162 -0.0016,0.59986 3.964705,0.0147 0.0033,-0.59987 z m 5.288442,0.0192 -0.0033,0.59986 0.860266,0.003 0.0016,-0.59986 z m -14.501702,16.33862 c -0.05714,-1.2e-4 -0.103497,0.0419 -0.103345,0.0937 v 2.55784 c -1.52e-4,0.0518 0.0462,0.0938 0.103345,0.0937 h 2.565381 c 0.05715,1.2e-4 0.103497,-0.0419 0.103345,-0.0937 v -2.55784 c 1.52e-4,-0.0518 -0.0462,-0.0938 -0.103345,-0.0937 z m 0,3.06611 c -0.05714,-1.2e-4 -0.103497,0.0419 -0.103345,0.0937 v 2.55783 c -1.52e-4,0.0518 0.0462,0.0938 0.103345,0.0937 h 2.565381 c 0.05715,1.2e-4 0.103497,-0.0419 0.103345,-0.0937 v -2.55783 c 1.52e-4,-0.0518 -0.0462,-0.0938 -0.103345,-0.0937 z m 0,3.30435 c -0.05714,-1.2e-4 -0.103497,0.0419 -0.103345,0.0937 v 2.55783 c -1.52e-4,0.0518 0.0462,0.0938 0.103345,0.0937 h 2.565381 c 0.05715,1.2e-4 0.103497,-0.0419 0.103345,-0.0937 v -2.55783 c 1.52e-4,-0.0518 -0.0462,-0.0938 -0.103345,-0.0937 z m 0,-19.71063 c -0.05714,-1.2e-4 -0.103497,0.0419 -0.103345,0.0937 v 2.55783 c -1.52e-4,0.0518 0.0462,0.0938 0.103345,0.0937 h 2.565381 c 0.05715,1.2e-4 0.103497,-0.0419 0.103345,-0.0937 V 252.359 c 1.52e-4,-0.0518 -0.0462,-0.0938 -0.103345,-0.0937 z m 0,3.4049 c -0.05714,-1.2e-4 -0.103497,0.0419 -0.103345,0.0937 v 2.55784 c -1.52e-4,0.0518 0.0462,0.0938 0.103345,0.0937 h 2.565381 c 0.05715,1.2e-4 0.103497,-0.0419 0.103345,-0.0937 v -2.55784 c 1.52e-4,-0.0518 -0.0462,-0.0938 -0.103345,-0.0937 z m 0,3.34846 c -0.05654,-1.2e-4 -0.102648,0.0411 -0.103345,0.0923 v 2.55783 c -1.52e-4,0.0518 0.0462,0.0938 0.103345,0.0937 h 2.565381 c 0.05715,1.2e-4 0.103497,-0.0419 0.103345,-0.0937 v -2.55783 c -6.97e-4,-0.0512 -0.0468,-0.0924 -0.103345,-0.0923 z m 0,3.32232 c -0.05714,-1.2e-4 -0.103497,0.0419 -0.103345,0.0937 v 2.55783 c -1.52e-4,0.0518 0.0462,0.0938 0.103345,0.0937 h 2.565381 c 0.05715,1.2e-4 0.103497,-0.0419 0.103345,-0.0937 v -2.55783 c 1.52e-4,-0.0518 -0.0462,-0.0938 -0.103345,-0.0937 z m 0,-13.53987 c -0.05714,-1.2e-4 -0.103497,0.0419 -0.103345,0.0937 v 2.55783 c -1.52e-4,0.0518 0.0462,0.0938 0.103345,0.0937 h 2.565381 c 0.05715,1.2e-4 0.103497,-0.0419 0.103345,-0.0937 v -2.55783 c 1.52e-4,-0.0518 -0.0462,-0.0938 -0.103345,-0.0937 z"
           style="color:#000000;font-style:normal;font-variant:normal;font-weight:normal;font-stretch:normal;font-size:medium;line-height:normal;font-family:sans-serif;font-variant-ligatures:normal;font-variant-position:normal;font-variant-caps:normal;font-variant-numeric:normal;font-variant-alternates:normal;font-feature-settings:normal;text-indent:0;text-align:start;text-decoration:none;text-decoration-line:none;text-decoration-style:solid;text-decoration-color:#000000;letter-spacing:normal;word-spacing:normal;text-transform:none;writing-mode:lr-tb;direction:ltr;text-orientation:mixed;dominant-baseline:auto;baseline-shift:baseline;text-anchor:start;white-space:normal;shape-padding:0;clip-rule:nonzero;display:inline;overflow:visible;visibility:visible;opacity:1;isolation:auto;mix-blend-mode:normal;color-interpolation:sRGB;color-interpolation-filters:linearRGB;solid-color:#000000;solid-opacity:1;vector-effect:none;fill:#000000;fill-opacity:1;fill-rule:evenodd;stroke:none;stroke-linecap:butt;stroke-linejoin:miter;stroke-miterlimit:4;stroke-dasharray:none;stroke-dashoffset:0;stroke-opacity:1;color-rendering:auto;image-rendering:auto;shape-rendering:auto;text-rendering:auto;enable-background:accumulate"
           id="path27440" />
      </g>
    </g>
  </g>
</svg>
