<?xml version="1.0" encoding="UTF-8" standalone="no"?>
<svg
   xmlns:dc="http://purl.org/dc/elements/1.1/"
   xmlns:cc="http://creativecommons.org/ns#"
   xmlns:rdf="http://www.w3.org/1999/02/22-rdf-syntax-ns#"
   xmlns:svg="http://www.w3.org/2000/svg"
   xmlns="http://www.w3.org/2000/svg"
   xmlns:sodipodi="http://sodipodi.sourceforge.net/DTD/sodipodi-0.dtd"
   xmlns:inkscape="http://www.inkscape.org/namespaces/inkscape"
   inkscape:version="1.0 (4035a4fb49, 2020-05-01)"
   sodipodi:docname="tree-symbolic.svg"
   width="64"
   height="64"
   version="1.1"
   id="svg24">
  <sodipodi:namedview
     inkscape:document-rotation="0"
     inkscape:current-layer="svg24"
     inkscape:window-maximized="1"
     inkscape:window-y="40"
     inkscape:window-x="0"
     inkscape:cy="32"
     inkscape:cx="-17.084746"
     inkscape:zoom="3.6875"
     showgrid="false"
     id="namedview951"
     inkscape:window-height="898"
     inkscape:window-width="1920"
     inkscape:pageshadow="2"
     inkscape:pageopacity="0"
     guidetolerance="10"
     gridtolerance="10"
     objecttolerance="10"
     borderopacity="1"
     bordercolor="#666666"
     pagecolor="#ffffff" />
  <metadata
     id="metadata30">
    <rdf:RDF>
      <cc:Work
         rdf:about="">
        <dc:format>image/svg+xml</dc:format>
        <dc:type
           rdf:resource="http://purl.org/dc/dcmitype/StillImage" />
        <dc:title />
      </cc:Work>
    </rdf:RDF>
  </metadata>
  <defs
     id="defs28" />
  <path
     style="fill:#cccccc;fill-opacity:1;stroke:none;stroke-width:3.00818;stroke-miterlimit:4;stroke-dasharray:none;stroke-opacity:1"
     d="M 32.000001,3.4999991 A 28.499595,28.499595 0 0 0 3.5,32 28.499595,28.499595 0 0 0 32.000001,60.500001 28.499595,28.499595 0 0 0 60.5,32 28.499595,28.499595 0 0 0 32.000001,3.4999991 Z M 29.196584,9.854409 c 0.58357,0.568463 1.068285,4.097901 1.428207,3.509151 0.02707,-1.034756 -1.340431,-4.278292 0.05579,-2.139523 0.422691,2.07303 0.546091,4.19976 0.775473,6.287464 0.615672,-2.025656 0.43637,-4.215801 0.103221,-6.178674 0.296812,1.557186 0.454506,0.551711 0.666684,-0.25942 0.0045,1.852917 0.38911,1.164166 0.753156,0.688997 0.17059,0.949944 -1.844423,4.268438 0.20921,2.507733 0.971517,-0.743813 0.06377,-3.161353 0.705737,-3.484045 0.412839,1.888723 0.01049,3.495924 -0.270579,5.428305 0.308646,1.225765 -0.873536,3.757429 -0.0753,3.386415 -0.146098,1.915055 -1.177985,3.641967 -0.93447,5.617988 0.02239,2.9133 -0.03512,5.845311 0.228736,8.744985 1.056937,-2.164075 0.894305,-4.814264 1.517471,-7.160564 1.191309,-5.2177 0.2524,-10.584513 0.566261,-15.863709 0.36882,0.679133 0.319421,3.843653 0.758736,1.322209 0.499133,1.575061 -0.588802,4.247275 -0.175738,6.24283 0.92346,-1.186111 1.1704,-3.048704 1.297104,-4.599833 -0.150869,-0.866293 1.020298,-3.215431 0.580209,-1.037683 -0.367348,2.151595 -0.613843,4.360615 -1.422627,6.396252 0.627869,-0.403804 1.826271,-3.555418 1.135312,-1.018157 -0.460151,1.207503 -1.477432,3.194106 -0.06694,1.765734 1.122601,-1.554704 2.086817,-3.527164 1.403101,-5.470147 0.296018,-2.77203 0.364273,3.001301 0.861946,0.401683 0.590709,-1.6738 0.5912,0.991547 -0.05022,1.47005 -0.760808,1.888455 -1.864396,3.664981 -2.530048,5.576147 0.0054,0.989255 -0.294469,3.299885 0.937261,1.400313 -0.127339,2.120591 -2.49131,3.320048 -2.733679,5.322307 0.594274,-0.837039 1.545402,-2.341582 0.842421,-0.387736 1.212258,-1.210491 1.887951,-3.093254 2.666729,-4.680729 1.606042,-2.979718 1.161849,-6.544814 2.504943,-9.592982 -0.163897,0.973986 -0.690583,3.466131 0.32358,1.291524 0.2803,1.148816 -1.637567,3.918204 -1.026525,5.146568 0.665253,-0.844481 2.666843,-3.046795 1.118577,-0.926102 -1.049536,1.718498 -2.360752,3.262031 -3.012626,5.19678 -0.482804,1.602074 -2.521843,3.899766 -1.974943,5.107517 2.076097,-1.337595 2.124387,-4.167254 3.037732,-6.273515 0.844312,-1.283455 -1.333264,4.246245 0.167366,1.305471 1.494004,-2.796256 3.523957,-5.639348 3.196731,-8.973721 -0.03164,-1.328442 0.399904,0.629506 0.744788,-0.900997 0.02494,1.016295 -0.566463,3.611695 0.379369,1.408681 0.211185,-1.24458 1.448348,-2.030136 0.574628,-0.31521 -0.583483,0.734713 -0.762365,2.189822 0.195265,0.689 1.585546,-2.317633 0.0056,0.784772 -0.700156,1.523049 -1.277601,1.37466 -2.030026,3.236609 -3.118627,4.820201 -0.882465,1.722533 -2.074871,3.898912 -2.488205,5.461778 1.704103,-1.245971 2.51229,-3.338125 3.921991,-4.878779 0.942873,-1.029874 1.13571,-2.777945 2.00284,-2.753206 0.865369,-0.80729 1.658939,-3.650941 2.047469,-1.757364 -1.332834,1.181005 -2.834349,2.855077 -3.302729,4.396202 1.487028,-0.472781 2.324742,-2.522608 3.057257,-2.036312 1.026035,-1.290059 2.224793,-1.274605 3.366888,-2.223207 -0.743068,1.920297 -2.694385,2.818276 -3.417099,4.864833 -0.742207,1.253705 1.307328,-0.115597 0.04185,1.171577 -0.458148,0.942265 -0.94574,2.261121 0.454683,0.951208 0.956606,-1.120628 3.19438,-0.757258 3.899678,-2.30131 0.2305,-1.045575 1.328704,-2.814065 0.638787,-0.677841 -0.368578,1.159261 0.329577,1.093693 -0.67784,2.184153 -1.59352,2.600728 2.968514,-2.727543 1.015366,-0.03348 -1.65396,1.727954 1.684043,-0.861476 0.990262,0.527209 -2.027308,0.442887 -3.034321,2.443066 -4.636097,3.654204 -2.043228,1.657635 1.550963,0.565706 1.930311,0.513261 1.124937,0.181598 3.255788,-1.343366 3.152101,-0.290104 -0.67928,0.346781 -4.284572,0.679031 -1.712734,0.881473 1.351972,0.01242 0.580897,1.165851 -0.457473,0.343103 -1.887934,-0.609012 -3.650705,0.285496 -5.458989,0.502105 -1.272415,0.459301 -2.265204,2.530344 0.0084,2.033523 1.282613,0.318366 3.406592,0.152216 4.133993,-0.396105 -1.522212,1.257663 2.294443,0.272997 2.99031,0.616473 2.152212,0.317598 -1.113247,0.183632 -1.863366,0.30684 -0.845855,0.871815 -4.679053,1.821442 -1.824312,0.53 1.903605,-0.758376 -1.81872,-0.367645 -2.46589,-0.555104 -1.022106,-0.749443 -4.275251,0.437889 -2.454731,1.397524 0.806262,0.649553 3.369238,0.160021 3.347361,0.217579 -0.04419,1.686244 3.155911,-0.761043 3.576098,-0.276159 -1.413773,0.494437 -1.322984,1.194177 0.186894,1.138104 1.648598,-0.46127 1.938521,1.539723 0.290106,0.460262 -2.398086,-0.326819 -4.850606,-0.3489 -7.227513,-0.906577 -1.570176,-0.328222 -4.239605,3.427898 -1.121368,2.856416 1.501299,0.446117 3.920167,-0.20171 4.909465,0.267789 -1.08834,-0.04113 -3.547654,0.2593 -1.04884,0.63879 0.675926,0.247906 3.320947,0.309703 1.291525,0.708524 0.481418,0.763412 4.108608,1.643 1.62905,1.238523 -1.757875,-0.921456 -3.191732,-1.197315 -4.772782,-1.930312 -1.340528,-0.432816 -4.616002,-1.065113 -4.903884,0.541158 0.879393,2.101096 2.615004,3.525374 4.970832,2.641626 1.141331,-0.09556 0.05988,0.279516 0.521631,1.054419 -0.982713,-0.857291 -3.935656,-0.440053 -1.676472,0.753156 0.94014,0.279423 2.993054,2.252442 1.037683,0.847998 -1.645716,-1.226761 -0.906038,0.317986 -0.490946,1.221789 -1.252504,-0.727717 -2.13611,-3.151565 -3.285994,-3.539836 -0.310077,1.323764 1.779569,3.566276 1.41705,3.796466 -2.221719,-1.176047 -1.652273,-3.532596 -2.384997,-5.528726 -1.112747,-2.054862 -4.772035,1.724285 -2.672309,2.758783 0.286671,0.853177 3.755934,3.020809 1.358471,1.888471 -0.954122,-0.931723 -2.030123,-0.813629 -1.065578,0.610894 0.550706,0.829372 1.0651,2.702447 0.04463,0.834052 -0.607278,-1.039445 -1.611682,-5.145851 -2.63047,-2.239945 -0.756886,2.488191 -1.77818,5.523215 -0.206419,7.902566 -1.282468,1.041891 -3.767757,0.444248 -5.445044,0.373787 -1.714904,-0.447917 0.754883,-2.784791 0.150631,-4.136781 -0.200806,-1.889759 0.90516,-4.999838 -1.408682,-5.841147 -2.006219,0.230084 -2.752835,2.369419 -4.000098,3.754625 -0.884992,1.017752 1.061333,-1.905784 -0.552314,-0.928894 -1.33337,0.476712 -1.879483,0.195061 -0.237105,-0.200841 1.228628,0.01459 1.965279,-1.321855 0.820103,-1.503524 1.114852,-1.035115 5.394777,-1.366071 3.202311,-3.472888 -0.533896,-1.142104 -2.125226,-2.725203 -2.8341,-0.984682 -1.338658,0.15484 -1.551521,3.858415 -2.354313,2.583047 -0.792573,1.532334 -0.962579,3.370565 -2.722521,4.159098 0.18327,-0.233496 2.176225,-2.712168 1.497945,-3.400363 -0.921902,1.06849 -1.549746,0.242599 -2.524469,0.881473 1.250724,-0.984246 3.91444,-1.42503 3.768572,-3.2581 -1.298921,-0.537405 -2.873627,2.679265 -3.319467,1.584418 0.118085,-1.12843 -3.142329,2.566921 -2.030735,0.739209 -2.112668,0.130768 2.055874,-1.134903 1.843839,-1.793627 1.363248,-1.069963 4.270119,-0.407905 4.795098,-2.147892 -1.912243,-1.015782 -4.266214,-0.869843 -5.869042,0.644368 -0.496092,0.305693 -2.141913,1.415795 -1.026525,0.234315 -3.189561,0.210058 3.547378,-1.054513 0.253842,-1.235735 -0.106435,0.084 3.6744,-0.746475 1.444945,-1.436576 -1.678719,-1.076475 -4.737875,-0.343555 -5.807674,-1.001419 0.947798,-0.334498 3.837842,0.249224 1.68205,-0.917735 -1.579666,-0.982058 1.582109,0.524282 2.058627,0.666683 0.822996,0.470374 2.484816,0.71785 1.068367,-0.426788 -1.021605,-1.430641 1.68941,1.6899 2.538416,1.687627 1.261115,-0.09427 4.010671,0.09317 4.496625,-0.797787 -1.54878,-1.648805 -3.837351,-2.335079 -5.793727,-3.380837 -2.163237,-0.101307 -4.376755,0.395379 -6.571987,0.669473 -0.226399,-0.764597 2.948016,-0.655606 3.944307,-0.928891 0.644469,-0.977148 -2.858115,-1.457681 -3.963834,-1.573262 -0.951186,0.234746 -0.992348,-0.822014 -0.981894,-0.78663 1.164579,0.324866 5.194021,1.533823 2.588628,-0.479789 0.295604,-1.478887 -4.55376,-3.153102 -1.288735,-2.153469 -0.461031,-0.652593 -1.307726,-2.2172 0.02789,-0.853577 1.269548,1.622579 2.318768,3.662217 4.156308,4.691887 0.702956,0.537435 3.256322,1.056135 1.450524,-0.189686 -1.487672,-0.735611 -1.440275,-1.675437 -2.624891,-2.803415 1.933811,0.631535 2.689189,2.810413 4.298571,3.93873 1.587877,0.404016 3.002915,2.086326 4.418519,2.242733 -0.618407,-2.161768 -3.135513,-2.46023 -4.602623,-3.866205 -0.979343,-0.506052 -1.646271,-0.867394 -0.178526,-0.549525 1.346224,0.457002 2.133048,1.654623 3.746256,2.139523 -1.45401,-1.544644 -3.154566,-3.39651 -5.207937,-4.011256 -1.400265,-0.09287 -4.478302,-1.379343 -4.605414,-1.83547 1.245342,0.367618 4.494518,2.239601 4.783939,0.859156 -0.517173,-1.188993 -3.025254,-1.6237 -3.04331,-2.242732 0.920313,0.595043 2.276608,0.555521 0.722474,-0.415632 -0.849674,-0.484078 -2.914105,-2.216164 -0.853579,-1.020945 2.087372,1.34713 -2.231813,-3.082162 -0.122741,-1.082314 0.898106,0.767093 2.561331,3.321427 2.912205,2.951257 -0.451262,-0.937694 -1.197975,-3.292224 -0.167368,-1.124155 0.858495,2.291117 2.213961,4.451833 4.343203,5.751883 -0.05105,-1.518707 -1.667197,-3.291708 -2.722522,-4.661201 -0.763309,-0.888275 -1.526712,-2.581047 -0.164578,-0.831262 0.321477,1.110635 1.905302,2.131351 0.84242,0.401684 -0.639761,-1.540817 -3.122106,-2.845372 -3.30831,-3.977783 1.191286,1.329668 0.34008,-0.662465 0.750366,-0.217577 0.0962,1.151789 2.09389,3.000585 1.78805,1.818733 0.437579,0.781553 1.38673,1.75306 0.658315,0.150632 -0.583895,-1.133244 -0.609765,-2.08743 0.114363,-0.443526 0.320972,2.541768 2.841948,3.74765 4.385046,5.525936 0.638412,0.790345 2.223022,1.788714 1.034892,0.153421 -0.591107,-1.616229 -3.366303,-3.264512 -3.626311,-4.064255 0.677554,0.745401 2.73613,1.887976 1.196683,0.122739 -1.634671,-1.708718 -3.211463,-3.538052 -5.316727,-4.675149 -1.031945,-0.564921 -1.541278,-1.592261 -0.131109,-0.418421 1.945526,1.343394 -2.750595,-3.243087 -0.772682,-1.760155 1.772745,1.55201 3.097101,3.57795 5.060095,4.926203 1.704459,0.899139 -0.416971,-2.178596 -1.012576,-2.644416 -0.819112,-1.192643 -3.471153,-2.729121 -3.085155,-3.598415 1.10187,0.637976 -1.779284,-2.742738 -0.119939,-1.324998 0.812127,1.024656 0.694826,0.371336 0.329156,-0.432367 1.241105,1.311015 1.989075,3.84319 3.36689,4.544044 -0.351583,-1.002445 -0.404481,-2.242228 -1.079525,-3.079574 -0.67559,-0.605448 -2.164246,-2.301386 -0.42121,-0.94284 1.50199,1.178039 1.670751,3.351749 2.390575,5.043359 0.497879,1.34135 1.212772,4.061283 1.88847,4.532887 0.347888,-1.626035 -0.73907,-3.135615 -0.529999,-4.716991 0.349771,1.443132 1.277622,2.573346 2.30968,3.603994 0.611665,1.010495 1.921143,1.715172 0.733631,0.125525 -1.921481,-2.924141 -4.208371,-5.679437 -5.291622,-9.062984 -0.579479,-0.690538 -2.418722,-1.505049 -0.432368,-0.834052 -0.278304,-2.458418 1.902254,3.627281 1.157629,0.446315 -0.343122,-0.97272 -0.440107,-2.030241 0,-0.513263 0.71602,2.489754 1.491508,5.15914 3.263677,7.115935 -0.0754,-1.79087 -1.56875,-2.898212 -1.308259,-4.120044 -0.384588,-1.244394 -1.21851,-2.736893 -1.400315,-3.785309 0.724189,1.214319 0.580032,0.226488 0.231526,-0.47421 1.249184,-0.191038 1.376424,2.804385 2.172998,2.88431 -0.05677,-0.781875 -1.522212,-3.283261 -0.884263,-3.2051 1.116447,2.013797 1.455317,4.509096 3.129784,6.187043 0.605753,0.876239 1.886242,2.619629 1.048841,0.57184 -0.88093,-2.301039 -1.895503,-4.611394 -3.696046,-6.351619 -1.25948,-1.933507 2.204118,2.255945 0.945629,-0.26779 -1.126713,-1.438417 0.465377,-0.940842 0.42121,0.365421 0.193525,1.025742 1.014035,1.886689 0.58021,0.175736 0.1014,-0.250781 1.145989,4.873639 1.015367,1.94426 0.241649,-2.069301 -1.609099,-3.248209 -1.810366,-5.129833 0.668914,2.071738 0.985299,-2.107124 1.023735,0.203631 0.03459,0.951414 0.298738,2.08587 0.750368,1.587207 0.318894,2.062732 0.212309,4.215522 1.020946,6.178673 -0.04492,-1.046506 -0.57469,-4.163581 0.401682,-1.894049 0.728052,2.470174 0.462331,-2.141816 -0.228737,-2.892677 0.24788,-1.405058 -1.837139,-2.835748 -1.20784,-3.47289 0.957173,0.557336 1.195654,2.426801 1.587208,2.778312 0.295667,-0.944334 -0.696768,-4.22834 0.220368,-1.762944 0.891669,2.307138 0.411031,-0.300009 0.225947,-1.285947 z m -4.968043,1.765733 c 0.07537,0.02624 0.687091,0.891619 0.164579,0.337527 -0.15628,-0.26118 -0.189705,-0.346274 -0.164579,-0.337527 z m 5.118675,1.288735 c -0.05968,-0.01257 -0.119328,-0.01271 -0.181316,0.0028 0.08599,1.917292 0.69645,3.621831 1.397525,5.51199 0.08712,-0.296772 0.07231,-0.607431 0.09204,-0.912157 0.205607,-1.232195 -0.412969,-4.413391 -1.30826,-4.602622 z m 15.860917,1.894049 c 0.10087,-0.04611 0.144182,0.35753 -0.111585,0.231526 0.03724,-0.151989 0.07795,-0.216153 0.111585,-0.231526 z m -12.056081,0.04463 c -0.171292,-6.92e-4 -0.588467,1.884169 -0.06974,1.291525 l 0.05579,-0.220369 0.05859,-0.278947 c 0.04124,-0.581045 0.01242,-0.791979 -0.04463,-0.792209 z M 19.943917,15.34687 c 0.06113,-0.08541 0.594026,1.119809 0.15063,0.627631 -0.13765,-0.425278 -0.171006,-0.599158 -0.15063,-0.627631 z m 3.634678,0.437948 c -0.0078,2.060787 1.606869,2.309676 2.30689,4.053097 0.195299,0.252592 0.699676,0.718553 1.018156,0.563474 -1.146851,-1.510299 -2.150055,-3.130742 -3.325046,-4.616571 z m 8.602721,0.373787 c -0.01037,1.83903 -0.805851,4.251698 -0.07531,5.749096 0.100489,-0.289914 0.152159,-0.59521 0.209209,-0.89542 0.121226,-1.424163 0.39597,-4.22358 -0.133893,-4.853676 z m -2.839679,1.495158 c -0.121199,-0.03402 -0.221301,0.177732 -0.270579,0.820102 -0.211006,1.275494 -0.330198,2.604278 0.309631,3.77415 0.336754,0.891281 1.136625,3.543508 1.126945,1.065578 1.168774,0.125497 0.64286,4.521878 1.461683,4.683518 0.332884,-3.140754 -0.433935,-6.279645 -1.966577,-9.021137 -0.196781,-0.530637 -0.45911,-1.265501 -0.661103,-1.322207 z m 15.11613,1.29989 c 0.111517,-0.06211 0.115146,0.222029 -0.231526,0.962367 0.153713,-0.115316 -0.220762,0.368275 -0.186893,0.153422 0.08535,-0.645909 0.306904,-1.053679 0.418419,-1.115789 z M 25.782274,20.76123 c -0.46236,-0.0097 -0.597965,0.375654 0.105998,1.428207 1.470017,2.642961 2.939273,5.286421 4.287413,7.994617 0.312766,0.183426 0.26106,-0.833099 0.376578,-0.984683 0.59664,-2.32232 -1.30457,-4.282649 -2.097681,-6.320934 -0.221711,-0.981913 -1.901711,-2.100951 -2.672312,-2.117207 z m 21.286434,0.513262 c -0.56848,0.09712 -2.088352,2.055592 -0.379367,0.574631 l 0.242684,-0.198053 0.309631,-0.287315 c -0.03025,-0.07751 -0.09173,-0.10314 -0.172948,-0.08927 z m 1.034894,2.086522 c 0.07725,0.01458 0.180579,0.09674 0.331947,0.256631 0.728392,-0.205889 -1.935839,3.059837 -0.906577,0.998631 0.347103,-0.752007 0.342889,-1.298973 0.57463,-1.255262 z m -4.251149,0.309631 c -0.124569,-0.05284 -0.41459,0.10617 -0.954,0.599736 -1.850602,1.170966 -2.499291,3.51472 -4.055886,4.99036 -0.161662,0.228757 -1.955068,2.751003 -0.649946,2.064205 1.769806,-1.301531 3.538998,-2.747974 4.451991,-4.803464 0.452217,-0.629701 1.581535,-2.692317 1.207841,-2.850837 z m -19.68807,0.415631 c -0.496573,2.385145 1.065009,4.73671 3.673731,4.309729 l 0.223157,-0.0028 0.06137,-0.05021 c -1.122852,-1.448319 -2.56602,-3.514894 -3.958259,-4.256629 z m 20.438437,0.10322 c -0.08312,0.06495 -0.23362,0.274604 -0.474211,0.700157 -0.437691,0.614937 -1.296847,2.697718 -0.264999,0.990261 l 0.167367,-0.267789 c 0.451684,-0.507823 0.821206,-1.617488 0.571843,-1.422629 z m -30.946365,1.299887 c 0.08455,-0.05503 0.79099,0.334569 0.195263,0.237104 -0.180638,-0.152008 -0.223448,-0.218756 -0.195263,-0.237104 z m 35.74425,0.03067 c -1.965109,0.653665 -4.160007,1.523956 -4.867622,3.656993 -0.565448,1.009155 -0.672518,3.154187 0.649946,1.414259 l 0.217577,-0.239894 c 0.529326,-0.789213 1.048043,-0.892612 0.482578,0.200843 1.693471,-0.824283 4.025948,-3.527292 3.517521,-5.032201 z M 20.652443,27.15468 c 0.8777,2.316174 1.827051,4.752224 3.539835,6.585936 1.453274,0.337636 -1.062223,-1.925633 -1.302682,-2.755995 -0.617339,-1.657666 1.617333,1.413295 1.924733,1.974942 1.437954,2.0109 3.410643,3.576674 4.853677,5.592886 0.348488,0.56157 0.43734,-0.349289 0.351472,-0.460263 C 29.593967,34.918225 27.391623,32.27765 24.808751,30.521569 23.383964,29.544333 22.12861,27.652853 20.652443,27.15468 Z m 5.643093,1.73784 c -0.768142,0.14764 1.322284,2.282495 1.567683,2.926152 0.701954,0.807149 1.804052,2.96126 2.35431,2.861994 l -0.01952,-0.276158 -0.03067,-0.326365 c 0.05866,-2.208549 -0.857618,-4.74915 -3.352941,-5.115886 -0.240174,-0.0701 -0.409107,-0.09085 -0.518842,-0.06974 z m 17.160811,0.357052 c -1.022381,1.013213 -2.310741,2.683005 -2.41289,3.924782 0.50985,0.08701 1.202453,0.528695 1.684839,0.161789 0.211114,-1.067277 1.759325,-3.798042 0.728051,-4.086571 z m -2.167416,0.214789 c -1.125682,0.753626 -2.53999,2.406412 -2.669521,3.386413 0.293601,-0.04475 0.590978,-0.04698 0.88705,-0.05022 1.449862,0.293054 2.744803,-2.973907 1.782471,-3.336204 z m -30.460998,0.02788 c 0.122869,0.02823 0.384862,0.423229 -0.04463,0.133895 -0.02017,-0.110561 0.0038,-0.143305 0.04463,-0.133895 z m 0.84521,0.649946 c 0.204384,-0.04237 1.199942,0.232635 1.548155,0.613684 -0.258952,0.03225 -0.510857,-0.08019 -0.753157,-0.147843 -0.755273,-0.299859 -0.917629,-0.440422 -0.794998,-0.465841 z m 25.219585,0.306841 c -1.291293,1.167088 -2.321576,2.879892 -2.357101,4.610992 l 0.304052,-0.251052 c 0.958679,-1.196923 2.434694,-2.821737 2.053049,-4.35994 z M 15.369189,30.70566 c 0.190744,0.06294 0.964792,0.779315 0.08648,0.225946 -0.148856,-0.195531 -0.150058,-0.246928 -0.08648,-0.225946 z m 36.120827,2.583048 c 0.69171,-0.01444 1.26365,0.535313 -0.142264,0.31242 l -0.253841,-0.014 -0.267788,-0.04742 c 0.189123,-0.179634 0.433322,-0.246237 0.663892,-0.251052 z m -40.277137,0.03905 c 0.21949,-0.04213 1.678353,0.453228 0.343107,0.267788 -0.351602,-0.177925 -0.416269,-0.253744 -0.343107,-0.267788 z M 41.81893,33.86613 c -0.928402,-0.09086 -2.382366,0.658284 -2.931731,1.21063 -0.160994,0.458402 -3.286137,3.319025 -1.32221,2.463102 1.452136,-1.370075 4.122704,-1.560467 4.954097,-3.26368 -0.139408,-0.25549 -0.39069,-0.379763 -0.700156,-0.410052 z m 10.976559,1.21063 c 0.374793,-5.41e-4 0.465213,0.102932 -0.404473,0.401684 -0.170692,0.338522 -0.50452,-0.0096 -0.739209,0.05579 -0.899531,-0.165478 0.519027,-0.456575 1.143682,-0.457474 z m -27.652001,0.178526 c -0.764339,0.822481 1.138569,3.040158 1.944258,3.818782 0.447192,0.04571 0.903351,0.07354 1.350101,0.0084 0.3645,-1.410934 -1.978311,-3.138677 -3.294359,-3.827152 z m 11.099293,0.331947 c -0.908611,0.356685 -2.395899,2.833999 -2.633258,4.376676 -0.171871,0.463466 0.3364,0.259763 0.482579,0.08927 1.788983,-0.781679 2.326723,-2.666111 2.150679,-4.465939 z m -24.45527,0.546736 c 0.148504,0.01072 0.376994,0.472885 -0.09204,0.184105 0.0035,-0.141406 0.04254,-0.187673 0.09204,-0.184105 z m 41.278556,0.574629 c 0.158094,-0.02271 0.313875,0.442294 -0.136679,0.228738 0.03075,-0.159015 0.08398,-0.221167 0.136679,-0.228738 z m -12.49403,0.19248 c -1.909658,0.324614 -3.646205,1.773764 -3.913625,3.732309 0.170407,0.203614 0.391687,-0.358308 0.532791,-0.253842 1.016992,-0.941568 3.587052,-2.632631 3.380834,-3.478467 z M 24.058383,38.41297 c -0.289556,-0.02548 -0.556066,0.0014 -0.708526,0.111586 -2.704705,0.07461 1.022935,1.037524 1.58163,0.767103 1.082133,-0.247797 -0.0045,-0.80225 -0.873104,-0.878683 z m 4.228835,1.430998 c -0.503043,-0.09663 -0.870666,0.197652 -0.06137,1.012577 0.266245,0.315507 1.220471,1.621849 0.931683,0.323578 0.26915,-0.753405 -0.36727,-1.239516 -0.870313,-1.336155 z m 22.259958,0.781051 c 0.400816,0.03925 3.41941,0.949545 1.244103,0.471421 l -0.237105,-0.06694 -0.245474,-0.06973 c -0.737215,-0.264337 -0.895127,-0.347825 -0.761524,-0.334742 z m -15.919495,0.638796 c -0.108268,0.0766 -0.07366,0.826083 0.15342,0.223157 -0.0662,-0.198766 -0.117328,-0.248694 -0.15342,-0.223157 z m 11.941714,0.05022 c 0.03383,-0.130211 0.901908,0.316116 0.329157,0.35984 -0.258054,-0.207206 -0.340435,-0.316436 -0.329157,-0.35984 z m -12.878977,1.311049 c -0.268099,0.02354 -0.497711,0.309192 -0.371,1.012577 -0.01095,0.494818 0.04678,1.402615 0.569054,0.357053 0.804033,-0.717458 0.248777,-1.408864 -0.198054,-1.36963 z m 7.129881,3.375257 c 0.100904,0.03673 -0.01285,0.4796 -0.178525,0.142265 0.08734,-0.122113 0.144893,-0.154507 0.178525,-0.142265 z m -20.173436,0.981893 c 0.170278,-0.0694 -0.067,0.574001 -0.320789,0.365421 0.16173,-0.239262 0.26403,-0.342287 0.320789,-0.365421 z"
     id="path828" />
</svg>
