<?xml version="1.0" encoding="UTF-8" standalone="no"?>
<!-- Created with Inkscape (http://www.inkscape.org/) -->

<svg
   xmlns:dc="http://purl.org/dc/elements/1.1/"
   xmlns:cc="http://creativecommons.org/ns#"
   xmlns:rdf="http://www.w3.org/1999/02/22-rdf-syntax-ns#"
   xmlns:svg="http://www.w3.org/2000/svg"
   xmlns="http://www.w3.org/2000/svg"
   xmlns:sodipodi="http://sodipodi.sourceforge.net/DTD/sodipodi-0.dtd"
   xmlns:inkscape="http://www.inkscape.org/namespaces/inkscape"
   width="66mm"
   height="66mm"
   viewBox="0 0 66 66"
   version="1.1"
   id="svg8"
   inkscape:version="0.92.5 (2060ec1f9f, 2020-04-08)"
   sodipodi:docname="windows-layout-symbolic.svg">
  <defs
     id="defs2" />
  <sodipodi:namedview
     id="base"
     pagecolor="#ffffff"
     bordercolor="#666666"
     borderopacity="1.0"
     inkscape:pageopacity="0.0"
     inkscape:pageshadow="2"
     inkscape:zoom="2.8"
     inkscape:cx="40.004796"
     inkscape:cy="38.677"
     inkscape:document-units="mm"
     inkscape:current-layer="layer1"
     showgrid="false"
     inkscape:window-width="2560"
     inkscape:window-height="1264"
     inkscape:window-x="0"
     inkscape:window-y="40"
     inkscape:window-maximized="1" />
  <metadata
     id="metadata5">
    <rdf:RDF>
      <cc:Work
         rdf:about="">
        <dc:format>image/svg+xml</dc:format>
        <dc:type
           rdf:resource="http://purl.org/dc/dcmitype/StillImage" />
        <dc:title />
      </cc:Work>
    </rdf:RDF>
  </metadata>
  <g
     inkscape:label="Layer 1"
     inkscape:groupmode="layer"
     id="layer1"
     transform="translate(0,-231)">
    <g
       style="fill:#000000;fill-opacity:1;stroke:none"
       id="g1310"
       transform="translate(-0.1835057,230.60191)">
      <g
         style="opacity:1;fill:#000000;fill-opacity:1;stroke:none"
         transform="matrix(0.00150964,-0.99999886,0.9999994,0.00109236,0,0)"
         inkscape:transform-center-y="-6.2532644"
         inkscape:transform-center-x="-1.2004163"
         id="rect27462-9" />
      <g
         style="opacity:1;fill:#000000;fill-opacity:1;stroke:none"
         transform="matrix(0.00150964,-0.99999886,0.9999994,0.00109236,0,0)"
         inkscape:transform-center-y="-6.235901"
         inkscape:transform-center-x="-17.095648"
         id="rect27466-1" />
      <g
         style="opacity:1;fill:#000000;fill-opacity:1;stroke:none"
         transform="matrix(0.00150964,-0.99999886,0.9999994,0.00109236,0,0)"
         inkscape:transform-center-y="-6.2445092"
         inkscape:transform-center-x="-9.2152927"
         id="rect27468-27">
        <path
           inkscape:connector-curvature="0"
           id="path2190"
           style="color:#000000;font-style:normal;font-variant:normal;font-weight:normal;font-stretch:normal;font-size:medium;line-height:normal;font-family:sans-serif;font-variant-ligatures:normal;font-variant-position:normal;font-variant-caps:normal;font-variant-numeric:normal;font-variant-alternates:normal;font-feature-settings:normal;text-indent:0;text-align:start;text-decoration:none;text-decoration-line:none;text-decoration-style:solid;text-decoration-color:#000000;letter-spacing:normal;word-spacing:normal;text-transform:none;writing-mode:lr-tb;direction:ltr;text-orientation:mixed;dominant-baseline:auto;baseline-shift:baseline;text-anchor:start;white-space:normal;shape-padding:0;clip-rule:nonzero;display:inline;overflow:visible;visibility:visible;isolation:auto;mix-blend-mode:normal;color-interpolation:sRGB;color-interpolation-filters:linearRGB;solid-color:#000000;solid-opacity:1;vector-effect:none;fill:#000000;fill-opacity:1;fill-rule:nonzero;stroke:none;stroke-linecap:butt;stroke-linejoin:round;stroke-miterlimit:4;stroke-dasharray:none;stroke-dashoffset:0;stroke-opacity:1;color-rendering:auto;image-rendering:auto;shape-rendering:auto;text-rendering:auto;enable-background:accumulate"
           d="m -53.611328,38.589844 c -0.109973,1.26e-4 -0.199093,0.08924 -0.199219,0.199218 v 5.919922 c 1.26e-4,0.109974 0.08924,0.199093 0.199219,0.199219 h 4.578125 c 0.109974,-1.26e-4 0.199093,-0.08924 0.199219,-0.199219 v -5.919922 c -1.26e-4,-0.109973 -0.08925,-0.199092 -0.199219,-0.199218 z m 0,7.880859 c -0.109974,1.26e-4 -0.199093,0.08924 -0.199219,0.199219 v 5.919922 c 1.26e-4,0.109973 0.08925,0.199092 0.199219,0.199218 h 4.578125 c 0.109973,-1.26e-4 0.199093,-0.08924 0.199219,-0.199218 v -5.919922 c -1.26e-4,-0.109974 -0.08924,-0.199093 -0.199219,-0.199219 z m 0,-15.894531 c -0.109974,1.26e-4 -0.199093,0.08925 -0.199219,0.199219 v 5.917968 c 1.26e-4,0.109974 0.08924,0.199093 0.199219,0.199219 h 4.578125 c 0.109974,-1.26e-4 0.199093,-0.08924 0.199219,-0.199219 v -5.917968 c -1.26e-4,-0.109974 -0.08924,-0.199093 -0.199219,-0.199219 z m 6.235942,7.98928 c -0.109974,1.26e-4 -0.199093,0.08924 -0.199219,0.199219 v 5.919922 c 1.26e-4,0.109974 0.08924,0.199093 0.199219,0.199219 h 4.578125 c 0.109974,-1.26e-4 0.199093,-0.08924 0.199219,-0.199219 v -5.919922 c -1.26e-4,-0.109974 -0.08924,-0.199093 -0.199219,-0.199219 z m 0,7.88086 c -0.109973,1.26e-4 -0.199093,0.08924 -0.199219,0.199218 v 5.919922 c 1.26e-4,0.109974 0.08924,0.199093 0.199219,0.199219 h 4.578125 c 0.109974,-1.26e-4 0.199093,-0.08924 0.199219,-0.199219 V 46.64553 c -1.26e-4,-0.109973 -0.08925,-0.199092 -0.199219,-0.199218 z m 0,-15.894532 c -0.109974,1.26e-4 -0.199093,0.08924 -0.199219,0.199219 v 5.917969 c 1.26e-4,0.109973 0.08925,0.199092 0.199219,0.199218 h 4.578125 c 0.109973,-1.26e-4 0.199093,-0.08924 0.199219,-0.199218 v -5.917969 c -1.26e-4,-0.109974 -0.08924,-0.199093 -0.199219,-0.199219 z m 6.236981,7.989412 c -0.110739,1.23e-4 -0.200177,0.09044 -0.199219,0.201172 v 5.917968 c 1.26e-4,0.109973 0.08925,0.199093 0.199219,0.199219 h 4.576172 c 0.109973,-1.26e-4 0.199093,-0.08925 0.199219,-0.199219 v -5.917968 c 9.58e-4,-0.110735 -0.08848,-0.201049 -0.199219,-0.201172 z m 0,7.880859 c -0.109973,1.26e-4 -0.199093,0.08925 -0.199219,0.199219 v 5.919922 c 1.26e-4,0.109973 0.08925,0.199093 0.199219,0.199219 h 4.576172 c 0.109973,-1.26e-4 0.199093,-0.08925 0.199219,-0.199219 V 46.62127 c -1.26e-4,-0.109973 -0.08925,-0.199093 -0.199219,-0.199219 z m 0,-15.894531 c -0.109973,1.26e-4 -0.199093,0.08925 -0.199219,0.199219 v 5.917969 c 1.26e-4,0.109973 0.08925,0.199092 0.199219,0.199218 h 4.576172 c 0.109973,-1.26e-4 0.199093,-0.08925 0.199219,-0.199218 v -5.917969 c -1.26e-4,-0.109973 -0.08925,-0.199093 -0.199219,-0.199219 z m 6.234803,7.991172 c -0.109973,1.26e-4 -0.199093,0.08925 -0.199219,0.199219 v 5.917969 c 1.26e-4,0.109973 0.08925,0.199093 0.199219,0.199219 h 4.578125 c 0.109973,-1.26e-4 0.199093,-0.08925 0.199219,-0.199219 v -5.917969 c -1.26e-4,-0.109973 -0.08925,-0.199093 -0.199219,-0.199219 z m 0,7.878907 c -0.109973,1.26e-4 -0.199093,0.08924 -0.199219,0.199218 v 5.919922 c 1.26e-4,0.109973 0.08925,0.199093 0.199219,0.199219 h 4.578125 c 0.109973,-1.26e-4 0.199093,-0.08925 0.199219,-0.199219 v -5.919922 c -1.26e-4,-0.109973 -0.08925,-0.199092 -0.199219,-0.199218 z m 0,-15.894532 c -0.109973,1.26e-4 -0.199093,0.08925 -0.199219,0.199219 v 5.919922 c 1.26e-4,0.109973 0.08925,0.199093 0.199219,0.199219 h 4.578125 c 0.109973,-1.26e-4 0.199093,-0.08925 0.199219,-0.199219 v -5.919922 c -1.26e-4,-0.109973 -0.08925,-0.199093 -0.199219,-0.199219 z m 6.236742,7.991163 c -0.109973,1.26e-4 -0.199092,0.08924 -0.199218,0.199218 v 5.917969 c 1.26e-4,0.109973 0.08925,0.199093 0.199218,0.199219 h 4.576172 c 0.109973,-1.26e-4 0.199093,-0.08925 0.199219,-0.199219 v -5.917969 c -1.26e-4,-0.109973 -0.08925,-0.199092 -0.199219,-0.199218 z m 0,7.878906 c -0.110739,1.23e-4 -0.200176,0.09044 -0.199218,0.201172 v 5.917969 c 1.26e-4,0.109973 0.08925,0.199092 0.199218,0.199218 h 4.576172 c 0.109973,-1.26e-4 0.199093,-0.08925 0.199219,-0.199218 v -5.917969 c 9.58e-4,-0.110735 -0.08848,-0.201049 -0.199219,-0.201172 z m 0,-15.894531 c -0.109973,1.26e-4 -0.199092,0.08925 -0.199218,0.199219 v 5.919921 c 1.26e-4,0.109973 0.08925,0.199093 0.199218,0.199219 h 4.576172 c 0.109973,-1.26e-4 0.199093,-0.08925 0.199219,-0.199219 v -5.919921 c -1.26e-4,-0.109973 -0.08925,-0.199093 -0.199219,-0.199219 z m 6.234795,7.99116 c -0.109973,1.26e-4 -0.199093,0.08925 -0.199219,0.199219 v 5.917969 c -9.58e-4,0.110735 0.08848,0.201049 0.199219,0.201172 h 4.578125 c 0.110739,-1.23e-4 0.200177,-0.09044 0.199219,-0.201172 v -5.917969 c -1.26e-4,-0.109973 -0.08925,-0.199093 -0.199219,-0.199219 z m 0,7.88086 c -0.109973,1.26e-4 -0.199093,0.08924 -0.199219,0.199218 v 5.917969 c 1.26e-4,0.109973 0.08925,0.199093 0.199219,0.199219 h 4.578125 c 0.109973,-1.26e-4 0.199093,-0.08925 0.199219,-0.199219 v -5.917969 c -1.26e-4,-0.109973 -0.08925,-0.199092 -0.199219,-0.199218 z m 0,-15.896485 c -0.109973,1.26e-4 -0.199093,0.08925 -0.199219,0.199219 v 5.919922 c 1.26e-4,0.109973 0.08925,0.199092 0.199219,0.199218 h 4.578125 c 0.109973,-1.26e-4 0.199093,-0.08925 0.199219,-0.199218 v -5.919922 c -1.26e-4,-0.109973 -0.08925,-0.199093 -0.199219,-0.199219 z m 6.236753,7.991172 c -0.109973,1.26e-4 -0.199093,0.08925 -0.199219,0.199219 v 5.919922 c 1.26e-4,0.109973 0.08925,0.199093 0.199219,0.199219 h 4.576171 c 0.109973,-1.26e-4 0.199093,-0.08925 0.199219,-0.199219 v -5.919922 c -1.26e-4,-0.109973 -0.08925,-0.199093 -0.199219,-0.199219 z m 0,7.88086 c -0.109973,1.26e-4 -0.199093,0.08925 -0.199219,0.199219 v 5.917968 c 1.26e-4,0.109973 0.08925,0.199093 0.199219,0.199219 h 4.576171 c 0.109973,-1.26e-4 0.199093,-0.08925 0.199219,-0.199219 v -5.917968 c -1.26e-4,-0.109973 -0.08925,-0.199093 -0.199219,-0.199219 z m 0,-15.896484 c -0.109973,1.26e-4 -0.199093,0.08925 -0.199219,0.199218 v 5.919922 c 1.26e-4,0.109973 0.08925,0.199093 0.199219,0.199219 h 4.576171 c 0.109973,-1.26e-4 0.199093,-0.08925 0.199219,-0.199219 v -5.919922 c -1.26e-4,-0.109973 -0.08925,-0.199092 -0.199219,-0.199218 z m 3.276178,-28.3572668 0.0029,2.6807555 0.390282,-5.892e-4 -0.0029,-2.6807555 z m 0.975703,-0.00147 0.0029,2.6807555 0.390282,-5.892e-4 -0.0029,-2.6807555 z m 1.365984,-0.00206 -0.390281,5.892e-4 0.0029,2.6807555 0.390281,-5.892e-4 z m -41.841696,0.7990554 -0.253579,-0.2975205 -0.319626,0.2689282 0.251654,0.2991367 0.321537,-0.2705374 z m -0.628822,-0.5161923 -0.385564,-0.064837 -0.07207,0.4113901 0.385127,0.067313 0.0725,-0.4138509 z m -0.813676,0.00891 -0.337138,0.1981837 0.209209,0.3613576 0.338394,-0.1960078 -0.210459,-0.3635201 z m -0.617802,0.5298443 -0.130964,0.368473 0.392596,0.1422421 0.133325,-0.3676142 -0.394945,-0.1430931 z m -0.132852,0.8028574 0.136489,0.3663509 0.392285,-0.1434309 -0.134132,-0.3672088 -0.394629,0.1442871 z m 0.41426,0.7002053 0.340079,0.1928096 0.208417,-0.3619908 -0.338822,-0.194984 -0.209665,0.3641556 z m 0.767536,0.2699194 0.384543,-0.07095 -0.07297,-0.4111719 -0.384978,0.068477 0.0734,0.4136317 z m 0.761675,-0.2866658 0.249072,-0.30151 -0.320214,-0.2679611 -0.250997,0.2998972 0.32213,0.269565 z m 0.427344,-0.7091589 -0.0588,-0.3909048 -0.389697,5.883e-4 4.27e-4,0.3909929 0.448053,-6.764e-4 z m -1.690521,0.6546407 c 0.466393,0.2681476 1.067292,0.1055979 1.336229,-0.3610685 0.268938,-0.4666675 0.107964,-1.0674863 -0.358428,-1.3356338 -0.466394,-0.2681481 -1.067395,-0.1054187 -1.336333,0.3612488 -0.268937,0.4666664 -0.107861,1.0673054 0.358532,1.3354535 z m 0.167411,-0.2904956 c -0.309144,-0.1777391 -0.414015,-0.5679366 -0.235382,-0.877903 0.178632,-0.3099673 0.569216,-0.4155463 0.87836,-0.2378072 0.309143,0.1777386 0.41391,0.5681144 0.235279,0.8780818 -0.178633,0.3099664 -0.569113,0.415367 -0.878257,0.2376284 z m 3.686688,-1.0989465 6.69e-4,0.6126134 -0.153154,2.312e-4 -6.69e-4,-0.6126134 z m 0.306307,-4.624e-4 0.0012,1.0720735 -0.153154,2.312e-4 -0.0012,-1.0720735 z m 0.306308,-4.625e-4 0.0012,1.0720736 -0.153154,2.312e-4 -0.0012,-1.0720736 z m 0.458957,-0.4601536 -1.990995,0.00301 0.0015,1.3783802 8.4e-5,0.076577 0.536622,0.5352272 0.07658,-1.156e-4 1.378381,-0.00208 z m -0.152986,0.1533845 0.0018,1.684687 -1.225227,0.00185 -5.02e-4,-0.45946 -0.459461,6.936e-4 -0.0013,-1.2252269 z m 3.913766,0.8363758 c -2.24e-4,-0.1890296 -0.08017,-0.371688 -0.221006,-0.5051251 -0.140865,-0.1334589 -0.333339,-0.2088447 -0.532283,-0.2085444 l -5.78e-4,9e-7 c -0.0766,4.628e-4 -0.164733,0.00744 -0.254104,0.043677 -0.232991,0.094487 -0.413842,0.2358959 -0.553598,0.3649962 v -2.314e-4 c -0.04062,0.035654 -0.08187,0.076287 -0.121524,0.1167862 l 4.12e-4,0.377255 c 0.04008,0.040887 0.08167,0.082667 0.122025,0.1213815 v -3.471e-4 c 0.140005,0.1286374 0.321041,0.2694556 0.554152,0.3632035 0.08944,0.035969 0.177581,0.042742 0.254199,0.042909 l 5.78e-4,-9e-7 c 0.198979,-3.004e-4 0.391269,-0.076343 0.531825,-0.2102099 0.140534,-0.1338467 0.220091,-0.3167008 0.219902,-0.5057304 v -6.13e-5 z m -1.471782,0.645032 c -0.122472,-0.084536 -0.228623,-0.1765873 -0.319362,-0.2643562 v 3.471e-4 c -0.159155,-0.1607361 -0.349204,-0.3769078 -0.349204,-0.3769078 0,0 0.186203,-0.2297052 0.348139,-0.3793352 v 3.472e-4 c 0.09042,-0.087934 0.196214,-0.180245 0.318306,-0.2650803 -0.0014,-0.00378 -0.0027,-0.00765 -0.0041,-0.011415 -0.07752,-0.2038212 -0.180507,-0.3837476 -0.30896,-0.5397952 l -0.601371,9.079e-4 9.23e-4,0.8452797 1e-6,0.00104 7.6e-4,0.6953113 9.25e-4,0.8463557 0.60137,-9.079e-4 c 0.128112,-0.1564347 0.230705,-0.3358048 0.307783,-0.5382131 0.0017,-0.00446 0.0032,-0.00904 0.0048,-0.013521 z m 34.514065,9.2868566 -0.792973,-0.0027 -0.01129,3.968769 0.792973,0.0027 z m -0.01542,5.554714 -0.794923,-7.54e-4 -0.01238,4.761741 0.792973,0.0027 z m -0.01845,6.351594 -0.792973,-0.0027 -0.0047,1.033211 0.794924,7.53e-4 z m 0.79379,-17.128162 c -5.11e-4,-0.068539 -0.0566,-0.1236045 -0.125134,-0.122858 l -3.38867,0.00512 c -0.06854,-5.4e-4 -0.124505,0.054695 -0.124866,0.1232355 l 0.0034,3.0820275 c 5.11e-4,0.06854 0.0566,0.123605 0.125134,0.122858 l 3.388671,-0.0051 c 0.06854,5.4e-4 0.124504,-0.05469 0.124865,-0.123236 z m -5.324372,5.228744 -0.792973,-0.0027 -0.01129,3.96877 0.792972,0.0027 z m -0.01542,5.554715 -0.792971,-7.57e-4 -0.01433,4.761743 0.792972,0.0027 z m -0.01845,6.351594 -0.792973,-0.0027 -0.0028,1.033207 0.79297,7.56e-4 z m -4.540348,-11.899403 -0.794925,-0.0027 -0.01129,3.968769 0.794926,0.0027 z m -0.01737,5.554717 -0.79297,-7.57e-4 -0.01433,4.761744 0.794926,0.0027 z m -0.01845,6.351594 -0.792973,-0.0027 -0.0028,1.033208 0.79297,7.56e-4 z m -4.860602,-11.846185 -0.794925,-0.0027 -0.01129,3.968769 0.794926,0.0027 z m -0.01542,5.556667 -0.794925,-0.0027 -0.01433,4.763697 0.794924,7.53e-4 z m -0.01845,6.349641 -0.794925,-0.0027 -0.0028,1.033208 0.794926,0.0027 z m -4.692623,-11.836673 -0.792971,-7.56e-4 -0.01129,3.968769 0.792971,7.56e-4 z m -0.01541,5.556668 -0.792973,-0.0027 -0.01433,4.763696 0.79297,7.56e-4 z m -0.01845,6.34964 -0.792971,-7.56e-4 -0.0047,1.031258 0.794926,0.0027 z m -5.094906,-11.781377 -0.792973,-0.0027 -0.01129,3.968769 0.792973,0.0027 z m -0.01541,5.556666 -0.794925,-0.0027 -0.01238,4.763694 0.792971,7.56e-4 z m -0.01845,6.349642 -0.794926,-0.0027 -0.0028,1.033208 0.794924,0.0027 z m -4.450572,-11.962039 -0.792973,-0.0027 -0.01129,3.968769 0.792973,0.0027 z m -0.01542,5.556667 -0.792972,-0.0027 -0.01433,4.761744 0.792973,0.0027 z m -0.01845,6.349642 -0.792973,-0.0027 -0.0028,1.033208 0.792972,0.0027 z m -4.341003,-11.78447 -0.794924,-7.53e-4 -0.01129,3.968769 0.794923,7.53e-4 z m -0.01737,5.556671 -0.792971,-7.56e-4 -0.01433,4.761742 0.794925,0.0027 z m -0.0165,6.349637 -0.794924,-7.53e-4 -0.0028,1.033208 0.79297,7.56e-4 z m -4.450497,-11.893678 -0.792973,-0.0027 -0.01129,3.968769 0.792973,0.0027 z m -0.01542,5.556666 -0.794924,-0.0027 -0.01238,4.761741 0.792973,0.0027 z m -0.01845,6.349642 -0.792973,-0.0027 -0.0047,1.033211 0.794925,0.0027 z M -56.509117,3.1795613 c -0.166878,-0.2882434 -0.507485,-0.4285716 -0.829164,-0.3418667 -0.321681,0.086705 -0.545577,0.3793145 -0.545213,0.7124395 3.64e-4,0.333125 0.224898,0.6250576 0.546767,0.710791 0.321868,0.085733 0.662167,-0.055788 0.828415,-0.3445338 l -0.116094,-0.066899 c -0.136315,0.2367568 -0.413774,0.3523079 -0.677689,0.282011 -0.263915,-0.070297 -0.447116,-0.308426 -0.447415,-0.5815712 -2.98e-4,-0.2731452 0.182382,-0.5118266 0.446143,-0.5829202 0.263761,-0.071093 0.541471,0.043455 0.678302,0.2797992 z m 0.210636,0.3011414 0.02248,0.1339175 -0.736733,0.00111 -1.46e-4,-0.1339515 z m 0.561231,0.066333 c -8.49e-4,-0.7772588 -0.634437,-1.4091998 -1.411695,-1.4080259 -0.777259,0.00117 -1.409465,0.6350252 -1.408616,1.4122836 8.49e-4,0.7772585 0.634438,1.4091992 1.411696,1.408026 0.777259,-0.00117 1.409464,-0.6350248 1.408615,-1.4122837 z m -0.263672,3.981e-4 c 6.93e-4,0.6340423 -0.51119,1.1453041 -1.145233,1.1462608 -0.634042,9.571e-4 -1.145089,-0.5087602 -1.14578,-1.1428022 -6.94e-4,-0.634042 0.509237,-1.1453006 1.14328,-1.1462579 0.634042,-9.575e-4 1.147041,0.5087569 1.147733,1.1427993 z m 17.723605,4.6646528 c -5.07e-4,-0.067776 -0.0554,-0.1225303 -0.123181,-0.122861 l -3.388669,0.00512 c -0.06854,-5.4e-4 -0.124505,0.054695 -0.124866,0.1232354 l 0.0034,3.082028 c 5.11e-4,0.06854 0.0566,0.123605 0.125134,0.122858 l 3.388669,-0.0051 c 0.06778,-5.35e-4 0.122554,-0.05545 0.122913,-0.123232 z m -4.062498,0.00613 c -5.07e-4,-0.067776 -0.0554,-0.1225303 -0.123181,-0.122861 l -3.390622,0.00512 c -0.06778,5.349e-4 -0.122554,0.055455 -0.122913,0.1232325 l 0.0034,3.0820289 c 5.07e-4,0.06778 0.0554,0.122529 0.123181,0.122861 l 3.390622,-0.0051 c 0.06778,-5.35e-4 0.122554,-0.05545 0.122913,-0.123232 z m -4.378904,0.00661 C -46.719228,8.1570519 -46.774124,8.1023 -46.8419,8.1019693 l -3.390623,0.00512 c -0.06778,5.349e-4 -0.122554,0.055455 -0.122913,0.1232325 l 0.0034,3.0820272 c 5.07e-4,0.06778 0.0554,0.122531 0.123181,0.122861 l 3.390624,-0.0051 c 0.06778,-5.35e-4 0.122553,-0.05546 0.122912,-0.123233 z m 26.121081,-0.039434 c -5.11e-4,-0.068539 -0.0566,-0.1236045 -0.125134,-0.122858 l -3.38867,0.00512 c -0.06778,5.349e-4 -0.122554,0.055455 -0.122913,0.1232326 l 0.0034,3.0820278 c 5.07e-4,0.06778 0.0554,0.12253 0.123181,0.122861 l 3.38867,-0.0051 c 0.06854,5.4e-4 0.124504,-0.05469 0.124866,-0.123235 z m -4.51367,0.00681 c -5.07e-4,-0.067776 -0.0554,-0.1225303 -0.123181,-0.122861 l -3.390623,0.00512 c -0.06778,5.349e-4 -0.122554,0.055455 -0.122913,0.1232325 l 0.0034,3.0820279 c 5.07e-4,0.06778 0.0554,0.12253 0.123181,0.122861 l 3.390624,-0.0051 c 0.06778,-5.35e-4 0.122553,-0.05546 0.122912,-0.123232 z m -4.435544,0.0067 c -5.07e-4,-0.067776 -0.0554,-0.1225308 -0.123182,-0.122861 l -3.390623,0.00512 c -0.06778,5.354e-4 -0.122553,0.055455 -0.122912,0.1232326 l 0.0034,3.0820278 c 5.07e-4,0.06778 0.0554,0.122531 0.123182,0.122861 l 3.390623,-0.0051 c 0.06778,-5.35e-4 0.122553,-0.05546 0.122912,-0.123232 z m -4.402342,0.00665 c -5.11e-4,-0.068539 -0.0566,-0.1236046 -0.125134,-0.1228581 l -3.388671,0.00512 c -0.06854,-5.394e-4 -0.124504,0.054695 -0.124865,0.1232355 l 0.0034,3.082028 c 5.11e-4,0.06854 0.0566,0.123605 0.125135,0.122858 l 3.38867,-0.0051 c 0.06854,5.4e-4 0.124504,-0.0547 0.124866,-0.123235 z m 17.941398,-0.027085 c -5.07e-4,-0.067776 -0.0554,-0.1225308 -0.123182,-0.122861 l -3.390623,0.00512 c -0.06778,5.354e-4 -0.122553,0.055455 -0.122912,0.1232326 l 0.0034,3.0820278 c 5.07e-4,0.06778 0.0554,0.122531 0.123182,0.122861 l 3.390623,-0.0051 c 0.06778,-5.35e-4 0.122554,-0.05545 0.122913,-0.123232 z m -39.466909,2.3374114 c -0.02122,-0.11714 -0.167326,-0.159376 -0.247851,-0.07165 l -0.575586,0.577085 c -0.134972,0.138303 0.0724,0.340674 0.207371,0.202371 l 0.575586,-0.577085 c 0.03459,-0.03407 0.04969,-0.08327 0.04019,-0.130862 z m 1.152342,-0.477838 c -4.76e-4,-0.4361946 -0.35812,-0.7931965 -0.793739,-0.7925389 -0.436051,6.583e-4 -0.792769,0.3587386 -0.792293,0.7949329 4.77e-4,0.436483 0.358121,0.793197 0.793883,0.792539 0.435619,-6.57e-4 0.792338,-0.35845 0.791861,-0.794932 z m -0.289548,4.37e-4 c 3.07e-4,0.280617 -0.222732,0.504525 -0.502773,0.504948 -0.280329,4.23e-4 -0.504,-0.222811 -0.504307,-0.503427 -3.06e-4,-0.2804731 0.222733,-0.5045256 0.503061,-0.5049488 0.280041,-4.227e-4 0.503569,0.2229556 0.503875,0.5034278 z m -2.418472,-1.038315 -0.263672,3.981e-4 -0.03312,17.9531869 0.265627,0.0016 z m -0.131863,4.055e-4 -0.03149,17.9535845 M -9.476689,0.88930692 C -9.4773314,0.78921211 -9.5584317,0.70832264 -9.658528,0.7079407 l -49.677709,0.0749955 c -0.100858,-3.8974e-4 -0.182969,0.081059 -0.183396,0.18191759 l 0.0589,53.91595921 c 6.47e-4,0.100857 0.08293,0.182057 0.183792,0.181363 l 49.6777096,-0.075 c 0.1000948,-6.84e-4 0.181018,-0.08182 0.1814421,-0.181914 z m -0.3650336,0.18414498 0.058495,53.5487721 -49.3124754,0.07444 -0.05849,-53.548772 z m -52.7777514,0.8397579 0.002,1.8499978 c 1.12e-4,0.1024899 -0.08231,0.1851243 -0.184798,0.185279 l -1.849998,0.00279 c -0.10249,1.547e-4 -0.18509,-0.082231 -0.185202,-0.1847205 l -0.002,-1.8499978 c -1.12e-4,-0.1024899 0.08231,-0.1851243 0.184798,-0.185279 l 1.849998,-0.00279 c 0.10249,-1.547e-4 0.18509,0.082231 0.185202,0.1847205 z m 0.0028,2.5899973 8.08e-4,0.7399991 c 1.12e-4,0.1024899 -0.08231,0.1851244 -0.184798,0.1852791 l -1.849999,0.00279 c -0.10249,1.548e-4 -0.18509,-0.082231 -0.185202,-0.1847205 l -8.08e-4,-0.7399991 c -1.12e-4,-0.1024899 0.08231,-0.1851244 0.184798,-0.1852791 l 1.849999,-0.00279 c 0.10249,-1.547e-4 0.18509,0.082231 0.185202,0.1847205 z m 1.47717,-2.5922316 0.0036,3.3299962 c 1.12e-4,0.1024899 -0.08231,0.1851244 -0.184798,0.1852791 l -0.739999,0.00112 c -0.10249,1.548e-4 -0.18509,-0.082231 -0.185202,-0.1847205 l -0.0036,-3.3299962 c -1.12e-4,-0.1024899 0.08231,-0.1851243 0.184798,-0.185279 l 0.74,-0.00112 c 0.10249,-1.548e-4 0.18509,0.082231 0.185202,0.1847204 z m -1.632999,49.5199445 -0.794922,-7.53e-4 -0.01129,3.968769 0.794922,7.53e-4 z m -0.01541,5.556668 -0.794924,-0.0027 -0.01434,4.763695 0.794932,7.54e-4 z m -0.01845,6.34964 -0.794932,-7.53e-4 -0.0028,1.031255 0.794924,0.0027 z m 2.88095,-62.50048002 c -8.73e-4,-0.0726946 -0.06024,-0.13104174 -0.132937,-0.13065873 l -5.865227,0.008854 c -0.07194,8.9002e-4 -0.130014,0.0591101 -0.130717,0.13105679 l 0.07092,64.92376096 c -2.04e-4,0.07271 0.0583,0.13193 0.131005,0.132614 l 5.865227,-0.0089 c 0.07347,1.75e-4 0.133038,-0.05954 0.132675,-0.133013 z m -0.265485,0.13321337 0.07063,64.65813565 -5.599607,0.0085 -0.07063,-64.65813525 z" />
      </g>
    </g>
  </g>
</svg>
